<svg width="699" height="205" viewBox="0 0 699 205" fill="none" xmlns="http://www.w3.org/2000/svg">
<path d="M131.36 104.962C131.36 83.5129 122.83 66.0506 106.15 53.1434C91.5542 41.9446 74.4945 36.2495 55.5392 36.2495H0V173.104H55.5392C76.2005 173.104 91.7437 168.36 106.15 156.401C121.693 143.304 131.36 125.461 131.36 104.962ZM83.9722 104.962C83.4035 130.017 68.2393 136.471 44.7347 136.471V73.4536C70.1349 73.4536 83.9722 84.0823 83.9722 104.962Z" fill="white"/>
<path d="M272.619 105.044C274.274 60.7415 239.527 35.121 204.78 36.5443C169.733 33.5197 134.986 60.5632 135.738 104.687C133.933 149.701 169.883 174.434 204.78 172.832C239.978 175.857 273.07 148.278 272.619 105.044ZM235.014 104.866C235.014 127.106 220.424 136.18 204.78 136.18C189.287 136.18 173.342 125.505 173.342 104.866C173.342 82.0926 189.287 73.3742 204.78 73.3742C220.875 73.3742 235.014 85.651 235.014 104.866Z" fill="white"/>
<path d="M409.25 36.978H275.425V72.6621H329.637L258.176 173.451H397.688V137.009H339.305L409.25 36.978Z" fill="white"/>
<path d="M699 171.09L652.749 116.614C671.325 109.781 680.992 96.6843 680.992 79.9809C680.992 48.4723 656.351 34.4263 626.591 34.4263H568.019V171.09H612.943V131.988L641.566 171.09H699ZM633.036 79.9809C632.846 88.5224 625.453 91.9387 617.302 91.9387H612.943V68.7813H617.302C625.074 68.4017 633.036 72.1987 633.036 79.9809Z" fill="white"/>
<path fill-rule="evenodd" clip-rule="evenodd" d="M553.113 21.306C549.337 9.54743 536.739 3.06921 524.996 6.84968L427.996 38.0767C416.253 41.8572 409.784 54.4736 413.56 66.2322C417.335 77.9908 429.933 84.469 441.677 80.6885L538.676 49.4615C550.42 45.681 556.888 33.0646 553.113 21.306Z" fill="white"/>
<path fill-rule="evenodd" clip-rule="evenodd" d="M553.113 79.8905C549.337 68.1319 536.739 61.6537 524.996 65.4342L427.996 96.6612C416.253 100.442 409.784 113.058 413.56 124.817C417.335 136.575 429.933 143.053 441.677 139.273L538.676 108.046C550.42 104.265 556.888 91.6491 553.113 79.8905Z" fill="white"/>
<path fill-rule="evenodd" clip-rule="evenodd" d="M553.113 138.475C549.337 126.716 536.739 120.238 524.996 124.019L427.996 155.246C416.253 159.026 409.784 171.643 413.56 183.401C417.335 195.16 429.933 201.638 441.677 197.857L538.676 166.63C550.42 162.85 556.888 150.234 553.113 138.475Z" fill="white"/>
</svg>
