<svg width="161" height="47" viewBox="0 0 161 47" fill="none" xmlns="http://www.w3.org/2000/svg">
<path d="M30.1599 24.0987C30.1599 19.1742 28.2014 15.1649 24.3716 12.2015C21.0205 9.63026 17.1037 8.32269 12.7516 8.32269H0V39.7441H12.7516C17.4954 39.7441 21.064 38.6547 24.3716 35.9091C27.9403 32.9021 30.1599 28.8054 30.1599 24.0987ZM19.2797 24.0987C19.1491 29.8513 15.6675 31.3333 10.2709 31.3333V16.8646C16.1027 16.8646 19.2797 19.3049 19.2797 24.0987Z" fill="#4B4E6B"/>
<path d="M62.5924 24.1177C62.9723 13.9461 54.9946 8.06372 47.0168 8.39052C38.97 7.69607 30.9922 13.9052 31.1649 24.0359C30.7505 34.3709 39.0045 40.0494 47.0168 39.6817C55.0982 40.3762 62.696 34.0442 62.5924 24.1177ZM53.9585 24.077C53.9585 29.1832 50.6086 31.2664 47.0168 31.2664C43.4597 31.2664 39.7988 28.8156 39.7988 24.077C39.7988 18.8482 43.4597 16.8465 47.0168 16.8465C50.7122 16.8465 53.9585 19.6652 53.9585 24.077Z" fill="#4B4E6B"/>
<path d="M93.9623 8.4901H63.2367V16.683H75.6836L59.2764 39.8238H91.3077V31.4568H77.9032L93.9623 8.4901Z" fill="#4B4E6B"/>
<path d="M160.488 39.2815L149.869 26.774C154.134 25.2051 156.353 22.1982 156.353 18.3631C156.353 11.1289 150.696 7.90395 143.863 7.90395H130.415V39.2815H140.73V30.3038L147.301 39.2815H160.488ZM145.343 18.3631C145.299 20.3242 143.602 21.1086 141.73 21.1086H140.73V15.7917H141.73C143.515 15.7046 145.343 16.5764 145.343 18.3631Z" fill="#4B4E6B"/>
<path fill-rule="evenodd" clip-rule="evenodd" d="M126.993 4.89146C126.126 2.19191 123.233 0.70472 120.537 1.57276L98.2663 8.74282C95.5702 9.61086 94.0852 12.5074 94.9521 15.207C95.8189 17.9065 98.7116 19.3937 101.408 18.5257L123.678 11.3556C126.374 10.4876 127.859 7.59102 126.993 4.89146Z" fill="#AF488B"/>
<path fill-rule="evenodd" clip-rule="evenodd" d="M126.993 18.3423C126.126 15.6427 123.233 14.1555 120.537 15.0235L98.2663 22.1936C95.5702 23.0616 94.0852 25.9582 94.9521 28.6578C95.8189 31.3573 98.7116 32.8445 101.408 31.9765L123.678 24.8064C126.374 23.9384 127.859 21.0418 126.993 18.3423Z" fill="#AF488B"/>
<path fill-rule="evenodd" clip-rule="evenodd" d="M126.993 31.7931C126.126 29.0935 123.233 27.6063 120.537 28.4744L98.2663 35.6444C95.5702 36.5125 94.0852 39.409 94.9521 42.1086C95.8189 44.8081 98.7116 46.2953 101.408 45.4273L123.678 38.2572C126.374 37.3892 127.859 34.4926 126.993 31.7931Z" fill="#AF488B"/>
</svg>
