<svg width="1279" height="439" viewBox="0 0 1279 439" fill="none" xmlns="http://www.w3.org/2000/svg">
<rect x="300" y="27" width="708" height="382" rx="20" fill="#262A30"/>
<rect y="131" width="200" height="111" rx="15" fill="#262A30"/>
<path d="M44.2724 203.712H38.0084V197.412H44.6132C47.03 197.412 48.2396 198.492 48.2396 200.612C48.2396 202.679 46.9172 203.714 44.2736 203.714M48.776 197.339C47.918 196.571 46.7168 196.187 45.1724 196.187L36.2012 196.235V211.307H38.0084L37.9916 204.891H44.6672C46.3412 204.891 47.6588 204.507 48.62 203.739C49.5812 202.971 50.0624 201.903 50.0624 200.54C50.0624 199.176 49.6328 198.108 48.7748 197.34L48.776 197.339ZM60.4724 208.144C60.3 208.637 60.0047 209.078 59.6144 209.426C58.8044 210.218 57.5696 210.61 55.8944 210.61C54.3944 210.61 53.2544 210.226 52.4384 209.458C51.6224 208.69 51.2324 207.662 51.2324 206.374C51.2324 205.702 51.338 205.108 51.548 204.588C51.7471 204.085 52.0601 203.635 52.4624 203.273C53.2928 202.517 54.4376 202.137 55.8944 202.137C59.1344 202.137 60.734 203.549 60.734 206.373C60.734 207.045 60.6416 207.633 60.458 208.142M60.7856 202.582C59.684 201.578 58.0532 201.075 55.8932 201.075C53.8532 201.075 52.2752 201.588 51.1628 202.614C50.1584 203.543 49.6568 204.796 49.6568 206.373C49.6568 207.939 50.1752 209.202 51.212 210.165C51.7844 210.683 52.4516 211.059 53.2124 211.29C53.9732 211.522 54.8684 211.65 55.8932 211.65C58.0532 211.65 59.678 211.154 60.8132 210.16C61.8176 209.253 62.3192 207.995 62.3192 206.386C62.3192 204.766 61.8116 203.502 60.7952 202.594L60.7856 202.582ZM74.4656 208.578C74.4656 210.618 72.6476 211.622 69.0128 211.622C67.9016 211.622 66.9656 211.55 66.2048 211.41C65.444 211.271 64.8272 211.035 64.352 210.71C63.9889 210.463 63.6895 210.134 63.4784 209.75C63.2624 209.362 63.122 208.85 63.0584 208.244L64.7384 208.228C64.7384 209.026 65.0348 209.614 65.6264 209.992C66.2624 210.446 67.3868 210.672 69.002 210.672C71.5424 210.672 72.8132 210.036 72.8132 208.762C72.8132 208.018 72.3872 207.506 71.5352 207.226C71.3624 207.172 70.3352 207.029 68.4512 206.798C66.5672 206.566 65.396 206.357 64.9316 206.174C63.9284 205.774 63.4268 205.058 63.4268 204.021C63.4083 203.554 63.5254 203.091 63.7638 202.689C64.0023 202.287 64.352 201.962 64.7708 201.754C65.2148 201.55 65.7668 201.39 66.4316 201.276C67.0964 201.162 67.8656 201.106 68.7404 201.106C72.2396 201.106 73.9892 202.204 73.9892 204.4H72.3812C72.3812 202.857 71.1512 202.084 68.6912 202.084C67.4396 202.084 66.5072 202.24 65.8916 202.564C65.276 202.888 64.9676 203.356 64.9676 204.004C64.9676 204.609 65.3828 205.046 66.2132 205.316C66.6992 205.456 67.8152 205.618 69.5636 205.802C71.1284 205.942 72.2012 206.141 72.7844 206.402C73.8956 206.834 74.4644 207.566 74.4644 208.602L74.4656 208.578ZM81.1088 211.338L80.4212 211.434L79.9916 211.467C78.89 211.467 78.0956 211.307 77.6096 210.987C77.1236 210.666 76.8896 210.108 76.8896 209.307V202.431H74.8856V201.419H76.8776L76.8932 198.17H78.4352V201.419H81.1208V202.448L78.4352 202.431V209.123C78.4352 209.621 78.5552 209.966 78.8312 210.155C79.1072 210.345 79.568 210.44 80.2472 210.44C80.3432 210.452 80.4512 210.447 80.5712 210.428C80.6912 210.408 80.8676 210.368 81.1052 210.305L81.122 211.337L81.1088 211.338ZM91.7732 209.044C91.345 209.393 90.8572 209.662 90.3332 209.837C89.7932 210.021 89.174 210.113 88.4732 210.113C85.2476 210.113 83.6372 208.793 83.6372 206.117C83.6372 204.878 84.05 203.907 84.8732 203.206C85.6964 202.505 86.8604 202.155 88.3592 202.155C89.8688 202.155 91.0148 202.508 91.7972 203.214C92.5796 203.921 92.9708 204.867 92.9708 206.054C92.9708 207.347 92.5712 208.334 91.7732 209.046M94.5128 201.414H92.9708L92.954 203.115C92.2748 202.425 91.79 201.987 91.4972 201.804C90.6332 201.33 89.5172 201.093 88.1468 201.093C86.1392 201.093 84.6068 201.551 83.5508 202.468C82.5476 203.308 82.046 204.528 82.046 206.124C82.046 206.912 82.1732 207.616 82.4264 208.236C82.6796 208.857 83.0504 209.382 83.5364 209.813C84.596 210.698 86.0924 211.14 88.0268 211.14C90.35 211.14 91.9868 210.504 92.9708 209.22V210.981C92.9708 212.103 92.6168 212.973 91.91 213.587C91.2032 214.202 90.0404 214.511 88.4216 214.511C86.9 214.511 85.8152 214.301 85.1816 213.882C84.6956 213.561 84.3608 213.002 84.1784 212.206H82.6004C82.7732 213.316 83.2424 214.12 84.0092 214.616C84.8948 215.187 86.39 215.472 88.4948 215.472C92.522 215.472 94.5356 213.976 94.5356 210.982V201.402L94.5128 201.414ZM102.853 202.416C102.425 202.344 101.993 202.306 101.559 202.304C99.0248 202.304 97.7576 203.693 97.7576 206.474V211.307H96.2336L96.2168 201.416L97.7588 201.431V203.195H97.8392C98.0984 202.499 98.5076 201.971 99.0692 201.614C99.6836 201.254 100.6 201.092 101.82 201.092H102.855V202.415L102.853 202.416ZM104.288 205.736C104.482 204.611 104.919 203.741 105.598 203.124C106.042 202.768 106.543 202.5 107.103 202.32C107.664 202.14 108.296 202.053 108.997 202.053C110.367 202.053 111.486 202.428 112.354 203.181C113.223 203.933 113.668 204.784 113.668 205.737H104.3M113.82 202.685C113.256 202.13 112.567 201.718 111.811 201.484C111.012 201.224 110.078 201.094 109.009 201.094C107.011 201.094 105.462 201.558 104.36 202.486C103.258 203.414 102.708 204.678 102.708 206.278C102.708 207.878 103.236 209.158 104.294 210.084C105.438 211.121 107.052 211.64 109.136 211.64C109.966 211.64 110.736 211.544 111.442 211.358C112.149 211.172 112.767 210.902 113.296 210.56C114.225 209.892 114.812 209.072 115.06 208.092H113.38C112.808 209.772 111.385 210.629 109.108 210.629C107.5 210.629 106.264 210.216 105.388 209.388C104.644 208.668 104.272 207.761 104.272 206.633H115.264C115.264 204.956 114.784 203.639 113.791 202.673L113.82 202.685Z" fill="white"/>
<path d="M131.584 207.266C131.584 210.202 129.215 211.67 124.48 211.67C121.642 211.67 119.57 211.166 118.264 210.152C117.184 209.32 116.662 208.052 116.662 206.348H118.582C118.582 209.09 120.55 210.46 124.492 210.46C126.381 210.46 127.748 210.179 128.589 209.62C129.302 209.124 129.669 208.348 129.669 207.292C129.669 206.246 129.183 205.512 128.211 205.091C127.659 204.851 126.315 204.579 124.179 204.233C121.491 203.823 119.747 203.414 118.949 203.004C117.795 202.401 117.217 201.376 117.217 199.93C117.217 198.582 117.697 197.578 118.69 196.92C119.746 196.198 121.562 195.837 124.131 195.837C128.775 195.837 131.095 197.379 131.095 200.463H129.16C129.16 198.153 127.436 196.998 124 196.998C122.272 196.998 121.007 197.231 120.208 197.694C119.452 198.191 119.074 198.918 119.074 199.881C119.074 200.885 119.56 201.592 120.532 202.002C121.048 202.24 122.572 202.569 125.099 202.991C127.475 203.348 129.077 203.763 129.899 204.239C131.033 204.822 131.6 205.832 131.6 207.268L131.584 207.266ZM147.074 208.766C146.355 209.339 145.537 209.775 144.659 210.051C143.762 210.336 142.757 210.479 141.645 210.479C139.365 210.479 137.541 209.879 136.142 208.643C134.743 207.407 134.042 205.791 134.042 203.754C134.042 201.63 134.735 199.978 136.124 198.792C137.512 197.607 139.364 197.014 141.644 197.014C143.967 197.014 145.793 197.633 147.122 198.874C147.824 199.478 148.342 200.194 148.678 200.992C149.014 201.79 149.182 202.72 149.182 203.756C149.182 205.868 148.479 207.538 147.075 208.767M148.089 209.766C149.083 209.066 149.817 208.206 150.293 207.219C150.77 206.231 151.007 205.059 151.007 203.765C151.007 201.425 150.23 199.548 148.675 198.125C147.843 197.349 146.839 196.772 145.675 196.395C144.511 196.018 143.155 195.828 141.643 195.828C138.706 195.828 136.401 196.54 134.727 197.964C133.053 199.389 132.217 201.318 132.217 203.756C132.217 206.128 133.06 208.042 134.737 209.498C136.413 210.953 138.733 211.682 141.658 211.682C142.802 211.682 143.8 211.604 144.653 211.45C145.507 211.296 146.229 211.058 146.823 210.737L149.641 212.69L150.817 211.61L148.089 209.759V209.766ZM165.285 211.306H152.255V196.216L154.047 196.184V210.044H165.303L165.286 211.304L165.285 211.306Z" fill="#367FAF"/>
<path d="M108.898 184.067C109.134 182.099 109.063 181.811 110.53 182.13L110.89 182.163C112.018 182.214 113.49 181.983 114.358 181.58C116.221 180.716 117.326 179.271 115.489 179.65C111.296 180.514 111.008 179.096 111.008 179.096C115.436 172.527 117.284 164.188 115.688 162.148C111.332 156.58 103.789 159.214 103.664 159.282L103.625 159.29C102.797 159.118 101.869 159.014 100.829 158.998C98.9327 158.967 97.4927 159.495 96.3887 160.324C96.3887 160.324 82.9343 154.78 83.5487 167.296C83.6807 169.958 87.3647 187.439 91.7567 182.159C93.3623 180.227 94.9127 178.595 94.9127 178.595C95.6831 179.108 96.5927 179.368 97.5731 179.274L97.6475 179.211C97.6251 179.461 97.6352 179.714 97.6775 179.962C96.5459 181.226 96.8783 181.45 94.6175 181.914C92.3291 182.386 93.6731 183.226 94.5515 183.446C95.6159 183.712 98.0795 184.089 99.7415 181.76L99.6755 182.026C100.12 182.381 100.09 184.578 100.152 186.148C100.214 187.718 100.32 189.184 100.64 190.048C100.961 190.912 101.336 193.137 104.312 192.5C106.796 191.967 108.697 191.201 108.87 184.072" fill="#231F20"/>
<path d="M108.898 184.067C109.134 182.099 109.063 181.811 110.53 182.13L110.89 182.163C112.018 182.214 113.49 181.983 114.358 181.58C116.221 180.716 117.326 179.271 115.489 179.65C111.296 180.514 111.008 179.096 111.008 179.096C115.436 172.527 117.284 164.188 115.688 162.148C111.332 156.58 103.789 159.214 103.664 159.282L103.625 159.29C102.797 159.118 101.869 159.014 100.829 158.998C98.9327 158.967 97.4927 159.495 96.3887 160.324C96.3887 160.324 82.9343 154.78 83.5487 167.296C83.6807 169.958 87.3647 187.439 91.7567 182.159C93.3623 180.227 94.9127 178.595 94.9127 178.595C95.6831 179.108 96.5927 179.368 97.5731 179.274L97.6475 179.211C97.6251 179.461 97.6352 179.714 97.6775 179.962C96.5459 181.226 96.8783 181.45 94.6175 181.914C92.3291 182.386 93.6731 183.226 94.5515 183.446C95.6159 183.712 98.0795 184.089 99.7415 181.76L99.6755 182.026C100.12 182.381 100.09 184.578 100.152 186.148C100.214 187.718 100.32 189.184 100.64 190.048C100.961 190.912 101.336 193.137 104.312 192.5C106.796 191.967 108.697 191.201 108.87 184.072" stroke="#231F20" stroke-width="2.598"/>
<path d="M115.499 179.65C111.306 180.514 111.018 179.096 111.018 179.096C115.446 172.527 117.294 164.188 115.698 162.147C111.342 156.579 103.799 159.213 103.674 159.281L103.634 159.288C102.806 159.117 101.878 159.012 100.838 158.997C98.9415 158.966 97.5015 159.494 96.3975 160.323C96.3975 160.323 82.9431 154.779 83.5575 167.295C83.6895 169.959 87.3735 187.438 91.7655 182.158C93.3711 180.226 94.9215 178.594 94.9215 178.594C95.6919 179.106 96.6135 179.367 97.5807 179.273L97.6563 179.21C97.6323 179.45 97.6443 179.684 97.6863 179.961C96.5547 181.224 96.8871 181.449 94.6263 181.913C92.3379 182.385 93.6819 183.225 94.5603 183.444C95.6247 183.711 98.0883 184.088 99.7503 181.758L99.6843 182.025C100.128 182.38 100.44 184.335 100.386 186.105C100.332 187.875 100.3 189.093 100.65 190.043C101.001 190.994 101.346 193.132 104.322 192.495C106.806 191.962 108.095 190.582 108.274 188.28C108.401 186.644 108.689 186.886 108.706 185.424L108.936 184.732C109.203 182.512 108.978 181.798 110.508 182.132L110.868 182.164C111.996 182.216 113.47 181.984 114.336 181.581C116.2 180.717 117.305 179.272 115.468 179.651L115.499 179.65Z" fill="#417BA2"/>
<path d="M99.9521 180.922C99.8369 185.05 99.9809 189.206 100.384 190.216C100.787 191.226 101.653 193.192 104.627 192.554C107.111 192.021 108.016 190.99 108.407 188.714L109.325 181.438M96.4001 160.23C96.4001 160.23 82.9361 154.727 83.5601 167.241C83.6801 169.905 87.3761 187.385 91.7681 182.105C93.3737 180.185 94.8245 178.661 94.8245 178.661M103.66 159.226C103.18 159.372 111.148 156.318 115.67 162.106C117.266 164.146 115.43 172.486 110.99 179.055" stroke="white" stroke-width="0.866" stroke-linecap="round" stroke-linejoin="round"/>
<path d="M110.988 179.044C110.988 179.044 111.276 180.464 115.47 179.598C117.306 179.219 116.19 180.663 114.339 181.528C112.81 182.236 109.383 182.42 109.325 181.439C109.181 178.907 111.13 179.678 110.988 179.044ZM110.988 179.044C110.861 178.473 109.99 177.912 109.414 176.516C108.91 175.295 102.514 165.941 111.19 167.331C111.508 167.265 108.927 159.078 100.807 158.945C92.6883 158.812 92.9571 168.929 92.9571 168.929" stroke="white" stroke-width="0.866" stroke-linecap="round" stroke-linejoin="bevel"/>
<path d="M97.6789 179.908C96.5473 181.172 96.8797 181.396 94.6189 181.86C92.3305 182.332 93.6745 183.172 94.5529 183.392C95.6173 183.658 98.0809 184.035 99.7429 181.706C100.249 180.998 99.7405 179.865 99.0445 179.576C98.7085 179.436 98.2585 179.264 97.6813 179.908H97.6789Z" stroke="white" stroke-width="0.866" stroke-linejoin="round"/>
<path d="M97.6048 179.886C97.4908 179.142 97.8496 178.259 98.2324 177.222C98.8084 175.67 100.152 174.117 99.076 169.192C98.284 165.522 92.9584 168.428 92.956 168.926C92.9536 169.424 93.196 171.448 92.8672 173.806C92.4352 176.883 94.8232 179.486 97.5748 179.218" stroke="white" stroke-width="0.866" stroke-linecap="round" stroke-linejoin="round"/>
<path d="M96.3371 168.853C96.3131 169.023 96.6491 169.477 97.0847 169.537C97.5203 169.597 97.8947 169.243 97.9175 169.073C97.9403 168.904 97.6055 168.716 97.1687 168.653C96.7319 168.591 96.3587 168.681 96.3359 168.851L96.3371 168.853Z" fill="white" stroke="white" stroke-width="0.289"/>
<path d="M109.626 168.506C109.65 168.676 109.314 169.13 108.878 169.19C108.443 169.25 108.068 168.896 108.044 168.727C108.02 168.557 108.356 168.369 108.793 168.309C109.23 168.249 109.603 168.337 109.627 168.507L109.626 168.506Z" fill="white" stroke="white" stroke-width="0.144"/>
<path d="M111.187 167.33C111.259 168.662 110.899 169.571 110.855 170.99C110.788 173.054 111.839 175.414 110.255 177.778" stroke="white" stroke-width="0.866" stroke-linecap="round" stroke-linejoin="round"/>
<rect opacity="0.1" x="331" y="132" width="203" height="110" rx="14" stroke="#DADADA" stroke-width="2" stroke-dasharray="4 4"/>
<rect opacity="0.1" x="546" y="131" width="95" height="110" rx="14" stroke="#DADADA" stroke-width="2" stroke-dasharray="4 4"/>
<rect opacity="0.1" x="326" y="263" width="340" height="110" rx="14" stroke="#DADADA" stroke-width="2" stroke-dasharray="4 4"/>
<rect x="721" y="132" width="107" height="110" rx="14" stroke="white" stroke-opacity="0.2" stroke-width="2" stroke-dasharray="4 4"/>
<rect x="870" y="132" width="107" height="110" rx="14" stroke="white" stroke-opacity="0.2" stroke-width="2" stroke-dasharray="4 4"/>
<rect x="581" width="145" height="54" rx="27" fill="#353B43"/>
<path d="M620.92 26.9169C620.92 23.6643 619.627 21.0163 617.097 19.0589C614.884 17.3607 612.297 16.4971 609.422 16.4971H601V37.2504H609.422C612.555 37.2504 614.912 36.5309 617.097 34.7175C619.454 32.7314 620.92 30.0256 620.92 26.9169ZM613.734 26.9169C613.648 30.7164 611.348 31.6952 607.784 31.6952V22.1389C611.636 22.1389 613.734 23.7507 613.734 26.9169Z" fill="white"/>
<path d="M642.342 26.9295C642.592 20.2113 637.323 16.3261 632.054 16.5419C626.739 16.0833 621.47 20.1843 621.584 26.8755C621.31 33.7016 626.762 37.4521 632.054 37.2093C637.392 37.668 642.41 33.4858 642.342 26.9295ZM636.639 26.9026C636.639 30.2752 634.426 31.6511 632.054 31.6511C629.705 31.6511 627.287 30.0324 627.287 26.9026C627.287 23.4491 629.705 22.127 632.054 22.127C634.495 22.127 636.639 23.9887 636.639 26.9026Z" fill="white"/>
<path d="M663.061 16.6077H642.767V22.019H650.988L640.151 37.3031H661.308V31.7768H652.454L663.061 16.6077Z" fill="white"/>
<path d="M706.999 36.9451L699.986 28.6841C702.803 27.6479 704.269 25.6618 704.269 23.1288C704.269 18.3507 700.532 16.2207 696.019 16.2207H687.137V36.9451H693.949V31.0155L698.29 36.9451H706.999ZM696.996 23.1288C696.968 24.4241 695.846 24.9422 694.61 24.9422H693.949V21.4305H694.61C695.789 21.3729 696.996 21.9487 696.996 23.1288Z" fill="white"/>
<path fill-rule="evenodd" clip-rule="evenodd" d="M684.877 14.2309C684.304 12.4477 682.394 11.4653 680.613 12.0386L665.903 16.774C664.122 17.3473 663.142 19.2605 663.714 21.0437C664.287 22.8268 666.197 23.8092 667.978 23.2359L682.687 18.5005C684.468 17.9272 685.449 16.014 684.877 14.2309Z" fill="#D143A0"/>
<path fill-rule="evenodd" clip-rule="evenodd" d="M684.877 23.1149C684.304 21.3318 682.394 20.3494 680.613 20.9227L665.903 25.6581C664.122 26.2314 663.142 28.1446 663.714 29.9277C664.287 31.7108 666.197 32.6932 667.978 32.1199L682.687 27.3845C684.468 26.8112 685.449 24.898 684.877 23.1149Z" fill="#D143A0"/>
<path fill-rule="evenodd" clip-rule="evenodd" d="M684.877 31.9989C684.304 30.2158 682.394 29.2334 680.613 29.8067L665.903 34.5421C664.122 35.1154 663.142 37.0286 663.714 38.8117C664.287 40.5949 666.197 41.5773 667.978 41.004L682.687 36.2686C684.468 35.6953 685.449 33.7821 684.877 31.9989Z" fill="#D143A0"/>
<path d="M409.24 95.5653C409.195 95.1619 409.007 94.8494 408.678 94.6278C408.348 94.4034 407.933 94.2912 407.433 94.2912C407.075 94.2912 406.766 94.348 406.504 94.4616C406.243 94.5724 406.04 94.7259 405.895 94.9219C405.753 95.1151 405.682 95.3352 405.682 95.5824C405.682 95.7898 405.73 95.9687 405.827 96.1193C405.926 96.2699 406.055 96.3963 406.215 96.4986C406.377 96.598 406.55 96.6818 406.734 96.75C406.919 96.8153 407.097 96.8693 407.267 96.9119L408.119 97.1335C408.398 97.2017 408.683 97.294 408.976 97.4105C409.269 97.527 409.54 97.6804 409.79 97.8707C410.04 98.0611 410.242 98.2969 410.395 98.5781C410.551 98.8594 410.629 99.196 410.629 99.5881C410.629 100.082 410.502 100.521 410.246 100.905C409.993 101.288 409.625 101.591 409.142 101.812C408.662 102.034 408.081 102.145 407.399 102.145C406.746 102.145 406.18 102.041 405.703 101.834C405.226 101.626 404.852 101.332 404.582 100.952C404.313 100.568 404.163 100.114 404.135 99.5881H405.456C405.482 99.9034 405.584 100.166 405.763 100.376C405.945 100.584 406.176 100.739 406.457 100.841C406.742 100.94 407.053 100.99 407.391 100.99C407.763 100.99 408.094 100.932 408.384 100.815C408.676 100.696 408.906 100.531 409.074 100.321C409.242 100.108 409.325 99.8594 409.325 99.5753C409.325 99.3168 409.252 99.1051 409.104 98.9403C408.959 98.7756 408.761 98.6392 408.511 98.5312C408.264 98.4233 407.984 98.3281 407.672 98.2457L406.641 97.9645C405.942 97.7741 405.388 97.4943 404.979 97.125C404.573 96.7557 404.369 96.267 404.369 95.6591C404.369 95.1562 404.506 94.7173 404.779 94.3423C405.051 93.9673 405.421 93.6761 405.886 93.4688C406.352 93.2585 406.878 93.1534 407.463 93.1534C408.054 93.1534 408.575 93.2571 409.027 93.4645C409.482 93.6719 409.84 93.9574 410.101 94.321C410.362 94.6818 410.499 95.0966 410.51 95.5653H409.24ZM415.172 99.1705H416.467L417.379 100.359L417.809 100.888L419.263 102.784H417.916L416.944 101.518L416.612 101.058L415.172 99.1705ZM419.544 97.6364C419.544 98.5682 419.373 99.3693 419.032 100.04C418.692 100.707 418.224 101.222 417.63 101.582C417.04 101.94 416.368 102.119 415.615 102.119C414.859 102.119 414.184 101.94 413.591 101.582C413 101.222 412.534 100.706 412.193 100.036C411.852 99.3651 411.682 98.5653 411.682 97.6364C411.682 96.7045 411.852 95.9048 412.193 95.2372C412.534 94.5668 413 94.0526 413.591 93.6946C414.184 93.3338 414.859 93.1534 415.615 93.1534C416.368 93.1534 417.04 93.3338 417.63 93.6946C418.224 94.0526 418.692 94.5668 419.032 95.2372C419.373 95.9048 419.544 96.7045 419.544 97.6364ZM418.24 97.6364C418.24 96.9261 418.125 96.3281 417.895 95.8423C417.667 95.3537 417.355 94.9844 416.957 94.7344C416.562 94.4815 416.115 94.3551 415.615 94.3551C415.112 94.3551 414.663 94.4815 414.268 94.7344C413.873 94.9844 413.561 95.3537 413.331 95.8423C413.103 96.3281 412.99 96.9261 412.99 97.6364C412.99 98.3466 413.103 98.946 413.331 99.4347C413.561 99.9205 413.873 100.29 414.268 100.543C414.663 100.793 415.112 100.918 415.615 100.918C416.115 100.918 416.562 100.793 416.957 100.543C417.355 100.29 417.667 99.9205 417.895 99.4347C418.125 98.946 418.24 98.3466 418.24 97.6364ZM420.946 102V93.2727H422.262V100.866H426.217V102H420.946ZM433.807 93.2727H435.119V99.4602C435.119 100.02 435.008 100.499 434.787 100.896C434.568 101.294 434.26 101.598 433.862 101.808C433.464 102.016 432.999 102.119 432.464 102.119C431.973 102.119 431.531 102.03 431.139 101.851C430.75 101.672 430.442 101.412 430.214 101.071C429.99 100.727 429.878 100.31 429.878 99.8182H431.186C431.186 100.06 431.241 100.268 431.352 100.445C431.466 100.621 431.621 100.759 431.817 100.858C432.016 100.955 432.243 101.003 432.499 101.003C432.777 101.003 433.013 100.945 433.206 100.828C433.402 100.709 433.551 100.534 433.653 100.304C433.756 100.074 433.807 99.7926 433.807 99.4602V93.2727ZM444.377 97.6364C444.377 98.5682 444.206 99.3693 443.865 100.04C443.525 100.707 443.057 101.222 442.463 101.582C441.873 101.94 441.201 102.119 440.448 102.119C439.692 102.119 439.017 101.94 438.424 101.582C437.833 101.222 437.367 100.706 437.026 100.036C436.685 99.3651 436.515 98.5653 436.515 97.6364C436.515 96.7045 436.685 95.9048 437.026 95.2372C437.367 94.5668 437.833 94.0526 438.424 93.6946C439.017 93.3338 439.692 93.1534 440.448 93.1534C441.201 93.1534 441.873 93.3338 442.463 93.6946C443.057 94.0526 443.525 94.5668 443.865 95.2372C444.206 95.9048 444.377 96.7045 444.377 97.6364ZM443.073 97.6364C443.073 96.9261 442.958 96.3281 442.728 95.8423C442.5 95.3537 442.188 94.9844 441.79 94.7344C441.395 94.4815 440.948 94.3551 440.448 94.3551C439.945 94.3551 439.496 94.4815 439.101 94.7344C438.706 94.9844 438.394 95.3537 438.164 95.8423C437.936 96.3281 437.823 96.9261 437.823 97.6364C437.823 98.3466 437.936 98.946 438.164 99.4347C438.394 99.9205 438.706 100.29 439.101 100.543C439.496 100.793 439.945 100.918 440.448 100.918C440.948 100.918 441.395 100.793 441.79 100.543C442.188 100.29 442.5 99.9205 442.728 99.4347C442.958 98.946 443.073 98.3466 443.073 97.6364ZM447.095 93.2727V102H445.778V93.2727H447.095ZM455.817 93.2727V102H454.607L450.171 95.5994H450.09V102H448.773V93.2727H449.992L454.432 99.6818H454.513V93.2727H455.817ZM462.258 95.5653C462.212 95.1619 462.025 94.8494 461.695 94.6278C461.366 94.4034 460.951 94.2912 460.451 94.2912C460.093 94.2912 459.783 94.348 459.522 94.4616C459.261 94.5724 459.057 94.7259 458.912 94.9219C458.77 95.1151 458.699 95.3352 458.699 95.5824C458.699 95.7898 458.748 95.9687 458.844 96.1193C458.944 96.2699 459.073 96.3963 459.232 96.4986C459.394 96.598 459.567 96.6818 459.752 96.75C459.937 96.8153 460.114 96.8693 460.285 96.9119L461.137 97.1335C461.415 97.2017 461.701 97.294 461.993 97.4105C462.286 97.527 462.557 97.6804 462.807 97.8707C463.057 98.0611 463.259 98.2969 463.412 98.5781C463.569 98.8594 463.647 99.196 463.647 99.5881C463.647 100.082 463.519 100.521 463.263 100.905C463.011 101.288 462.643 101.591 462.16 101.812C461.68 102.034 461.099 102.145 460.417 102.145C459.763 102.145 459.198 102.041 458.721 101.834C458.243 101.626 457.87 101.332 457.6 100.952C457.33 100.568 457.181 100.114 457.153 99.5881H458.474C458.499 99.9034 458.601 100.166 458.78 100.376C458.962 100.584 459.194 100.739 459.475 100.841C459.759 100.94 460.07 100.99 460.408 100.99C460.78 100.99 461.111 100.932 461.401 100.815C461.694 100.696 461.924 100.531 462.091 100.321C462.259 100.108 462.343 99.8594 462.343 99.5753C462.343 99.3168 462.269 99.1051 462.121 98.9403C461.976 98.7756 461.779 98.6392 461.529 98.5312C461.282 98.4233 461.002 98.3281 460.689 98.2457L459.658 97.9645C458.959 97.7741 458.405 97.4943 457.996 97.125C457.59 96.7557 457.387 96.267 457.387 95.6591C457.387 95.1562 457.523 94.7173 457.796 94.3423C458.069 93.9673 458.438 93.6761 458.904 93.4688C459.37 93.2585 459.895 93.1534 460.481 93.1534C461.072 93.1534 461.593 93.2571 462.045 93.4645C462.499 93.6719 462.857 93.9574 463.118 94.321C463.38 94.6818 463.516 95.0966 463.528 95.5653H462.258ZM466.536 100.807L466.472 101.271C466.429 101.612 466.357 101.967 466.255 102.337C466.155 102.709 466.051 103.054 465.943 103.372C465.838 103.69 465.752 103.943 465.683 104.131H464.78C464.817 103.955 464.868 103.716 464.933 103.415C464.999 103.116 465.063 102.783 465.125 102.413C465.188 102.044 465.235 101.668 465.266 101.284L465.308 100.807H466.536ZM352.815 118H351.418L354.558 109.273H356.08L359.22 118H357.823L355.355 110.858H355.287L352.815 118ZM353.05 114.582H357.584V115.69H353.05V114.582ZM365.737 112.03C365.654 111.771 365.543 111.54 365.404 111.335C365.268 111.128 365.105 110.952 364.914 110.807C364.724 110.659 364.507 110.547 364.262 110.47C364.021 110.393 363.755 110.355 363.465 110.355C362.974 110.355 362.531 110.482 362.136 110.734C361.741 110.987 361.428 111.358 361.198 111.847C360.971 112.332 360.857 112.928 360.857 113.632C360.857 114.339 360.972 114.937 361.203 115.426C361.433 115.915 361.748 116.286 362.149 116.538C362.549 116.791 363.005 116.918 363.516 116.918C363.991 116.918 364.404 116.821 364.757 116.628C365.112 116.435 365.386 116.162 365.579 115.81C365.775 115.455 365.873 115.037 365.873 114.557L366.214 114.621H363.717V113.534H367.147V114.527C367.147 115.26 366.991 115.896 366.678 116.436C366.369 116.973 365.94 117.388 365.391 117.68C364.846 117.973 364.221 118.119 363.516 118.119C362.727 118.119 362.033 117.938 361.437 117.574C360.843 117.21 360.38 116.695 360.048 116.027C359.715 115.357 359.549 114.561 359.549 113.641C359.549 112.945 359.646 112.32 359.839 111.766C360.032 111.212 360.303 110.741 360.653 110.355C361.005 109.966 361.418 109.669 361.893 109.464C362.37 109.257 362.891 109.153 363.457 109.153C363.928 109.153 364.367 109.223 364.774 109.362C365.183 109.501 365.546 109.699 365.864 109.955C366.185 110.21 366.451 110.514 366.661 110.866C366.872 111.216 367.014 111.604 367.087 112.03H365.737ZM374.485 112.03C374.403 111.771 374.292 111.54 374.153 111.335C374.016 111.128 373.853 110.952 373.662 110.807C373.472 110.659 373.255 110.547 373.01 110.47C372.769 110.393 372.503 110.355 372.214 110.355C371.722 110.355 371.279 110.482 370.884 110.734C370.489 110.987 370.177 111.358 369.947 111.847C369.719 112.332 369.606 112.928 369.606 113.632C369.606 114.339 369.721 114.937 369.951 115.426C370.181 115.915 370.496 116.286 370.897 116.538C371.297 116.791 371.753 116.918 372.265 116.918C372.739 116.918 373.153 116.821 373.505 116.628C373.86 116.435 374.134 116.162 374.327 115.81C374.523 115.455 374.621 115.037 374.621 114.557L374.962 114.621H372.465V113.534H375.895V114.527C375.895 115.26 375.739 115.896 375.427 116.436C375.117 116.973 374.688 117.388 374.14 117.68C373.594 117.973 372.969 118.119 372.265 118.119C371.475 118.119 370.782 117.938 370.185 117.574C369.591 117.21 369.128 116.695 368.796 116.027C368.464 115.357 368.297 114.561 368.297 113.641C368.297 112.945 368.394 112.32 368.587 111.766C368.78 111.212 369.052 110.741 369.401 110.355C369.753 109.966 370.167 109.669 370.641 109.464C371.118 109.257 371.64 109.153 372.205 109.153C372.677 109.153 373.116 109.223 373.522 109.362C373.931 109.501 374.295 109.699 374.613 109.955C374.934 110.21 375.199 110.514 375.41 110.866C375.62 111.216 375.762 111.604 375.836 112.03H374.485ZM377.327 118V109.273H380.438C381.114 109.273 381.675 109.389 382.121 109.622C382.57 109.855 382.905 110.178 383.127 110.589C383.348 110.999 383.459 111.472 383.459 112.009C383.459 112.543 383.347 113.013 383.122 113.419C382.901 113.822 382.566 114.136 382.117 114.361C381.671 114.585 381.11 114.697 380.433 114.697H378.077V113.564H380.314C380.74 113.564 381.087 113.503 381.354 113.381C381.624 113.259 381.821 113.081 381.946 112.848C382.071 112.615 382.134 112.335 382.134 112.009C382.134 111.679 382.07 111.393 381.942 111.152C381.817 110.911 381.62 110.726 381.35 110.598C381.083 110.467 380.732 110.402 380.297 110.402H378.644V118H377.327ZM381.635 114.062L383.791 118H382.291L380.178 114.062H381.635ZM384.821 118V109.273H390.293V110.406H386.138V113.065H390.007V114.195H386.138V116.866H390.344V118H384.821ZM397.718 112.03C397.636 111.771 397.525 111.54 397.386 111.335C397.249 111.128 397.086 110.952 396.896 110.807C396.705 110.659 396.488 110.547 396.244 110.47C396.002 110.393 395.736 110.355 395.447 110.355C394.955 110.355 394.512 110.482 394.117 110.734C393.722 110.987 393.41 111.358 393.18 111.847C392.952 112.332 392.839 112.928 392.839 113.632C392.839 114.339 392.954 114.937 393.184 115.426C393.414 115.915 393.729 116.286 394.13 116.538C394.531 116.791 394.986 116.918 395.498 116.918C395.972 116.918 396.386 116.821 396.738 116.628C397.093 116.435 397.367 116.162 397.56 115.81C397.756 115.455 397.854 115.037 397.854 114.557L398.195 114.621H395.698V113.534H399.129V114.527C399.129 115.26 398.972 115.896 398.66 116.436C398.35 116.973 397.921 117.388 397.373 117.68C396.827 117.973 396.202 118.119 395.498 118.119C394.708 118.119 394.015 117.938 393.418 117.574C392.825 117.21 392.361 116.695 392.029 116.027C391.697 115.357 391.531 114.561 391.531 113.641C391.531 112.945 391.627 112.32 391.82 111.766C392.013 111.212 392.285 110.741 392.634 110.355C392.986 109.966 393.4 109.669 393.874 109.464C394.352 109.257 394.873 109.153 395.438 109.153C395.91 109.153 396.349 109.223 396.755 109.362C397.164 109.501 397.528 109.699 397.846 109.955C398.167 110.21 398.433 110.514 398.643 110.866C398.853 111.216 398.995 111.604 399.069 112.03H397.718ZM401.028 118H399.63L402.771 109.273H404.292L407.433 118H406.035L403.568 110.858H403.499L401.028 118ZM401.262 114.582H405.796V115.69H401.262V114.582ZM406.991 110.406V109.273H413.745V110.406H411.022V118H409.71V110.406H406.991ZM414.998 118V109.273H420.47V110.406H416.315V113.065H420.184V114.195H416.315V116.866H420.521V118H414.998ZM426.748 111.565C426.703 111.162 426.515 110.849 426.186 110.628C425.856 110.403 425.442 110.291 424.942 110.291C424.584 110.291 424.274 110.348 424.013 110.462C423.751 110.572 423.548 110.726 423.403 110.922C423.261 111.115 423.19 111.335 423.19 111.582C423.19 111.79 423.238 111.969 423.335 112.119C423.435 112.27 423.564 112.396 423.723 112.499C423.885 112.598 424.058 112.682 424.243 112.75C424.427 112.815 424.605 112.869 424.775 112.912L425.628 113.134C425.906 113.202 426.192 113.294 426.484 113.411C426.777 113.527 427.048 113.68 427.298 113.871C427.548 114.061 427.75 114.297 427.903 114.578C428.06 114.859 428.138 115.196 428.138 115.588C428.138 116.082 428.01 116.521 427.754 116.905C427.501 117.288 427.133 117.591 426.65 117.812C426.17 118.034 425.589 118.145 424.908 118.145C424.254 118.145 423.689 118.041 423.212 117.834C422.734 117.626 422.361 117.332 422.091 116.952C421.821 116.568 421.672 116.114 421.643 115.588H422.964C422.99 115.903 423.092 116.166 423.271 116.376C423.453 116.584 423.685 116.739 423.966 116.841C424.25 116.94 424.561 116.99 424.899 116.99C425.271 116.99 425.602 116.932 425.892 116.815C426.185 116.696 426.415 116.531 426.582 116.321C426.75 116.108 426.834 115.859 426.834 115.575C426.834 115.317 426.76 115.105 426.612 114.94C426.467 114.776 426.27 114.639 426.02 114.531C425.773 114.423 425.493 114.328 425.18 114.246L424.149 113.964C423.45 113.774 422.896 113.494 422.487 113.125C422.081 112.756 421.878 112.267 421.878 111.659C421.878 111.156 422.014 110.717 422.287 110.342C422.56 109.967 422.929 109.676 423.395 109.469C423.861 109.259 424.386 109.153 424.971 109.153C425.562 109.153 426.084 109.257 426.535 109.464C426.99 109.672 427.348 109.957 427.609 110.321C427.871 110.682 428.007 111.097 428.018 111.565H426.748ZM434.844 118.124C434.259 118.124 433.755 118.017 433.332 117.804C432.911 117.591 432.587 117.301 432.36 116.935C432.133 116.565 432.019 116.148 432.019 115.682C432.019 115.327 432.093 115.011 432.241 114.736C432.388 114.457 432.594 114.2 432.859 113.964C433.123 113.729 433.428 113.491 433.775 113.253L435.181 112.26C435.42 112.104 435.606 111.939 435.739 111.766C435.873 111.589 435.94 111.372 435.94 111.114C435.94 110.909 435.852 110.713 435.675 110.526C435.499 110.338 435.263 110.244 434.968 110.244C434.763 110.244 434.583 110.294 434.427 110.393C434.273 110.493 434.153 110.621 434.065 110.777C433.979 110.93 433.937 111.092 433.937 111.263C433.937 111.462 433.991 111.662 434.099 111.864C434.209 112.065 434.352 112.274 434.525 112.49C434.698 112.703 434.88 112.925 435.07 113.155L439.123 118H437.683L434.329 114.058C434.048 113.726 433.786 113.413 433.545 113.121C433.303 112.825 433.107 112.527 432.957 112.226C432.809 111.922 432.735 111.594 432.735 111.241C432.735 110.841 432.826 110.486 433.008 110.176C433.192 109.864 433.45 109.619 433.779 109.443C434.109 109.267 434.495 109.179 434.938 109.179C435.387 109.179 435.772 109.267 436.093 109.443C436.417 109.616 436.665 109.848 436.839 110.138C437.015 110.425 437.103 110.739 437.103 111.08C437.103 111.494 436.999 111.861 436.792 112.179C436.587 112.494 436.305 112.784 435.944 113.048L434.192 114.339C433.852 114.589 433.614 114.837 433.481 115.081C433.35 115.322 433.285 115.511 433.285 115.648C433.285 115.898 433.349 116.129 433.477 116.342C433.607 116.555 433.789 116.726 434.022 116.854C434.258 116.982 434.533 117.045 434.849 117.045C435.173 117.045 435.488 116.976 435.795 116.837C436.104 116.695 436.384 116.491 436.634 116.227C436.887 115.963 437.087 115.646 437.235 115.277C437.383 114.908 437.457 114.494 437.457 114.037H438.607C438.607 114.599 438.543 115.075 438.415 115.464C438.288 115.851 438.133 116.166 437.951 116.411C437.772 116.652 437.603 116.841 437.444 116.977C437.393 117.023 437.344 117.068 437.299 117.114C437.254 117.159 437.205 117.205 437.154 117.25C436.859 117.548 436.501 117.768 436.08 117.911C435.663 118.053 435.251 118.124 434.844 118.124ZM442.919 118V109.273H446.03C446.709 109.273 447.271 109.396 447.717 109.643C448.163 109.891 448.497 110.229 448.719 110.658C448.94 111.084 449.051 111.564 449.051 112.098C449.051 112.635 448.939 113.118 448.715 113.547C448.493 113.973 448.158 114.311 447.709 114.561C447.263 114.808 446.702 114.932 446.026 114.932H443.886V113.815H445.906C446.335 113.815 446.683 113.741 446.95 113.594C447.217 113.443 447.413 113.239 447.538 112.98C447.663 112.722 447.726 112.428 447.726 112.098C447.726 111.768 447.663 111.476 447.538 111.22C447.413 110.964 447.216 110.764 446.946 110.619C446.679 110.474 446.327 110.402 445.889 110.402H444.236V118H442.919ZM450.355 118V109.273H453.466C454.142 109.273 454.703 109.389 455.149 109.622C455.598 109.855 455.933 110.178 456.155 110.589C456.376 110.999 456.487 111.472 456.487 112.009C456.487 112.543 456.375 113.013 456.15 113.419C455.929 113.822 455.594 114.136 455.145 114.361C454.699 114.585 454.138 114.697 453.461 114.697H451.105V113.564H453.342C453.768 113.564 454.115 113.503 454.382 113.381C454.652 113.259 454.849 113.081 454.974 112.848C455.099 112.615 455.162 112.335 455.162 112.009C455.162 111.679 455.098 111.393 454.97 111.152C454.845 110.911 454.648 110.726 454.378 110.598C454.111 110.467 453.76 110.402 453.325 110.402H451.672V118H450.355ZM454.663 114.062L456.819 118H455.319L453.206 114.062H454.663ZM457.849 118V109.273H463.321V110.406H459.166V113.065H463.035V114.195H459.166V116.866H463.372V118H457.849ZM467.665 118H464.84V109.273H467.755C468.61 109.273 469.344 109.447 469.958 109.797C470.571 110.143 471.041 110.642 471.368 111.293C471.698 111.94 471.862 112.717 471.862 113.624C471.862 114.533 471.696 115.314 471.364 115.967C471.034 116.621 470.557 117.124 469.932 117.476C469.307 117.825 468.551 118 467.665 118ZM466.157 116.849H467.593C468.257 116.849 468.81 116.724 469.25 116.474C469.691 116.222 470.02 115.857 470.239 115.379C470.458 114.899 470.567 114.314 470.567 113.624C470.567 112.939 470.458 112.358 470.239 111.881C470.023 111.403 469.701 111.041 469.272 110.794C468.843 110.547 468.31 110.423 467.674 110.423H466.157V116.849ZM474.577 109.273V118H473.26V109.273H474.577ZM483.503 112.111H482.173C482.122 111.827 482.027 111.577 481.888 111.361C481.749 111.145 481.578 110.962 481.376 110.811C481.175 110.661 480.949 110.547 480.699 110.47C480.452 110.393 480.189 110.355 479.911 110.355C479.408 110.355 478.957 110.482 478.56 110.734C478.165 110.987 477.852 111.358 477.622 111.847C477.395 112.335 477.281 112.932 477.281 113.636C477.281 114.347 477.395 114.946 477.622 115.435C477.852 115.923 478.166 116.293 478.564 116.543C478.962 116.793 479.409 116.918 479.906 116.918C480.182 116.918 480.443 116.881 480.69 116.807C480.94 116.73 481.166 116.618 481.368 116.47C481.57 116.322 481.74 116.142 481.879 115.929C482.021 115.713 482.119 115.466 482.173 115.188L483.503 115.192C483.432 115.621 483.294 116.016 483.09 116.376C482.888 116.734 482.628 117.044 482.31 117.305C481.994 117.564 481.634 117.764 481.227 117.906C480.821 118.048 480.378 118.119 479.898 118.119C479.142 118.119 478.469 117.94 477.878 117.582C477.287 117.222 476.821 116.706 476.48 116.036C476.142 115.365 475.973 114.565 475.973 113.636C475.973 112.705 476.143 111.905 476.484 111.237C476.825 110.567 477.291 110.053 477.882 109.695C478.473 109.334 479.145 109.153 479.898 109.153C480.361 109.153 480.793 109.22 481.193 109.354C481.597 109.484 481.959 109.678 482.28 109.933C482.601 110.186 482.866 110.496 483.077 110.862C483.287 111.226 483.429 111.642 483.503 112.111ZM484.408 110.406V109.273H491.162V110.406H488.439V118H487.127V110.406H484.408ZM493.732 109.273V118H492.415V109.273H493.732ZM502.99 113.636C502.99 114.568 502.82 115.369 502.479 116.04C502.138 116.707 501.671 117.222 501.077 117.582C500.486 117.94 499.814 118.119 499.061 118.119C498.306 118.119 497.631 117.94 497.037 117.582C496.446 117.222 495.98 116.706 495.639 116.036C495.298 115.365 495.128 114.565 495.128 113.636C495.128 112.705 495.298 111.905 495.639 111.237C495.98 110.567 496.446 110.053 497.037 109.695C497.631 109.334 498.306 109.153 499.061 109.153C499.814 109.153 500.486 109.334 501.077 109.695C501.671 110.053 502.138 110.567 502.479 111.237C502.82 111.905 502.99 112.705 502.99 113.636ZM501.686 113.636C501.686 112.926 501.571 112.328 501.341 111.842C501.114 111.354 500.801 110.984 500.404 110.734C500.009 110.482 499.561 110.355 499.061 110.355C498.558 110.355 498.11 110.482 497.715 110.734C497.32 110.984 497.007 111.354 496.777 111.842C496.55 112.328 496.436 112.926 496.436 113.636C496.436 114.347 496.55 114.946 496.777 115.435C497.007 115.92 497.32 116.29 497.715 116.543C498.11 116.793 498.558 116.918 499.061 116.918C499.561 116.918 500.009 116.793 500.404 116.543C500.801 116.29 501.114 115.92 501.341 115.435C501.571 114.946 501.686 114.347 501.686 113.636ZM511.436 109.273V118H510.226L505.79 111.599H505.709V118H504.392V109.273H505.611L510.051 115.682H510.132V109.273H511.436ZM517.877 111.565C517.831 111.162 517.644 110.849 517.314 110.628C516.985 110.403 516.57 110.291 516.07 110.291C515.712 110.291 515.402 110.348 515.141 110.462C514.88 110.572 514.676 110.726 514.532 110.922C514.389 111.115 514.318 111.335 514.318 111.582C514.318 111.79 514.367 111.969 514.463 112.119C514.563 112.27 514.692 112.396 514.851 112.499C515.013 112.598 515.186 112.682 515.371 112.75C515.556 112.815 515.733 112.869 515.904 112.912L516.756 113.134C517.034 113.202 517.32 113.294 517.613 113.411C517.905 113.527 518.176 113.68 518.426 113.871C518.676 114.061 518.878 114.297 519.032 114.578C519.188 114.859 519.266 115.196 519.266 115.588C519.266 116.082 519.138 116.521 518.882 116.905C518.63 117.288 518.262 117.591 517.779 117.812C517.299 118.034 516.718 118.145 516.036 118.145C515.382 118.145 514.817 118.041 514.34 117.834C513.863 117.626 513.489 117.332 513.219 116.952C512.949 116.568 512.8 116.114 512.772 115.588H514.093C514.118 115.903 514.22 116.166 514.399 116.376C514.581 116.584 514.813 116.739 515.094 116.841C515.378 116.94 515.689 116.99 516.027 116.99C516.399 116.99 516.73 116.932 517.02 116.815C517.313 116.696 517.543 116.531 517.711 116.321C517.878 116.108 517.962 115.859 517.962 115.575C517.962 115.317 517.888 115.105 517.74 114.94C517.595 114.776 517.398 114.639 517.148 114.531C516.901 114.423 516.621 114.328 516.309 114.246L515.277 113.964C514.578 113.774 514.024 113.494 513.615 113.125C513.209 112.756 513.006 112.267 513.006 111.659C513.006 111.156 513.142 110.717 513.415 110.342C513.688 109.967 514.057 109.676 514.523 109.469C514.989 109.259 515.514 109.153 516.1 109.153C516.691 109.153 517.212 109.257 517.664 109.464C518.118 109.672 518.476 109.957 518.738 110.321C518.999 110.682 519.135 111.097 519.147 111.565H517.877Z" fill="white"/>
<path d="M353.207 308.111H351.878C351.827 307.827 351.732 307.577 351.592 307.361C351.453 307.145 351.283 306.962 351.081 306.811C350.879 306.661 350.653 306.547 350.403 306.47C350.156 306.393 349.893 306.355 349.615 306.355C349.112 306.355 348.662 306.482 348.264 306.734C347.869 306.987 347.557 307.358 347.327 307.847C347.099 308.335 346.986 308.932 346.986 309.636C346.986 310.347 347.099 310.946 347.327 311.435C347.557 311.923 347.871 312.293 348.268 312.543C348.666 312.793 349.114 312.918 349.611 312.918C349.886 312.918 350.148 312.881 350.395 312.807C350.645 312.73 350.871 312.618 351.072 312.47C351.274 312.322 351.445 312.142 351.584 311.929C351.726 311.713 351.824 311.466 351.878 311.188L353.207 311.192C353.136 311.621 352.999 312.016 352.794 312.376C352.592 312.734 352.332 313.044 352.014 313.305C351.699 313.564 351.338 313.764 350.932 313.906C350.526 314.048 350.082 314.119 349.602 314.119C348.847 314.119 348.173 313.94 347.582 313.582C346.991 313.222 346.526 312.706 346.185 312.036C345.847 311.365 345.678 310.565 345.678 309.636C345.678 308.705 345.848 307.905 346.189 307.237C346.53 306.567 346.996 306.053 347.587 305.695C348.178 305.334 348.849 305.153 349.602 305.153C350.065 305.153 350.497 305.22 350.898 305.354C351.301 305.484 351.663 305.678 351.984 305.933C352.305 306.186 352.571 306.496 352.781 306.862C352.991 307.226 353.134 307.642 353.207 308.111ZM354.543 314V305.273H355.86V309.065H360.211V305.273H361.532V314H360.211V310.195H355.86V314H354.543ZM363.946 314H362.549L365.689 305.273H367.211L370.351 314H368.954L366.486 306.858H366.418L363.946 314ZM364.181 310.582H368.715V311.69H364.181V310.582ZM378.416 305.273V314H377.205L372.769 307.599H372.688V314H371.372V305.273H372.59L377.031 311.682H377.112V305.273H378.416ZM386.003 308.03C385.92 307.771 385.81 307.54 385.67 307.335C385.534 307.128 385.371 306.952 385.18 306.807C384.99 306.659 384.773 306.547 384.528 306.47C384.287 306.393 384.021 306.355 383.731 306.355C383.24 306.355 382.797 306.482 382.402 306.734C382.007 306.987 381.694 307.358 381.464 307.847C381.237 308.332 381.123 308.928 381.123 309.632C381.123 310.339 381.239 310.937 381.469 311.426C381.699 311.915 382.014 312.286 382.415 312.538C382.815 312.791 383.271 312.918 383.783 312.918C384.257 312.918 384.67 312.821 385.023 312.628C385.378 312.435 385.652 312.162 385.845 311.81C386.041 311.455 386.139 311.037 386.139 310.557L386.48 310.621H383.983V309.534H387.413V310.527C387.413 311.26 387.257 311.896 386.944 312.436C386.635 312.973 386.206 313.388 385.658 313.68C385.112 313.973 384.487 314.119 383.783 314.119C382.993 314.119 382.3 313.938 381.703 313.574C381.109 313.21 380.646 312.695 380.314 312.027C379.981 311.357 379.815 310.561 379.815 309.641C379.815 308.945 379.912 308.32 380.105 307.766C380.298 307.212 380.569 306.741 380.919 306.355C381.271 305.966 381.685 305.669 382.159 305.464C382.636 305.257 383.158 305.153 383.723 305.153C384.194 305.153 384.633 305.223 385.04 305.362C385.449 305.501 385.812 305.699 386.131 305.955C386.452 306.21 386.717 306.514 386.927 306.866C387.138 307.216 387.28 307.604 387.354 308.03H386.003ZM388.845 314V305.273H394.316V306.406H390.162V309.065H394.031V310.195H390.162V312.866H394.367V314H388.845ZM348.784 330H345.959V321.273H348.874C349.729 321.273 350.463 321.447 351.077 321.797C351.69 322.143 352.161 322.642 352.487 323.293C352.817 323.94 352.982 324.717 352.982 325.624C352.982 326.533 352.815 327.314 352.483 327.967C352.153 328.621 351.676 329.124 351.051 329.476C350.426 329.825 349.67 330 348.784 330ZM347.276 328.849H348.712C349.376 328.849 349.929 328.724 350.369 328.474C350.81 328.222 351.139 327.857 351.358 327.379C351.577 326.899 351.686 326.314 351.686 325.624C351.686 324.939 351.577 324.358 351.358 323.881C351.142 323.403 350.82 323.041 350.391 322.794C349.962 322.547 349.429 322.423 348.793 322.423H347.276V328.849ZM354.683 330H353.285L356.425 321.273H357.947L361.087 330H359.69L357.222 322.858H357.154L354.683 330ZM354.917 326.582H359.451V327.69H354.917V326.582ZM360.646 322.406V321.273H367.4V322.406H364.677V330H363.365V322.406H360.646ZM368.359 330H366.961L370.102 321.273H371.623L374.764 330H373.366L370.899 322.858H370.83L368.359 330ZM368.593 326.582H373.127V327.69H368.593V326.582ZM378.72 330V321.273H384.132V322.406H380.037V325.065H383.744V326.195H380.037V330H378.72ZM391.123 321.273H392.444V327.013C392.444 327.624 392.301 328.165 392.014 328.636C391.727 329.105 391.323 329.474 390.804 329.744C390.284 330.011 389.674 330.145 388.975 330.145C388.279 330.145 387.672 330.011 387.152 329.744C386.632 329.474 386.228 329.105 385.941 328.636C385.654 328.165 385.511 327.624 385.511 327.013V321.273H386.828V326.906C386.828 327.301 386.914 327.652 387.088 327.959C387.264 328.266 387.512 328.507 387.833 328.683C388.154 328.857 388.535 328.943 388.975 328.943C389.419 328.943 389.801 328.857 390.122 328.683C390.446 328.507 390.693 328.266 390.863 327.959C391.037 327.652 391.123 327.301 391.123 326.906V321.273ZM401.163 321.273V330H399.952L395.516 323.599H395.435V330H394.119V321.273H395.337L399.778 327.682H399.859V321.273H401.163ZM410.092 324.111H408.763C408.711 323.827 408.616 323.577 408.477 323.361C408.338 323.145 408.167 322.962 407.966 322.811C407.764 322.661 407.538 322.547 407.288 322.47C407.041 322.393 406.778 322.355 406.5 322.355C405.997 322.355 405.547 322.482 405.149 322.734C404.754 322.987 404.442 323.358 404.211 323.847C403.984 324.335 403.87 324.932 403.87 325.636C403.87 326.347 403.984 326.946 404.211 327.435C404.442 327.923 404.755 328.293 405.153 328.543C405.551 328.793 405.998 328.918 406.495 328.918C406.771 328.918 407.032 328.881 407.28 328.807C407.53 328.73 407.755 328.618 407.957 328.47C408.159 328.322 408.329 328.142 408.468 327.929C408.611 327.713 408.709 327.466 408.763 327.188L410.092 327.192C410.021 327.621 409.883 328.016 409.679 328.376C409.477 328.734 409.217 329.044 408.899 329.305C408.584 329.564 408.223 329.764 407.817 329.906C407.41 330.048 406.967 330.119 406.487 330.119C405.731 330.119 405.058 329.94 404.467 329.582C403.876 329.222 403.41 328.706 403.069 328.036C402.731 327.365 402.562 326.565 402.562 325.636C402.562 324.705 402.733 323.905 403.074 323.237C403.415 322.567 403.88 322.053 404.471 321.695C405.062 321.334 405.734 321.153 406.487 321.153C406.95 321.153 407.382 321.22 407.782 321.354C408.186 321.484 408.548 321.678 408.869 321.933C409.19 322.186 409.456 322.496 409.666 322.862C409.876 323.226 410.018 323.642 410.092 324.111ZM410.997 322.406V321.273H417.752V322.406H415.029V330H413.716V322.406H410.997ZM420.321 321.273V330H419.004V321.273H420.321ZM429.579 325.636C429.579 326.568 429.409 327.369 429.068 328.04C428.727 328.707 428.26 329.222 427.666 329.582C427.075 329.94 426.403 330.119 425.65 330.119C424.895 330.119 424.22 329.94 423.626 329.582C423.035 329.222 422.57 328.706 422.229 328.036C421.888 327.365 421.717 326.565 421.717 325.636C421.717 324.705 421.888 323.905 422.229 323.237C422.57 322.567 423.035 322.053 423.626 321.695C424.22 321.334 424.895 321.153 425.65 321.153C426.403 321.153 427.075 321.334 427.666 321.695C428.26 322.053 428.727 322.567 429.068 323.237C429.409 323.905 429.579 324.705 429.579 325.636ZM428.275 325.636C428.275 324.926 428.16 324.328 427.93 323.842C427.703 323.354 427.391 322.984 426.993 322.734C426.598 322.482 426.15 322.355 425.65 322.355C425.148 322.355 424.699 322.482 424.304 322.734C423.909 322.984 423.597 323.354 423.366 323.842C423.139 324.328 423.025 324.926 423.025 325.636C423.025 326.347 423.139 326.946 423.366 327.435C423.597 327.92 423.909 328.29 424.304 328.543C424.699 328.793 425.148 328.918 425.65 328.918C426.15 328.918 426.598 328.793 426.993 328.543C427.391 328.29 427.703 327.92 427.93 327.435C428.16 326.946 428.275 326.347 428.275 325.636ZM438.025 321.273V330H436.815L432.379 323.599H432.298V330H430.981V321.273H432.2L436.64 327.682H436.721V321.273H438.025ZM444.466 323.565C444.42 323.162 444.233 322.849 443.903 322.628C443.574 322.403 443.159 322.291 442.659 322.291C442.301 322.291 441.992 322.348 441.73 322.462C441.469 322.572 441.266 322.726 441.121 322.922C440.979 323.115 440.908 323.335 440.908 323.582C440.908 323.79 440.956 323.969 441.053 324.119C441.152 324.27 441.281 324.396 441.44 324.499C441.602 324.598 441.776 324.682 441.96 324.75C442.145 324.815 442.322 324.869 442.493 324.912L443.345 325.134C443.624 325.202 443.909 325.294 444.202 325.411C444.494 325.527 444.766 325.68 445.016 325.871C445.266 326.061 445.467 326.297 445.621 326.578C445.777 326.859 445.855 327.196 445.855 327.588C445.855 328.082 445.727 328.521 445.472 328.905C445.219 329.288 444.851 329.591 444.368 329.812C443.888 330.034 443.307 330.145 442.625 330.145C441.972 330.145 441.406 330.041 440.929 329.834C440.452 329.626 440.078 329.332 439.808 328.952C439.538 328.568 439.389 328.114 439.361 327.588H440.682C440.707 327.903 440.81 328.166 440.989 328.376C441.17 328.584 441.402 328.739 441.683 328.841C441.967 328.94 442.278 328.99 442.617 328.99C442.989 328.99 443.32 328.932 443.609 328.815C443.902 328.696 444.132 328.531 444.3 328.321C444.467 328.108 444.551 327.859 444.551 327.575C444.551 327.317 444.477 327.105 444.33 326.94C444.185 326.776 443.987 326.639 443.737 326.531C443.49 326.423 443.21 326.328 442.898 326.246L441.867 325.964C441.168 325.774 440.614 325.494 440.205 325.125C439.798 324.756 439.595 324.267 439.595 323.659C439.595 323.156 439.732 322.717 440.004 322.342C440.277 321.967 440.646 321.676 441.112 321.469C441.578 321.259 442.104 321.153 442.689 321.153C443.28 321.153 443.801 321.257 444.253 321.464C444.707 321.672 445.065 321.957 445.327 322.321C445.588 322.682 445.724 323.097 445.736 323.565H444.466Z" fill="white"/>
<path d="M732.167 102V93.2727H733.483V100.866H737.438V102H732.167ZM745.941 97.6364C745.941 98.5682 745.771 99.3693 745.43 100.04C745.089 100.707 744.622 101.222 744.028 101.582C743.437 101.94 742.765 102.119 742.012 102.119C741.257 102.119 740.582 101.94 739.988 101.582C739.397 101.222 738.931 100.706 738.59 100.036C738.249 99.3651 738.079 98.5653 738.079 97.6364C738.079 96.7045 738.249 95.9048 738.59 95.2372C738.931 94.5668 739.397 94.0526 739.988 93.6946C740.582 93.3338 741.257 93.1534 742.012 93.1534C742.765 93.1534 743.437 93.3338 744.028 93.6946C744.622 94.0526 745.089 94.5668 745.43 95.2372C745.771 95.9048 745.941 96.7045 745.941 97.6364ZM744.637 97.6364C744.637 96.9261 744.522 96.3281 744.292 95.8423C744.065 95.3537 743.752 94.9844 743.355 94.7344C742.96 94.4815 742.512 94.3551 742.012 94.3551C741.509 94.3551 741.06 94.4815 740.666 94.7344C740.271 94.9844 739.958 95.3537 739.728 95.8423C739.501 96.3281 739.387 96.9261 739.387 97.6364C739.387 98.3466 739.501 98.946 739.728 99.4347C739.958 99.9205 740.271 100.29 740.666 100.543C741.06 100.793 741.509 100.918 742.012 100.918C742.512 100.918 742.96 100.793 743.355 100.543C743.752 100.29 744.065 99.9205 744.292 99.4347C744.522 98.946 744.637 98.3466 744.637 97.6364ZM748.946 102L746.526 93.2727H747.911L749.611 100.031H749.692L751.46 93.2727H752.833L754.601 100.036H754.682L756.378 93.2727H757.767L755.343 102H754.017L752.181 95.4631H752.112L750.276 102H748.946ZM761.99 97.0824V98.1903H758.121V97.0824H761.99ZM763.55 102V93.2727H764.867V100.866H768.822V102H763.55ZM771.266 102H769.869L773.009 93.2727H774.531L777.671 102H776.273L773.806 94.858H773.738L771.266 102ZM771.501 98.5824H776.035V99.6903H771.501V98.5824ZM777.23 94.4062V93.2727H783.984V94.4062H781.261V102H779.949V94.4062H777.23ZM785.237 102V93.2727H790.708V94.4062H786.553V97.0653H790.423V98.1946H786.553V100.866H790.759V102H785.237ZM799.271 93.2727V102H798.061L793.625 95.5994H793.544V102H792.227V93.2727H793.446L797.886 99.6818H797.967V93.2727H799.271ZM808.201 96.1108H806.871C806.82 95.8267 806.725 95.5767 806.585 95.3608C806.446 95.1449 806.276 94.9616 806.074 94.8111C805.872 94.6605 805.647 94.5469 805.397 94.4702C805.149 94.3935 804.887 94.3551 804.608 94.3551C804.105 94.3551 803.655 94.4815 803.257 94.7344C802.862 94.9872 802.55 95.358 802.32 95.8466C802.093 96.3352 801.979 96.9318 801.979 97.6364C801.979 98.3466 802.093 98.946 802.32 99.4347C802.55 99.9233 802.864 100.293 803.262 100.543C803.659 100.793 804.107 100.918 804.604 100.918C804.879 100.918 805.141 100.881 805.388 100.807C805.638 100.73 805.864 100.618 806.066 100.47C806.267 100.322 806.438 100.142 806.577 99.929C806.719 99.7131 806.817 99.4659 806.871 99.1875L808.201 99.1918C808.129 99.6207 807.992 100.016 807.787 100.376C807.585 100.734 807.326 101.044 807.007 101.305C806.692 101.564 806.331 101.764 805.925 101.906C805.519 102.048 805.076 102.119 804.595 102.119C803.84 102.119 803.166 101.94 802.576 101.582C801.985 101.222 801.519 100.706 801.178 100.036C800.84 99.3651 800.671 98.5653 800.671 97.6364C800.671 96.7045 800.841 95.9048 801.182 95.2372C801.523 94.5668 801.989 94.0526 802.58 93.6946C803.171 93.3338 803.843 93.1534 804.595 93.1534C805.058 93.1534 805.49 93.2202 805.891 93.3537C806.294 93.4844 806.656 93.6776 806.977 93.9332C807.299 94.1861 807.564 94.4957 807.774 94.8622C807.985 95.2259 808.127 95.642 808.201 96.1108ZM808.863 93.2727H810.359L812.638 97.2401H812.732L815.012 93.2727H816.508L813.342 98.5739V102H812.029V98.5739L808.863 93.2727ZM761.828 112.111H760.498C760.447 111.827 760.352 111.577 760.213 111.361C760.074 111.145 759.903 110.962 759.702 110.811C759.5 110.661 759.274 110.547 759.024 110.47C758.777 110.393 758.514 110.355 758.236 110.355C757.733 110.355 757.283 110.482 756.885 110.734C756.49 110.987 756.177 111.358 755.947 111.847C755.72 112.335 755.606 112.932 755.606 113.636C755.606 114.347 755.72 114.946 755.947 115.435C756.177 115.923 756.491 116.293 756.889 116.543C757.287 116.793 757.734 116.918 758.231 116.918C758.507 116.918 758.768 116.881 759.016 116.807C759.266 116.73 759.491 116.618 759.693 116.47C759.895 116.322 760.065 116.142 760.204 115.929C760.346 115.713 760.444 115.466 760.498 115.188L761.828 115.192C761.757 115.621 761.619 116.016 761.415 116.376C761.213 116.734 760.953 117.044 760.635 117.305C760.319 117.564 759.959 117.764 759.552 117.906C759.146 118.048 758.703 118.119 758.223 118.119C757.467 118.119 756.794 117.94 756.203 117.582C755.612 117.222 755.146 116.706 754.805 116.036C754.467 115.365 754.298 114.565 754.298 113.636C754.298 112.705 754.469 111.905 754.81 111.237C755.15 110.567 755.616 110.053 756.207 109.695C756.798 109.334 757.47 109.153 758.223 109.153C758.686 109.153 759.118 109.22 759.518 109.354C759.922 109.484 760.284 109.678 760.605 109.933C760.926 110.186 761.192 110.496 761.402 110.862C761.612 111.226 761.754 111.642 761.828 112.111ZM763.842 118H762.445L765.585 109.273H767.106L770.247 118H768.849L766.382 110.858H766.314L763.842 118ZM764.077 114.582H768.611V115.69H764.077V114.582ZM778.106 112.111H776.776C776.725 111.827 776.63 111.577 776.491 111.361C776.352 111.145 776.181 110.962 775.979 110.811C775.778 110.661 775.552 110.547 775.302 110.47C775.055 110.393 774.792 110.355 774.513 110.355C774.011 110.355 773.56 110.482 773.163 110.734C772.768 110.987 772.455 111.358 772.225 111.847C771.998 112.335 771.884 112.932 771.884 113.636C771.884 114.347 771.998 114.946 772.225 115.435C772.455 115.923 772.769 116.293 773.167 116.543C773.565 116.793 774.012 116.918 774.509 116.918C774.785 116.918 775.046 116.881 775.293 116.807C775.543 116.73 775.769 116.618 775.971 116.47C776.173 116.322 776.343 116.142 776.482 115.929C776.624 115.713 776.722 115.466 776.776 115.188L778.106 115.192C778.035 115.621 777.897 116.016 777.692 116.376C777.491 116.734 777.231 117.044 776.913 117.305C776.597 117.564 776.237 117.764 775.83 117.906C775.424 118.048 774.981 118.119 774.501 118.119C773.745 118.119 773.072 117.94 772.481 117.582C771.89 117.222 771.424 116.706 771.083 116.036C770.745 115.365 770.576 114.565 770.576 113.636C770.576 112.705 770.746 111.905 771.087 111.237C771.428 110.567 771.894 110.053 772.485 109.695C773.076 109.334 773.748 109.153 774.501 109.153C774.964 109.153 775.396 109.22 775.796 109.354C776.2 109.484 776.562 109.678 776.883 109.933C777.204 110.186 777.469 110.496 777.68 110.862C777.89 111.226 778.032 111.642 778.106 112.111ZM779.441 118V109.273H780.758V113.065H785.109V109.273H786.43V118H785.109V114.195H780.758V118H779.441ZM788.108 118V109.273H793.579V110.406H789.424V113.065H793.294V114.195H789.424V116.866H793.63V118H788.108Z" fill="white"/>
<path d="M560.746 97.6364C560.746 98.5682 560.576 99.3693 560.235 100.04C559.894 100.707 559.427 101.222 558.833 101.582C558.242 101.94 557.57 102.119 556.818 102.119C556.062 102.119 555.387 101.94 554.793 101.582C554.202 101.222 553.737 100.706 553.396 100.036C553.055 99.3651 552.884 98.5653 552.884 97.6364C552.884 96.7045 553.055 95.9048 553.396 95.2372C553.737 94.5668 554.202 94.0526 554.793 93.6946C555.387 93.3338 556.062 93.1534 556.818 93.1534C557.57 93.1534 558.242 93.3338 558.833 93.6946C559.427 94.0526 559.894 94.5668 560.235 95.2372C560.576 95.9048 560.746 96.7045 560.746 97.6364ZM559.443 97.6364C559.443 96.9261 559.327 96.3281 559.097 95.8423C558.87 95.3537 558.558 94.9844 558.16 94.7344C557.765 94.4815 557.318 94.3551 556.818 94.3551C556.315 94.3551 555.866 94.4815 555.471 94.7344C555.076 94.9844 554.764 95.3537 554.533 95.8423C554.306 96.3281 554.193 96.9261 554.193 97.6364C554.193 98.3466 554.306 98.946 554.533 99.4347C554.764 99.9205 555.076 100.29 555.471 100.543C555.866 100.793 556.315 100.918 556.818 100.918C557.318 100.918 557.765 100.793 558.16 100.543C558.558 100.29 558.87 99.9205 559.097 99.4347C559.327 98.946 559.443 98.3466 559.443 97.6364ZM562.148 102V93.2727H565.259C565.938 93.2727 566.5 93.3963 566.946 93.6435C567.393 93.8906 567.726 94.2287 567.948 94.6577C568.169 95.0838 568.28 95.5639 568.28 96.098C568.28 96.6349 568.168 97.1179 567.944 97.5469C567.722 97.973 567.387 98.3111 566.938 98.5611C566.492 98.8082 565.931 98.9318 565.255 98.9318H563.116V97.8153H565.135C565.564 97.8153 565.912 97.7415 566.179 97.5938C566.446 97.4432 566.642 97.2386 566.767 96.9801C566.892 96.7216 566.955 96.4276 566.955 96.098C566.955 95.7685 566.892 95.4759 566.767 95.2202C566.642 94.9645 566.445 94.7642 566.175 94.6193C565.908 94.4744 565.556 94.402 565.118 94.402H563.465V102H562.148ZM569.154 94.4062V93.2727H575.908V94.4062H573.185V102H571.872V94.4062H569.154ZM578.477 93.2727V102H577.16V93.2727H578.477ZM580.155 93.2727H581.753L584.531 100.057H584.633L587.412 93.2727H589.01V102H587.757V95.6847H587.676L585.102 101.987H584.062L581.489 95.6804H581.408V102H580.155V93.2727ZM592.001 93.2727V102H590.684V93.2727H592.001ZM593.453 102V101.122L598.042 94.4062H593.414V93.2727H599.653V94.1506L595.064 100.866H599.691V102H593.453ZM601.84 102H600.442L603.583 93.2727H605.104L608.245 102H606.847L604.38 94.858H604.312L601.84 102ZM602.074 98.5824H606.608V99.6903H602.074V98.5824ZM607.803 94.4062V93.2727H614.558V94.4062H611.835V102H610.522V94.4062H607.803ZM617.127 93.2727V102H615.81V93.2727H617.127ZM626.386 97.6364C626.386 98.5682 626.215 99.3693 625.874 100.04C625.533 100.707 625.066 101.222 624.472 101.582C623.881 101.94 623.209 102.119 622.457 102.119C621.701 102.119 621.026 101.94 620.432 101.582C619.842 101.222 619.376 100.706 619.035 100.036C618.694 99.3651 618.523 98.5653 618.523 97.6364C618.523 96.7045 618.694 95.9048 619.035 95.2372C619.376 94.5668 619.842 94.0526 620.432 93.6946C621.026 93.3338 621.701 93.1534 622.457 93.1534C623.209 93.1534 623.881 93.3338 624.472 93.6946C625.066 94.0526 625.533 94.5668 625.874 95.2372C626.215 95.9048 626.386 96.7045 626.386 97.6364ZM625.082 97.6364C625.082 96.9261 624.967 96.3281 624.736 95.8423C624.509 95.3537 624.197 94.9844 623.799 94.7344C623.404 94.4815 622.957 94.3551 622.457 94.3551C621.954 94.3551 621.505 94.4815 621.11 94.7344C620.715 94.9844 620.403 95.3537 620.172 95.8423C619.945 96.3281 619.832 96.9261 619.832 97.6364C619.832 98.3466 619.945 98.946 620.172 99.4347C620.403 99.9205 620.715 100.29 621.11 100.543C621.505 100.793 621.954 100.918 622.457 100.918C622.957 100.918 623.404 100.793 623.799 100.543C624.197 100.29 624.509 99.9205 624.736 99.4347C624.967 98.946 625.082 98.3466 625.082 97.6364ZM634.831 93.2727V102H633.621L629.185 95.5994H629.104V102H627.787V93.2727H629.006L633.446 99.6818H633.527V93.2727H634.831ZM574.111 109.273H575.709L578.487 116.057H578.589L581.368 109.273H582.966V118H581.713V111.685H581.632L579.058 117.987H578.018L575.444 111.68H575.364V118H574.111V109.273ZM592.221 113.636C592.221 114.568 592.051 115.369 591.71 116.04C591.369 116.707 590.902 117.222 590.308 117.582C589.717 117.94 589.045 118.119 588.292 118.119C587.537 118.119 586.862 117.94 586.268 117.582C585.677 117.222 585.211 116.706 584.87 116.036C584.529 115.365 584.359 114.565 584.359 113.636C584.359 112.705 584.529 111.905 584.87 111.237C585.211 110.567 585.677 110.053 586.268 109.695C586.862 109.334 587.537 109.153 588.292 109.153C589.045 109.153 589.717 109.334 590.308 109.695C590.902 110.053 591.369 110.567 591.71 111.237C592.051 111.905 592.221 112.705 592.221 113.636ZM590.917 113.636C590.917 112.926 590.802 112.328 590.572 111.842C590.345 111.354 590.032 110.984 589.635 110.734C589.24 110.482 588.792 110.355 588.292 110.355C587.789 110.355 587.34 110.482 586.946 110.734C586.551 110.984 586.238 111.354 586.008 111.842C585.781 112.328 585.667 112.926 585.667 113.636C585.667 114.347 585.781 114.946 586.008 115.435C586.238 115.92 586.551 116.29 586.946 116.543C587.34 116.793 587.789 116.918 588.292 116.918C588.792 116.918 589.24 116.793 589.635 116.543C590.032 116.29 590.345 115.92 590.572 115.435C590.802 114.946 590.917 114.347 590.917 113.636ZM596.448 118H593.623V109.273H596.538C597.393 109.273 598.127 109.447 598.741 109.797C599.354 110.143 599.825 110.642 600.151 111.293C600.481 111.94 600.646 112.717 600.646 113.624C600.646 114.533 600.479 115.314 600.147 115.967C599.817 116.621 599.34 117.124 598.715 117.476C598.09 117.825 597.335 118 596.448 118ZM594.94 116.849H596.376C597.04 116.849 597.593 116.724 598.033 116.474C598.474 116.222 598.803 115.857 599.022 115.379C599.241 114.899 599.35 114.314 599.35 113.624C599.35 112.939 599.241 112.358 599.022 111.881C598.806 111.403 598.484 111.041 598.055 110.794C597.626 110.547 597.093 110.423 596.457 110.423H594.94V116.849ZM602.043 118V109.273H607.515V110.406H603.36V113.065H607.229V114.195H603.36V116.866H607.566V118H602.043ZM609.033 118V109.273H610.35V116.866H614.305V118H609.033Z" fill="white"/>
<g opacity="0.2">
<rect x="350" y="166" width="41" height="12" rx="5" fill="#E7ECEE"/>
<rect x="350" y="151" width="41" height="12" rx="5" fill="#E7ECEE"/>
<rect x="394" y="166" width="12" height="12" rx="5" fill="#E7ECEE"/>
<rect x="394" y="151" width="12" height="12" rx="5" fill="#E7ECEE"/>
<rect x="409" y="166" width="27" height="12" rx="5" fill="#E7ECEE"/>
<rect x="409" y="151" width="27" height="12" rx="5" fill="#E7ECEE"/>
<rect x="350" y="181" width="41" height="12" rx="5" fill="#E7ECEE"/>
<rect x="394" y="181" width="12" height="12" rx="5" fill="#E7ECEE"/>
<rect x="409" y="181" width="27" height="12" rx="5" fill="#E7ECEE"/>
<rect x="350" y="196" width="41" height="12" rx="5" fill="#E7ECEE"/>
<rect x="394" y="196" width="12" height="12" rx="5" fill="#E7ECEE"/>
<rect x="409" y="196" width="27" height="12" rx="5" fill="#E7ECEE"/>
<rect x="350" y="211" width="41" height="12" rx="5" fill="#E7ECEE"/>
<rect x="394" y="211" width="12" height="12" rx="5" fill="#E7ECEE"/>
<rect x="409" y="211" width="27" height="12" rx="5" fill="#E7ECEE"/>
</g>
<rect opacity="0.2" x="761" y="151" width="27" height="16" rx="5" fill="white"/>
<rect x="761" y="170" width="27" height="16" rx="5" fill="#35E972"/>
<rect opacity="0.2" x="761" y="189" width="27" height="16" rx="5" fill="white"/>
<rect opacity="0.2" x="761" y="208" width="27" height="16" rx="5" fill="white"/>
<rect x="491" y="181" width="25" height="12" rx="5" fill="white"/>
<path d="M443.333 187C443.333 188.473 444.527 189.667 446 189.667C447.473 189.667 448.667 188.473 448.667 187C448.667 185.527 447.473 184.333 446 184.333C444.527 184.333 443.333 185.527 443.333 187ZM481.354 187.354C481.549 187.158 481.549 186.842 481.354 186.646L478.172 183.464C477.976 183.269 477.66 183.269 477.464 183.464C477.269 183.66 477.269 183.976 477.464 184.172L480.293 187L477.464 189.828C477.269 190.024 477.269 190.34 477.464 190.536C477.66 190.731 477.976 190.731 478.172 190.536L481.354 187.354ZM446 187.5H481V186.5H446V187.5Z" fill="#B0488C"/>
<path d="M523.333 187C523.333 188.473 524.527 189.667 526 189.667C527.473 189.667 528.667 188.473 528.667 187C528.667 185.527 527.473 184.333 526 184.333C524.527 184.333 523.333 185.527 523.333 187ZM554.354 187.354C554.549 187.158 554.549 186.842 554.354 186.646L551.172 183.464C550.976 183.269 550.66 183.269 550.464 183.464C550.269 183.66 550.269 183.976 550.464 184.172L553.293 187L550.464 189.828C550.269 190.024 550.269 190.34 550.464 190.536C550.66 190.731 550.976 190.731 551.172 190.536L554.354 187.354ZM526 187.5H554V186.5H526V187.5Z" fill="#B0488C"/>
<path d="M592 222.333C590.527 222.333 589.333 223.527 589.333 225C589.333 226.473 590.527 227.667 592 227.667C593.473 227.667 594.667 226.473 594.667 225C594.667 223.527 593.473 222.333 592 222.333ZM591.646 273.354C591.842 273.549 592.158 273.549 592.354 273.354L595.536 270.172C595.731 269.976 595.731 269.66 595.536 269.464C595.34 269.269 595.024 269.269 594.828 269.464L592 272.293L589.172 269.464C588.976 269.269 588.66 269.269 588.464 269.464C588.269 269.66 588.269 269.976 588.464 270.172L591.646 273.354ZM591.5 225L591.5 273L592.5 273L592.5 225L591.5 225Z" fill="#B0488C"/>
<path d="M592 360.333C590.527 360.333 589.333 361.527 589.333 363C589.333 364.473 590.527 365.667 592 365.667C593.473 365.667 594.667 364.473 594.667 363C594.667 361.527 593.473 360.333 592 360.333ZM591.5 363L591.5 438L592.5 438L592.5 363L591.5 363Z" fill="#B0488C"/>
<path d="M100.354 251.646C100.158 251.451 99.8417 251.451 99.6464 251.646L96.4645 254.828C96.2692 255.024 96.2692 255.34 96.4645 255.536C96.6597 255.731 96.9763 255.731 97.1716 255.536L100 252.707L102.828 255.536C103.024 255.731 103.34 255.731 103.536 255.536C103.731 255.34 103.731 255.024 103.536 254.828L100.354 251.646ZM99.5 252L99.5 438L100.5 438L100.5 252L99.5 252Z" fill="#B0488C"/>
<path d="M627.333 187C627.333 188.473 628.527 189.667 630 189.667C631.473 189.667 632.667 188.473 632.667 187C632.667 185.527 631.473 184.333 630 184.333C628.527 184.333 627.333 185.527 627.333 187ZM751.354 187.354C751.549 187.158 751.549 186.842 751.354 186.646L748.172 183.464C747.976 183.269 747.66 183.269 747.464 183.464C747.269 183.66 747.269 183.976 747.464 184.172L750.293 187L747.464 189.828C747.269 190.024 747.269 190.34 747.464 190.536C747.66 190.731 747.976 190.731 748.172 190.536L751.354 187.354ZM630 187.5L751 187.5L751 186.5L630 186.5L630 187.5Z" fill="#B0488C"/>
<path d="M100 438L592 438" stroke="#B0488C"/>
<path d="M871.667 187C871.667 185.527 870.473 184.333 869 184.333C867.527 184.333 866.333 185.527 866.333 187C866.333 188.473 867.527 189.667 869 189.667C870.473 189.667 871.667 188.473 871.667 187ZM797.646 186.646C797.451 186.842 797.451 187.158 797.646 187.354L800.828 190.536C801.024 190.731 801.34 190.731 801.536 190.536C801.731 190.34 801.731 190.024 801.536 189.828L798.707 187L801.536 184.172C801.731 183.976 801.731 183.66 801.536 183.464C801.34 183.269 801.024 183.269 800.828 183.464L797.646 186.646ZM869 186.5H798V187.5H869V186.5Z" fill="#B0488C"/>
<path d="M320.354 187.354C320.549 187.158 320.549 186.842 320.354 186.646L317.172 183.464C316.976 183.269 316.66 183.269 316.464 183.464C316.269 183.66 316.269 183.976 316.464 184.172L319.293 187L316.464 189.828C316.269 190.024 316.269 190.34 316.464 190.536C316.66 190.731 316.976 190.731 317.172 190.536L320.354 187.354ZM238 187.5H320V186.5H238V187.5Z" fill="#B0488C"/>
<path d="M207.333 187C207.333 188.473 208.527 189.667 210 189.667C211.473 189.667 212.667 188.473 212.667 187C212.667 185.527 211.473 184.333 210 184.333C208.527 184.333 207.333 185.527 207.333 187ZM210 187.5H239V186.5H210V187.5Z" fill="#B0488C"/>
<path d="M987.646 186.646C987.451 186.842 987.451 187.158 987.646 187.354L990.828 190.536C991.024 190.731 991.34 190.731 991.536 190.536C991.731 190.34 991.731 190.024 991.536 189.828L988.707 187L991.536 184.172C991.731 183.976 991.731 183.66 991.536 183.464C991.34 183.269 991.024 183.269 990.828 183.464L987.646 186.646ZM1069 186.5H988V187.5H1069V186.5Z" fill="#B0488C"/>
<rect x="1079" y="132" width="200" height="110" rx="15" fill="#262A30"/>
<path d="M1141.96 210.273H1143.56L1146.34 217.057H1146.44L1149.22 210.273H1150.81V219H1149.56V212.685H1149.48L1146.91 218.987H1145.87L1143.29 212.68H1143.21V219H1141.96V210.273ZM1160.07 214.636C1160.07 215.568 1159.9 216.369 1159.56 217.04C1159.22 217.707 1158.75 218.222 1158.16 218.582C1157.57 218.94 1156.89 219.119 1156.14 219.119C1155.38 219.119 1154.71 218.94 1154.12 218.582C1153.53 218.222 1153.06 217.706 1152.72 217.036C1152.38 216.365 1152.21 215.565 1152.21 214.636C1152.21 213.705 1152.38 212.905 1152.72 212.237C1153.06 211.567 1153.53 211.053 1154.12 210.695C1154.71 210.334 1155.38 210.153 1156.14 210.153C1156.89 210.153 1157.57 210.334 1158.16 210.695C1158.75 211.053 1159.22 211.567 1159.56 212.237C1159.9 212.905 1160.07 213.705 1160.07 214.636ZM1158.77 214.636C1158.77 213.926 1158.65 213.328 1158.42 212.842C1158.19 212.354 1157.88 211.984 1157.48 211.734C1157.09 211.482 1156.64 211.355 1156.14 211.355C1155.64 211.355 1155.19 211.482 1154.79 211.734C1154.4 211.984 1154.09 212.354 1153.86 212.842C1153.63 213.328 1153.52 213.926 1153.52 214.636C1153.52 215.347 1153.63 215.946 1153.86 216.435C1154.09 216.92 1154.4 217.29 1154.79 217.543C1155.19 217.793 1155.64 217.918 1156.14 217.918C1156.64 217.918 1157.09 217.793 1157.48 217.543C1157.88 217.29 1158.19 216.92 1158.42 216.435C1158.65 215.946 1158.77 215.347 1158.77 214.636ZM1168.52 210.273V219H1167.3L1162.87 212.599H1162.79V219H1161.47V210.273H1162.69L1167.13 216.682H1167.21V210.273H1168.52ZM1171.51 210.273V219H1170.2V210.273H1171.51ZM1172.76 211.406V210.273H1179.51V211.406H1176.79V219H1175.48V211.406H1172.76ZM1187.97 214.636C1187.97 215.568 1187.8 216.369 1187.46 217.04C1187.12 217.707 1186.65 218.222 1186.06 218.582C1185.47 218.94 1184.8 219.119 1184.04 219.119C1183.29 219.119 1182.61 218.94 1182.02 218.582C1181.43 218.222 1180.96 217.706 1180.62 217.036C1180.28 216.365 1180.11 215.565 1180.11 214.636C1180.11 213.705 1180.28 212.905 1180.62 212.237C1180.96 211.567 1181.43 211.053 1182.02 210.695C1182.61 210.334 1183.29 210.153 1184.04 210.153C1184.8 210.153 1185.47 210.334 1186.06 210.695C1186.65 211.053 1187.12 211.567 1187.46 212.237C1187.8 212.905 1187.97 213.705 1187.97 214.636ZM1186.67 214.636C1186.67 213.926 1186.55 213.328 1186.32 212.842C1186.1 212.354 1185.78 211.984 1185.39 211.734C1184.99 211.482 1184.54 211.355 1184.04 211.355C1183.54 211.355 1183.09 211.482 1182.7 211.734C1182.3 211.984 1181.99 212.354 1181.76 212.842C1181.53 213.328 1181.42 213.926 1181.42 214.636C1181.42 215.347 1181.53 215.946 1181.76 216.435C1181.99 216.92 1182.3 217.29 1182.7 217.543C1183.09 217.793 1183.54 217.918 1184.04 217.918C1184.54 217.918 1184.99 217.793 1185.39 217.543C1185.78 217.29 1186.1 216.92 1186.32 216.435C1186.55 215.946 1186.67 215.347 1186.67 214.636ZM1189.37 219V210.273H1192.49C1193.16 210.273 1193.72 210.389 1194.17 210.622C1194.62 210.855 1194.95 211.178 1195.17 211.589C1195.4 211.999 1195.51 212.472 1195.51 213.009C1195.51 213.543 1195.39 214.013 1195.17 214.419C1194.95 214.822 1194.61 215.136 1194.16 215.361C1193.72 215.585 1193.16 215.697 1192.48 215.697H1190.12V214.564H1192.36C1192.79 214.564 1193.13 214.503 1193.4 214.381C1193.67 214.259 1193.87 214.081 1193.99 213.848C1194.12 213.615 1194.18 213.335 1194.18 213.009C1194.18 212.679 1194.12 212.393 1193.99 212.152C1193.86 211.911 1193.67 211.726 1193.4 211.598C1193.13 211.467 1192.78 211.402 1192.34 211.402H1190.69V219H1189.37ZM1193.68 215.062L1195.84 219H1194.34L1192.23 215.062H1193.68ZM1198.19 210.273V219H1196.87V210.273H1198.19ZM1206.91 210.273V219H1205.7L1201.26 212.599H1201.18V219H1199.86V210.273H1201.08L1205.52 216.682H1205.6V210.273H1206.91ZM1214.49 213.03C1214.41 212.771 1214.3 212.54 1214.16 212.335C1214.03 212.128 1213.86 211.952 1213.67 211.807C1213.48 211.659 1213.26 211.547 1213.02 211.47C1212.78 211.393 1212.51 211.355 1212.22 211.355C1211.73 211.355 1211.29 211.482 1210.89 211.734C1210.5 211.987 1210.19 212.358 1209.96 212.847C1209.73 213.332 1209.61 213.928 1209.61 214.632C1209.61 215.339 1209.73 215.937 1209.96 216.426C1210.19 216.915 1210.51 217.286 1210.91 217.538C1211.31 217.791 1211.76 217.918 1212.27 217.918C1212.75 217.918 1213.16 217.821 1213.51 217.628C1213.87 217.435 1214.14 217.162 1214.34 216.81C1214.53 216.455 1214.63 216.037 1214.63 215.557L1214.97 215.621H1212.47V214.534H1215.9V215.527C1215.9 216.26 1215.75 216.896 1215.44 217.436C1215.13 217.973 1214.7 218.388 1214.15 218.68C1213.6 218.973 1212.98 219.119 1212.27 219.119C1211.48 219.119 1210.79 218.938 1210.19 218.574C1209.6 218.21 1209.14 217.695 1208.81 217.027C1208.47 216.357 1208.31 215.561 1208.31 214.641C1208.31 213.945 1208.4 213.32 1208.6 212.766C1208.79 212.212 1209.06 211.741 1209.41 211.355C1209.76 210.966 1210.18 210.669 1210.65 210.464C1211.13 210.257 1211.65 210.153 1212.21 210.153C1212.69 210.153 1213.12 210.223 1213.53 210.362C1213.94 210.501 1214.3 210.699 1214.62 210.955C1214.94 211.21 1215.21 211.514 1215.42 211.866C1215.63 212.216 1215.77 212.604 1215.84 213.03H1214.49Z" fill="white"/>
<path d="M1166.58 188.667H1187.42M1170.75 180.333V188.667M1183.25 180.333V188.667M1170.75 172V163.667M1177 172V169.917M1183.25 172V167.833M1158.25 157.417C1158.25 156.864 1158.47 156.334 1158.86 155.943C1159.25 155.553 1159.78 155.333 1160.33 155.333H1193.67C1194.22 155.333 1194.75 155.553 1195.14 155.943C1195.53 156.334 1195.75 156.864 1195.75 157.417V178.25C1195.75 178.802 1195.53 179.332 1195.14 179.723C1194.75 180.114 1194.22 180.333 1193.67 180.333H1160.33C1159.78 180.333 1159.25 180.114 1158.86 179.723C1158.47 179.332 1158.25 178.802 1158.25 178.25V157.417Z" stroke="white" stroke-width="2" stroke-linecap="round" stroke-linejoin="round"/>
<circle opacity="0.05" cx="923" cy="187" r="28" fill="white"/>
<g clip-path="url(#clip0_2885_4681)">
<path d="M913 188.25H919.25" stroke="white" stroke-width="1.5" stroke-linecap="round" stroke-linejoin="round"/>
<path d="M923 192V182H926.75C927.413 182 928.049 182.263 928.518 182.732C928.987 183.201 929.25 183.837 929.25 184.5V185.75C929.25 186.413 928.987 187.049 928.518 187.518C928.049 187.987 927.413 188.25 926.75 188.25H923" stroke="white" stroke-width="1.5" stroke-linecap="round" stroke-linejoin="round"/>
<path d="M933 182V192" stroke="white" stroke-width="1.5" stroke-linecap="round" stroke-linejoin="round"/>
<path d="M919.25 192V185.125C919.25 184.296 918.921 183.501 918.335 182.915C917.749 182.329 916.954 182 916.125 182C915.296 182 914.501 182.329 913.915 182.915C913.329 183.501 913 184.296 913 185.125V192" stroke="white" stroke-width="1.5" stroke-linecap="round" stroke-linejoin="round"/>
</g>
<circle opacity="0.05" cx="592" cy="187" r="28" fill="white"/>
<circle opacity="0.05" cx="592" cy="318" r="35" fill="white"/>
<g clip-path="url(#clip1_2885_4681)">
<path d="M595.542 306.667H599.084C600.211 306.667 601.292 307.115 602.089 307.912C602.886 308.709 603.334 309.79 603.334 310.917V325.083C603.334 326.211 602.886 327.292 602.089 328.089C601.292 328.886 600.211 329.333 599.084 329.333H584.917C583.79 329.333 582.709 328.886 581.912 328.089C581.115 327.292 580.667 326.211 580.667 325.083V318" stroke="white" stroke-width="1.5" stroke-linecap="round" stroke-linejoin="round"/>
<path d="M583.5 308.083L580.667 310.917L583.5 313.75" stroke="white" stroke-width="1.5" stroke-linecap="round" stroke-linejoin="round"/>
<path d="M589.167 313.75L592 310.917L589.167 308.083" stroke="white" stroke-width="1.5" stroke-linecap="round" stroke-linejoin="round"/>
</g>
<g clip-path="url(#clip2_2885_4681)">
<path d="M603.88 189.94C603.22 189.94 602.56 190.18 601.96 190.66L597.52 187L601.96 183.34C602.44 183.76 603.1 184.06 603.88 184.06C605.5 184.06 606.7 182.8 606.7 181.24C606.7 179.62 605.44 178.42 603.88 178.42C602.98 178.42 602.08 178.84 601.6 179.56L594.7 176.02C594.82 175.72 594.82 175.48 594.82 175.18C594.82 173.56 593.56 172.3 592 172.3C590.44 172.3 589.18 173.56 589.18 175.18C589.18 175.78 589.36 176.32 589.72 176.86L586.78 179.8L582.88 177.76C582.94 177.52 583 177.28 583 177.04C583 175.42 581.74 174.16 580.18 174.16C578.56 174.16 577.36 175.42 577.36 177.04C577.36 177.76 577.66 178.48 578.2 179.08C578.74 179.62 579.4 179.92 580.24 179.92C581.2 179.92 582.1 179.44 582.64 178.72L586.18 180.58L581.98 184.78C581.5 184.42 580.96 184.24 580.3 184.24C578.68 184.24 577.48 185.5 577.48 187.06C577.48 188.68 578.74 189.94 580.3 189.94C580.9 189.94 581.44 189.76 581.98 189.4L586.12 193.54L582.58 195.4C582.04 194.68 581.26 194.26 580.3 194.26C579.52 194.26 578.86 194.56 578.26 195.1C577.66 195.64 577.42 196.36 577.42 197.14C577.42 198.76 578.68 199.96 580.24 199.96C581.86 199.96 583.06 198.7 583.06 197.14C583.06 196.84 583 196.54 582.94 196.3L586.72 194.32L589.72 197.32C589.36 197.8 589.18 198.34 589.18 199C589.18 200.62 590.44 201.82 592 201.82C593.56 201.82 594.82 200.56 594.82 199C594.82 198.7 594.76 198.4 594.7 198.16L601.54 194.68C602.08 195.4 602.86 195.82 603.82 195.82C605.44 195.82 606.64 194.56 606.64 193C606.7 191.2 605.38 189.94 603.88 189.94ZM581.08 177.52C580.9 177.88 580.54 178.12 580.12 178.12C579.82 178.12 579.58 178 579.34 177.82C579.22 177.58 579.1 177.34 579.1 177.04C579.1 176.44 579.58 175.96 580.18 175.96C580.78 175.96 581.26 176.44 581.26 177.04C581.2 177.22 581.14 177.4 581.08 177.52ZM581.08 197.44C580.9 197.8 580.54 198.04 580.12 198.04C579.82 198.04 579.58 197.92 579.34 197.74C579.16 197.56 579.04 197.26 579.04 197.02C579.04 196.42 579.52 195.94 580.12 195.94C580.72 195.94 581.2 196.42 581.2 197.02C581.2 197.14 581.14 197.32 581.08 197.44ZM603.88 180.16C604.48 180.16 604.96 180.64 604.96 181.24C604.96 181.42 604.9 181.6 604.84 181.72C604.66 182.08 604.3 182.32 603.88 182.32C603.58 182.32 603.34 182.2 603.1 182.02C602.92 181.84 602.8 181.54 602.8 181.3C602.8 180.64 603.28 180.16 603.88 180.16ZM592 174.1C592.6 174.1 593.08 174.58 593.08 175.18C593.08 175.36 593.02 175.54 592.96 175.66C592.78 176.02 592.42 176.26 592 176.26C591.7 176.26 591.46 176.14 591.22 175.96C591.04 175.78 590.92 175.48 590.92 175.24C590.92 174.58 591.4 174.1 592 174.1ZM590.32 177.46C590.86 177.82 591.4 178 592 178C592.9 178 593.8 177.58 594.28 176.86L601.12 180.34C601.06 180.58 601 180.88 601 181.18C601 181.66 601.12 182.14 601.36 182.56L596.8 186.4L594.46 184.48C594.7 184.06 594.82 183.58 594.82 183.1C594.82 181.48 593.56 180.28 592 180.28C591.1 180.28 590.26 180.7 589.72 181.36L587.56 180.28L590.32 177.46ZM593.92 188.86C593.44 188.44 592.78 188.14 592 188.14C590.92 188.14 589.9 188.74 589.48 189.7L582.94 187.54C583 187.36 583 187.18 583 187C583 186.82 583 186.64 582.94 186.46L589.48 184.36C589.96 185.26 590.92 185.92 592 185.92C592.66 185.92 593.32 185.68 593.92 185.26L596.14 187.12L593.92 188.86ZM593.08 190.96C593.08 191.14 593.02 191.32 592.96 191.44C592.78 191.8 592.42 192.04 592 192.04C591.7 192.04 591.46 191.92 591.22 191.74C591.04 191.56 590.92 191.26 590.92 190.96C590.92 190.36 591.4 189.88 592 189.88C592.6 189.88 593.08 190.36 593.08 190.96ZM590.92 183.1C590.92 182.5 591.4 182.02 592 182.02C592.6 182.02 593.08 182.5 593.08 183.1C593.08 183.28 593.02 183.46 592.96 183.58C592.78 183.94 592.42 184.18 592 184.18C591.7 184.18 591.46 184.06 591.22 183.88C591.04 183.64 590.92 183.34 590.92 183.1ZM589.3 182.14C589.18 182.44 589.18 182.68 589.18 183.04V183.46L582.64 185.62C582.58 185.56 582.52 185.44 582.52 185.38L586.96 180.94L589.3 182.14ZM581.08 187.48C580.9 187.84 580.54 188.08 580.12 188.08C579.82 188.08 579.58 187.96 579.34 187.78C579.16 187.6 579.04 187.3 579.04 187.06C579.04 186.46 579.52 185.98 580.12 185.98C580.72 185.98 581.2 186.46 581.2 187.06C581.2 187.18 581.14 187.36 581.08 187.48ZM582.46 188.68C582.52 188.62 582.58 188.56 582.64 188.44L589.18 190.6C589.18 190.72 589.12 190.84 589.12 191.02C589.12 191.32 589.18 191.62 589.24 191.86L586.78 193.06L582.46 188.68ZM589.72 192.64C590.2 193.3 591.04 193.78 592 193.78C593.62 193.78 594.82 192.52 594.82 190.96C594.82 190.48 594.7 190 594.46 189.58L596.8 187.66L601.42 191.44C601.12 191.92 601 192.4 601 192.88C601 193.18 601.06 193.48 601.12 193.72L594.28 197.2C593.74 196.48 592.96 196.06 592 196.06C591.4 196.06 590.86 196.24 590.32 196.6L587.5 193.78L589.72 192.64ZM592.96 199.36C592.78 199.72 592.42 199.96 592 199.96C591.7 199.96 591.46 199.84 591.22 199.66C591.04 199.48 590.92 199.18 590.92 198.94C590.92 198.34 591.4 197.86 592 197.86C592.6 197.86 593.08 198.34 593.08 198.94C593.08 199 593.02 199.18 592.96 199.36ZM604.78 193.3C604.6 193.66 604.24 193.9 603.82 193.9C603.52 193.9 603.28 193.78 603.04 193.6C602.8 193.42 602.74 193.12 602.74 192.88C602.74 192.28 603.22 191.8 603.82 191.8C604.42 191.8 604.9 192.28 604.9 192.88C604.9 193 604.84 193.18 604.78 193.3Z" fill="white"/>
</g>
<defs>
<clipPath id="clip0_2885_4681">
<rect width="30" height="30" fill="white" transform="translate(908 172)"/>
</clipPath>
<clipPath id="clip1_2885_4681">
<rect width="34" height="34" fill="white" transform="translate(575 301)"/>
</clipPath>
<clipPath id="clip2_2885_4681">
<rect width="30" height="30" fill="white" transform="translate(577 172)"/>
</clipPath>
</defs>
</svg>
