<svg width="1482" height="420" viewBox="0 0 1482 420" fill="none" xmlns="http://www.w3.org/2000/svg">
<rect width="1482" height="420" rx="20" fill="#1F2224"/>
<rect x="58.5" y="185.5" width="133" height="55" rx="14.5" fill="#262A30"/>
<path d="M85.0632 217.592H84.9672C84.7219 218.093 84.3966 218.488 83.9912 218.776C83.5859 219.053 83.0792 219.192 82.4712 219.192C81.5006 219.192 80.7272 218.829 80.1512 218.104C79.5752 217.379 79.2872 216.301 79.2872 214.872C79.2872 213.443 79.5752 212.365 80.1512 211.64C80.7272 210.915 81.5006 210.552 82.4712 210.552C83.0792 210.552 83.5859 210.696 83.9912 210.984C84.3966 211.261 84.7219 211.651 84.9672 212.152H85.0632V207.16H86.8072V219H85.0632V217.592ZM83.1912 217.768C83.4472 217.768 83.6872 217.736 83.9112 217.672C84.1352 217.608 84.3326 217.512 84.5032 217.384C84.6739 217.256 84.8072 217.101 84.9032 216.92C85.0099 216.728 85.0632 216.504 85.0632 216.248V213.496C85.0632 213.24 85.0099 213.021 84.9032 212.84C84.8072 212.648 84.6739 212.488 84.5032 212.36C84.3326 212.232 84.1352 212.136 83.9112 212.072C83.6872 212.008 83.4472 211.976 83.1912 211.976C82.5299 211.976 82.0179 212.179 81.6552 212.584C81.3032 212.989 81.1272 213.528 81.1272 214.2V215.544C81.1272 216.216 81.3032 216.755 81.6552 217.16C82.0179 217.565 82.5299 217.768 83.1912 217.768ZM92.545 219.192C91.937 219.192 91.3877 219.091 90.897 218.888C90.417 218.685 90.0063 218.397 89.665 218.024C89.3343 217.651 89.0783 217.197 88.897 216.664C88.7157 216.131 88.625 215.533 88.625 214.872C88.625 214.211 88.7157 213.613 88.897 213.08C89.0783 212.547 89.3343 212.093 89.665 211.72C90.0063 211.347 90.417 211.059 90.897 210.856C91.3877 210.653 91.937 210.552 92.545 210.552C93.153 210.552 93.697 210.653 94.177 210.856C94.6677 211.059 95.0783 211.347 95.409 211.72C95.7503 212.093 96.0117 212.547 96.193 213.08C96.3743 213.613 96.465 214.211 96.465 214.872C96.465 215.533 96.3743 216.131 96.193 216.664C96.0117 217.197 95.7503 217.651 95.409 218.024C95.0783 218.397 94.6677 218.685 94.177 218.888C93.697 219.091 93.153 219.192 92.545 219.192ZM92.545 217.816C93.185 217.816 93.6917 217.624 94.065 217.24C94.449 216.845 94.641 216.264 94.641 215.496V214.248C94.641 213.48 94.449 212.904 94.065 212.52C93.6917 212.125 93.185 211.928 92.545 211.928C91.905 211.928 91.393 212.125 91.009 212.52C90.6357 212.904 90.449 213.48 90.449 214.248V215.496C90.449 216.264 90.6357 216.845 91.009 217.24C91.393 217.624 91.905 217.816 92.545 217.816ZM98.2507 219V217.464L103.275 212.152H98.4267V210.744H105.227V212.28L100.203 217.592H105.387V219H98.2507ZM111.268 219.192C110.639 219.192 110.074 219.091 109.572 218.888C109.071 218.685 108.65 218.397 108.308 218.024C107.967 217.651 107.706 217.203 107.524 216.68C107.343 216.147 107.252 215.549 107.252 214.888C107.252 214.227 107.343 213.629 107.524 213.096C107.716 212.563 107.978 212.109 108.308 211.736C108.65 211.352 109.06 211.059 109.54 210.856C110.02 210.653 110.554 210.552 111.14 210.552C111.716 210.552 112.239 210.653 112.708 210.856C113.178 211.048 113.578 211.325 113.908 211.688C114.239 212.051 114.49 212.483 114.66 212.984C114.842 213.485 114.932 214.04 114.932 214.648V215.304H109.012V215.576C109.012 216.227 109.215 216.76 109.62 217.176C110.026 217.581 110.586 217.784 111.3 217.784C111.834 217.784 112.287 217.672 112.661 217.448C113.044 217.213 113.354 216.904 113.589 216.52L114.677 217.48C114.399 217.96 113.973 218.365 113.397 218.696C112.831 219.027 112.122 219.192 111.268 219.192ZM111.14 211.88C110.831 211.88 110.543 211.933 110.276 212.04C110.02 212.147 109.796 212.301 109.604 212.504C109.423 212.696 109.279 212.925 109.172 213.192C109.066 213.459 109.012 213.752 109.012 214.072V214.184H113.156V214.024C113.156 213.373 112.97 212.856 112.596 212.472C112.234 212.077 111.748 211.88 111.14 211.88ZM116.782 217.592H118.974V212.152H116.782V210.744H120.718V212.936H120.814C120.889 212.648 120.996 212.371 121.134 212.104C121.273 211.837 121.449 211.608 121.662 211.416C121.876 211.213 122.137 211.053 122.446 210.936C122.756 210.808 123.118 210.744 123.534 210.744H124.526V212.408H122.894C122.254 212.408 121.732 212.6 121.326 212.984C120.921 213.357 120.718 213.864 120.718 214.504V217.592H123.71V219H116.782V217.592ZM139.426 209.24C138.978 209.24 138.663 209.149 138.482 208.968C138.311 208.787 138.226 208.563 138.226 208.296V207.96C138.226 207.693 138.311 207.469 138.482 207.288C138.663 207.107 138.972 207.016 139.41 207.016C139.858 207.016 140.167 207.107 140.338 207.288C140.519 207.469 140.61 207.693 140.61 207.96V208.296C140.61 208.563 140.519 208.787 140.338 208.968C140.167 209.149 139.863 209.24 139.426 209.24ZM135.73 217.592H138.546V212.152H135.73V210.744H140.29V217.592H142.93V219H135.73V217.592ZM144.731 219V210.744H146.475V212.152H146.555C146.641 211.939 146.747 211.736 146.875 211.544C147.014 211.341 147.179 211.171 147.371 211.032C147.563 210.883 147.787 210.765 148.043 210.68C148.299 210.595 148.598 210.552 148.939 210.552C149.771 210.552 150.443 210.824 150.955 211.368C151.467 211.912 151.723 212.685 151.723 213.688V219H149.979V213.944C149.979 212.632 149.409 211.976 148.267 211.976C148.043 211.976 147.825 212.008 147.611 212.072C147.398 212.125 147.206 212.211 147.035 212.328C146.865 212.445 146.726 212.595 146.619 212.776C146.523 212.957 146.475 213.165 146.475 213.4V219H144.731ZM157.973 209.24C157.525 209.24 157.211 209.149 157.029 208.968C156.859 208.787 156.773 208.563 156.773 208.296V207.96C156.773 207.693 156.859 207.469 157.029 207.288C157.211 207.107 157.52 207.016 157.957 207.016C158.405 207.016 158.715 207.107 158.885 207.288C159.067 207.469 159.157 207.693 159.157 207.96V208.296C159.157 208.563 159.067 208.787 158.885 208.968C158.715 209.149 158.411 209.24 157.973 209.24ZM154.277 217.592H157.093V212.152H154.277V210.744H158.837V217.592H161.477V219H154.277V217.592ZM167.231 219C166.506 219 165.972 218.808 165.631 218.424C165.29 218.029 165.119 217.523 165.119 216.904V212.152H162.575V210.744H164.383C164.692 210.744 164.911 210.685 165.039 210.568C165.167 210.44 165.231 210.216 165.231 209.896V207.832H166.863V210.744H170.383V212.152H166.863V217.592H170.383V219H167.231Z" fill="white"/>
<rect x="58.5" y="185.5" width="133" height="55" rx="14.5" stroke="#333840"/>
<rect x="277.5" y="185.5" width="133" height="55" rx="14.5" fill="#262A30"/>
<path d="M304.063 217.592H303.967C303.722 218.093 303.397 218.488 302.991 218.776C302.586 219.053 302.079 219.192 301.471 219.192C300.501 219.192 299.727 218.829 299.151 218.104C298.575 217.379 298.287 216.301 298.287 214.872C298.287 213.443 298.575 212.365 299.151 211.64C299.727 210.915 300.501 210.552 301.471 210.552C302.079 210.552 302.586 210.696 302.991 210.984C303.397 211.261 303.722 211.651 303.967 212.152H304.063V207.16H305.807V219H304.063V217.592ZM302.191 217.768C302.447 217.768 302.687 217.736 302.911 217.672C303.135 217.608 303.333 217.512 303.503 217.384C303.674 217.256 303.807 217.101 303.903 216.92C304.01 216.728 304.063 216.504 304.063 216.248V213.496C304.063 213.24 304.01 213.021 303.903 212.84C303.807 212.648 303.674 212.488 303.503 212.36C303.333 212.232 303.135 212.136 302.911 212.072C302.687 212.008 302.447 211.976 302.191 211.976C301.53 211.976 301.018 212.179 300.655 212.584C300.303 212.989 300.127 213.528 300.127 214.2V215.544C300.127 216.216 300.303 216.755 300.655 217.16C301.018 217.565 301.53 217.768 302.191 217.768ZM311.545 219.192C310.937 219.192 310.388 219.091 309.897 218.888C309.417 218.685 309.006 218.397 308.665 218.024C308.334 217.651 308.078 217.197 307.897 216.664C307.716 216.131 307.625 215.533 307.625 214.872C307.625 214.211 307.716 213.613 307.897 213.08C308.078 212.547 308.334 212.093 308.665 211.72C309.006 211.347 309.417 211.059 309.897 210.856C310.388 210.653 310.937 210.552 311.545 210.552C312.153 210.552 312.697 210.653 313.177 210.856C313.668 211.059 314.078 211.347 314.409 211.72C314.75 212.093 315.012 212.547 315.193 213.08C315.374 213.613 315.465 214.211 315.465 214.872C315.465 215.533 315.374 216.131 315.193 216.664C315.012 217.197 314.75 217.651 314.409 218.024C314.078 218.397 313.668 218.685 313.177 218.888C312.697 219.091 312.153 219.192 311.545 219.192ZM311.545 217.816C312.185 217.816 312.692 217.624 313.065 217.24C313.449 216.845 313.641 216.264 313.641 215.496V214.248C313.641 213.48 313.449 212.904 313.065 212.52C312.692 212.125 312.185 211.928 311.545 211.928C310.905 211.928 310.393 212.125 310.009 212.52C309.636 212.904 309.449 213.48 309.449 214.248V215.496C309.449 216.264 309.636 216.845 310.009 217.24C310.393 217.624 310.905 217.816 311.545 217.816ZM317.251 219V217.464L322.275 212.152H317.427V210.744H324.227V212.28L319.203 217.592H324.387V219H317.251ZM330.268 219.192C329.639 219.192 329.074 219.091 328.572 218.888C328.071 218.685 327.65 218.397 327.308 218.024C326.967 217.651 326.706 217.203 326.524 216.68C326.343 216.147 326.252 215.549 326.252 214.888C326.252 214.227 326.343 213.629 326.524 213.096C326.716 212.563 326.978 212.109 327.308 211.736C327.65 211.352 328.06 211.059 328.54 210.856C329.02 210.653 329.554 210.552 330.14 210.552C330.716 210.552 331.239 210.653 331.708 210.856C332.178 211.048 332.578 211.325 332.908 211.688C333.239 212.051 333.49 212.483 333.66 212.984C333.842 213.485 333.932 214.04 333.932 214.648V215.304H328.012V215.576C328.012 216.227 328.215 216.76 328.62 217.176C329.026 217.581 329.586 217.784 330.3 217.784C330.834 217.784 331.287 217.672 331.661 217.448C332.044 217.213 332.354 216.904 332.589 216.52L333.677 217.48C333.399 217.96 332.973 218.365 332.397 218.696C331.831 219.027 331.122 219.192 330.268 219.192ZM330.14 211.88C329.831 211.88 329.543 211.933 329.276 212.04C329.02 212.147 328.796 212.301 328.604 212.504C328.423 212.696 328.279 212.925 328.172 213.192C328.066 213.459 328.012 213.752 328.012 214.072V214.184H332.156V214.024C332.156 213.373 331.97 212.856 331.596 212.472C331.234 212.077 330.748 211.88 330.14 211.88ZM335.782 217.592H337.974V212.152H335.782V210.744H339.718V212.936H339.814C339.889 212.648 339.996 212.371 340.134 212.104C340.273 211.837 340.449 211.608 340.662 211.416C340.876 211.213 341.137 211.053 341.446 210.936C341.756 210.808 342.118 210.744 342.534 210.744H343.526V212.408H341.894C341.254 212.408 340.732 212.6 340.326 212.984C339.921 213.357 339.718 213.864 339.718 214.504V217.592H342.71V219H335.782V217.592ZM354.314 217.592H357.05V208.568H354.314V207.16H358.794V217.592H361.53V219H354.314V217.592ZM367.699 209.24C367.251 209.24 366.937 209.149 366.755 208.968C366.585 208.787 366.499 208.563 366.499 208.296V207.96C366.499 207.693 366.585 207.469 366.755 207.288C366.937 207.107 367.246 207.016 367.683 207.016C368.131 207.016 368.441 207.107 368.611 207.288C368.793 207.469 368.883 207.693 368.883 207.96V208.296C368.883 208.563 368.793 208.787 368.611 208.968C368.441 209.149 368.137 209.24 367.699 209.24ZM364.003 217.592H366.819V212.152H364.003V210.744H368.563V217.592H371.203V219H364.003V217.592ZM375.389 219L372.429 210.744H374.237L375.373 214.232L376.445 217.544H376.541L377.613 214.232L378.749 210.744H380.493L377.533 219H375.389ZM385.911 219.192C385.282 219.192 384.716 219.091 384.215 218.888C383.714 218.685 383.292 218.397 382.951 218.024C382.61 217.651 382.348 217.203 382.167 216.68C381.986 216.147 381.895 215.549 381.895 214.888C381.895 214.227 381.986 213.629 382.167 213.096C382.359 212.563 382.62 212.109 382.951 211.736C383.292 211.352 383.703 211.059 384.183 210.856C384.663 210.653 385.196 210.552 385.783 210.552C386.359 210.552 386.882 210.653 387.351 210.856C387.82 211.048 388.22 211.325 388.551 211.688C388.882 212.051 389.132 212.483 389.303 212.984C389.484 213.485 389.575 214.04 389.575 214.648V215.304H383.655V215.576C383.655 216.227 383.858 216.76 384.263 217.176C384.668 217.581 385.228 217.784 385.943 217.784C386.476 217.784 386.93 217.672 387.303 217.448C387.687 217.213 387.996 216.904 388.231 216.52L389.319 217.48C389.042 217.96 388.615 218.365 388.039 218.696C387.474 219.027 386.764 219.192 385.911 219.192ZM385.783 211.88C385.474 211.88 385.186 211.933 384.919 212.04C384.663 212.147 384.439 212.301 384.247 212.504C384.066 212.696 383.922 212.925 383.815 213.192C383.708 213.459 383.655 213.752 383.655 214.072V214.184H387.799V214.024C387.799 213.373 387.612 212.856 387.239 212.472C386.876 212.077 386.391 211.88 385.783 211.88Z" fill="white"/>
<rect x="277.5" y="185.5" width="133" height="55" rx="14.5" stroke="#333840"/>
<rect x="495.5" y="185.5" width="86" height="55" rx="14.5" fill="#262A30"/>
<path d="M521.748 217.592H521.652C521.406 218.093 521.081 218.488 520.676 218.776C520.27 219.053 519.764 219.192 519.156 219.192C518.185 219.192 517.412 218.829 516.836 218.104C516.26 217.379 515.972 216.301 515.972 214.872C515.972 213.443 516.26 212.365 516.836 211.64C517.412 210.915 518.185 210.552 519.156 210.552C519.764 210.552 520.27 210.696 520.676 210.984C521.081 211.261 521.406 211.651 521.652 212.152H521.748V207.16H523.492V219H521.748V217.592ZM519.876 217.768C520.132 217.768 520.372 217.736 520.596 217.672C520.82 217.608 521.017 217.512 521.188 217.384C521.358 217.256 521.492 217.101 521.588 216.92C521.694 216.728 521.748 216.504 521.748 216.248V213.496C521.748 213.24 521.694 213.021 521.588 212.84C521.492 212.648 521.358 212.488 521.188 212.36C521.017 212.232 520.82 212.136 520.596 212.072C520.372 212.008 520.132 211.976 519.876 211.976C519.214 211.976 518.702 212.179 518.34 212.584C517.988 212.989 517.812 213.528 517.812 214.2V215.544C517.812 216.216 517.988 216.755 518.34 217.16C518.702 217.565 519.214 217.768 519.876 217.768ZM529.229 219.192C528.621 219.192 528.072 219.091 527.581 218.888C527.101 218.685 526.691 218.397 526.349 218.024C526.019 217.651 525.763 217.197 525.581 216.664C525.4 216.131 525.309 215.533 525.309 214.872C525.309 214.211 525.4 213.613 525.581 213.08C525.763 212.547 526.019 212.093 526.349 211.72C526.691 211.347 527.101 211.059 527.581 210.856C528.072 210.653 528.621 210.552 529.229 210.552C529.837 210.552 530.381 210.653 530.861 210.856C531.352 211.059 531.763 211.347 532.093 211.72C532.435 212.093 532.696 212.547 532.877 213.08C533.059 213.613 533.149 214.211 533.149 214.872C533.149 215.533 533.059 216.131 532.877 216.664C532.696 217.197 532.435 217.651 532.093 218.024C531.763 218.397 531.352 218.685 530.861 218.888C530.381 219.091 529.837 219.192 529.229 219.192ZM529.229 217.816C529.869 217.816 530.376 217.624 530.749 217.24C531.133 216.845 531.325 216.264 531.325 215.496V214.248C531.325 213.48 531.133 212.904 530.749 212.52C530.376 212.125 529.869 211.928 529.229 211.928C528.589 211.928 528.077 212.125 527.693 212.52C527.32 212.904 527.133 213.48 527.133 214.248V215.496C527.133 216.264 527.32 216.845 527.693 217.24C528.077 217.624 528.589 217.816 529.229 217.816ZM534.935 219V217.464L539.959 212.152H535.111V210.744H541.911V212.28L536.887 217.592H542.071V219H534.935ZM547.953 219.192C547.324 219.192 546.758 219.091 546.257 218.888C545.756 218.685 545.334 218.397 544.993 218.024C544.652 217.651 544.39 217.203 544.209 216.68C544.028 216.147 543.937 215.549 543.937 214.888C543.937 214.227 544.028 213.629 544.209 213.096C544.401 212.563 544.662 212.109 544.993 211.736C545.334 211.352 545.745 211.059 546.225 210.856C546.705 210.653 547.238 210.552 547.825 210.552C548.401 210.552 548.924 210.653 549.393 210.856C549.862 211.048 550.262 211.325 550.593 211.688C550.924 212.051 551.174 212.483 551.345 212.984C551.526 213.485 551.617 214.04 551.617 214.648V215.304H545.697V215.576C545.697 216.227 545.9 216.76 546.305 217.176C546.71 217.581 547.27 217.784 547.985 217.784C548.518 217.784 548.972 217.672 549.345 217.448C549.729 217.213 550.038 216.904 550.273 216.52L551.361 217.48C551.084 217.96 550.657 218.365 550.081 218.696C549.516 219.027 548.806 219.192 547.953 219.192ZM547.825 211.88C547.516 211.88 547.228 211.933 546.961 212.04C546.705 212.147 546.481 212.301 546.289 212.504C546.108 212.696 545.964 212.925 545.857 213.192C545.75 213.459 545.697 213.752 545.697 214.072V214.184H549.841V214.024C549.841 213.373 549.654 212.856 549.281 212.472C548.918 212.077 548.433 211.88 547.825 211.88ZM553.467 217.592H555.659V212.152H553.467V210.744H557.403V212.936H557.499C557.573 212.648 557.68 212.371 557.819 212.104C557.957 211.837 558.133 211.608 558.347 211.416C558.56 211.213 558.821 211.053 559.131 210.936C559.44 210.808 559.803 210.744 560.219 210.744H561.211V212.408H559.579C558.939 212.408 558.416 212.6 558.011 212.984C557.605 213.357 557.403 213.864 557.403 214.504V217.592H560.395V219H553.467V217.592Z" fill="white"/>
<rect x="495.5" y="185.5" width="86" height="55" rx="14.5" stroke="#333840"/>
<rect x="710.5" y="263.5" width="207" height="55" rx="14.5" fill="#262A30"/>
<path d="M736.968 295.592H736.872C736.627 296.093 736.302 296.488 735.896 296.776C735.491 297.053 734.984 297.192 734.376 297.192C733.406 297.192 732.632 296.829 732.056 296.104C731.48 295.379 731.192 294.301 731.192 292.872C731.192 291.443 731.48 290.365 732.056 289.64C732.632 288.915 733.406 288.552 734.376 288.552C734.984 288.552 735.491 288.696 735.896 288.984C736.302 289.261 736.627 289.651 736.872 290.152H736.968V285.16H738.712V297H736.968V295.592ZM735.096 295.768C735.352 295.768 735.592 295.736 735.816 295.672C736.04 295.608 736.238 295.512 736.408 295.384C736.579 295.256 736.712 295.101 736.808 294.92C736.915 294.728 736.968 294.504 736.968 294.248V291.496C736.968 291.24 736.915 291.021 736.808 290.84C736.712 290.648 736.579 290.488 736.408 290.36C736.238 290.232 736.04 290.136 735.816 290.072C735.592 290.008 735.352 289.976 735.096 289.976C734.435 289.976 733.923 290.179 733.56 290.584C733.208 290.989 733.032 291.528 733.032 292.2V293.544C733.032 294.216 733.208 294.755 733.56 295.16C733.923 295.565 734.435 295.768 735.096 295.768ZM744.45 297.192C743.842 297.192 743.293 297.091 742.802 296.888C742.322 296.685 741.911 296.397 741.57 296.024C741.239 295.651 740.983 295.197 740.802 294.664C740.621 294.131 740.53 293.533 740.53 292.872C740.53 292.211 740.621 291.613 740.802 291.08C740.983 290.547 741.239 290.093 741.57 289.72C741.911 289.347 742.322 289.059 742.802 288.856C743.293 288.653 743.842 288.552 744.45 288.552C745.058 288.552 745.602 288.653 746.082 288.856C746.573 289.059 746.983 289.347 747.314 289.72C747.655 290.093 747.917 290.547 748.098 291.08C748.279 291.613 748.37 292.211 748.37 292.872C748.37 293.533 748.279 294.131 748.098 294.664C747.917 295.197 747.655 295.651 747.314 296.024C746.983 296.397 746.573 296.685 746.082 296.888C745.602 297.091 745.058 297.192 744.45 297.192ZM744.45 295.816C745.09 295.816 745.597 295.624 745.97 295.24C746.354 294.845 746.546 294.264 746.546 293.496V292.248C746.546 291.48 746.354 290.904 745.97 290.52C745.597 290.125 745.09 289.928 744.45 289.928C743.81 289.928 743.298 290.125 742.914 290.52C742.541 290.904 742.354 291.48 742.354 292.248V293.496C742.354 294.264 742.541 294.845 742.914 295.24C743.298 295.624 743.81 295.816 744.45 295.816ZM750.156 297V295.464L755.18 290.152H750.332V288.744H757.132V290.28L752.108 295.592H757.292V297H750.156ZM763.174 297.192C762.544 297.192 761.979 297.091 761.478 296.888C760.976 296.685 760.555 296.397 760.214 296.024C759.872 295.651 759.611 295.203 759.43 294.68C759.248 294.147 759.158 293.549 759.158 292.888C759.158 292.227 759.248 291.629 759.43 291.096C759.622 290.563 759.883 290.109 760.214 289.736C760.555 289.352 760.966 289.059 761.446 288.856C761.926 288.653 762.459 288.552 763.046 288.552C763.622 288.552 764.144 288.653 764.614 288.856C765.083 289.048 765.483 289.325 765.814 289.688C766.144 290.051 766.395 290.483 766.566 290.984C766.747 291.485 766.838 292.04 766.838 292.648V293.304H760.918V293.576C760.918 294.227 761.12 294.76 761.526 295.176C761.931 295.581 762.491 295.784 763.206 295.784C763.739 295.784 764.192 295.672 764.566 295.448C764.95 295.213 765.259 294.904 765.494 294.52L766.582 295.48C766.304 295.96 765.878 296.365 765.302 296.696C764.736 297.027 764.027 297.192 763.174 297.192ZM763.046 289.88C762.736 289.88 762.448 289.933 762.182 290.04C761.926 290.147 761.702 290.301 761.51 290.504C761.328 290.696 761.184 290.925 761.078 291.192C760.971 291.459 760.918 291.752 760.918 292.072V292.184H765.062V292.024C765.062 291.373 764.875 290.856 764.502 290.472C764.139 290.077 763.654 289.88 763.046 289.88ZM768.687 295.592H770.879V290.152H768.687V288.744H772.623V290.936H772.719C772.794 290.648 772.901 290.371 773.039 290.104C773.178 289.837 773.354 289.608 773.567 289.416C773.781 289.213 774.042 289.053 774.351 288.936C774.661 288.808 775.023 288.744 775.439 288.744H776.431V290.408H774.799C774.159 290.408 773.637 290.6 773.231 290.984C772.826 291.357 772.623 291.864 772.623 292.504V295.592H775.615V297H768.687V295.592ZM791.123 297.192C790.504 297.192 789.949 297.091 789.459 296.888C788.979 296.685 788.568 296.397 788.227 296.024C787.896 295.651 787.64 295.197 787.459 294.664C787.288 294.131 787.203 293.533 787.203 292.872C787.203 292.211 787.288 291.613 787.459 291.08C787.64 290.547 787.896 290.093 788.227 289.72C788.568 289.347 788.979 289.059 789.459 288.856C789.949 288.653 790.499 288.552 791.107 288.552C791.96 288.552 792.643 288.733 793.155 289.096C793.677 289.459 794.067 289.928 794.323 290.504L792.963 291.24C792.813 290.856 792.584 290.552 792.275 290.328C791.976 290.104 791.587 289.992 791.107 289.992C790.445 289.992 789.933 290.195 789.571 290.6C789.208 290.995 789.027 291.523 789.027 292.184V293.56C789.027 294.211 789.208 294.739 789.571 295.144C789.933 295.549 790.456 295.752 791.139 295.752C791.651 295.752 792.067 295.635 792.387 295.4C792.717 295.165 792.979 294.845 793.171 294.44L794.451 295.224C794.184 295.8 793.779 296.275 793.235 296.648C792.691 297.011 791.987 297.192 791.123 297.192ZM796.493 295.592H799.229V286.568H796.493V285.16H800.973V295.592H803.709V297H796.493V295.592ZM809.366 297.192C808.758 297.192 808.209 297.091 807.718 296.888C807.238 296.685 806.828 296.397 806.486 296.024C806.156 295.651 805.9 295.197 805.718 294.664C805.537 294.131 805.446 293.533 805.446 292.872C805.446 292.211 805.537 291.613 805.718 291.08C805.9 290.547 806.156 290.093 806.486 289.72C806.828 289.347 807.238 289.059 807.718 288.856C808.209 288.653 808.758 288.552 809.366 288.552C809.974 288.552 810.518 288.653 810.998 288.856C811.489 289.059 811.9 289.347 812.23 289.72C812.572 290.093 812.833 290.547 813.014 291.08C813.196 291.613 813.286 292.211 813.286 292.872C813.286 293.533 813.196 294.131 813.014 294.664C812.833 295.197 812.572 295.651 812.23 296.024C811.9 296.397 811.489 296.685 810.998 296.888C810.518 297.091 809.974 297.192 809.366 297.192ZM809.366 295.816C810.006 295.816 810.513 295.624 810.886 295.24C811.27 294.845 811.462 294.264 811.462 293.496V292.248C811.462 291.48 811.27 290.904 810.886 290.52C810.513 290.125 810.006 289.928 809.366 289.928C808.726 289.928 808.214 290.125 807.83 290.52C807.457 290.904 807.27 291.48 807.27 292.248V293.496C807.27 294.264 807.457 294.845 807.83 295.24C808.214 295.624 808.726 295.816 809.366 295.816ZM820.352 295.592H820.272C820.187 295.805 820.075 296.013 819.936 296.216C819.808 296.408 819.648 296.579 819.456 296.728C819.264 296.867 819.04 296.979 818.784 297.064C818.528 297.149 818.229 297.192 817.888 297.192C817.056 297.192 816.384 296.92 815.872 296.376C815.36 295.832 815.104 295.059 815.104 294.056V288.744H816.848V293.8C816.848 295.112 817.419 295.768 818.56 295.768C818.784 295.768 819.003 295.741 819.216 295.688C819.429 295.624 819.621 295.533 819.792 295.416C819.963 295.299 820.096 295.155 820.192 294.984C820.299 294.803 820.352 294.589 820.352 294.344V288.744H822.096V297H820.352V295.592ZM829.706 295.592H829.61C829.364 296.093 829.039 296.488 828.634 296.776C828.228 297.053 827.722 297.192 827.114 297.192C826.143 297.192 825.37 296.829 824.794 296.104C824.218 295.379 823.93 294.301 823.93 292.872C823.93 291.443 824.218 290.365 824.794 289.64C825.37 288.915 826.143 288.552 827.114 288.552C827.722 288.552 828.228 288.696 828.634 288.984C829.039 289.261 829.364 289.651 829.61 290.152H829.706V285.16H831.45V297H829.706V295.592ZM827.834 295.768C828.09 295.768 828.33 295.736 828.554 295.672C828.778 295.608 828.975 295.512 829.146 295.384C829.316 295.256 829.45 295.101 829.546 294.92C829.652 294.728 829.706 294.504 829.706 294.248V291.496C829.706 291.24 829.652 291.021 829.546 290.84C829.45 290.648 829.316 290.488 829.146 290.36C828.975 290.232 828.778 290.136 828.554 290.072C828.33 290.008 828.09 289.976 827.834 289.976C827.172 289.976 826.66 290.179 826.298 290.584C825.946 290.989 825.77 291.528 825.77 292.2V293.544C825.77 294.216 825.946 294.755 826.298 295.16C826.66 295.565 827.172 295.768 827.834 295.768ZM848.253 295.592H848.157C847.912 296.093 847.587 296.488 847.181 296.776C846.776 297.053 846.269 297.192 845.661 297.192C844.691 297.192 843.917 296.829 843.341 296.104C842.765 295.379 842.477 294.301 842.477 292.872C842.477 291.443 842.765 290.365 843.341 289.64C843.917 288.915 844.691 288.552 845.661 288.552C846.269 288.552 846.776 288.696 847.181 288.984C847.587 289.261 847.912 289.651 848.157 290.152H848.253V285.16H849.997V297H848.253V295.592ZM846.381 295.768C846.637 295.768 846.877 295.736 847.101 295.672C847.325 295.608 847.523 295.512 847.693 295.384C847.864 295.256 847.997 295.101 848.093 294.92C848.2 294.728 848.253 294.504 848.253 294.248V291.496C848.253 291.24 848.2 291.021 848.093 290.84C847.997 290.648 847.864 290.488 847.693 290.36C847.523 290.232 847.325 290.136 847.101 290.072C846.877 290.008 846.637 289.976 846.381 289.976C845.72 289.976 845.208 290.179 844.845 290.584C844.493 290.989 844.317 291.528 844.317 292.2V293.544C844.317 294.216 844.493 294.755 844.845 295.16C845.208 295.565 845.72 295.768 846.381 295.768ZM855.911 297.192C855.282 297.192 854.716 297.091 854.215 296.888C853.714 296.685 853.292 296.397 852.951 296.024C852.61 295.651 852.348 295.203 852.167 294.68C851.986 294.147 851.895 293.549 851.895 292.888C851.895 292.227 851.986 291.629 852.167 291.096C852.359 290.563 852.62 290.109 852.951 289.736C853.292 289.352 853.703 289.059 854.183 288.856C854.663 288.653 855.196 288.552 855.783 288.552C856.359 288.552 856.882 288.653 857.351 288.856C857.82 289.048 858.22 289.325 858.551 289.688C858.882 290.051 859.132 290.483 859.303 290.984C859.484 291.485 859.575 292.04 859.575 292.648V293.304H853.655V293.576C853.655 294.227 853.858 294.76 854.263 295.176C854.668 295.581 855.228 295.784 855.943 295.784C856.476 295.784 856.93 295.672 857.303 295.448C857.687 295.213 857.996 294.904 858.231 294.52L859.319 295.48C859.042 295.96 858.615 296.365 858.039 296.696C857.474 297.027 856.764 297.192 855.911 297.192ZM855.783 289.88C855.474 289.88 855.186 289.933 854.919 290.04C854.663 290.147 854.439 290.301 854.247 290.504C854.066 290.696 853.922 290.925 853.815 291.192C853.708 291.459 853.655 291.752 853.655 292.072V292.184H857.799V292.024C857.799 291.373 857.612 290.856 857.239 290.472C856.876 290.077 856.391 289.88 855.783 289.88ZM861.473 288.744H863.217V290.152H863.313C863.558 289.651 863.883 289.261 864.289 288.984C864.694 288.696 865.201 288.552 865.809 288.552C866.779 288.552 867.553 288.915 868.129 289.64C868.705 290.365 868.993 291.443 868.993 292.872C868.993 294.301 868.705 295.379 868.129 296.104C867.553 296.829 866.779 297.192 865.809 297.192C865.201 297.192 864.694 297.053 864.289 296.776C863.883 296.488 863.558 296.093 863.313 295.592H863.217V300.2H861.473V288.744ZM865.089 295.768C865.75 295.768 866.257 295.565 866.609 295.16C866.971 294.755 867.153 294.216 867.153 293.544V292.2C867.153 291.528 866.971 290.989 866.609 290.584C866.257 290.179 865.75 289.976 865.089 289.976C864.833 289.976 864.593 290.008 864.369 290.072C864.145 290.136 863.947 290.232 863.777 290.36C863.606 290.488 863.467 290.648 863.361 290.84C863.265 291.021 863.217 291.24 863.217 291.496V294.248C863.217 294.504 863.265 294.728 863.361 294.92C863.467 295.101 863.606 295.256 863.777 295.384C863.947 295.512 864.145 295.608 864.369 295.672C864.593 295.736 864.833 295.768 865.089 295.768ZM870.682 295.592H873.418V286.568H870.682V285.16H875.162V295.592H877.898V297H870.682V295.592ZM883.556 297.192C882.948 297.192 882.399 297.091 881.908 296.888C881.428 296.685 881.018 296.397 880.676 296.024C880.346 295.651 880.09 295.197 879.908 294.664C879.727 294.131 879.636 293.533 879.636 292.872C879.636 292.211 879.727 291.613 879.908 291.08C880.09 290.547 880.346 290.093 880.676 289.72C881.018 289.347 881.428 289.059 881.908 288.856C882.399 288.653 882.948 288.552 883.556 288.552C884.164 288.552 884.708 288.653 885.188 288.856C885.679 289.059 886.09 289.347 886.42 289.72C886.762 290.093 887.023 290.547 887.204 291.08C887.386 291.613 887.476 292.211 887.476 292.872C887.476 293.533 887.386 294.131 887.204 294.664C887.023 295.197 886.762 295.651 886.42 296.024C886.09 296.397 885.679 296.685 885.188 296.888C884.708 297.091 884.164 297.192 883.556 297.192ZM883.556 295.816C884.196 295.816 884.703 295.624 885.076 295.24C885.46 294.845 885.652 294.264 885.652 293.496V292.248C885.652 291.48 885.46 290.904 885.076 290.52C884.703 290.125 884.196 289.928 883.556 289.928C882.916 289.928 882.404 290.125 882.02 290.52C881.647 290.904 881.46 291.48 881.46 292.248V293.496C881.46 294.264 881.647 294.845 882.02 295.24C882.404 295.624 882.916 295.816 883.556 295.816ZM895.246 288.744H897.006L893.006 298.6C892.793 299.133 892.51 299.533 892.158 299.8C891.817 300.067 891.321 300.2 890.67 300.2H889.278V298.792H891.23L891.982 296.888L888.654 288.744H890.478L891.79 292.2L892.814 295.032H892.91L893.934 292.2L895.246 288.744Z" fill="white"/>
<rect x="710.5" y="263.5" width="207" height="55" rx="14.5" stroke="#333840"/>
<rect x="709.5" y="109.5" width="142" height="55" rx="14.5" fill="#262A30"/>
<path d="M735.926 141.592H735.83C735.585 142.093 735.26 142.488 734.854 142.776C734.449 143.053 733.942 143.192 733.334 143.192C732.364 143.192 731.59 142.829 731.014 142.104C730.438 141.379 730.15 140.301 730.15 138.872C730.15 137.443 730.438 136.365 731.014 135.64C731.59 134.915 732.364 134.552 733.334 134.552C733.942 134.552 734.449 134.696 734.854 134.984C735.26 135.261 735.585 135.651 735.83 136.152H735.926V131.16H737.67V143H735.926V141.592ZM734.054 141.768C734.31 141.768 734.55 141.736 734.774 141.672C734.998 141.608 735.196 141.512 735.366 141.384C735.537 141.256 735.67 141.101 735.766 140.92C735.873 140.728 735.926 140.504 735.926 140.248V137.496C735.926 137.24 735.873 137.021 735.766 136.84C735.67 136.648 735.537 136.488 735.366 136.36C735.196 136.232 734.998 136.136 734.774 136.072C734.55 136.008 734.31 135.976 734.054 135.976C733.393 135.976 732.881 136.179 732.518 136.584C732.166 136.989 731.99 137.528 731.99 138.2V139.544C731.99 140.216 732.166 140.755 732.518 141.16C732.881 141.565 733.393 141.768 734.054 141.768ZM743.408 143.192C742.8 143.192 742.251 143.091 741.76 142.888C741.28 142.685 740.869 142.397 740.528 142.024C740.197 141.651 739.941 141.197 739.76 140.664C739.579 140.131 739.488 139.533 739.488 138.872C739.488 138.211 739.579 137.613 739.76 137.08C739.941 136.547 740.197 136.093 740.528 135.72C740.869 135.347 741.28 135.059 741.76 134.856C742.251 134.653 742.8 134.552 743.408 134.552C744.016 134.552 744.56 134.653 745.04 134.856C745.531 135.059 745.941 135.347 746.272 135.72C746.613 136.093 746.875 136.547 747.056 137.08C747.237 137.613 747.328 138.211 747.328 138.872C747.328 139.533 747.237 140.131 747.056 140.664C746.875 141.197 746.613 141.651 746.272 142.024C745.941 142.397 745.531 142.685 745.04 142.888C744.56 143.091 744.016 143.192 743.408 143.192ZM743.408 141.816C744.048 141.816 744.555 141.624 744.928 141.24C745.312 140.845 745.504 140.264 745.504 139.496V138.248C745.504 137.48 745.312 136.904 744.928 136.52C744.555 136.125 744.048 135.928 743.408 135.928C742.768 135.928 742.256 136.125 741.872 136.52C741.499 136.904 741.312 137.48 741.312 138.248V139.496C741.312 140.264 741.499 140.845 741.872 141.24C742.256 141.624 742.768 141.816 743.408 141.816ZM749.114 143V141.464L754.138 136.152H749.29V134.744H756.09V136.28L751.066 141.592H756.25V143H749.114ZM762.132 143.192C761.502 143.192 760.937 143.091 760.436 142.888C759.934 142.685 759.513 142.397 759.172 142.024C758.83 141.651 758.569 141.203 758.388 140.68C758.206 140.147 758.116 139.549 758.116 138.888C758.116 138.227 758.206 137.629 758.388 137.096C758.58 136.563 758.841 136.109 759.172 135.736C759.513 135.352 759.924 135.059 760.404 134.856C760.884 134.653 761.417 134.552 762.004 134.552C762.58 134.552 763.102 134.653 763.572 134.856C764.041 135.048 764.441 135.325 764.772 135.688C765.102 136.051 765.353 136.483 765.524 136.984C765.705 137.485 765.796 138.04 765.796 138.648V139.304H759.876V139.576C759.876 140.227 760.078 140.76 760.484 141.176C760.889 141.581 761.449 141.784 762.164 141.784C762.697 141.784 763.15 141.672 763.524 141.448C763.908 141.213 764.217 140.904 764.452 140.52L765.54 141.48C765.262 141.96 764.836 142.365 764.26 142.696C763.694 143.027 762.985 143.192 762.132 143.192ZM762.004 135.88C761.694 135.88 761.406 135.933 761.14 136.04C760.884 136.147 760.66 136.301 760.468 136.504C760.286 136.696 760.142 136.925 760.036 137.192C759.929 137.459 759.876 137.752 759.876 138.072V138.184H764.02V138.024C764.02 137.373 763.833 136.856 763.46 136.472C763.097 136.077 762.612 135.88 762.004 135.88ZM767.645 141.592H769.837V136.152H767.645V134.744H771.581V136.936H771.677C771.752 136.648 771.859 136.371 771.997 136.104C772.136 135.837 772.312 135.608 772.525 135.416C772.739 135.213 773 135.053 773.309 134.936C773.619 134.808 773.981 134.744 774.397 134.744H775.389V136.408H773.757C773.117 136.408 772.595 136.6 772.189 136.984C771.784 137.357 771.581 137.864 771.581 138.504V141.592H774.573V143H767.645V141.592ZM786.241 131.16H787.985V136.152H788.081C788.326 135.651 788.652 135.261 789.057 134.984C789.462 134.696 789.969 134.552 790.577 134.552C791.548 134.552 792.321 134.915 792.897 135.64C793.473 136.365 793.761 137.443 793.761 138.872C793.761 140.301 793.473 141.379 792.897 142.104C792.321 142.829 791.548 143.192 790.577 143.192C789.969 143.192 789.462 143.053 789.057 142.776C788.652 142.488 788.326 142.093 788.081 141.592H787.985V143H786.241V131.16ZM789.857 141.768C790.518 141.768 791.025 141.565 791.377 141.16C791.74 140.755 791.921 140.216 791.921 139.544V138.2C791.921 137.528 791.74 136.989 791.377 136.584C791.025 136.179 790.518 135.976 789.857 135.976C789.601 135.976 789.361 136.008 789.137 136.072C788.913 136.136 788.716 136.232 788.545 136.36C788.374 136.488 788.236 136.648 788.129 136.84C788.033 137.021 787.985 137.24 787.985 137.496V140.248C787.985 140.504 788.033 140.728 788.129 140.92C788.236 141.101 788.374 141.256 788.545 141.384C788.716 141.512 788.913 141.608 789.137 141.672C789.361 141.736 789.601 141.768 789.857 141.768ZM800.763 141.592H800.683C800.597 141.805 800.485 142.013 800.347 142.216C800.219 142.408 800.059 142.579 799.867 142.728C799.675 142.867 799.451 142.979 799.195 143.064C798.939 143.149 798.64 143.192 798.299 143.192C797.467 143.192 796.795 142.92 796.283 142.376C795.771 141.832 795.515 141.059 795.515 140.056V134.744H797.259V139.8C797.259 141.112 797.829 141.768 798.971 141.768C799.195 141.768 799.413 141.741 799.627 141.688C799.84 141.624 800.032 141.533 800.203 141.416C800.373 141.299 800.507 141.155 800.603 140.984C800.709 140.803 800.763 140.589 800.763 140.344V134.744H802.507V143H800.763V141.592ZM808.836 133.24C808.388 133.24 808.074 133.149 807.892 132.968C807.722 132.787 807.636 132.563 807.636 132.296V131.96C807.636 131.693 807.722 131.469 807.892 131.288C808.074 131.107 808.383 131.016 808.82 131.016C809.268 131.016 809.578 131.107 809.748 131.288C809.93 131.469 810.02 131.693 810.02 131.96V132.296C810.02 132.563 809.93 132.787 809.748 132.968C809.578 133.149 809.274 133.24 808.836 133.24ZM805.14 141.592H807.956V136.152H805.14V134.744H809.7V141.592H812.34V143H805.14V141.592ZM813.998 141.592H816.734V132.568H813.998V131.16H818.478V141.592H821.214V143H813.998V141.592ZM828.664 141.592H828.568C828.323 142.093 827.997 142.488 827.592 142.776C827.187 143.053 826.68 143.192 826.072 143.192C825.101 143.192 824.328 142.829 823.752 142.104C823.176 141.379 822.888 140.301 822.888 138.872C822.888 137.443 823.176 136.365 823.752 135.64C824.328 134.915 825.101 134.552 826.072 134.552C826.68 134.552 827.187 134.696 827.592 134.984C827.997 135.261 828.323 135.651 828.568 136.152H828.664V131.16H830.408V143H828.664V141.592ZM826.792 141.768C827.048 141.768 827.288 141.736 827.512 141.672C827.736 141.608 827.933 141.512 828.104 141.384C828.275 141.256 828.408 141.101 828.504 140.92C828.611 140.728 828.664 140.504 828.664 140.248V137.496C828.664 137.24 828.611 137.021 828.504 136.84C828.408 136.648 828.275 136.488 828.104 136.36C827.933 136.232 827.736 136.136 827.512 136.072C827.288 136.008 827.048 135.976 826.792 135.976C826.131 135.976 825.619 136.179 825.256 136.584C824.904 136.989 824.728 137.528 824.728 138.2V139.544C824.728 140.216 824.904 140.755 825.256 141.16C825.619 141.565 826.131 141.768 826.792 141.768Z" fill="white"/>
<rect x="709.5" y="109.5" width="142" height="55" rx="14.5" stroke="#333840"/>
<rect x="1197.5" y="109.5" width="160" height="55" rx="14.5" fill="#262A30"/>
<path d="M1223.65 141.592H1223.56C1223.31 142.093 1222.99 142.488 1222.58 142.776C1222.18 143.053 1221.67 143.192 1221.06 143.192C1220.09 143.192 1219.32 142.829 1218.74 142.104C1218.16 141.379 1217.88 140.301 1217.88 138.872C1217.88 137.443 1218.16 136.365 1218.74 135.64C1219.32 134.915 1220.09 134.552 1221.06 134.552C1221.67 134.552 1222.18 134.696 1222.58 134.984C1222.99 135.261 1223.31 135.651 1223.56 136.152H1223.65V131.16H1225.4V143H1223.65V141.592ZM1221.78 141.768C1222.04 141.768 1222.28 141.736 1222.5 141.672C1222.72 141.608 1222.92 141.512 1223.09 141.384C1223.26 141.256 1223.4 141.101 1223.49 140.92C1223.6 140.728 1223.65 140.504 1223.65 140.248V137.496C1223.65 137.24 1223.6 137.021 1223.49 136.84C1223.4 136.648 1223.26 136.488 1223.09 136.36C1222.92 136.232 1222.72 136.136 1222.5 136.072C1222.28 136.008 1222.04 135.976 1221.78 135.976C1221.12 135.976 1220.61 136.179 1220.24 136.584C1219.89 136.989 1219.72 137.528 1219.72 138.2V139.544C1219.72 140.216 1219.89 140.755 1220.24 141.16C1220.61 141.565 1221.12 141.768 1221.78 141.768ZM1231.13 143.192C1230.53 143.192 1229.98 143.091 1229.49 142.888C1229.01 142.685 1228.6 142.397 1228.25 142.024C1227.92 141.651 1227.67 141.197 1227.49 140.664C1227.31 140.131 1227.21 139.533 1227.21 138.872C1227.21 138.211 1227.31 137.613 1227.49 137.08C1227.67 136.547 1227.92 136.093 1228.25 135.72C1228.6 135.347 1229.01 135.059 1229.49 134.856C1229.98 134.653 1230.53 134.552 1231.13 134.552C1231.74 134.552 1232.29 134.653 1232.77 134.856C1233.26 135.059 1233.67 135.347 1234 135.72C1234.34 136.093 1234.6 136.547 1234.78 137.08C1234.96 137.613 1235.05 138.211 1235.05 138.872C1235.05 139.533 1234.96 140.131 1234.78 140.664C1234.6 141.197 1234.34 141.651 1234 142.024C1233.67 142.397 1233.26 142.685 1232.77 142.888C1232.29 143.091 1231.74 143.192 1231.13 143.192ZM1231.13 141.816C1231.77 141.816 1232.28 141.624 1232.65 141.24C1233.04 140.845 1233.23 140.264 1233.23 139.496V138.248C1233.23 137.48 1233.04 136.904 1232.65 136.52C1232.28 136.125 1231.77 135.928 1231.13 135.928C1230.49 135.928 1229.98 136.125 1229.6 136.52C1229.23 136.904 1229.04 137.48 1229.04 138.248V139.496C1229.04 140.264 1229.23 140.845 1229.6 141.24C1229.98 141.624 1230.49 141.816 1231.13 141.816ZM1236.84 143V141.464L1241.86 136.152H1237.02V134.744H1243.82V136.28L1238.79 141.592H1243.98V143H1236.84ZM1249.86 143.192C1249.23 143.192 1248.66 143.091 1248.16 142.888C1247.66 142.685 1247.24 142.397 1246.9 142.024C1246.56 141.651 1246.3 141.203 1246.11 140.68C1245.93 140.147 1245.84 139.549 1245.84 138.888C1245.84 138.227 1245.93 137.629 1246.11 137.096C1246.31 136.563 1246.57 136.109 1246.9 135.736C1247.24 135.352 1247.65 135.059 1248.13 134.856C1248.61 134.653 1249.14 134.552 1249.73 134.552C1250.31 134.552 1250.83 134.653 1251.3 134.856C1251.77 135.048 1252.17 135.325 1252.5 135.688C1252.83 136.051 1253.08 136.483 1253.25 136.984C1253.43 137.485 1253.52 138.04 1253.52 138.648V139.304H1247.6V139.576C1247.6 140.227 1247.8 140.76 1248.21 141.176C1248.62 141.581 1249.18 141.784 1249.89 141.784C1250.42 141.784 1250.88 141.672 1251.25 141.448C1251.63 141.213 1251.94 140.904 1252.18 140.52L1253.27 141.48C1252.99 141.96 1252.56 142.365 1251.99 142.696C1251.42 143.027 1250.71 143.192 1249.86 143.192ZM1249.73 135.88C1249.42 135.88 1249.13 135.933 1248.87 136.04C1248.61 136.147 1248.39 136.301 1248.19 136.504C1248.01 136.696 1247.87 136.925 1247.76 137.192C1247.66 137.459 1247.6 137.752 1247.6 138.072V138.184H1251.75V138.024C1251.75 137.373 1251.56 136.856 1251.19 136.472C1250.82 136.077 1250.34 135.88 1249.73 135.88ZM1255.37 141.592H1257.56V136.152H1255.37V134.744H1259.31V136.936H1259.4C1259.48 136.648 1259.58 136.371 1259.72 136.104C1259.86 135.837 1260.04 135.608 1260.25 135.416C1260.46 135.213 1260.73 135.053 1261.04 134.936C1261.34 134.808 1261.71 134.744 1262.12 134.744H1263.12V136.408H1261.48C1260.84 136.408 1260.32 136.6 1259.92 136.984C1259.51 137.357 1259.31 137.864 1259.31 138.504V141.592H1262.3V143H1255.37V141.592ZM1280.58 143C1280.07 143 1279.7 142.872 1279.44 142.616C1279.19 142.36 1279.04 142.024 1278.99 141.608H1278.91C1278.75 142.109 1278.46 142.499 1278.03 142.776C1277.62 143.053 1277.08 143.192 1276.43 143.192C1275.59 143.192 1274.92 142.973 1274.42 142.536C1273.91 142.088 1273.66 141.475 1273.66 140.696C1273.66 139.896 1273.96 139.288 1274.54 138.872C1275.14 138.445 1276.05 138.232 1277.28 138.232H1278.86V137.592C1278.86 136.472 1278.27 135.912 1277.09 135.912C1276.55 135.912 1276.12 136.019 1275.79 136.232C1275.46 136.435 1275.18 136.707 1274.96 137.048L1273.92 136.2C1274.15 135.752 1274.55 135.368 1275.1 135.048C1275.66 134.717 1276.37 134.552 1277.25 134.552C1278.29 134.552 1279.11 134.803 1279.71 135.304C1280.31 135.805 1280.61 136.531 1280.61 137.48V141.624H1281.65V143H1280.58ZM1276.93 141.912C1277.49 141.912 1277.96 141.784 1278.32 141.528C1278.68 141.272 1278.86 140.941 1278.86 140.536V139.336H1277.31C1276.05 139.336 1275.42 139.715 1275.42 140.472V140.792C1275.42 141.165 1275.56 141.448 1275.82 141.64C1276.09 141.821 1276.46 141.912 1276.93 141.912ZM1283.24 134.744H1284.98V136.152H1285.08C1285.33 135.651 1285.65 135.261 1286.06 134.984C1286.46 134.696 1286.97 134.552 1287.58 134.552C1288.55 134.552 1289.32 134.915 1289.9 135.64C1290.47 136.365 1290.76 137.443 1290.76 138.872C1290.76 140.301 1290.47 141.379 1289.9 142.104C1289.32 142.829 1288.55 143.192 1287.58 143.192C1286.97 143.192 1286.46 143.053 1286.06 142.776C1285.65 142.488 1285.33 142.093 1285.08 141.592H1284.98V146.2H1283.24V134.744ZM1286.86 141.768C1287.52 141.768 1288.02 141.565 1288.38 141.16C1288.74 140.755 1288.92 140.216 1288.92 139.544V138.2C1288.92 137.528 1288.74 136.989 1288.38 136.584C1288.02 136.179 1287.52 135.976 1286.86 135.976C1286.6 135.976 1286.36 136.008 1286.14 136.072C1285.91 136.136 1285.72 136.232 1285.54 136.36C1285.37 136.488 1285.24 136.648 1285.13 136.84C1285.03 137.021 1284.98 137.24 1284.98 137.496V140.248C1284.98 140.504 1285.03 140.728 1285.13 140.92C1285.24 141.101 1285.37 141.256 1285.54 141.384C1285.72 141.512 1285.91 141.608 1286.14 141.672C1286.36 141.736 1286.6 141.768 1286.86 141.768ZM1296.56 133.24C1296.11 133.24 1295.8 133.149 1295.62 132.968C1295.45 132.787 1295.36 132.563 1295.36 132.296V131.96C1295.36 131.693 1295.45 131.469 1295.62 131.288C1295.8 131.107 1296.11 131.016 1296.55 131.016C1296.99 131.016 1297.3 131.107 1297.47 131.288C1297.66 131.469 1297.75 131.693 1297.75 131.96V132.296C1297.75 132.563 1297.66 132.787 1297.47 132.968C1297.3 133.149 1297 133.24 1296.56 133.24ZM1292.87 141.592H1295.68V136.152H1292.87V134.744H1297.43V141.592H1300.07V143H1292.87V141.592ZM1311.01 141.592H1313.21V136.152H1311.01V134.744H1314.95V136.936H1315.05C1315.12 136.648 1315.23 136.371 1315.37 136.104C1315.5 135.837 1315.68 135.608 1315.89 135.416C1316.11 135.213 1316.37 135.053 1316.68 134.936C1316.99 134.808 1317.35 134.744 1317.77 134.744H1318.76V136.408H1317.13C1316.49 136.408 1315.96 136.6 1315.56 136.984C1315.15 137.357 1314.95 137.864 1314.95 138.504V141.592H1317.94V143H1311.01V141.592ZM1325.58 141.592H1325.5C1325.42 141.805 1325.31 142.013 1325.17 142.216C1325.04 142.408 1324.88 142.579 1324.69 142.728C1324.5 142.867 1324.27 142.979 1324.02 143.064C1323.76 143.149 1323.46 143.192 1323.12 143.192C1322.29 143.192 1321.62 142.92 1321.1 142.376C1320.59 141.832 1320.34 141.059 1320.34 140.056V134.744H1322.08V139.8C1322.08 141.112 1322.65 141.768 1323.79 141.768C1324.02 141.768 1324.23 141.741 1324.45 141.688C1324.66 141.624 1324.85 141.533 1325.02 141.416C1325.19 141.299 1325.33 141.155 1325.42 140.984C1325.53 140.803 1325.58 140.589 1325.58 140.344V134.744H1327.33V143H1325.58V141.592ZM1329.69 143V134.744H1331.43V136.152H1331.51C1331.6 135.939 1331.71 135.736 1331.83 135.544C1331.97 135.341 1332.14 135.171 1332.33 135.032C1332.52 134.883 1332.75 134.765 1333 134.68C1333.26 134.595 1333.56 134.552 1333.9 134.552C1334.73 134.552 1335.4 134.824 1335.91 135.368C1336.43 135.912 1336.68 136.685 1336.68 137.688V143H1334.94V137.944C1334.94 136.632 1334.37 135.976 1333.23 135.976C1333 135.976 1332.78 136.008 1332.57 136.072C1332.36 136.125 1332.16 136.211 1331.99 136.328C1331.82 136.445 1331.68 136.595 1331.58 136.776C1331.48 136.957 1331.43 137.165 1331.43 137.4V143H1329.69Z" fill="white"/>
<rect x="1197.5" y="109.5" width="160" height="55" rx="14.5" stroke="#333840"/>
<rect x="943.5" y="109.5" width="160" height="55" rx="14.5" fill="#262A30"/>
<path d="M969.653 141.592H969.557C969.311 142.093 968.986 142.488 968.581 142.776C968.175 143.053 967.669 143.192 967.061 143.192C966.09 143.192 965.317 142.829 964.741 142.104C964.165 141.379 963.877 140.301 963.877 138.872C963.877 137.443 964.165 136.365 964.741 135.64C965.317 134.915 966.09 134.552 967.061 134.552C967.669 134.552 968.175 134.696 968.581 134.984C968.986 135.261 969.311 135.651 969.557 136.152H969.653V131.16H971.397V143H969.653V141.592ZM967.781 141.768C968.037 141.768 968.277 141.736 968.501 141.672C968.725 141.608 968.922 141.512 969.093 141.384C969.263 141.256 969.397 141.101 969.493 140.92C969.599 140.728 969.653 140.504 969.653 140.248V137.496C969.653 137.24 969.599 137.021 969.493 136.84C969.397 136.648 969.263 136.488 969.093 136.36C968.922 136.232 968.725 136.136 968.501 136.072C968.277 136.008 968.037 135.976 967.781 135.976C967.119 135.976 966.607 136.179 966.245 136.584C965.893 136.989 965.717 137.528 965.717 138.2V139.544C965.717 140.216 965.893 140.755 966.245 141.16C966.607 141.565 967.119 141.768 967.781 141.768ZM977.134 143.192C976.526 143.192 975.977 143.091 975.486 142.888C975.006 142.685 974.596 142.397 974.254 142.024C973.924 141.651 973.668 141.197 973.486 140.664C973.305 140.131 973.214 139.533 973.214 138.872C973.214 138.211 973.305 137.613 973.486 137.08C973.668 136.547 973.924 136.093 974.254 135.72C974.596 135.347 975.006 135.059 975.486 134.856C975.977 134.653 976.526 134.552 977.134 134.552C977.742 134.552 978.286 134.653 978.766 134.856C979.257 135.059 979.668 135.347 979.998 135.72C980.34 136.093 980.601 136.547 980.782 137.08C980.964 137.613 981.054 138.211 981.054 138.872C981.054 139.533 980.964 140.131 980.782 140.664C980.601 141.197 980.34 141.651 979.998 142.024C979.668 142.397 979.257 142.685 978.766 142.888C978.286 143.091 977.742 143.192 977.134 143.192ZM977.134 141.816C977.774 141.816 978.281 141.624 978.654 141.24C979.038 140.845 979.23 140.264 979.23 139.496V138.248C979.23 137.48 979.038 136.904 978.654 136.52C978.281 136.125 977.774 135.928 977.134 135.928C976.494 135.928 975.982 136.125 975.598 136.52C975.225 136.904 975.038 137.48 975.038 138.248V139.496C975.038 140.264 975.225 140.845 975.598 141.24C975.982 141.624 976.494 141.816 977.134 141.816ZM982.84 143V141.464L987.864 136.152H983.016V134.744H989.816V136.28L984.792 141.592H989.976V143H982.84ZM995.858 143.192C995.229 143.192 994.663 143.091 994.162 142.888C993.661 142.685 993.239 142.397 992.898 142.024C992.557 141.651 992.295 141.203 992.114 140.68C991.933 140.147 991.842 139.549 991.842 138.888C991.842 138.227 991.933 137.629 992.114 137.096C992.306 136.563 992.567 136.109 992.898 135.736C993.239 135.352 993.65 135.059 994.13 134.856C994.61 134.653 995.143 134.552 995.73 134.552C996.306 134.552 996.829 134.653 997.298 134.856C997.767 135.048 998.167 135.325 998.498 135.688C998.829 136.051 999.079 136.483 999.25 136.984C999.431 137.485 999.522 138.04 999.522 138.648V139.304H993.602V139.576C993.602 140.227 993.805 140.76 994.21 141.176C994.615 141.581 995.175 141.784 995.89 141.784C996.423 141.784 996.877 141.672 997.25 141.448C997.634 141.213 997.943 140.904 998.178 140.52L999.266 141.48C998.989 141.96 998.562 142.365 997.986 142.696C997.421 143.027 996.711 143.192 995.858 143.192ZM995.73 135.88C995.421 135.88 995.133 135.933 994.866 136.04C994.61 136.147 994.386 136.301 994.194 136.504C994.013 136.696 993.869 136.925 993.762 137.192C993.655 137.459 993.602 137.752 993.602 138.072V138.184H997.746V138.024C997.746 137.373 997.559 136.856 997.186 136.472C996.823 136.077 996.338 135.88 995.73 135.88ZM1001.37 141.592H1003.56V136.152H1001.37V134.744H1005.31V136.936H1005.4C1005.48 136.648 1005.58 136.371 1005.72 136.104C1005.86 135.837 1006.04 135.608 1006.25 135.416C1006.46 135.213 1006.73 135.053 1007.04 134.936C1007.34 134.808 1007.71 134.744 1008.12 134.744H1009.12V136.408H1007.48C1006.84 136.408 1006.32 136.6 1005.92 136.984C1005.51 137.357 1005.31 137.864 1005.31 138.504V141.592H1008.3V143H1001.37V141.592ZM1026.58 143C1026.07 143 1025.7 142.872 1025.44 142.616C1025.19 142.36 1025.04 142.024 1024.99 141.608H1024.91C1024.75 142.109 1024.46 142.499 1024.03 142.776C1023.62 143.053 1023.08 143.192 1022.43 143.192C1021.59 143.192 1020.92 142.973 1020.42 142.536C1019.91 142.088 1019.66 141.475 1019.66 140.696C1019.66 139.896 1019.96 139.288 1020.54 138.872C1021.14 138.445 1022.05 138.232 1023.28 138.232H1024.86V137.592C1024.86 136.472 1024.27 135.912 1023.09 135.912C1022.55 135.912 1022.12 136.019 1021.79 136.232C1021.46 136.435 1021.18 136.707 1020.96 137.048L1019.92 136.2C1020.15 135.752 1020.55 135.368 1021.1 135.048C1021.66 134.717 1022.37 134.552 1023.25 134.552C1024.29 134.552 1025.11 134.803 1025.71 135.304C1026.31 135.805 1026.61 136.531 1026.61 137.48V141.624H1027.65V143H1026.58ZM1022.93 141.912C1023.49 141.912 1023.96 141.784 1024.32 141.528C1024.68 141.272 1024.86 140.941 1024.86 140.536V139.336H1023.31C1022.05 139.336 1021.42 139.715 1021.42 140.472V140.792C1021.42 141.165 1021.56 141.448 1021.82 141.64C1022.09 141.821 1022.46 141.912 1022.93 141.912ZM1029.24 134.744H1030.98V136.152H1031.08C1031.33 135.651 1031.65 135.261 1032.06 134.984C1032.46 134.696 1032.97 134.552 1033.58 134.552C1034.55 134.552 1035.32 134.915 1035.9 135.64C1036.47 136.365 1036.76 137.443 1036.76 138.872C1036.76 140.301 1036.47 141.379 1035.9 142.104C1035.32 142.829 1034.55 143.192 1033.58 143.192C1032.97 143.192 1032.46 143.053 1032.06 142.776C1031.65 142.488 1031.33 142.093 1031.08 141.592H1030.98V146.2H1029.24V134.744ZM1032.86 141.768C1033.52 141.768 1034.02 141.565 1034.38 141.16C1034.74 140.755 1034.92 140.216 1034.92 139.544V138.2C1034.92 137.528 1034.74 136.989 1034.38 136.584C1034.02 136.179 1033.52 135.976 1032.86 135.976C1032.6 135.976 1032.36 136.008 1032.14 136.072C1031.91 136.136 1031.72 136.232 1031.54 136.36C1031.37 136.488 1031.24 136.648 1031.13 136.84C1031.03 137.021 1030.98 137.24 1030.98 137.496V140.248C1030.98 140.504 1031.03 140.728 1031.13 140.92C1031.24 141.101 1031.37 141.256 1031.54 141.384C1031.72 141.512 1031.91 141.608 1032.14 141.672C1032.36 141.736 1032.6 141.768 1032.86 141.768ZM1038.51 134.744H1040.26V136.152H1040.35C1040.6 135.651 1040.93 135.261 1041.33 134.984C1041.74 134.696 1042.24 134.552 1042.85 134.552C1043.82 134.552 1044.59 134.915 1045.17 135.64C1045.75 136.365 1046.03 137.443 1046.03 138.872C1046.03 140.301 1045.75 141.379 1045.17 142.104C1044.59 142.829 1043.82 143.192 1042.85 143.192C1042.24 143.192 1041.74 143.053 1041.33 142.776C1040.93 142.488 1040.6 142.093 1040.35 141.592H1040.26V146.2H1038.51V134.744ZM1042.13 141.768C1042.79 141.768 1043.3 141.565 1043.65 141.16C1044.01 140.755 1044.19 140.216 1044.19 139.544V138.2C1044.19 137.528 1044.01 136.989 1043.65 136.584C1043.3 136.179 1042.79 135.976 1042.13 135.976C1041.87 135.976 1041.63 136.008 1041.41 136.072C1041.19 136.136 1040.99 136.232 1040.82 136.36C1040.65 136.488 1040.51 136.648 1040.4 136.84C1040.31 137.021 1040.26 137.24 1040.26 137.496V140.248C1040.26 140.504 1040.31 140.728 1040.4 140.92C1040.51 141.101 1040.65 141.256 1040.82 141.384C1040.99 141.512 1041.19 141.608 1041.41 141.672C1041.63 141.736 1041.87 141.768 1042.13 141.768ZM1057.01 141.592H1059.21V136.152H1057.01V134.744H1060.95V136.936H1061.05C1061.12 136.648 1061.23 136.371 1061.37 136.104C1061.5 135.837 1061.68 135.608 1061.89 135.416C1062.11 135.213 1062.37 135.053 1062.68 134.936C1062.99 134.808 1063.35 134.744 1063.77 134.744H1064.76V136.408H1063.13C1062.49 136.408 1061.96 136.6 1061.56 136.984C1061.15 137.357 1060.95 137.864 1060.95 138.504V141.592H1063.94V143H1057.01V141.592ZM1071.58 141.592H1071.5C1071.42 141.805 1071.31 142.013 1071.17 142.216C1071.04 142.408 1070.88 142.579 1070.69 142.728C1070.5 142.867 1070.27 142.979 1070.02 143.064C1069.76 143.149 1069.46 143.192 1069.12 143.192C1068.29 143.192 1067.62 142.92 1067.1 142.376C1066.59 141.832 1066.34 141.059 1066.34 140.056V134.744H1068.08V139.8C1068.08 141.112 1068.65 141.768 1069.79 141.768C1070.02 141.768 1070.23 141.741 1070.45 141.688C1070.66 141.624 1070.85 141.533 1071.02 141.416C1071.19 141.299 1071.33 141.155 1071.42 140.984C1071.53 140.803 1071.58 140.589 1071.58 140.344V134.744H1073.33V143H1071.58V141.592ZM1075.69 143V134.744H1077.43V136.152H1077.51C1077.6 135.939 1077.71 135.736 1077.83 135.544C1077.97 135.341 1078.14 135.171 1078.33 135.032C1078.52 134.883 1078.75 134.765 1079 134.68C1079.26 134.595 1079.56 134.552 1079.9 134.552C1080.73 134.552 1081.4 134.824 1081.91 135.368C1082.43 135.912 1082.68 136.685 1082.68 137.688V143H1080.94V137.944C1080.94 136.632 1080.37 135.976 1079.23 135.976C1079 135.976 1078.78 136.008 1078.57 136.072C1078.36 136.125 1078.16 136.211 1077.99 136.328C1077.82 136.445 1077.68 136.595 1077.58 136.776C1077.48 136.957 1077.43 137.165 1077.43 137.4V143H1075.69Z" fill="white"/>
<rect x="943.5" y="109.5" width="160" height="55" rx="14.5" stroke="#333840"/>
<path d="M202.667 213C202.667 215.946 205.054 218.333 208 218.333C210.946 218.333 213.333 215.946 213.333 213C213.333 210.054 210.946 207.667 208 207.667C205.054 207.667 202.667 210.054 202.667 213ZM267 213L257 207.226V218.774L267 213ZM208 214H258V212H208V214Z" fill="#F142B5"/>
<path d="M417.667 213C417.667 215.946 420.054 218.333 423 218.333C425.946 218.333 428.333 215.946 428.333 213C428.333 210.054 425.946 207.667 423 207.667C420.054 207.667 417.667 210.054 417.667 213ZM482 213L472 207.226V218.774L482 213ZM423 214H473V212H423V214Z" fill="#F142B5"/>
<path d="M1116.67 137C1116.67 139.946 1119.05 142.333 1122 142.333C1124.95 142.333 1127.33 139.946 1127.33 137C1127.33 134.054 1124.95 131.667 1122 131.667C1119.05 131.667 1116.67 134.054 1116.67 137ZM1181 137L1171 131.226V142.774L1181 137ZM1122 138H1172V136H1122V138Z" fill="#F142B5"/>
<path d="M593.511 207.119C595.205 209.529 598.531 210.109 600.941 208.415C603.351 206.721 603.931 203.395 602.237 200.985C600.543 198.575 597.216 197.995 594.807 199.689C592.397 201.383 591.817 204.71 593.511 207.119ZM700.874 140.051L690.874 134.278L690.874 145.825L700.874 140.051ZM634.874 204.052L634.874 205.052L635.874 205.052L635.874 204.052L634.874 204.052ZM634.874 140.051L634.874 139.051L633.874 139.051L633.874 140.051L634.874 140.051ZM597.874 205.052L634.874 205.052L634.874 203.052L597.874 203.052L597.874 205.052ZM635.874 204.052L635.874 140.051L633.874 140.051L633.874 204.052L635.874 204.052ZM634.874 141.051L691.874 141.051L691.874 139.051L634.874 139.051L634.874 141.051Z" fill="#F142B5"/>
<path d="M593.511 221.341C595.205 218.931 598.531 218.351 600.941 220.045C603.351 221.739 603.931 225.065 602.237 227.475C600.543 229.885 597.216 230.465 594.807 228.771C592.397 227.077 591.817 223.75 593.511 221.341ZM700.874 288.409L690.874 294.182L690.874 282.635L700.874 288.409ZM634.874 224.408L634.874 223.408L635.874 223.408L635.874 224.408L634.874 224.408ZM634.874 288.409L634.874 289.409L633.874 289.409L633.874 288.409L634.874 288.409ZM597.874 223.408L634.874 223.408L634.874 225.408L597.874 225.408L597.874 223.408ZM635.874 224.408L635.874 288.409L633.874 288.409L633.874 224.408L635.874 224.408ZM634.874 287.409L691.874 287.409L691.874 289.409L634.874 289.409L634.874 287.409Z" fill="#F142B5"/>
<path d="M862.667 137C862.667 139.946 865.054 142.333 868 142.333C870.946 142.333 873.333 139.946 873.333 137C873.333 134.054 870.946 131.667 868 131.667C865.054 131.667 862.667 134.054 862.667 137ZM927 137L917 131.226V142.774L927 137ZM868 138H918V136H868V138Z" fill="#F142B5"/>
<path d="M666 63L666 363" stroke="white" stroke-opacity="0.56" stroke-width="2" stroke-dasharray="4 4"/>
<path d="M1425 214L666 214" stroke="white" stroke-opacity="0.56" stroke-width="2" stroke-dasharray="4 4"/>
<path d="M238.818 77V65.7266H240.833V75.3047H245.997V77H238.818ZM252.342 77.2812C251.237 77.2812 250.287 77.0417 249.49 76.5625C248.698 76.0781 248.086 75.3932 247.654 74.5078C247.222 73.6224 247.006 72.5755 247.006 71.3672V71.3516C247.006 70.138 247.222 69.0911 247.654 68.2109C248.092 67.3255 248.709 66.6432 249.506 66.1641C250.308 65.6849 251.253 65.4453 252.342 65.4453C253.435 65.4453 254.381 65.6849 255.177 66.1641C255.974 66.6432 256.589 67.3255 257.021 68.2109C257.454 69.0964 257.67 70.1432 257.67 71.3516V71.3672C257.67 72.5755 257.454 73.6224 257.021 74.5078C256.594 75.3932 255.982 76.0781 255.185 76.5625C254.388 77.0417 253.441 77.2812 252.342 77.2812ZM252.342 75.5391C253.013 75.5391 253.594 75.3672 254.084 75.0234C254.573 74.6797 254.951 74.1953 255.217 73.5703C255.487 72.9453 255.623 72.2109 255.623 71.3672V71.3516C255.623 70.5026 255.487 69.7682 255.217 69.1484C254.951 68.5234 254.573 68.0417 254.084 67.7031C253.594 67.3594 253.013 67.1875 252.342 67.1875C251.675 67.1875 251.094 67.3594 250.599 67.7031C250.11 68.0417 249.73 68.5234 249.459 69.1484C249.193 69.7682 249.06 70.5026 249.06 71.3516V71.3672C249.06 72.2109 249.191 72.9453 249.451 73.5703C249.717 74.1953 250.094 74.6797 250.584 75.0234C251.079 75.3672 251.664 75.5391 252.342 75.5391ZM264.365 77.2812C263.298 77.2812 262.376 77.0417 261.6 76.5625C260.829 76.0833 260.232 75.4036 259.811 74.5234C259.394 73.638 259.186 72.5885 259.186 71.375V71.3594C259.186 70.1406 259.394 69.0911 259.811 68.2109C260.232 67.3255 260.829 66.6432 261.6 66.1641C262.371 65.6849 263.29 65.4453 264.357 65.4453C265.212 65.4453 265.982 65.6146 266.67 65.9531C267.357 66.2865 267.917 66.75 268.35 67.3438C268.782 67.9323 269.042 68.6094 269.131 69.375L269.123 69.4375H267.154L267.147 69.3984C267.053 68.9557 266.876 68.5703 266.615 68.2422C266.355 67.9089 266.032 67.651 265.647 67.4688C265.261 67.2812 264.831 67.1875 264.357 67.1875C263.722 67.1875 263.17 67.3568 262.701 67.6953C262.232 68.0339 261.871 68.5156 261.615 69.1406C261.365 69.7604 261.24 70.4974 261.24 71.3516V71.3672C261.24 72.2214 261.365 72.9609 261.615 73.5859C261.871 74.2109 262.232 74.6927 262.701 75.0312C263.17 75.3698 263.725 75.5391 264.365 75.5391C264.844 75.5391 265.274 75.4557 265.654 75.2891C266.04 75.1224 266.36 74.888 266.615 74.5859C266.876 74.2786 267.053 73.9193 267.147 73.5078L267.162 73.4609H269.131V73.5234C269.032 74.2734 268.769 74.9297 268.342 75.4922C267.915 76.0547 267.363 76.4948 266.686 76.8125C266.009 77.125 265.235 77.2812 264.365 77.2812ZM269.881 77L273.881 65.7266H275.553V67.8203H274.952L271.991 77H269.881ZM271.897 74.0859L272.42 72.5312H277.592L278.116 74.0859H271.897ZM278.045 77L275.084 67.8203V65.7266H276.147L280.155 77H278.045ZM281.772 77V65.7266H283.788V75.3047H288.952V77H281.772ZM294.757 77V65.7266H298.984C300.104 65.7266 301.057 65.9453 301.843 66.3828C302.635 66.8203 303.239 67.4557 303.656 68.2891C304.077 69.1224 304.288 70.1276 304.288 71.3047V71.3203C304.288 72.5234 304.08 73.5495 303.663 74.3984C303.247 75.2422 302.643 75.888 301.851 76.3359C301.064 76.7786 300.109 77 298.984 77H294.757ZM296.773 75.3047H298.718C299.463 75.3047 300.098 75.151 300.624 74.8438C301.15 74.5365 301.549 74.0885 301.82 73.5C302.096 72.9115 302.234 72.1953 302.234 71.3516V71.3359C302.234 70.513 302.093 69.8099 301.812 69.2266C301.536 68.638 301.135 68.1901 300.609 67.8828C300.083 67.5755 299.452 67.4219 298.718 67.4219H296.773V75.3047ZM306.281 77V65.7266H313.578V67.4219H308.297V70.4766H313.289V72.0781H308.297V75.3047H313.578V77H306.281ZM318.82 77L314.922 65.7266H317.141L319.93 74.6719H320.062L322.859 65.7266H325.078L321.172 77H318.82ZM326.703 77V65.7266H334V67.4219H328.719V70.4766H333.711V72.0781H328.719V75.3047H334V77H326.703ZM336.18 77V65.7266H338.196V75.3047H343.36V77H336.18ZM349.704 77.2812C348.6 77.2812 347.649 77.0417 346.853 76.5625C346.061 76.0781 345.449 75.3932 345.017 74.5078C344.584 73.6224 344.368 72.5755 344.368 71.3672V71.3516C344.368 70.138 344.584 69.0911 345.017 68.2109C345.454 67.3255 346.071 66.6432 346.868 66.1641C347.67 65.6849 348.616 65.4453 349.704 65.4453C350.798 65.4453 351.743 65.6849 352.54 66.1641C353.337 66.6432 353.951 67.3255 354.384 68.2109C354.816 69.0964 355.032 70.1432 355.032 71.3516V71.3672C355.032 72.5755 354.816 73.6224 354.384 74.5078C353.957 75.3932 353.345 76.0781 352.548 76.5625C351.751 77.0417 350.803 77.2812 349.704 77.2812ZM349.704 75.5391C350.376 75.5391 350.957 75.3672 351.446 75.0234C351.936 74.6797 352.313 74.1953 352.579 73.5703C352.85 72.9453 352.985 72.2109 352.985 71.3672V71.3516C352.985 70.5026 352.85 69.7682 352.579 69.1484C352.313 68.5234 351.936 68.0417 351.446 67.7031C350.957 67.3594 350.376 67.1875 349.704 67.1875C349.037 67.1875 348.457 67.3594 347.962 67.7031C347.472 68.0417 347.092 68.5234 346.821 69.1484C346.556 69.7682 346.423 70.5026 346.423 71.3516V71.3672C346.423 72.2109 346.553 72.9453 346.813 73.5703C347.079 74.1953 347.457 74.6797 347.946 75.0234C348.441 75.3672 349.027 75.5391 349.704 75.5391ZM358.033 73.2734V71.6484H361.033C361.756 71.6484 362.319 71.4635 362.72 71.0938C363.121 70.7188 363.322 70.1927 363.322 69.5156V69.5C363.322 68.8177 363.121 68.2917 362.72 67.9219C362.319 67.5521 361.756 67.3672 361.033 67.3672H358.033V65.7266H361.525C362.29 65.7266 362.96 65.8828 363.533 66.1953C364.105 66.5078 364.553 66.9479 364.876 67.5156C365.199 68.0781 365.361 68.737 365.361 69.4922V69.5078C365.361 70.2578 365.199 70.9167 364.876 71.4844C364.553 72.0469 364.105 72.487 363.533 72.8047C362.96 73.1172 362.29 73.2734 361.525 73.2734H358.033ZM357.025 77V65.7266H359.04V77H357.025ZM367.267 77V65.7266H369.58L372.97 74.4062H373.103L376.486 65.7266H378.798V77H376.986V68.9844H376.002L378.002 66.0391L373.72 77H372.345L368.072 66.0391L370.072 68.9844H369.08V77H367.267ZM381.26 77V65.7266H388.557V67.4219H383.275V70.4766H388.268V72.0781H383.275V75.3047H388.557V77H381.26ZM390.737 77V65.7266H392.487L398.533 74.2031L397.143 73.4922H398.151V65.7266H400.088V77H398.346L392.299 68.5156L393.69 69.2266H392.682V77H390.737ZM405.362 77V67.4219H401.893V65.7266H410.846V67.4219H407.378V77H405.362Z" fill="white"/>
<path d="M939.54 71.2812C938.665 71.2812 937.904 71.1458 937.258 70.875C936.618 70.6042 936.113 70.2266 935.743 69.7422C935.373 69.2578 935.165 68.6927 935.118 68.0469L935.11 67.9375H937.063L937.071 68.0156C937.102 68.3333 937.227 68.6094 937.446 68.8438C937.67 69.0781 937.967 69.263 938.337 69.3984C938.706 69.5286 939.128 69.5938 939.602 69.5938C940.055 69.5938 940.456 69.5234 940.805 69.3828C941.154 69.2422 941.428 69.0495 941.626 68.8047C941.824 68.5547 941.923 68.2682 941.923 67.9453V67.9375C941.923 67.5312 941.764 67.2005 941.446 66.9453C941.128 66.6849 940.605 66.4766 939.876 66.3203L938.665 66.0703C937.508 65.8255 936.667 65.4349 936.141 64.8984C935.62 64.3568 935.36 63.6667 935.36 62.8281V62.8203C935.36 62.1484 935.537 61.5599 935.891 61.0547C936.251 60.5495 936.743 60.1562 937.368 59.875C937.998 59.5885 938.719 59.4453 939.532 59.4453C940.365 59.4453 941.087 59.5859 941.696 59.8672C942.305 60.1432 942.784 60.5208 943.133 61C943.482 61.4792 943.678 62.0208 943.719 62.625L943.727 62.7266H941.805L941.79 62.6328C941.743 62.3359 941.62 62.0781 941.423 61.8594C941.23 61.6354 940.972 61.4583 940.649 61.3281C940.326 61.1979 939.949 61.1328 939.516 61.1328C939.105 61.1328 938.738 61.1979 938.415 61.3281C938.092 61.4531 937.837 61.6302 937.649 61.8594C937.467 62.0885 937.376 62.3646 937.376 62.6875V62.6953C937.376 63.0911 937.529 63.4193 937.837 63.6797C938.149 63.9401 938.657 64.1432 939.36 64.2891L940.571 64.5469C941.363 64.7135 942.006 64.9349 942.501 65.2109C942.995 65.487 943.357 65.8307 943.587 66.2422C943.821 66.6484 943.938 67.138 943.938 67.7109V67.7188C943.938 68.4479 943.758 69.0781 943.399 69.6094C943.045 70.1406 942.537 70.5521 941.876 70.8438C941.219 71.1354 940.441 71.2812 939.54 71.2812ZM945.884 71V59.7266H953.181V61.4219H947.899V64.4766H952.892V66.0781H947.899V69.3047H953.181V71H945.884ZM955.361 71V59.7266H957.376V69.3047H962.54V71H955.361ZM964.4 71V59.7266H971.588V61.4219H966.416V64.7578H971.142V66.3984H966.416V71H964.4ZM973.338 67.3359V65.5703H978.557V67.3359H973.338ZM980.854 71V59.7266H982.869V64.4141H988.354V59.7266H990.362V71H988.354V66.1094H982.869V71H980.854ZM997.69 71.2812C996.586 71.2812 995.635 71.0417 994.838 70.5625C994.047 70.0781 993.435 69.3932 993.003 68.5078C992.57 67.6224 992.354 66.5755 992.354 65.3672V65.3516C992.354 64.138 992.57 63.0911 993.003 62.2109C993.44 61.3255 994.057 60.6432 994.854 60.1641C995.656 59.6849 996.601 59.4453 997.69 59.4453C998.784 59.4453 999.729 59.6849 1000.53 60.1641C1001.32 60.6432 1001.94 61.3255 1002.37 62.2109C1002.8 63.0964 1003.02 64.1432 1003.02 65.3516V65.3672C1003.02 66.5755 1002.8 67.6224 1002.37 68.5078C1001.94 69.3932 1001.33 70.0781 1000.53 70.5625C999.737 71.0417 998.789 71.2812 997.69 71.2812ZM997.69 69.5391C998.362 69.5391 998.943 69.3672 999.432 69.0234C999.922 68.6797 1000.3 68.1953 1000.57 67.5703C1000.84 66.9453 1000.97 66.2109 1000.97 65.3672V65.3516C1000.97 64.5026 1000.84 63.7682 1000.57 63.1484C1000.3 62.5234 999.922 62.0417 999.432 61.7031C998.943 61.3594 998.362 61.1875 997.69 61.1875C997.023 61.1875 996.443 61.3594 995.948 61.7031C995.458 62.0417 995.078 62.5234 994.807 63.1484C994.542 63.7682 994.409 64.5026 994.409 65.3516V65.3672C994.409 66.2109 994.539 66.9453 994.799 67.5703C995.065 68.1953 995.443 68.6797 995.932 69.0234C996.427 69.3672 997.013 69.5391 997.69 69.5391ZM1008.92 71.2812C1008.05 71.2812 1007.29 71.1458 1006.64 70.875C1006 70.6042 1005.5 70.2266 1005.13 69.7422C1004.76 69.2578 1004.55 68.6927 1004.5 68.0469L1004.5 67.9375H1006.45L1006.46 68.0156C1006.49 68.3333 1006.61 68.6094 1006.83 68.8438C1007.05 69.0781 1007.35 69.263 1007.72 69.3984C1008.09 69.5286 1008.51 69.5938 1008.99 69.5938C1009.44 69.5938 1009.84 69.5234 1010.19 69.3828C1010.54 69.2422 1010.81 69.0495 1011.01 68.8047C1011.21 68.5547 1011.31 68.2682 1011.31 67.9453V67.9375C1011.31 67.5312 1011.15 67.2005 1010.83 66.9453C1010.51 66.6849 1009.99 66.4766 1009.26 66.3203L1008.05 66.0703C1006.89 65.8255 1006.05 65.4349 1005.53 64.8984C1005.01 64.3568 1004.75 63.6667 1004.75 62.8281V62.8203C1004.75 62.1484 1004.92 61.5599 1005.28 61.0547C1005.64 60.5495 1006.13 60.1562 1006.75 59.875C1007.38 59.5885 1008.1 59.4453 1008.92 59.4453C1009.75 59.4453 1010.47 59.5859 1011.08 59.8672C1011.69 60.1432 1012.17 60.5208 1012.52 61C1012.87 61.4792 1013.06 62.0208 1013.1 62.625L1013.11 62.7266H1011.19L1011.17 62.6328C1011.13 62.3359 1011.01 62.0781 1010.81 61.8594C1010.61 61.6354 1010.36 61.4583 1010.03 61.3281C1009.71 61.1979 1009.33 61.1328 1008.9 61.1328C1008.49 61.1328 1008.12 61.1979 1007.8 61.3281C1007.48 61.4531 1007.22 61.6302 1007.03 61.8594C1006.85 62.0885 1006.76 62.3646 1006.76 62.6875V62.6953C1006.76 63.0911 1006.91 63.4193 1007.22 63.6797C1007.53 63.9401 1008.04 64.1432 1008.75 64.2891L1009.96 64.5469C1010.75 64.7135 1011.39 64.9349 1011.89 65.2109C1012.38 65.487 1012.74 65.8307 1012.97 66.2422C1013.21 66.6484 1013.32 67.138 1013.32 67.7109V67.7188C1013.32 68.4479 1013.14 69.0781 1012.78 69.6094C1012.43 70.1406 1011.92 70.5521 1011.26 70.8438C1010.6 71.1354 1009.83 71.2812 1008.92 71.2812ZM1018.07 71V61.4219H1014.6V59.7266H1023.56V61.4219H1020.09V71H1018.07ZM1025.36 71V59.7266H1032.65V61.4219H1027.37V64.4766H1032.36V66.0781H1027.37V69.3047H1032.65V71H1025.36ZM1034.83 71V59.7266H1039.06C1040.18 59.7266 1041.13 59.9453 1041.92 60.3828C1042.71 60.8203 1043.31 61.4557 1043.73 62.2891C1044.15 63.1224 1044.36 64.1276 1044.36 65.3047V65.3203C1044.36 66.5234 1044.15 67.5495 1043.74 68.3984C1043.32 69.2422 1042.72 69.888 1041.93 70.3359C1041.14 70.7786 1040.18 71 1039.06 71H1034.83ZM1036.85 69.3047H1038.79C1039.54 69.3047 1040.17 69.151 1040.7 68.8438C1041.23 68.5365 1041.62 68.0885 1041.89 67.5C1042.17 66.9115 1042.31 66.1953 1042.31 65.3516V65.3359C1042.31 64.513 1042.17 63.8099 1041.89 63.2266C1041.61 62.638 1041.21 62.1901 1040.68 61.8828C1040.16 61.5755 1039.53 61.4219 1038.79 61.4219H1036.85V69.3047ZM1050.3 71V59.7266H1054.53C1055.65 59.7266 1056.6 59.9453 1057.39 60.3828C1058.18 60.8203 1058.78 61.4557 1059.2 62.2891C1059.62 63.1224 1059.83 64.1276 1059.83 65.3047V65.3203C1059.83 66.5234 1059.62 67.5495 1059.21 68.3984C1058.79 69.2422 1058.19 69.888 1057.4 70.3359C1056.61 70.7786 1055.65 71 1054.53 71H1050.3ZM1052.32 69.3047H1054.26C1055.01 69.3047 1055.64 69.151 1056.17 68.8438C1056.69 68.5365 1057.09 68.0885 1057.36 67.5C1057.64 66.9115 1057.78 66.1953 1057.78 65.3516V65.3359C1057.78 64.513 1057.64 63.8099 1057.36 63.2266C1057.08 62.638 1056.68 62.1901 1056.15 61.8828C1055.63 61.5755 1055 61.4219 1054.26 61.4219H1052.32V69.3047ZM1061.82 71V59.7266H1069.12V61.4219H1063.84V64.4766H1068.83V66.0781H1063.84V69.3047H1069.12V71H1061.82ZM1072.31 67.2734V65.6484H1075.31C1076.03 65.6484 1076.6 65.4635 1077 65.0938C1077.4 64.7188 1077.6 64.1927 1077.6 63.5156V63.5C1077.6 62.8177 1077.4 62.2917 1077 61.9219C1076.6 61.5521 1076.03 61.3672 1075.31 61.3672H1072.31V59.7266H1075.8C1076.57 59.7266 1077.24 59.8828 1077.81 60.1953C1078.38 60.5078 1078.83 60.9479 1079.15 61.5156C1079.48 62.0781 1079.64 62.737 1079.64 63.4922V63.5078C1079.64 64.2578 1079.48 64.9167 1079.15 65.4844C1078.83 66.0469 1078.38 66.487 1077.81 66.8047C1077.24 67.1172 1076.57 67.2734 1075.8 67.2734H1072.31ZM1071.3 71V59.7266H1073.32V71H1071.3ZM1081.54 71V59.7266H1083.56V69.3047H1088.72V71H1081.54ZM1095.07 71.2812C1093.96 71.2812 1093.01 71.0417 1092.22 70.5625C1091.42 70.0781 1090.81 69.3932 1090.38 68.5078C1089.95 67.6224 1089.73 66.5755 1089.73 65.3672V65.3516C1089.73 64.138 1089.95 63.0911 1090.38 62.2109C1090.82 61.3255 1091.44 60.6432 1092.23 60.1641C1093.03 59.6849 1093.98 59.4453 1095.07 59.4453C1096.16 59.4453 1097.11 59.6849 1097.9 60.1641C1098.7 60.6432 1099.32 61.3255 1099.75 62.2109C1100.18 63.0964 1100.4 64.1432 1100.4 65.3516V65.3672C1100.4 66.5755 1100.18 67.6224 1099.75 68.5078C1099.32 69.3932 1098.71 70.0781 1097.91 70.5625C1097.12 71.0417 1096.17 71.2812 1095.07 71.2812ZM1095.07 69.5391C1095.74 69.5391 1096.32 69.3672 1096.81 69.0234C1097.3 68.6797 1097.68 68.1953 1097.94 67.5703C1098.21 66.9453 1098.35 66.2109 1098.35 65.3672V65.3516C1098.35 64.5026 1098.21 63.7682 1097.94 63.1484C1097.68 62.5234 1097.3 62.0417 1096.81 61.7031C1096.32 61.3594 1095.74 61.1875 1095.07 61.1875C1094.4 61.1875 1093.82 61.3594 1093.33 61.7031C1092.84 62.0417 1092.46 62.5234 1092.19 63.1484C1091.92 63.7682 1091.79 64.5026 1091.79 65.3516V65.3672C1091.79 66.2109 1091.92 66.9453 1092.18 67.5703C1092.44 68.1953 1092.82 68.6797 1093.31 69.0234C1093.81 69.3672 1094.39 69.5391 1095.07 69.5391ZM1104.88 71V66.5547L1100.93 59.7266H1103.13L1105.82 64.5625H1105.95L1108.64 59.7266H1110.84L1106.89 66.5547V71H1104.88ZM1112.46 71V59.7266H1114.77L1118.16 68.4062H1118.3L1121.68 59.7266H1123.99V71H1122.18V62.9844H1121.19L1123.19 60.0391L1118.91 71H1117.54L1113.26 60.0391L1115.26 62.9844H1114.27V71H1112.46ZM1126.45 71V59.7266H1133.75V61.4219H1128.47V64.4766H1133.46V66.0781H1128.47V69.3047H1133.75V71H1126.45ZM1135.93 71V59.7266H1137.68L1143.73 68.2031L1142.34 67.4922H1143.34V59.7266H1145.28V71H1143.54L1137.49 62.5156L1138.88 63.2266H1137.87V71H1135.93ZM1150.55 71V61.4219H1147.09V59.7266H1156.04V61.4219H1152.57V71H1150.55Z" fill="white"/>
<path d="M944.415 361V349.727H948.641C949.761 349.727 950.714 349.945 951.501 350.383C952.292 350.82 952.896 351.456 953.313 352.289C953.735 353.122 953.946 354.128 953.946 355.305V355.32C953.946 356.523 953.738 357.549 953.321 358.398C952.904 359.242 952.3 359.888 951.508 360.336C950.722 360.779 949.766 361 948.641 361H944.415ZM946.43 359.305H948.376C949.12 359.305 949.756 359.151 950.282 358.844C950.808 358.536 951.206 358.089 951.477 357.5C951.753 356.911 951.891 356.195 951.891 355.352V355.336C951.891 354.513 951.751 353.81 951.469 353.227C951.193 352.638 950.792 352.19 950.266 351.883C949.74 351.576 949.11 351.422 948.376 351.422H946.43V359.305ZM960.798 361.281C959.694 361.281 958.743 361.042 957.946 360.562C957.155 360.078 956.543 359.393 956.11 358.508C955.678 357.622 955.462 356.576 955.462 355.367V355.352C955.462 354.138 955.678 353.091 956.11 352.211C956.548 351.326 957.165 350.643 957.962 350.164C958.764 349.685 959.709 349.445 960.798 349.445C961.892 349.445 962.837 349.685 963.634 350.164C964.431 350.643 965.045 351.326 965.478 352.211C965.91 353.096 966.126 354.143 966.126 355.352V355.367C966.126 356.576 965.91 357.622 965.478 358.508C965.05 359.393 964.438 360.078 963.642 360.562C962.845 361.042 961.897 361.281 960.798 361.281ZM960.798 359.539C961.47 359.539 962.05 359.367 962.54 359.023C963.03 358.68 963.407 358.195 963.673 357.57C963.944 356.945 964.079 356.211 964.079 355.367V355.352C964.079 354.503 963.944 353.768 963.673 353.148C963.407 352.523 963.03 352.042 962.54 351.703C962.05 351.359 961.47 351.188 960.798 351.188C960.131 351.188 959.55 351.359 959.056 351.703C958.566 352.042 958.186 352.523 957.915 353.148C957.649 353.768 957.517 354.503 957.517 355.352V355.367C957.517 356.211 957.647 356.945 957.907 357.57C958.173 358.195 958.55 358.68 959.04 359.023C959.535 359.367 960.121 359.539 960.798 359.539ZM967.384 361V359.656L973.314 351.555V351.422H967.548V349.727H975.806V351.062L969.9 359.172V359.305H975.954V361H967.384ZM978.111 361V349.727H985.408V351.422H980.127V354.477H985.119V356.078H980.127V359.305H985.408V361H978.111ZM987.588 361V349.727H992.143C992.95 349.727 993.643 349.87 994.221 350.156C994.799 350.443 995.241 350.846 995.549 351.367C995.856 351.888 996.01 352.508 996.01 353.227V353.242C996.01 353.987 995.822 354.648 995.447 355.227C995.077 355.799 994.559 356.206 993.893 356.445L996.353 361H994.057L991.838 356.758C991.827 356.758 991.812 356.758 991.791 356.758C991.77 356.758 991.752 356.758 991.736 356.758H989.603V361H987.588ZM989.603 355.211H991.932C992.572 355.211 993.07 355.042 993.424 354.703C993.778 354.365 993.955 353.893 993.955 353.289V353.273C993.955 352.685 993.77 352.219 993.4 351.875C993.036 351.526 992.533 351.352 991.893 351.352H989.603V355.211ZM1006.79 361.281C1005.72 361.281 1004.8 361.042 1004.03 360.562C1003.26 360.083 1002.66 359.404 1002.24 358.523C1001.82 357.638 1001.61 356.589 1001.61 355.375V355.359C1001.61 354.141 1001.82 353.091 1002.24 352.211C1002.66 351.326 1003.26 350.643 1004.03 350.164C1004.8 349.685 1005.72 349.445 1006.78 349.445C1007.64 349.445 1008.41 349.615 1009.1 349.953C1009.78 350.286 1010.34 350.75 1010.78 351.344C1011.21 351.932 1011.47 352.609 1011.56 353.375L1011.55 353.438H1009.58L1009.57 353.398C1009.48 352.956 1009.3 352.57 1009.04 352.242C1008.78 351.909 1008.46 351.651 1008.07 351.469C1007.69 351.281 1007.26 351.188 1006.78 351.188C1006.15 351.188 1005.6 351.357 1005.13 351.695C1004.66 352.034 1004.3 352.516 1004.04 353.141C1003.79 353.76 1003.67 354.497 1003.67 355.352V355.367C1003.67 356.221 1003.79 356.961 1004.04 357.586C1004.3 358.211 1004.66 358.693 1005.13 359.031C1005.6 359.37 1006.15 359.539 1006.79 359.539C1007.27 359.539 1007.7 359.456 1008.08 359.289C1008.47 359.122 1008.79 358.888 1009.04 358.586C1009.3 358.279 1009.48 357.919 1009.57 357.508L1009.59 357.461H1011.56V357.523C1011.46 358.273 1011.2 358.93 1010.77 359.492C1010.34 360.055 1009.79 360.495 1009.11 360.812C1008.43 361.125 1007.66 361.281 1006.79 361.281ZM1013.49 361V349.727H1015.5V359.305H1020.67V361H1013.49ZM1027.01 361.281C1025.91 361.281 1024.96 361.042 1024.16 360.562C1023.37 360.078 1022.76 359.393 1022.32 358.508C1021.89 357.622 1021.68 356.576 1021.68 355.367V355.352C1021.68 354.138 1021.89 353.091 1022.32 352.211C1022.76 351.326 1023.38 350.643 1024.18 350.164C1024.98 349.685 1025.92 349.445 1027.01 349.445C1028.1 349.445 1029.05 349.685 1029.85 350.164C1030.64 350.643 1031.26 351.326 1031.69 352.211C1032.12 353.096 1032.34 354.143 1032.34 355.352V355.367C1032.34 356.576 1032.12 357.622 1031.69 358.508C1031.26 359.393 1030.65 360.078 1029.85 360.562C1029.06 361.042 1028.11 361.281 1027.01 361.281ZM1027.01 359.539C1027.68 359.539 1028.26 359.367 1028.75 359.023C1029.24 358.68 1029.62 358.195 1029.89 357.57C1030.16 356.945 1030.29 356.211 1030.29 355.367V355.352C1030.29 354.503 1030.16 353.768 1029.89 353.148C1029.62 352.523 1029.24 352.042 1028.75 351.703C1028.26 351.359 1027.68 351.188 1027.01 351.188C1026.34 351.188 1025.76 351.359 1025.27 351.703C1024.78 352.042 1024.4 352.523 1024.13 353.148C1023.86 353.768 1023.73 354.503 1023.73 355.352V355.367C1023.73 356.211 1023.86 356.945 1024.12 357.57C1024.39 358.195 1024.76 358.68 1025.25 359.023C1025.75 359.367 1026.33 359.539 1027.01 359.539ZM1038.96 361.281C1038.01 361.281 1037.19 361.107 1036.5 360.758C1035.8 360.409 1035.27 359.922 1034.89 359.297C1034.51 358.672 1034.32 357.945 1034.32 357.117V349.727H1036.33V356.953C1036.33 357.469 1036.43 357.922 1036.64 358.312C1036.84 358.698 1037.14 359 1037.53 359.219C1037.93 359.432 1038.4 359.539 1038.96 359.539C1039.52 359.539 1040 359.432 1040.39 359.219C1040.78 359 1041.07 358.698 1041.28 358.312C1041.48 357.922 1041.58 357.469 1041.58 356.953V349.727H1043.59V357.117C1043.59 357.945 1043.4 358.672 1043.03 359.297C1042.65 359.922 1042.12 360.409 1041.43 360.758C1040.74 361.107 1039.91 361.281 1038.96 361.281ZM1046.04 361V349.727H1050.27C1051.39 349.727 1052.34 349.945 1053.13 350.383C1053.92 350.82 1054.52 351.456 1054.94 352.289C1055.36 353.122 1055.57 354.128 1055.57 355.305V355.32C1055.57 356.523 1055.37 357.549 1054.95 358.398C1054.53 359.242 1053.93 359.888 1053.14 360.336C1052.35 360.779 1051.39 361 1050.27 361H1046.04ZM1048.06 359.305H1050C1050.75 359.305 1051.38 359.151 1051.91 358.844C1052.44 358.536 1052.83 358.089 1053.11 357.5C1053.38 356.911 1053.52 356.195 1053.52 355.352V355.336C1053.52 354.513 1053.38 353.81 1053.1 353.227C1052.82 352.638 1052.42 352.19 1051.89 351.883C1051.37 351.576 1050.74 351.422 1050 351.422H1048.06V359.305ZM1061.51 361V349.727H1065.74C1066.86 349.727 1067.81 349.945 1068.6 350.383C1069.39 350.82 1069.99 351.456 1070.41 352.289C1070.83 353.122 1071.04 354.128 1071.04 355.305V355.32C1071.04 356.523 1070.84 357.549 1070.42 358.398C1070 359.242 1069.4 359.888 1068.61 360.336C1067.82 360.779 1066.86 361 1065.74 361H1061.51ZM1063.53 359.305H1065.47C1066.22 359.305 1066.85 359.151 1067.38 358.844C1067.91 358.536 1068.3 358.089 1068.57 357.5C1068.85 356.911 1068.99 356.195 1068.99 355.352V355.336C1068.99 354.513 1068.85 353.81 1068.57 353.227C1068.29 352.638 1067.89 352.19 1067.36 351.883C1066.84 351.576 1066.21 351.422 1065.47 351.422H1063.53V359.305ZM1073.04 361V349.727H1080.33V351.422H1075.05V354.477H1080.04V356.078H1075.05V359.305H1080.33V361H1073.04ZM1083.52 357.273V355.648H1086.52C1087.24 355.648 1087.81 355.464 1088.21 355.094C1088.61 354.719 1088.81 354.193 1088.81 353.516V353.5C1088.81 352.818 1088.61 352.292 1088.21 351.922C1087.81 351.552 1087.24 351.367 1086.52 351.367H1083.52V349.727H1087.01C1087.78 349.727 1088.45 349.883 1089.02 350.195C1089.59 350.508 1090.04 350.948 1090.36 351.516C1090.69 352.078 1090.85 352.737 1090.85 353.492V353.508C1090.85 354.258 1090.69 354.917 1090.36 355.484C1090.04 356.047 1089.59 356.487 1089.02 356.805C1088.45 357.117 1087.78 357.273 1087.01 357.273H1083.52ZM1082.51 361V349.727H1084.53V361H1082.51ZM1092.76 361V349.727H1094.77V359.305H1099.93V361H1092.76ZM1106.28 361.281C1105.17 361.281 1104.22 361.042 1103.43 360.562C1102.64 360.078 1102.02 359.393 1101.59 358.508C1101.16 357.622 1100.94 356.576 1100.94 355.367V355.352C1100.94 354.138 1101.16 353.091 1101.59 352.211C1102.03 351.326 1102.65 350.643 1103.44 350.164C1104.25 349.685 1105.19 349.445 1106.28 349.445C1107.37 349.445 1108.32 349.685 1109.12 350.164C1109.91 350.643 1110.53 351.326 1110.96 352.211C1111.39 353.096 1111.61 354.143 1111.61 355.352V355.367C1111.61 356.576 1111.39 357.622 1110.96 358.508C1110.53 359.393 1109.92 360.078 1109.12 360.562C1108.33 361.042 1107.38 361.281 1106.28 361.281ZM1106.28 359.539C1106.95 359.539 1107.53 359.367 1108.02 359.023C1108.51 358.68 1108.89 358.195 1109.15 357.57C1109.42 356.945 1109.56 356.211 1109.56 355.367V355.352C1109.56 354.503 1109.42 353.768 1109.15 353.148C1108.89 352.523 1108.51 352.042 1108.02 351.703C1107.53 351.359 1106.95 351.188 1106.28 351.188C1105.61 351.188 1105.03 351.359 1104.54 351.703C1104.05 352.042 1103.67 352.523 1103.4 353.148C1103.13 353.768 1103 354.503 1103 355.352V355.367C1103 356.211 1103.13 356.945 1103.39 357.57C1103.65 358.195 1104.03 358.68 1104.52 359.023C1105.02 359.367 1105.6 359.539 1106.28 359.539ZM1116.09 361V356.555L1112.14 349.727H1114.34L1117.03 354.562H1117.16L1119.85 349.727H1122.05L1118.1 356.555V361H1116.09ZM1123.67 361V349.727H1125.98L1129.37 358.406H1129.51L1132.89 349.727H1135.2V361H1133.39V352.984H1132.4L1134.4 350.039L1130.12 361H1128.75L1124.48 350.039L1126.48 352.984H1125.48V361H1123.67ZM1137.66 361V349.727H1144.96V351.422H1139.68V354.477H1144.67V356.078H1139.68V359.305H1144.96V361H1137.66ZM1147.14 361V349.727H1148.89L1154.94 358.203L1153.55 357.492H1154.55V349.727H1156.49V361H1154.75L1148.7 352.516L1150.09 353.227H1149.09V361H1147.14ZM1161.76 361V351.422H1158.3V349.727H1167.25V351.422H1163.78V361H1161.76Z" fill="white"/>
</svg>
