<svg width="1482" height="421" viewBox="0 0 1482 421" fill="none" xmlns="http://www.w3.org/2000/svg">
<rect width="1482" height="420" rx="20" fill="#1F2224"/>
<rect x="52.5" y="187.5" width="156" height="55" rx="14.5" fill="#262A30"/>
<path d="M80.5791 221.24H80.4591C80.1524 221.867 79.7457 222.36 79.2391 222.72C78.7324 223.067 78.0991 223.24 77.3391 223.24C76.1257 223.24 75.1591 222.787 74.4391 221.88C73.7191 220.973 73.3591 219.627 73.3591 217.84C73.3591 216.053 73.7191 214.707 74.4391 213.8C75.1591 212.893 76.1257 212.44 77.3391 212.44C78.0991 212.44 78.7324 212.62 79.2391 212.98C79.7457 213.327 80.1524 213.813 80.4591 214.44H80.5791V208.2H82.7591V223H80.5791V221.24ZM78.2391 221.46C78.5591 221.46 78.8591 221.42 79.1391 221.34C79.4191 221.26 79.6657 221.14 79.8791 220.98C80.0924 220.82 80.2591 220.627 80.3791 220.4C80.5124 220.16 80.5791 219.88 80.5791 219.56V216.12C80.5791 215.8 80.5124 215.527 80.3791 215.3C80.2591 215.06 80.0924 214.86 79.8791 214.7C79.6657 214.54 79.4191 214.42 79.1391 214.34C78.8591 214.26 78.5591 214.22 78.2391 214.22C77.4124 214.22 76.7724 214.473 76.3191 214.98C75.8791 215.487 75.6591 216.16 75.6591 217V218.68C75.6591 219.52 75.8791 220.193 76.3191 220.7C76.7724 221.207 77.4124 221.46 78.2391 221.46ZM89.9312 223.24C89.1712 223.24 88.4846 223.113 87.8712 222.86C87.2712 222.607 86.7579 222.247 86.3312 221.78C85.9179 221.313 85.5979 220.747 85.3712 220.08C85.1446 219.413 85.0312 218.667 85.0312 217.84C85.0312 217.013 85.1446 216.267 85.3712 215.6C85.5979 214.933 85.9179 214.367 86.3312 213.9C86.7579 213.433 87.2712 213.073 87.8712 212.82C88.4846 212.567 89.1712 212.44 89.9312 212.44C90.6913 212.44 91.3712 212.567 91.9712 212.82C92.5846 213.073 93.0979 213.433 93.5113 213.9C93.9379 214.367 94.2646 214.933 94.4912 215.6C94.7179 216.267 94.8312 217.013 94.8312 217.84C94.8312 218.667 94.7179 219.413 94.4912 220.08C94.2646 220.747 93.9379 221.313 93.5113 221.78C93.0979 222.247 92.5846 222.607 91.9712 222.86C91.3712 223.113 90.6913 223.24 89.9312 223.24ZM89.9312 221.52C90.7312 221.52 91.3646 221.28 91.8312 220.8C92.3113 220.307 92.5513 219.58 92.5513 218.62V217.06C92.5513 216.1 92.3113 215.38 91.8312 214.9C91.3646 214.407 90.7312 214.16 89.9312 214.16C89.1312 214.16 88.4912 214.407 88.0112 214.9C87.5446 215.38 87.3112 216.1 87.3112 217.06V218.62C87.3112 219.58 87.5446 220.307 88.0112 220.8C88.4912 221.28 89.1312 221.52 89.9312 221.52ZM97.0634 223V221.08L103.343 214.44H97.2834V212.68H105.783V214.6L99.5034 221.24H105.983V223H97.0634ZM113.336 223.24C112.549 223.24 111.842 223.113 111.216 222.86C110.589 222.607 110.062 222.247 109.636 221.78C109.209 221.313 108.882 220.753 108.656 220.1C108.429 219.433 108.316 218.687 108.316 217.86C108.316 217.033 108.429 216.287 108.656 215.62C108.896 214.953 109.222 214.387 109.636 213.92C110.062 213.44 110.576 213.073 111.176 212.82C111.776 212.567 112.442 212.44 113.176 212.44C113.896 212.44 114.549 212.567 115.136 212.82C115.722 213.06 116.222 213.407 116.636 213.86C117.049 214.313 117.362 214.853 117.576 215.48C117.802 216.107 117.916 216.8 117.916 217.56V218.38H110.516V218.72C110.516 219.533 110.769 220.2 111.276 220.72C111.782 221.227 112.482 221.48 113.376 221.48C114.042 221.48 114.609 221.34 115.076 221.06C115.556 220.767 115.942 220.38 116.236 219.9L117.596 221.1C117.249 221.7 116.716 222.207 115.996 222.62C115.289 223.033 114.402 223.24 113.336 223.24ZM113.176 214.1C112.789 214.1 112.429 214.167 112.096 214.3C111.776 214.433 111.496 214.627 111.256 214.88C111.029 215.12 110.849 215.407 110.716 215.74C110.582 216.073 110.516 216.44 110.516 216.84V216.98H115.696V216.78C115.696 215.967 115.462 215.32 114.996 214.84C114.542 214.347 113.936 214.1 113.176 214.1ZM120.228 221.24H122.968V214.44H120.228V212.68H125.148V215.42H125.268C125.361 215.06 125.494 214.713 125.668 214.38C125.841 214.047 126.061 213.76 126.328 213.52C126.594 213.267 126.921 213.067 127.308 212.92C127.694 212.76 128.148 212.68 128.668 212.68H129.908V214.76H127.868C127.068 214.76 126.414 215 125.908 215.48C125.401 215.947 125.148 216.58 125.148 217.38V221.24H128.888V223H120.228V221.24ZM148.532 210.8C147.972 210.8 147.579 210.687 147.352 210.46C147.139 210.233 147.032 209.953 147.032 209.62V209.2C147.032 208.867 147.139 208.587 147.352 208.36C147.579 208.133 147.966 208.02 148.512 208.02C149.072 208.02 149.459 208.133 149.672 208.36C149.899 208.587 150.012 208.867 150.012 209.2V209.62C150.012 209.953 149.899 210.233 149.672 210.46C149.459 210.687 149.079 210.8 148.532 210.8ZM143.912 221.24H147.432V214.44H143.912V212.68H149.612V221.24H152.912V223H143.912V221.24ZM155.164 223V212.68H157.344V214.44H157.444C157.551 214.173 157.684 213.92 157.844 213.68C158.018 213.427 158.224 213.213 158.464 213.04C158.704 212.853 158.984 212.707 159.304 212.6C159.624 212.493 159.998 212.44 160.424 212.44C161.464 212.44 162.304 212.78 162.944 213.46C163.584 214.14 163.904 215.107 163.904 216.36V223H161.724V216.68C161.724 215.04 161.011 214.22 159.584 214.22C159.304 214.22 159.031 214.26 158.764 214.34C158.498 214.407 158.258 214.513 158.044 214.66C157.831 214.807 157.658 214.993 157.524 215.22C157.404 215.447 157.344 215.707 157.344 216V223H155.164ZM171.717 210.8C171.157 210.8 170.763 210.687 170.537 210.46C170.323 210.233 170.217 209.953 170.217 209.62V209.2C170.217 208.867 170.323 208.587 170.537 208.36C170.763 208.133 171.15 208.02 171.697 208.02C172.257 208.02 172.643 208.133 172.857 208.36C173.083 208.587 173.197 208.867 173.197 209.2V209.62C173.197 209.953 173.083 210.233 172.857 210.46C172.643 210.687 172.263 210.8 171.717 210.8ZM167.097 221.24H170.617V214.44H167.097V212.68H172.797V221.24H176.097V223H167.097V221.24ZM183.289 223C182.382 223 181.715 222.76 181.289 222.28C180.862 221.787 180.649 221.153 180.649 220.38V214.44H177.469V212.68H179.729C180.115 212.68 180.389 212.607 180.549 212.46C180.709 212.3 180.789 212.02 180.789 211.62V209.04H182.829V212.68H187.229V214.44H182.829V221.24H187.229V223H183.289Z" fill="white"/>
<rect x="52.5" y="187.5" width="156" height="55" rx="14.5" stroke="#333840"/>
<rect x="269.5" y="187.5" width="156" height="55" rx="14.5" fill="#262A30"/>
<path d="M297.579 221.24H297.459C297.152 221.867 296.746 222.36 296.239 222.72C295.732 223.067 295.099 223.24 294.339 223.24C293.126 223.24 292.159 222.787 291.439 221.88C290.719 220.973 290.359 219.627 290.359 217.84C290.359 216.053 290.719 214.707 291.439 213.8C292.159 212.893 293.126 212.44 294.339 212.44C295.099 212.44 295.732 212.62 296.239 212.98C296.746 213.327 297.152 213.813 297.459 214.44H297.579V208.2H299.759V223H297.579V221.24ZM295.239 221.46C295.559 221.46 295.859 221.42 296.139 221.34C296.419 221.26 296.666 221.14 296.879 220.98C297.092 220.82 297.259 220.627 297.379 220.4C297.512 220.16 297.579 219.88 297.579 219.56V216.12C297.579 215.8 297.512 215.527 297.379 215.3C297.259 215.06 297.092 214.86 296.879 214.7C296.666 214.54 296.419 214.42 296.139 214.34C295.859 214.26 295.559 214.22 295.239 214.22C294.412 214.22 293.772 214.473 293.319 214.98C292.879 215.487 292.659 216.16 292.659 217V218.68C292.659 219.52 292.879 220.193 293.319 220.7C293.772 221.207 294.412 221.46 295.239 221.46ZM306.931 223.24C306.171 223.24 305.485 223.113 304.871 222.86C304.271 222.607 303.758 222.247 303.331 221.78C302.918 221.313 302.598 220.747 302.371 220.08C302.145 219.413 302.031 218.667 302.031 217.84C302.031 217.013 302.145 216.267 302.371 215.6C302.598 214.933 302.918 214.367 303.331 213.9C303.758 213.433 304.271 213.073 304.871 212.82C305.485 212.567 306.171 212.44 306.931 212.44C307.691 212.44 308.371 212.567 308.971 212.82C309.585 213.073 310.098 213.433 310.511 213.9C310.938 214.367 311.265 214.933 311.491 215.6C311.718 216.267 311.831 217.013 311.831 217.84C311.831 218.667 311.718 219.413 311.491 220.08C311.265 220.747 310.938 221.313 310.511 221.78C310.098 222.247 309.585 222.607 308.971 222.86C308.371 223.113 307.691 223.24 306.931 223.24ZM306.931 221.52C307.731 221.52 308.365 221.28 308.831 220.8C309.311 220.307 309.551 219.58 309.551 218.62V217.06C309.551 216.1 309.311 215.38 308.831 214.9C308.365 214.407 307.731 214.16 306.931 214.16C306.131 214.16 305.491 214.407 305.011 214.9C304.545 215.38 304.311 216.1 304.311 217.06V218.62C304.311 219.58 304.545 220.307 305.011 220.8C305.491 221.28 306.131 221.52 306.931 221.52ZM314.063 223V221.08L320.343 214.44H314.283V212.68H322.783V214.6L316.503 221.24H322.983V223H314.063ZM330.336 223.24C329.549 223.24 328.842 223.113 328.216 222.86C327.589 222.607 327.062 222.247 326.636 221.78C326.209 221.313 325.882 220.753 325.656 220.1C325.429 219.433 325.316 218.687 325.316 217.86C325.316 217.033 325.429 216.287 325.656 215.62C325.896 214.953 326.222 214.387 326.636 213.92C327.062 213.44 327.576 213.073 328.176 212.82C328.776 212.567 329.442 212.44 330.176 212.44C330.896 212.44 331.549 212.567 332.136 212.82C332.722 213.06 333.222 213.407 333.636 213.86C334.049 214.313 334.362 214.853 334.576 215.48C334.802 216.107 334.916 216.8 334.916 217.56V218.38H327.516V218.72C327.516 219.533 327.769 220.2 328.276 220.72C328.782 221.227 329.482 221.48 330.376 221.48C331.042 221.48 331.609 221.34 332.076 221.06C332.556 220.767 332.942 220.38 333.236 219.9L334.596 221.1C334.249 221.7 333.716 222.207 332.996 222.62C332.289 223.033 331.402 223.24 330.336 223.24ZM330.176 214.1C329.789 214.1 329.429 214.167 329.096 214.3C328.776 214.433 328.496 214.627 328.256 214.88C328.029 215.12 327.849 215.407 327.716 215.74C327.582 216.073 327.516 216.44 327.516 216.84V216.98H332.696V216.78C332.696 215.967 332.462 215.32 331.996 214.84C331.542 214.347 330.936 214.1 330.176 214.1ZM337.228 221.24H339.968V214.44H337.228V212.68H342.148V215.42H342.268C342.361 215.06 342.494 214.713 342.668 214.38C342.841 214.047 343.061 213.76 343.328 213.52C343.594 213.267 343.921 213.067 344.308 212.92C344.694 212.76 345.148 212.68 345.668 212.68H346.908V214.76H344.868C344.068 214.76 343.414 215 342.908 215.48C342.401 215.947 342.148 216.58 342.148 217.38V221.24H345.888V223H337.228V221.24ZM360.392 221.24H363.812V209.96H360.392V208.2H365.992V221.24H369.412V223H360.392V221.24ZM377.124 210.8C376.564 210.8 376.171 210.687 375.944 210.46C375.731 210.233 375.624 209.953 375.624 209.62V209.2C375.624 208.867 375.731 208.587 375.944 208.36C376.171 208.133 376.558 208.02 377.104 208.02C377.664 208.02 378.051 208.133 378.264 208.36C378.491 208.587 378.604 208.867 378.604 209.2V209.62C378.604 209.953 378.491 210.233 378.264 210.46C378.051 210.687 377.671 210.8 377.124 210.8ZM372.504 221.24H376.024V214.44H372.504V212.68H378.204V221.24H381.504V223H372.504V221.24ZM386.737 223L383.037 212.68H385.297L386.717 217.04L388.057 221.18H388.177L389.517 217.04L390.937 212.68H393.117L389.417 223H386.737ZM399.889 223.24C399.102 223.24 398.395 223.113 397.769 222.86C397.142 222.607 396.615 222.247 396.189 221.78C395.762 221.313 395.435 220.753 395.209 220.1C394.982 219.433 394.869 218.687 394.869 217.86C394.869 217.033 394.982 216.287 395.209 215.62C395.449 214.953 395.775 214.387 396.189 213.92C396.615 213.44 397.129 213.073 397.729 212.82C398.329 212.567 398.995 212.44 399.729 212.44C400.449 212.44 401.102 212.567 401.689 212.82C402.275 213.06 402.775 213.407 403.189 213.86C403.602 214.313 403.915 214.853 404.129 215.48C404.355 216.107 404.469 216.8 404.469 217.56V218.38H397.069V218.72C397.069 219.533 397.322 220.2 397.829 220.72C398.335 221.227 399.035 221.48 399.929 221.48C400.595 221.48 401.162 221.34 401.629 221.06C402.109 220.767 402.495 220.38 402.789 219.9L404.149 221.1C403.802 221.7 403.269 222.207 402.549 222.62C401.842 223.033 400.955 223.24 399.889 223.24ZM399.729 214.1C399.342 214.1 398.982 214.167 398.649 214.3C398.329 214.433 398.049 214.627 397.809 214.88C397.582 215.12 397.402 215.407 397.269 215.74C397.135 216.073 397.069 216.44 397.069 216.84V216.98H402.249V216.78C402.249 215.967 402.015 215.32 401.549 214.84C401.095 214.347 400.489 214.1 399.729 214.1Z" fill="white"/>
<rect x="269.5" y="187.5" width="156" height="55" rx="14.5" stroke="#333840"/>
<rect x="486.5" y="186.5" width="98" height="55" rx="14.5" fill="#262A30"/>
<path d="M514.56 220.24H514.44C514.133 220.867 513.726 221.36 513.22 221.72C512.713 222.067 512.08 222.24 511.32 222.24C510.106 222.24 509.14 221.787 508.42 220.88C507.7 219.973 507.34 218.627 507.34 216.84C507.34 215.053 507.7 213.707 508.42 212.8C509.14 211.893 510.106 211.44 511.32 211.44C512.08 211.44 512.713 211.62 513.22 211.98C513.726 212.327 514.133 212.813 514.44 213.44H514.56V207.2H516.74V222H514.56V220.24ZM512.22 220.46C512.54 220.46 512.84 220.42 513.12 220.34C513.4 220.26 513.646 220.14 513.86 219.98C514.073 219.82 514.24 219.627 514.36 219.4C514.493 219.16 514.56 218.88 514.56 218.56V215.12C514.56 214.8 514.493 214.527 514.36 214.3C514.24 214.06 514.073 213.86 513.86 213.7C513.646 213.54 513.4 213.42 513.12 213.34C512.84 213.26 512.54 213.22 512.22 213.22C511.393 213.22 510.753 213.473 510.3 213.98C509.86 214.487 509.64 215.16 509.64 216V217.68C509.64 218.52 509.86 219.193 510.3 219.7C510.753 220.207 511.393 220.46 512.22 220.46ZM523.912 222.24C523.152 222.24 522.465 222.113 521.852 221.86C521.252 221.607 520.738 221.247 520.312 220.78C519.898 220.313 519.578 219.747 519.352 219.08C519.125 218.413 519.012 217.667 519.012 216.84C519.012 216.013 519.125 215.267 519.352 214.6C519.578 213.933 519.898 213.367 520.312 212.9C520.738 212.433 521.252 212.073 521.852 211.82C522.465 211.567 523.152 211.44 523.912 211.44C524.672 211.44 525.352 211.567 525.952 211.82C526.565 212.073 527.078 212.433 527.492 212.9C527.918 213.367 528.245 213.933 528.472 214.6C528.698 215.267 528.812 216.013 528.812 216.84C528.812 217.667 528.698 218.413 528.472 219.08C528.245 219.747 527.918 220.313 527.492 220.78C527.078 221.247 526.565 221.607 525.952 221.86C525.352 222.113 524.672 222.24 523.912 222.24ZM523.912 220.52C524.712 220.52 525.345 220.28 525.812 219.8C526.292 219.307 526.532 218.58 526.532 217.62V216.06C526.532 215.1 526.292 214.38 525.812 213.9C525.345 213.407 524.712 213.16 523.912 213.16C523.112 213.16 522.472 213.407 521.992 213.9C521.525 214.38 521.292 215.1 521.292 216.06V217.62C521.292 218.58 521.525 219.307 521.992 219.8C522.472 220.28 523.112 220.52 523.912 220.52ZM531.044 222V220.08L537.324 213.44H531.264V211.68H539.764V213.6L533.484 220.24H539.964V222H531.044ZM547.316 222.24C546.529 222.24 545.823 222.113 545.196 221.86C544.569 221.607 544.043 221.247 543.616 220.78C543.189 220.313 542.863 219.753 542.636 219.1C542.409 218.433 542.296 217.687 542.296 216.86C542.296 216.033 542.409 215.287 542.636 214.62C542.876 213.953 543.203 213.387 543.616 212.92C544.043 212.44 544.556 212.073 545.156 211.82C545.756 211.567 546.423 211.44 547.156 211.44C547.876 211.44 548.529 211.567 549.116 211.82C549.703 212.06 550.203 212.407 550.616 212.86C551.029 213.313 551.343 213.853 551.556 214.48C551.783 215.107 551.896 215.8 551.896 216.56V217.38H544.496V217.72C544.496 218.533 544.749 219.2 545.256 219.72C545.763 220.227 546.463 220.48 547.356 220.48C548.023 220.48 548.589 220.34 549.056 220.06C549.536 219.767 549.923 219.38 550.216 218.9L551.576 220.1C551.229 220.7 550.696 221.207 549.976 221.62C549.269 222.033 548.383 222.24 547.316 222.24ZM547.156 213.1C546.769 213.1 546.409 213.167 546.076 213.3C545.756 213.433 545.476 213.627 545.236 213.88C545.009 214.12 544.829 214.407 544.696 214.74C544.563 215.073 544.496 215.44 544.496 215.84V215.98H549.676V215.78C549.676 214.967 549.443 214.32 548.976 213.84C548.523 213.347 547.916 213.1 547.156 213.1ZM554.208 220.24H556.948V213.44H554.208V211.68H559.128V214.42H559.248C559.342 214.06 559.475 213.713 559.648 213.38C559.822 213.047 560.042 212.76 560.308 212.52C560.575 212.267 560.902 212.067 561.288 211.92C561.675 211.76 562.128 211.68 562.648 211.68H563.888V213.76H561.848C561.048 213.76 560.395 214 559.888 214.48C559.382 214.947 559.128 215.58 559.128 216.38V220.24H562.868V222H554.208V220.24Z" fill="white"/>
<rect x="486.5" y="186.5" width="98" height="55" rx="14.5" stroke="#333840"/>
<rect x="710.5" y="263.5" width="249" height="55" rx="14.5" fill="#262A30"/>
<path d="M738.71 297.24H738.59C738.284 297.867 737.877 298.36 737.37 298.72C736.864 299.067 736.23 299.24 735.47 299.24C734.257 299.24 733.29 298.787 732.57 297.88C731.85 296.973 731.49 295.627 731.49 293.84C731.49 292.053 731.85 290.707 732.57 289.8C733.29 288.893 734.257 288.44 735.47 288.44C736.23 288.44 736.864 288.62 737.37 288.98C737.877 289.327 738.284 289.813 738.59 290.44H738.71V284.2H740.89V299H738.71V297.24ZM736.37 297.46C736.69 297.46 736.99 297.42 737.27 297.34C737.55 297.26 737.797 297.14 738.01 296.98C738.224 296.82 738.39 296.627 738.51 296.4C738.644 296.16 738.71 295.88 738.71 295.56V292.12C738.71 291.8 738.644 291.527 738.51 291.3C738.39 291.06 738.224 290.86 738.01 290.7C737.797 290.54 737.55 290.42 737.27 290.34C736.99 290.26 736.69 290.22 736.37 290.22C735.544 290.22 734.904 290.473 734.45 290.98C734.01 291.487 733.79 292.16 733.79 293V294.68C733.79 295.52 734.01 296.193 734.45 296.7C734.904 297.207 735.544 297.46 736.37 297.46ZM748.063 299.24C747.303 299.24 746.616 299.113 746.003 298.86C745.403 298.607 744.889 298.247 744.463 297.78C744.049 297.313 743.729 296.747 743.503 296.08C743.276 295.413 743.163 294.667 743.163 293.84C743.163 293.013 743.276 292.267 743.503 291.6C743.729 290.933 744.049 290.367 744.463 289.9C744.889 289.433 745.403 289.073 746.003 288.82C746.616 288.567 747.303 288.44 748.063 288.44C748.823 288.44 749.503 288.567 750.103 288.82C750.716 289.073 751.229 289.433 751.643 289.9C752.069 290.367 752.396 290.933 752.623 291.6C752.849 292.267 752.963 293.013 752.963 293.84C752.963 294.667 752.849 295.413 752.623 296.08C752.396 296.747 752.069 297.313 751.643 297.78C751.229 298.247 750.716 298.607 750.103 298.86C749.503 299.113 748.823 299.24 748.063 299.24ZM748.063 297.52C748.863 297.52 749.496 297.28 749.963 296.8C750.443 296.307 750.683 295.58 750.683 294.62V293.06C750.683 292.1 750.443 291.38 749.963 290.9C749.496 290.407 748.863 290.16 748.063 290.16C747.263 290.16 746.623 290.407 746.143 290.9C745.676 291.38 745.443 292.1 745.443 293.06V294.62C745.443 295.58 745.676 296.307 746.143 296.8C746.623 297.28 747.263 297.52 748.063 297.52ZM755.195 299V297.08L761.475 290.44H755.415V288.68H763.915V290.6L757.635 297.24H764.115V299H755.195ZM771.467 299.24C770.68 299.24 769.974 299.113 769.347 298.86C768.72 298.607 768.194 298.247 767.767 297.78C767.34 297.313 767.014 296.753 766.787 296.1C766.56 295.433 766.447 294.687 766.447 293.86C766.447 293.033 766.56 292.287 766.787 291.62C767.027 290.953 767.354 290.387 767.767 289.92C768.194 289.44 768.707 289.073 769.307 288.82C769.907 288.567 770.574 288.44 771.307 288.44C772.027 288.44 772.68 288.567 773.267 288.82C773.854 289.06 774.354 289.407 774.767 289.86C775.18 290.313 775.494 290.853 775.707 291.48C775.934 292.107 776.047 292.8 776.047 293.56V294.38H768.647V294.72C768.647 295.533 768.9 296.2 769.407 296.72C769.914 297.227 770.614 297.48 771.507 297.48C772.174 297.48 772.74 297.34 773.207 297.06C773.687 296.767 774.074 296.38 774.367 295.9L775.727 297.1C775.38 297.7 774.847 298.207 774.127 298.62C773.42 299.033 772.534 299.24 771.467 299.24ZM771.307 290.1C770.92 290.1 770.56 290.167 770.227 290.3C769.907 290.433 769.627 290.627 769.387 290.88C769.16 291.12 768.98 291.407 768.847 291.74C768.714 292.073 768.647 292.44 768.647 292.84V292.98H773.827V292.78C773.827 291.967 773.594 291.32 773.127 290.84C772.674 290.347 772.067 290.1 771.307 290.1ZM778.359 297.24H781.099V290.44H778.359V288.68H783.279V291.42H783.399C783.492 291.06 783.626 290.713 783.799 290.38C783.972 290.047 784.192 289.76 784.459 289.52C784.726 289.267 785.052 289.067 785.439 288.92C785.826 288.76 786.279 288.68 786.799 288.68H788.039V290.76H785.999C785.199 290.76 784.546 291 784.039 291.48C783.532 291.947 783.279 292.58 783.279 293.38V297.24H787.019V299H778.359V297.24ZM806.403 299.24C805.63 299.24 804.937 299.113 804.323 298.86C803.723 298.607 803.21 298.247 802.783 297.78C802.37 297.313 802.05 296.747 801.823 296.08C801.61 295.413 801.503 294.667 801.503 293.84C801.503 293.013 801.61 292.267 801.823 291.6C802.05 290.933 802.37 290.367 802.783 289.9C803.21 289.433 803.723 289.073 804.323 288.82C804.937 288.567 805.623 288.44 806.383 288.44C807.45 288.44 808.303 288.667 808.943 289.12C809.597 289.573 810.083 290.16 810.403 290.88L808.703 291.8C808.517 291.32 808.23 290.94 807.843 290.66C807.47 290.38 806.983 290.24 806.383 290.24C805.557 290.24 804.917 290.493 804.463 291C804.01 291.493 803.783 292.153 803.783 292.98V294.7C803.783 295.513 804.01 296.173 804.463 296.68C804.917 297.187 805.57 297.44 806.423 297.44C807.063 297.44 807.583 297.293 807.983 297C808.397 296.707 808.723 296.307 808.963 295.8L810.563 296.78C810.23 297.5 809.723 298.093 809.043 298.56C808.363 299.013 807.483 299.24 806.403 299.24ZM813.116 297.24H816.536V285.96H813.116V284.2H818.716V297.24H822.136V299H813.116V297.24ZM829.208 299.24C828.448 299.24 827.761 299.113 827.148 298.86C826.548 298.607 826.034 298.247 825.608 297.78C825.194 297.313 824.874 296.747 824.648 296.08C824.421 295.413 824.308 294.667 824.308 293.84C824.308 293.013 824.421 292.267 824.648 291.6C824.874 290.933 825.194 290.367 825.608 289.9C826.034 289.433 826.548 289.073 827.148 288.82C827.761 288.567 828.448 288.44 829.208 288.44C829.968 288.44 830.648 288.567 831.248 288.82C831.861 289.073 832.374 289.433 832.788 289.9C833.214 290.367 833.541 290.933 833.768 291.6C833.994 292.267 834.108 293.013 834.108 293.84C834.108 294.667 833.994 295.413 833.768 296.08C833.541 296.747 833.214 297.313 832.788 297.78C832.374 298.247 831.861 298.607 831.248 298.86C830.648 299.113 829.968 299.24 829.208 299.24ZM829.208 297.52C830.008 297.52 830.641 297.28 831.108 296.8C831.588 296.307 831.828 295.58 831.828 294.62V293.06C831.828 292.1 831.588 291.38 831.108 290.9C830.641 290.407 830.008 290.16 829.208 290.16C828.408 290.16 827.768 290.407 827.288 290.9C826.821 291.38 826.588 292.1 826.588 293.06V294.62C826.588 295.58 826.821 296.307 827.288 296.8C827.768 297.28 828.408 297.52 829.208 297.52ZM842.94 297.24H842.84C842.733 297.507 842.593 297.767 842.42 298.02C842.26 298.26 842.06 298.473 841.82 298.66C841.58 298.833 841.3 298.973 840.98 299.08C840.66 299.187 840.287 299.24 839.86 299.24C838.82 299.24 837.98 298.9 837.34 298.22C836.7 297.54 836.38 296.573 836.38 295.32V288.68H838.56V295C838.56 296.64 839.273 297.46 840.7 297.46C840.98 297.46 841.253 297.427 841.52 297.36C841.787 297.28 842.027 297.167 842.24 297.02C842.453 296.873 842.62 296.693 842.74 296.48C842.873 296.253 842.94 295.987 842.94 295.68V288.68H845.12V299H842.94V297.24ZM854.632 297.24H854.512C854.206 297.867 853.799 298.36 853.292 298.72C852.786 299.067 852.152 299.24 851.392 299.24C850.179 299.24 849.212 298.787 848.492 297.88C847.772 296.973 847.412 295.627 847.412 293.84C847.412 292.053 847.772 290.707 848.492 289.8C849.212 288.893 850.179 288.44 851.392 288.44C852.152 288.44 852.786 288.62 853.292 288.98C853.799 289.327 854.206 289.813 854.512 290.44H854.632V284.2H856.812V299H854.632V297.24ZM852.292 297.46C852.612 297.46 852.912 297.42 853.192 297.34C853.472 297.26 853.719 297.14 853.932 296.98C854.146 296.82 854.312 296.627 854.432 296.4C854.566 296.16 854.632 295.88 854.632 295.56V292.12C854.632 291.8 854.566 291.527 854.432 291.3C854.312 291.06 854.146 290.86 853.932 290.7C853.719 290.54 853.472 290.42 853.192 290.34C852.912 290.26 852.612 290.22 852.292 290.22C851.466 290.22 850.826 290.473 850.372 290.98C849.932 291.487 849.712 292.16 849.712 293V294.68C849.712 295.52 849.932 296.193 850.372 296.7C850.826 297.207 851.466 297.46 852.292 297.46ZM877.817 297.24H877.697C877.39 297.867 876.983 298.36 876.477 298.72C875.97 299.067 875.337 299.24 874.577 299.24C873.363 299.24 872.397 298.787 871.677 297.88C870.957 296.973 870.597 295.627 870.597 293.84C870.597 292.053 870.957 290.707 871.677 289.8C872.397 288.893 873.363 288.44 874.577 288.44C875.337 288.44 875.97 288.62 876.477 288.98C876.983 289.327 877.39 289.813 877.697 290.44H877.817V284.2H879.997V299H877.817V297.24ZM875.477 297.46C875.797 297.46 876.097 297.42 876.377 297.34C876.657 297.26 876.903 297.14 877.117 296.98C877.33 296.82 877.497 296.627 877.617 296.4C877.75 296.16 877.817 295.88 877.817 295.56V292.12C877.817 291.8 877.75 291.527 877.617 291.3C877.497 291.06 877.33 290.86 877.117 290.7C876.903 290.54 876.657 290.42 876.377 290.34C876.097 290.26 875.797 290.22 875.477 290.22C874.65 290.22 874.01 290.473 873.557 290.98C873.117 291.487 872.897 292.16 872.897 293V294.68C872.897 295.52 873.117 296.193 873.557 296.7C874.01 297.207 874.65 297.46 875.477 297.46ZM887.389 299.24C886.602 299.24 885.895 299.113 885.269 298.86C884.642 298.607 884.115 298.247 883.689 297.78C883.262 297.313 882.935 296.753 882.709 296.1C882.482 295.433 882.369 294.687 882.369 293.86C882.369 293.033 882.482 292.287 882.709 291.62C882.949 290.953 883.275 290.387 883.689 289.92C884.115 289.44 884.629 289.073 885.229 288.82C885.829 288.567 886.495 288.44 887.229 288.44C887.949 288.44 888.602 288.567 889.189 288.82C889.775 289.06 890.275 289.407 890.689 289.86C891.102 290.313 891.415 290.853 891.629 291.48C891.855 292.107 891.969 292.8 891.969 293.56V294.38H884.569V294.72C884.569 295.533 884.822 296.2 885.329 296.72C885.835 297.227 886.535 297.48 887.429 297.48C888.095 297.48 888.662 297.34 889.129 297.06C889.609 296.767 889.995 296.38 890.289 295.9L891.649 297.1C891.302 297.7 890.769 298.207 890.049 298.62C889.342 299.033 888.455 299.24 887.389 299.24ZM887.229 290.1C886.842 290.1 886.482 290.167 886.149 290.3C885.829 290.433 885.549 290.627 885.309 290.88C885.082 291.12 884.902 291.407 884.769 291.74C884.635 292.073 884.569 292.44 884.569 292.84V292.98H889.749V292.78C889.749 291.967 889.515 291.32 889.049 290.84C888.595 290.347 887.989 290.1 887.229 290.1ZM894.341 288.68H896.521V290.44H896.641C896.948 289.813 897.354 289.327 897.861 288.98C898.368 288.62 899.001 288.44 899.761 288.44C900.974 288.44 901.941 288.893 902.661 289.8C903.381 290.707 903.741 292.053 903.741 293.84C903.741 295.627 903.381 296.973 902.661 297.88C901.941 298.787 900.974 299.24 899.761 299.24C899.001 299.24 898.368 299.067 897.861 298.72C897.354 298.36 896.948 297.867 896.641 297.24H896.521V303H894.341V288.68ZM898.861 297.46C899.688 297.46 900.321 297.207 900.761 296.7C901.214 296.193 901.441 295.52 901.441 294.68V293C901.441 292.16 901.214 291.487 900.761 290.98C900.321 290.473 899.688 290.22 898.861 290.22C898.541 290.22 898.241 290.26 897.961 290.34C897.681 290.42 897.434 290.54 897.221 290.7C897.008 290.86 896.834 291.06 896.701 291.3C896.581 291.527 896.521 291.8 896.521 292.12V295.56C896.521 295.88 896.581 296.16 896.701 296.4C896.834 296.627 897.008 296.82 897.221 296.98C897.434 297.14 897.681 297.26 897.961 297.34C898.241 297.42 898.541 297.46 898.861 297.46ZM905.853 297.24H909.273V285.96H905.853V284.2H911.453V297.24H914.873V299H905.853V297.24ZM921.945 299.24C921.185 299.24 920.499 299.113 919.885 298.86C919.285 298.607 918.772 298.247 918.345 297.78C917.932 297.313 917.612 296.747 917.385 296.08C917.159 295.413 917.045 294.667 917.045 293.84C917.045 293.013 917.159 292.267 917.385 291.6C917.612 290.933 917.932 290.367 918.345 289.9C918.772 289.433 919.285 289.073 919.885 288.82C920.499 288.567 921.185 288.44 921.945 288.44C922.705 288.44 923.385 288.567 923.985 288.82C924.599 289.073 925.112 289.433 925.525 289.9C925.952 290.367 926.279 290.933 926.505 291.6C926.732 292.267 926.845 293.013 926.845 293.84C926.845 294.667 926.732 295.413 926.505 296.08C926.279 296.747 925.952 297.313 925.525 297.78C925.112 298.247 924.599 298.607 923.985 298.86C923.385 299.113 922.705 299.24 921.945 299.24ZM921.945 297.52C922.745 297.52 923.379 297.28 923.845 296.8C924.325 296.307 924.565 295.58 924.565 294.62V293.06C924.565 292.1 924.325 291.38 923.845 290.9C923.379 290.407 922.745 290.16 921.945 290.16C921.145 290.16 920.505 290.407 920.025 290.9C919.559 291.38 919.325 292.1 919.325 293.06V294.62C919.325 295.58 919.559 296.307 920.025 296.8C920.505 297.28 921.145 297.52 921.945 297.52ZM936.558 288.68H938.758L933.758 301C933.491 301.667 933.138 302.167 932.698 302.5C932.271 302.833 931.651 303 930.838 303H929.098V301.24H931.538L932.478 298.86L928.318 288.68H930.598L932.238 293L933.518 296.54H933.638L934.918 293L936.558 288.68Z" fill="white"/>
<rect x="710.5" y="263.5" width="249" height="55" rx="14.5" stroke="#333840"/>
<rect x="709.5" y="109.5" width="167" height="55" rx="14.5" fill="#262A30"/>
<path d="M737.283 143.24H737.163C736.856 143.867 736.45 144.36 735.943 144.72C735.436 145.067 734.803 145.24 734.043 145.24C732.83 145.24 731.863 144.787 731.143 143.88C730.423 142.973 730.063 141.627 730.063 139.84C730.063 138.053 730.423 136.707 731.143 135.8C731.863 134.893 732.83 134.44 734.043 134.44C734.803 134.44 735.436 134.62 735.943 134.98C736.45 135.327 736.856 135.813 737.163 136.44H737.283V130.2H739.463V145H737.283V143.24ZM734.943 143.46C735.263 143.46 735.563 143.42 735.843 143.34C736.123 143.26 736.37 143.14 736.583 142.98C736.796 142.82 736.963 142.627 737.083 142.4C737.216 142.16 737.283 141.88 737.283 141.56V138.12C737.283 137.8 737.216 137.527 737.083 137.3C736.963 137.06 736.796 136.86 736.583 136.7C736.37 136.54 736.123 136.42 735.843 136.34C735.563 136.26 735.263 136.22 734.943 136.22C734.116 136.22 733.476 136.473 733.023 136.98C732.583 137.487 732.363 138.16 732.363 139V140.68C732.363 141.52 732.583 142.193 733.023 142.7C733.476 143.207 734.116 143.46 734.943 143.46ZM746.635 145.24C745.875 145.24 745.188 145.113 744.575 144.86C743.975 144.607 743.462 144.247 743.035 143.78C742.622 143.313 742.302 142.747 742.075 142.08C741.848 141.413 741.735 140.667 741.735 139.84C741.735 139.013 741.848 138.267 742.075 137.6C742.302 136.933 742.622 136.367 743.035 135.9C743.462 135.433 743.975 135.073 744.575 134.82C745.188 134.567 745.875 134.44 746.635 134.44C747.395 134.44 748.075 134.567 748.675 134.82C749.288 135.073 749.802 135.433 750.215 135.9C750.642 136.367 750.968 136.933 751.195 137.6C751.422 138.267 751.535 139.013 751.535 139.84C751.535 140.667 751.422 141.413 751.195 142.08C750.968 142.747 750.642 143.313 750.215 143.78C749.802 144.247 749.288 144.607 748.675 144.86C748.075 145.113 747.395 145.24 746.635 145.24ZM746.635 143.52C747.435 143.52 748.068 143.28 748.535 142.8C749.015 142.307 749.255 141.58 749.255 140.62V139.06C749.255 138.1 749.015 137.38 748.535 136.9C748.068 136.407 747.435 136.16 746.635 136.16C745.835 136.16 745.195 136.407 744.715 136.9C744.248 137.38 744.015 138.1 744.015 139.06V140.62C744.015 141.58 744.248 142.307 744.715 142.8C745.195 143.28 745.835 143.52 746.635 143.52ZM753.767 145V143.08L760.047 136.44H753.987V134.68H762.487V136.6L756.207 143.24H762.687V145H753.767ZM770.04 145.24C769.253 145.24 768.546 145.113 767.92 144.86C767.293 144.607 766.766 144.247 766.34 143.78C765.913 143.313 765.586 142.753 765.36 142.1C765.133 141.433 765.02 140.687 765.02 139.86C765.02 139.033 765.133 138.287 765.36 137.62C765.6 136.953 765.926 136.387 766.34 135.92C766.766 135.44 767.28 135.073 767.88 134.82C768.48 134.567 769.146 134.44 769.88 134.44C770.6 134.44 771.253 134.567 771.84 134.82C772.426 135.06 772.926 135.407 773.34 135.86C773.753 136.313 774.066 136.853 774.28 137.48C774.506 138.107 774.62 138.8 774.62 139.56V140.38H767.22V140.72C767.22 141.533 767.473 142.2 767.98 142.72C768.486 143.227 769.186 143.48 770.08 143.48C770.746 143.48 771.313 143.34 771.78 143.06C772.26 142.767 772.646 142.38 772.94 141.9L774.3 143.1C773.953 143.7 773.42 144.207 772.7 144.62C771.993 145.033 771.106 145.24 770.04 145.24ZM769.88 136.1C769.493 136.1 769.133 136.167 768.8 136.3C768.48 136.433 768.2 136.627 767.96 136.88C767.733 137.12 767.553 137.407 767.42 137.74C767.286 138.073 767.22 138.44 767.22 138.84V138.98H772.4V138.78C772.4 137.967 772.166 137.32 771.7 136.84C771.246 136.347 770.64 136.1 769.88 136.1ZM776.932 143.24H779.672V136.44H776.932V134.68H781.852V137.42H781.972C782.065 137.06 782.198 136.713 782.372 136.38C782.545 136.047 782.765 135.76 783.032 135.52C783.298 135.267 783.625 135.067 784.012 134.92C784.398 134.76 784.852 134.68 785.372 134.68H786.612V136.76H784.572C783.772 136.76 783.118 137 782.612 137.48C782.105 137.947 781.852 138.58 781.852 139.38V143.24H785.592V145H776.932V143.24ZM800.176 130.2H802.356V136.44H802.476C802.783 135.813 803.189 135.327 803.696 134.98C804.203 134.62 804.836 134.44 805.596 134.44C806.809 134.44 807.776 134.893 808.496 135.8C809.216 136.707 809.576 138.053 809.576 139.84C809.576 141.627 809.216 142.973 808.496 143.88C807.776 144.787 806.809 145.24 805.596 145.24C804.836 145.24 804.203 145.067 803.696 144.72C803.189 144.36 802.783 143.867 802.476 143.24H802.356V145H800.176V130.2ZM804.696 143.46C805.523 143.46 806.156 143.207 806.596 142.7C807.049 142.193 807.276 141.52 807.276 140.68V139C807.276 138.16 807.049 137.487 806.596 136.98C806.156 136.473 805.523 136.22 804.696 136.22C804.376 136.22 804.076 136.26 803.796 136.34C803.516 136.42 803.269 136.54 803.056 136.7C802.843 136.86 802.669 137.06 802.536 137.3C802.416 137.527 802.356 137.8 802.356 138.12V141.56C802.356 141.88 802.416 142.16 802.536 142.4C802.669 142.627 802.843 142.82 803.056 142.98C803.269 143.14 803.516 143.26 803.796 143.34C804.076 143.42 804.376 143.46 804.696 143.46ZM818.328 143.24H818.228C818.122 143.507 817.982 143.767 817.808 144.02C817.648 144.26 817.448 144.473 817.208 144.66C816.968 144.833 816.688 144.973 816.368 145.08C816.048 145.187 815.675 145.24 815.248 145.24C814.208 145.24 813.368 144.9 812.728 144.22C812.088 143.54 811.768 142.573 811.768 141.32V134.68H813.948V141C813.948 142.64 814.662 143.46 816.088 143.46C816.368 143.46 816.642 143.427 816.908 143.36C817.175 143.28 817.415 143.167 817.628 143.02C817.842 142.873 818.008 142.693 818.128 142.48C818.262 142.253 818.328 141.987 818.328 141.68V134.68H820.508V145H818.328V143.24ZM828.42 132.8C827.86 132.8 827.467 132.687 827.24 132.46C827.027 132.233 826.92 131.953 826.92 131.62V131.2C826.92 130.867 827.027 130.587 827.24 130.36C827.467 130.133 827.854 130.02 828.4 130.02C828.96 130.02 829.347 130.133 829.56 130.36C829.787 130.587 829.9 130.867 829.9 131.2V131.62C829.9 131.953 829.787 132.233 829.56 132.46C829.347 132.687 828.967 132.8 828.42 132.8ZM823.8 143.24H827.32V136.44H823.8V134.68H829.5V143.24H832.8V145H823.8V143.24ZM834.873 143.24H838.293V131.96H834.873V130.2H840.473V143.24H843.893V145H834.873V143.24ZM853.205 143.24H853.085C852.778 143.867 852.372 144.36 851.865 144.72C851.358 145.067 850.725 145.24 849.965 145.24C848.752 145.24 847.785 144.787 847.065 143.88C846.345 142.973 845.985 141.627 845.985 139.84C845.985 138.053 846.345 136.707 847.065 135.8C847.785 134.893 848.752 134.44 849.965 134.44C850.725 134.44 851.358 134.62 851.865 134.98C852.372 135.327 852.778 135.813 853.085 136.44H853.205V130.2H855.385V145H853.205V143.24ZM850.865 143.46C851.185 143.46 851.485 143.42 851.765 143.34C852.045 143.26 852.292 143.14 852.505 142.98C852.718 142.82 852.885 142.627 853.005 142.4C853.138 142.16 853.205 141.88 853.205 141.56V138.12C853.205 137.8 853.138 137.527 853.005 137.3C852.885 137.06 852.718 136.86 852.505 136.7C852.292 136.54 852.045 136.42 851.765 136.34C851.485 136.26 851.185 136.22 850.865 136.22C850.038 136.22 849.398 136.473 848.945 136.98C848.505 137.487 848.285 138.16 848.285 139V140.68C848.285 141.52 848.505 142.193 848.945 142.7C849.398 143.207 850.038 143.46 850.865 143.46Z" fill="white"/>
<rect x="709.5" y="109.5" width="167" height="55" rx="14.5" stroke="#333840"/>
<rect x="1192.5" y="109.5" width="191" height="55" rx="14.5" fill="#262A30"/>
<path d="M1220.69 143.24H1220.57C1220.26 143.867 1219.86 144.36 1219.35 144.72C1218.84 145.067 1218.21 145.24 1217.45 145.24C1216.24 145.24 1215.27 144.787 1214.55 143.88C1213.83 142.973 1213.47 141.627 1213.47 139.84C1213.47 138.053 1213.83 136.707 1214.55 135.8C1215.27 134.893 1216.24 134.44 1217.45 134.44C1218.21 134.44 1218.84 134.62 1219.35 134.98C1219.86 135.327 1220.26 135.813 1220.57 136.44H1220.69V130.2H1222.87V145H1220.69V143.24ZM1218.35 143.46C1218.67 143.46 1218.97 143.42 1219.25 143.34C1219.53 143.26 1219.78 143.14 1219.99 142.98C1220.2 142.82 1220.37 142.627 1220.49 142.4C1220.62 142.16 1220.69 141.88 1220.69 141.56V138.12C1220.69 137.8 1220.62 137.527 1220.49 137.3C1220.37 137.06 1220.2 136.86 1219.99 136.7C1219.78 136.54 1219.53 136.42 1219.25 136.34C1218.97 136.26 1218.67 136.22 1218.35 136.22C1217.52 136.22 1216.88 136.473 1216.43 136.98C1215.99 137.487 1215.77 138.16 1215.77 139V140.68C1215.77 141.52 1215.99 142.193 1216.43 142.7C1216.88 143.207 1217.52 143.46 1218.35 143.46ZM1230.04 145.24C1229.28 145.24 1228.6 145.113 1227.98 144.86C1227.38 144.607 1226.87 144.247 1226.44 143.78C1226.03 143.313 1225.71 142.747 1225.48 142.08C1225.26 141.413 1225.14 140.667 1225.14 139.84C1225.14 139.013 1225.26 138.267 1225.48 137.6C1225.71 136.933 1226.03 136.367 1226.44 135.9C1226.87 135.433 1227.38 135.073 1227.98 134.82C1228.6 134.567 1229.28 134.44 1230.04 134.44C1230.8 134.44 1231.48 134.567 1232.08 134.82C1232.7 135.073 1233.21 135.433 1233.62 135.9C1234.05 136.367 1234.38 136.933 1234.6 137.6C1234.83 138.267 1234.94 139.013 1234.94 139.84C1234.94 140.667 1234.83 141.413 1234.6 142.08C1234.38 142.747 1234.05 143.313 1233.62 143.78C1233.21 144.247 1232.7 144.607 1232.08 144.86C1231.48 145.113 1230.8 145.24 1230.04 145.24ZM1230.04 143.52C1230.84 143.52 1231.48 143.28 1231.94 142.8C1232.42 142.307 1232.66 141.58 1232.66 140.62V139.06C1232.66 138.1 1232.42 137.38 1231.94 136.9C1231.48 136.407 1230.84 136.16 1230.04 136.16C1229.24 136.16 1228.6 136.407 1228.12 136.9C1227.66 137.38 1227.42 138.1 1227.42 139.06V140.62C1227.42 141.58 1227.66 142.307 1228.12 142.8C1228.6 143.28 1229.24 143.52 1230.04 143.52ZM1237.18 145V143.08L1243.46 136.44H1237.4V134.68H1245.9V136.6L1239.62 143.24H1246.1V145H1237.18ZM1253.45 145.24C1252.66 145.24 1251.95 145.113 1251.33 144.86C1250.7 144.607 1250.17 144.247 1249.75 143.78C1249.32 143.313 1248.99 142.753 1248.77 142.1C1248.54 141.433 1248.43 140.687 1248.43 139.86C1248.43 139.033 1248.54 138.287 1248.77 137.62C1249.01 136.953 1249.33 136.387 1249.75 135.92C1250.17 135.44 1250.69 135.073 1251.29 134.82C1251.89 134.567 1252.55 134.44 1253.29 134.44C1254.01 134.44 1254.66 134.567 1255.25 134.82C1255.83 135.06 1256.33 135.407 1256.75 135.86C1257.16 136.313 1257.47 136.853 1257.69 137.48C1257.91 138.107 1258.03 138.8 1258.03 139.56V140.38H1250.63V140.72C1250.63 141.533 1250.88 142.2 1251.39 142.72C1251.89 143.227 1252.59 143.48 1253.49 143.48C1254.15 143.48 1254.72 143.34 1255.19 143.06C1255.67 142.767 1256.05 142.38 1256.35 141.9L1257.71 143.1C1257.36 143.7 1256.83 144.207 1256.11 144.62C1255.4 145.033 1254.51 145.24 1253.45 145.24ZM1253.29 136.1C1252.9 136.1 1252.54 136.167 1252.21 136.3C1251.89 136.433 1251.61 136.627 1251.37 136.88C1251.14 137.12 1250.96 137.407 1250.83 137.74C1250.69 138.073 1250.63 138.44 1250.63 138.84V138.98H1255.81V138.78C1255.81 137.967 1255.57 137.32 1255.11 136.84C1254.65 136.347 1254.05 136.1 1253.29 136.1ZM1260.34 143.24H1263.08V136.44H1260.34V134.68H1265.26V137.42H1265.38C1265.47 137.06 1265.61 136.713 1265.78 136.38C1265.95 136.047 1266.17 135.76 1266.44 135.52C1266.71 135.267 1267.03 135.067 1267.42 134.92C1267.81 134.76 1268.26 134.68 1268.78 134.68H1270.02V136.76H1267.98C1267.18 136.76 1266.53 137 1266.02 137.48C1265.51 137.947 1265.26 138.58 1265.26 139.38V143.24H1269V145H1260.34V143.24ZM1283.52 143.24H1286.26V136.44H1283.52V134.68H1288.44V137.42H1288.56C1288.66 137.06 1288.79 136.713 1288.96 136.38C1289.14 136.047 1289.36 135.76 1289.62 135.52C1289.89 135.267 1290.22 135.067 1290.6 134.92C1290.99 134.76 1291.44 134.68 1291.96 134.68H1293.2V136.76H1291.16C1290.36 136.76 1289.71 137 1289.2 137.48C1288.7 137.947 1288.44 138.58 1288.44 139.38V143.24H1292.18V145H1283.52V143.24ZM1301.74 143.24H1301.64C1301.53 143.507 1301.39 143.767 1301.22 144.02C1301.06 144.26 1300.86 144.473 1300.62 144.66C1300.38 144.833 1300.1 144.973 1299.78 145.08C1299.46 145.187 1299.08 145.24 1298.66 145.24C1297.62 145.24 1296.78 144.9 1296.14 144.22C1295.5 143.54 1295.18 142.573 1295.18 141.32V134.68H1297.36V141C1297.36 142.64 1298.07 143.46 1299.5 143.46C1299.78 143.46 1300.05 143.427 1300.32 143.36C1300.58 143.28 1300.82 143.167 1301.04 143.02C1301.25 142.873 1301.42 142.693 1301.54 142.48C1301.67 142.253 1301.74 141.987 1301.74 141.68V134.68H1303.92V145H1301.74V143.24ZM1306.87 145V134.68H1309.05V136.44H1309.15C1309.25 136.173 1309.39 135.92 1309.55 135.68C1309.72 135.427 1309.93 135.213 1310.17 135.04C1310.41 134.853 1310.69 134.707 1311.01 134.6C1311.33 134.493 1311.7 134.44 1312.13 134.44C1313.17 134.44 1314.01 134.78 1314.65 135.46C1315.29 136.14 1315.61 137.107 1315.61 138.36V145H1313.43V138.68C1313.43 137.04 1312.71 136.22 1311.29 136.22C1311.01 136.22 1310.73 136.26 1310.47 136.34C1310.2 136.407 1309.96 136.513 1309.75 136.66C1309.53 136.807 1309.36 136.993 1309.23 137.22C1309.11 137.447 1309.05 137.707 1309.05 138V145H1306.87ZM1338.21 145C1337.59 145 1337.11 144.84 1336.79 144.52C1336.49 144.2 1336.3 143.78 1336.23 143.26H1336.13C1335.93 143.887 1335.57 144.373 1335.03 144.72C1334.51 145.067 1333.85 145.24 1333.03 145.24C1331.98 145.24 1331.14 144.967 1330.51 144.42C1329.89 143.86 1329.57 143.093 1329.57 142.12C1329.57 141.12 1329.94 140.36 1330.67 139.84C1331.42 139.307 1332.56 139.04 1334.09 139.04H1336.07V138.24C1336.07 136.84 1335.33 136.14 1333.85 136.14C1333.19 136.14 1332.65 136.273 1332.23 136.54C1331.82 136.793 1331.47 137.133 1331.19 137.56L1329.89 136.5C1330.19 135.94 1330.68 135.46 1331.37 135.06C1332.07 134.647 1332.96 134.44 1334.05 134.44C1335.36 134.44 1336.39 134.753 1337.13 135.38C1337.88 136.007 1338.25 136.913 1338.25 138.1V143.28H1339.55V145H1338.21ZM1333.65 143.64C1334.36 143.64 1334.94 143.48 1335.39 143.16C1335.85 142.84 1336.07 142.427 1336.07 141.92V140.42H1334.13C1332.56 140.42 1331.77 140.893 1331.77 141.84V142.24C1331.77 142.707 1331.94 143.06 1332.27 143.3C1332.61 143.527 1333.07 143.64 1333.65 143.64ZM1341.54 134.68H1343.72V136.44H1343.84C1344.15 135.813 1344.56 135.327 1345.06 134.98C1345.57 134.62 1346.2 134.44 1346.96 134.44C1348.18 134.44 1349.14 134.893 1349.86 135.8C1350.58 136.707 1350.94 138.053 1350.94 139.84C1350.94 141.627 1350.58 142.973 1349.86 143.88C1349.14 144.787 1348.18 145.24 1346.96 145.24C1346.2 145.24 1345.57 145.067 1345.06 144.72C1344.56 144.36 1344.15 143.867 1343.84 143.24H1343.72V149H1341.54V134.68ZM1346.06 143.46C1346.89 143.46 1347.52 143.207 1347.96 142.7C1348.42 142.193 1348.64 141.52 1348.64 140.68V139C1348.64 138.16 1348.42 137.487 1347.96 136.98C1347.52 136.473 1346.89 136.22 1346.06 136.22C1345.74 136.22 1345.44 136.26 1345.16 136.34C1344.88 136.42 1344.64 136.54 1344.42 136.7C1344.21 136.86 1344.04 137.06 1343.9 137.3C1343.78 137.527 1343.72 137.8 1343.72 138.12V141.56C1343.72 141.88 1343.78 142.16 1343.9 142.4C1344.04 142.627 1344.21 142.82 1344.42 142.98C1344.64 143.14 1344.88 143.26 1345.16 143.34C1345.44 143.42 1345.74 143.46 1346.06 143.46ZM1358.2 132.8C1357.64 132.8 1357.24 132.687 1357.02 132.46C1356.8 132.233 1356.7 131.953 1356.7 131.62V131.2C1356.7 130.867 1356.8 130.587 1357.02 130.36C1357.24 130.133 1357.63 130.02 1358.18 130.02C1358.74 130.02 1359.12 130.133 1359.34 130.36C1359.56 130.587 1359.68 130.867 1359.68 131.2V131.62C1359.68 131.953 1359.56 132.233 1359.34 132.46C1359.12 132.687 1358.74 132.8 1358.2 132.8ZM1353.58 143.24H1357.1V136.44H1353.58V134.68H1359.28V143.24H1362.58V145H1353.58V143.24Z" fill="white"/>
<rect x="1192.5" y="109.5" width="191" height="55" rx="14.5" stroke="#333840"/>
<rect x="938.5" y="109.5" width="191" height="55" rx="14.5" fill="#262A30"/>
<path d="M966.691 143.24H966.571C966.264 143.867 965.857 144.36 965.351 144.72C964.844 145.067 964.211 145.24 963.451 145.24C962.237 145.24 961.271 144.787 960.551 143.88C959.831 142.973 959.471 141.627 959.471 139.84C959.471 138.053 959.831 136.707 960.551 135.8C961.271 134.893 962.237 134.44 963.451 134.44C964.211 134.44 964.844 134.62 965.351 134.98C965.857 135.327 966.264 135.813 966.571 136.44H966.691V130.2H968.871V145H966.691V143.24ZM964.351 143.46C964.671 143.46 964.971 143.42 965.251 143.34C965.531 143.26 965.777 143.14 965.991 142.98C966.204 142.82 966.371 142.627 966.491 142.4C966.624 142.16 966.691 141.88 966.691 141.56V138.12C966.691 137.8 966.624 137.527 966.491 137.3C966.371 137.06 966.204 136.86 965.991 136.7C965.777 136.54 965.531 136.42 965.251 136.34C964.971 136.26 964.671 136.22 964.351 136.22C963.524 136.22 962.884 136.473 962.431 136.98C961.991 137.487 961.771 138.16 961.771 139V140.68C961.771 141.52 961.991 142.193 962.431 142.7C962.884 143.207 963.524 143.46 964.351 143.46ZM976.043 145.24C975.283 145.24 974.596 145.113 973.983 144.86C973.383 144.607 972.87 144.247 972.443 143.78C972.03 143.313 971.71 142.747 971.483 142.08C971.256 141.413 971.143 140.667 971.143 139.84C971.143 139.013 971.256 138.267 971.483 137.6C971.71 136.933 972.03 136.367 972.443 135.9C972.87 135.433 973.383 135.073 973.983 134.82C974.596 134.567 975.283 134.44 976.043 134.44C976.803 134.44 977.483 134.567 978.083 134.82C978.696 135.073 979.21 135.433 979.623 135.9C980.05 136.367 980.376 136.933 980.603 137.6C980.83 138.267 980.943 139.013 980.943 139.84C980.943 140.667 980.83 141.413 980.603 142.08C980.376 142.747 980.05 143.313 979.623 143.78C979.21 144.247 978.696 144.607 978.083 144.86C977.483 145.113 976.803 145.24 976.043 145.24ZM976.043 143.52C976.843 143.52 977.476 143.28 977.943 142.8C978.423 142.307 978.663 141.58 978.663 140.62V139.06C978.663 138.1 978.423 137.38 977.943 136.9C977.476 136.407 976.843 136.16 976.043 136.16C975.243 136.16 974.603 136.407 974.123 136.9C973.656 137.38 973.423 138.1 973.423 139.06V140.62C973.423 141.58 973.656 142.307 974.123 142.8C974.603 143.28 975.243 143.52 976.043 143.52ZM983.175 145V143.08L989.455 136.44H983.395V134.68H991.895V136.6L985.615 143.24H992.095V145H983.175ZM999.447 145.24C998.661 145.24 997.954 145.113 997.327 144.86C996.701 144.607 996.174 144.247 995.747 143.78C995.321 143.313 994.994 142.753 994.767 142.1C994.541 141.433 994.427 140.687 994.427 139.86C994.427 139.033 994.541 138.287 994.767 137.62C995.007 136.953 995.334 136.387 995.747 135.92C996.174 135.44 996.687 135.073 997.287 134.82C997.887 134.567 998.554 134.44 999.287 134.44C1000.01 134.44 1000.66 134.567 1001.25 134.82C1001.83 135.06 1002.33 135.407 1002.75 135.86C1003.16 136.313 1003.47 136.853 1003.69 137.48C1003.91 138.107 1004.03 138.8 1004.03 139.56V140.38H996.627V140.72C996.627 141.533 996.881 142.2 997.387 142.72C997.894 143.227 998.594 143.48 999.487 143.48C1000.15 143.48 1000.72 143.34 1001.19 143.06C1001.67 142.767 1002.05 142.38 1002.35 141.9L1003.71 143.1C1003.36 143.7 1002.83 144.207 1002.11 144.62C1001.4 145.033 1000.51 145.24 999.447 145.24ZM999.287 136.1C998.901 136.1 998.541 136.167 998.207 136.3C997.887 136.433 997.607 136.627 997.367 136.88C997.141 137.12 996.961 137.407 996.827 137.74C996.694 138.073 996.627 138.44 996.627 138.84V138.98H1001.81V138.78C1001.81 137.967 1001.57 137.32 1001.11 136.84C1000.65 136.347 1000.05 136.1 999.287 136.1ZM1006.34 143.24H1009.08V136.44H1006.34V134.68H1011.26V137.42H1011.38C1011.47 137.06 1011.61 136.713 1011.78 136.38C1011.95 136.047 1012.17 135.76 1012.44 135.52C1012.71 135.267 1013.03 135.067 1013.42 134.92C1013.81 134.76 1014.26 134.68 1014.78 134.68H1016.02V136.76H1013.98C1013.18 136.76 1012.53 137 1012.02 137.48C1011.51 137.947 1011.26 138.58 1011.26 139.38V143.24H1015V145H1006.34V143.24ZM1029.52 143.24H1032.26V136.44H1029.52V134.68H1034.44V137.42H1034.56C1034.66 137.06 1034.79 136.713 1034.96 136.38C1035.14 136.047 1035.36 135.76 1035.62 135.52C1035.89 135.267 1036.22 135.067 1036.6 134.92C1036.99 134.76 1037.44 134.68 1037.96 134.68H1039.2V136.76H1037.16C1036.36 136.76 1035.71 137 1035.2 137.48C1034.7 137.947 1034.44 138.58 1034.44 139.38V143.24H1038.18V145H1029.52V143.24ZM1047.74 143.24H1047.64C1047.53 143.507 1047.39 143.767 1047.22 144.02C1047.06 144.26 1046.86 144.473 1046.62 144.66C1046.38 144.833 1046.1 144.973 1045.78 145.08C1045.46 145.187 1045.08 145.24 1044.66 145.24C1043.62 145.24 1042.78 144.9 1042.14 144.22C1041.5 143.54 1041.18 142.573 1041.18 141.32V134.68H1043.36V141C1043.36 142.64 1044.07 143.46 1045.5 143.46C1045.78 143.46 1046.05 143.427 1046.32 143.36C1046.58 143.28 1046.82 143.167 1047.04 143.02C1047.25 142.873 1047.42 142.693 1047.54 142.48C1047.67 142.253 1047.74 141.987 1047.74 141.68V134.68H1049.92V145H1047.74V143.24ZM1052.87 145V134.68H1055.05V136.44H1055.15C1055.25 136.173 1055.39 135.92 1055.55 135.68C1055.72 135.427 1055.93 135.213 1056.17 135.04C1056.41 134.853 1056.69 134.707 1057.01 134.6C1057.33 134.493 1057.7 134.44 1058.13 134.44C1059.17 134.44 1060.01 134.78 1060.65 135.46C1061.29 136.14 1061.61 137.107 1061.61 138.36V145H1059.43V138.68C1059.43 137.04 1058.71 136.22 1057.29 136.22C1057.01 136.22 1056.73 136.26 1056.47 136.34C1056.2 136.407 1055.96 136.513 1055.75 136.66C1055.53 136.807 1055.36 136.993 1055.23 137.22C1055.11 137.447 1055.05 137.707 1055.05 138V145H1052.87ZM1084.21 145C1083.59 145 1083.11 144.84 1082.79 144.52C1082.49 144.2 1082.3 143.78 1082.23 143.26H1082.13C1081.93 143.887 1081.57 144.373 1081.03 144.72C1080.51 145.067 1079.85 145.24 1079.03 145.24C1077.98 145.24 1077.14 144.967 1076.51 144.42C1075.89 143.86 1075.57 143.093 1075.57 142.12C1075.57 141.12 1075.94 140.36 1076.67 139.84C1077.42 139.307 1078.56 139.04 1080.09 139.04H1082.07V138.24C1082.07 136.84 1081.33 136.14 1079.85 136.14C1079.19 136.14 1078.65 136.273 1078.23 136.54C1077.82 136.793 1077.47 137.133 1077.19 137.56L1075.89 136.5C1076.19 135.94 1076.68 135.46 1077.37 135.06C1078.07 134.647 1078.96 134.44 1080.05 134.44C1081.36 134.44 1082.39 134.753 1083.13 135.38C1083.88 136.007 1084.25 136.913 1084.25 138.1V143.28H1085.55V145H1084.21ZM1079.65 143.64C1080.36 143.64 1080.94 143.48 1081.39 143.16C1081.85 142.84 1082.07 142.427 1082.07 141.92V140.42H1080.13C1078.56 140.42 1077.77 140.893 1077.77 141.84V142.24C1077.77 142.707 1077.94 143.06 1078.27 143.3C1078.61 143.527 1079.07 143.64 1079.65 143.64ZM1087.54 134.68H1089.72V136.44H1089.84C1090.15 135.813 1090.56 135.327 1091.06 134.98C1091.57 134.62 1092.2 134.44 1092.96 134.44C1094.18 134.44 1095.14 134.893 1095.86 135.8C1096.58 136.707 1096.94 138.053 1096.94 139.84C1096.94 141.627 1096.58 142.973 1095.86 143.88C1095.14 144.787 1094.18 145.24 1092.96 145.24C1092.2 145.24 1091.57 145.067 1091.06 144.72C1090.56 144.36 1090.15 143.867 1089.84 143.24H1089.72V149H1087.54V134.68ZM1092.06 143.46C1092.89 143.46 1093.52 143.207 1093.96 142.7C1094.42 142.193 1094.64 141.52 1094.64 140.68V139C1094.64 138.16 1094.42 137.487 1093.96 136.98C1093.52 136.473 1092.89 136.22 1092.06 136.22C1091.74 136.22 1091.44 136.26 1091.16 136.34C1090.88 136.42 1090.64 136.54 1090.42 136.7C1090.21 136.86 1090.04 137.06 1089.9 137.3C1089.78 137.527 1089.72 137.8 1089.72 138.12V141.56C1089.72 141.88 1089.78 142.16 1089.9 142.4C1090.04 142.627 1090.21 142.82 1090.42 142.98C1090.64 143.14 1090.88 143.26 1091.16 143.34C1091.44 143.42 1091.74 143.46 1092.06 143.46ZM1099.14 134.68H1101.32V136.44H1101.44C1101.74 135.813 1102.15 135.327 1102.66 134.98C1103.16 134.62 1103.8 134.44 1104.56 134.44C1105.77 134.44 1106.74 134.893 1107.46 135.8C1108.18 136.707 1108.54 138.053 1108.54 139.84C1108.54 141.627 1108.18 142.973 1107.46 143.88C1106.74 144.787 1105.77 145.24 1104.56 145.24C1103.8 145.24 1103.16 145.067 1102.66 144.72C1102.15 144.36 1101.74 143.867 1101.44 143.24H1101.32V149H1099.14V134.68ZM1103.66 143.46C1104.48 143.46 1105.12 143.207 1105.56 142.7C1106.01 142.193 1106.24 141.52 1106.24 140.68V139C1106.24 138.16 1106.01 137.487 1105.56 136.98C1105.12 136.473 1104.48 136.22 1103.66 136.22C1103.34 136.22 1103.04 136.26 1102.76 136.34C1102.48 136.42 1102.23 136.54 1102.02 136.7C1101.8 136.86 1101.63 137.06 1101.5 137.3C1101.38 137.527 1101.32 137.8 1101.32 138.12V141.56C1101.32 141.88 1101.38 142.16 1101.5 142.4C1101.63 142.627 1101.8 142.82 1102.02 142.98C1102.23 143.14 1102.48 143.26 1102.76 143.34C1103.04 143.42 1103.34 143.46 1103.66 143.46Z" fill="white"/>
<rect x="938.5" y="109.5" width="191" height="55" rx="14.5" stroke="#333840"/>
<path d="M216.667 214C216.667 216.946 219.054 219.333 222 219.333C224.946 219.333 227.333 216.946 227.333 214C227.333 211.054 224.946 208.667 222 208.667C219.054 208.667 216.667 211.054 216.667 214ZM259 214L249 208.226V219.774L259 214ZM222 215H250V213H222V215Z" fill="#F142B5"/>
<path d="M434.667 215C434.667 217.946 437.054 220.333 440 220.333C442.946 220.333 445.333 217.946 445.333 215C445.333 212.054 442.946 209.667 440 209.667C437.054 209.667 434.667 212.054 434.667 215ZM477 215L467 209.226V220.774L477 215ZM440 216H468V214H440V216Z" fill="#F142B5"/>
<path d="M885.667 137C885.667 139.946 888.054 142.333 891 142.333C893.946 142.333 896.333 139.946 896.333 137C896.333 134.054 893.946 131.667 891 131.667C888.054 131.667 885.667 134.054 885.667 137ZM928 137L918 131.226V142.774L928 137ZM891 138H919V136H891V138Z" fill="#F142B5"/>
<path d="M1139.67 137C1139.67 139.946 1142.05 142.333 1145 142.333C1147.95 142.333 1150.33 139.946 1150.33 137C1150.33 134.054 1147.95 131.667 1145 131.667C1142.05 131.667 1139.67 134.054 1139.67 137ZM1182 137L1172 131.226V142.774L1182 137ZM1145 138H1173V136H1145V138Z" fill="#F142B5"/>
<path d="M593.511 207.119C595.205 209.529 598.531 210.109 600.941 208.415C603.351 206.721 603.931 203.395 602.237 200.985C600.543 198.575 597.216 197.995 594.807 199.689C592.397 201.383 591.817 204.71 593.511 207.119ZM700.874 140.051L690.874 134.278L690.874 145.825L700.874 140.051ZM634.874 204.052L634.874 205.052L635.874 205.052L635.874 204.052L634.874 204.052ZM634.874 140.051L634.874 139.051L633.874 139.051L633.874 140.051L634.874 140.051ZM597.874 205.052L634.874 205.052L634.874 203.052L597.874 203.052L597.874 205.052ZM635.874 204.052L635.874 140.051L633.874 140.051L633.874 204.052L635.874 204.052ZM634.874 141.051L691.874 141.051L691.874 139.051L634.874 139.051L634.874 141.051Z" fill="#F142B5"/>
<path d="M593.511 221.341C595.205 218.931 598.531 218.351 600.941 220.045C603.351 221.739 603.931 225.065 602.237 227.475C600.543 229.885 597.216 230.465 594.807 228.771C592.397 227.077 591.817 223.75 593.511 221.341ZM700.874 288.409L690.874 294.182L690.874 282.635L700.874 288.409ZM634.874 224.408L634.874 223.408L635.874 223.408L635.874 224.408L634.874 224.408ZM634.874 288.409L634.874 289.409L633.874 289.409L633.874 288.409L634.874 288.409ZM597.874 223.408L634.874 223.408L634.874 225.408L597.874 225.408L597.874 223.408ZM635.874 224.408L635.874 288.409L633.874 288.409L633.874 224.408L635.874 224.408ZM634.874 287.409L691.874 287.409L691.874 289.409L634.874 289.409L634.874 287.409Z" fill="#F142B5"/>
<path d="M666 63L666 363" stroke="white" stroke-opacity="0.56" stroke-width="2" stroke-dasharray="4 4"/>
<path d="M1425 214L666 214" stroke="white" stroke-opacity="0.56" stroke-width="2" stroke-dasharray="4 4"/>
<path d="M242.636 56V41.9082H245.155V53.8809H251.6V56H242.636ZM259.316 56.3223C257.942 56.3223 256.757 56.0228 255.761 55.4238C254.765 54.8249 253.997 53.9753 253.456 52.875C252.916 51.7682 252.646 50.4629 252.646 48.959V48.9395C252.646 47.429 252.916 46.1237 253.456 45.0234C254.003 43.9232 254.775 43.0768 255.771 42.4844C256.773 41.8854 257.955 41.5859 259.316 41.5859C260.683 41.5859 261.864 41.8854 262.861 42.4844C263.863 43.0768 264.635 43.9232 265.175 45.0234C265.715 46.1237 265.986 47.429 265.986 48.9395V48.959C265.986 50.4629 265.715 51.7682 265.175 52.875C264.635 53.9753 263.866 54.8249 262.87 55.4238C261.874 56.0228 260.689 56.3223 259.316 56.3223ZM259.316 54.1445C260.155 54.1445 260.881 53.9329 261.493 53.5098C262.112 53.0801 262.587 52.4779 262.919 51.7031C263.251 50.9219 263.417 50.0072 263.417 48.959V48.9395C263.417 47.8848 263.251 46.9701 262.919 46.1953C262.587 45.4206 262.112 44.8216 261.493 44.3984C260.881 43.9753 260.155 43.7637 259.316 43.7637C258.482 43.7637 257.756 43.9753 257.138 44.3984C256.526 44.8216 256.051 45.4206 255.712 46.1953C255.374 46.9635 255.204 47.8783 255.204 48.9395V48.959C255.204 50.0072 255.37 50.9219 255.702 51.7031C256.041 52.4779 256.516 53.0801 257.128 53.5098C257.74 53.9329 258.469 54.1445 259.316 54.1445ZM274.199 56.3223C272.864 56.3223 271.709 56.026 270.732 55.4336C269.762 54.8346 269.013 53.985 268.486 52.8848C267.959 51.7845 267.695 50.4759 267.695 48.959V48.9492C267.695 47.4258 267.959 46.1172 268.486 45.0234C269.013 43.9232 269.762 43.0768 270.732 42.4844C271.702 41.8854 272.854 41.5859 274.189 41.5859C275.263 41.5859 276.23 41.7943 277.089 42.2109C277.949 42.6276 278.649 43.207 279.189 43.9492C279.729 44.6849 280.055 45.5312 280.166 46.4883V46.5762H277.695L277.675 46.498C277.558 45.9447 277.337 45.4629 277.011 45.0527C276.686 44.6426 276.282 44.3268 275.8 44.1055C275.325 43.8776 274.788 43.7637 274.189 43.7637C273.388 43.7637 272.692 43.9753 272.099 44.3984C271.513 44.8151 271.061 45.4108 270.742 46.1855C270.423 46.9603 270.263 47.8783 270.263 48.9395V48.959C270.263 50.0202 270.423 50.9414 270.742 51.7227C271.061 52.4974 271.513 53.0964 272.099 53.5195C272.692 53.9362 273.392 54.1445 274.199 54.1445C274.798 54.1445 275.335 54.0404 275.81 53.832C276.292 53.6237 276.692 53.3275 277.011 52.9434C277.337 52.5527 277.561 52.0938 277.685 51.5664L277.705 51.498H280.175L280.166 51.5859C280.042 52.5299 279.713 53.3568 279.179 54.0664C278.645 54.776 277.952 55.3294 277.099 55.7266C276.246 56.1237 275.28 56.3223 274.199 56.3223ZM280.947 56L285.967 41.9082H288.057V44.4961H287.314L283.594 56H280.947ZM283.477 52.3574L284.141 50.4141H290.605L291.26 52.3574H283.477ZM291.172 56L287.451 44.4961V41.9082H288.799L293.809 56H291.172ZM295.625 56V41.9082H298.145V53.8809H304.59V56H295.625ZM311.31 56V41.9082H316.564C317.963 41.9082 319.158 42.1816 320.148 42.7285C321.137 43.2754 321.892 44.0697 322.413 45.1113C322.941 46.153 323.204 47.4128 323.204 48.8906V48.9102C323.204 50.4076 322.941 51.6868 322.413 52.748C321.892 53.8027 321.137 54.61 320.148 55.1699C319.165 55.7233 317.97 56 316.564 56H311.31ZM313.829 53.8809H316.241C317.179 53.8809 317.973 53.6888 318.624 53.3047C319.282 52.9206 319.78 52.3607 320.118 51.625C320.463 50.8893 320.636 49.9941 320.636 48.9395V48.9199C320.636 47.8848 320.463 47.0026 320.118 46.2734C319.773 45.5443 319.272 44.9876 318.614 44.6035C317.957 44.2194 317.166 44.0273 316.241 44.0273H313.829V53.8809ZM325.48 56V41.9082H334.601V44.0273H328V47.8359H334.24V49.8477H328V53.8809H334.601V56H325.48ZM340.959 56L336.076 41.9082H338.85L342.355 53.1484H342.502L346.008 41.9082H348.771L343.889 56H340.959ZM350.598 56V41.9082H359.719V44.0273H353.118V47.8359H359.358V49.8477H353.118V53.8809H359.719V56H350.598ZM362.229 56V41.9082H364.749V53.8809H371.194V56H362.229ZM378.909 56.3223C377.536 56.3223 376.351 56.0228 375.355 55.4238C374.359 54.8249 373.59 53.9753 373.05 52.875C372.51 51.7682 372.239 50.4629 372.239 48.959V48.9395C372.239 47.429 372.51 46.1237 373.05 45.0234C373.597 43.9232 374.368 43.0768 375.364 42.4844C376.367 41.8854 377.549 41.5859 378.909 41.5859C380.277 41.5859 381.458 41.8854 382.454 42.4844C383.457 43.0768 384.228 43.9232 384.769 45.0234C385.309 46.1237 385.579 47.429 385.579 48.9395V48.959C385.579 50.4629 385.309 51.7682 384.769 52.875C384.228 53.9753 383.46 54.8249 382.464 55.4238C381.468 56.0228 380.283 56.3223 378.909 56.3223ZM378.909 54.1445C379.749 54.1445 380.475 53.9329 381.087 53.5098C381.706 53.0801 382.181 52.4779 382.513 51.7031C382.845 50.9219 383.011 50.0072 383.011 48.959V48.9395C383.011 47.8848 382.845 46.9701 382.513 46.1953C382.181 45.4206 381.706 44.8216 381.087 44.3984C380.475 43.9753 379.749 43.7637 378.909 43.7637C378.076 43.7637 377.35 43.9753 376.732 44.3984C376.12 44.8216 375.644 45.4206 375.306 46.1953C374.967 46.9635 374.798 47.8783 374.798 48.9395V48.959C374.798 50.0072 374.964 50.9219 375.296 51.7031C375.635 52.4779 376.11 53.0801 376.722 53.5098C377.334 53.9329 378.063 54.1445 378.909 54.1445ZM389.115 51.3418V49.3105H392.816C393.721 49.3105 394.424 49.0794 394.925 48.6172C395.427 48.1484 395.677 47.4909 395.677 46.6445V46.625C395.677 45.7721 395.427 45.1146 394.925 44.6523C394.424 44.1901 393.721 43.959 392.816 43.959H389.115V41.9082H393.431C394.388 41.9082 395.225 42.1035 395.941 42.4941C396.657 42.8848 397.217 43.4349 397.621 44.1445C398.024 44.8477 398.226 45.6712 398.226 46.6152V46.6348C398.226 47.5723 398.024 48.3958 397.621 49.1055C397.217 49.8086 396.657 50.3587 395.941 50.7559C395.225 51.1465 394.388 51.3418 393.431 51.3418H389.115ZM387.855 56V41.9082H390.375V56H387.855ZM400.385 56V41.9082H403.275L407.533 52.7383H407.68L411.928 41.9082H414.818V56H412.553V45.9805H411.342L413.861 42.2988L408.461 56H406.742L401.352 42.2988L403.871 45.9805H402.65V56H400.385ZM417.68 56V41.9082H426.801V44.0273H420.2V47.8359H426.44V49.8477H420.2V53.8809H426.801V56H417.68ZM429.311 56V41.9082H431.518L439.233 52.7969L437.348 51.6543H438.559V41.9082H441.001V56H438.813L431.079 45.0918L432.973 46.2344H431.753V56H429.311ZM447.349 56V44.0273H443.032V41.9082H454.175V44.0273H449.859V56H447.349Z" fill="white"/>
<path d="M936.962 57.3223C935.874 57.3223 934.927 57.1562 934.12 56.8242C933.319 56.4922 932.684 56.0234 932.216 55.418C931.753 54.8125 931.493 54.0996 931.434 53.2793L931.425 53.1426H933.866L933.876 53.25C933.921 53.6471 934.081 53.9922 934.354 54.2852C934.634 54.5781 935.002 54.806 935.458 54.9688C935.92 55.1315 936.447 55.2129 937.04 55.2129C937.619 55.2129 938.124 55.1283 938.554 54.959C938.99 54.7832 939.328 54.5423 939.569 54.2363C939.817 53.9238 939.94 53.569 939.94 53.1719V53.1621C939.94 52.6478 939.742 52.2311 939.345 51.9121C938.954 51.5931 938.303 51.3359 937.391 51.1406L935.878 50.8281C934.445 50.5286 933.397 50.0436 932.733 49.373C932.069 48.7025 931.737 47.8431 931.737 46.7949V46.7852C931.744 45.9453 931.968 45.2129 932.411 44.5879C932.86 43.9564 933.475 43.4648 934.257 43.1133C935.044 42.7617 935.946 42.5859 936.962 42.5859C937.997 42.5859 938.895 42.7585 939.657 43.1035C940.419 43.4486 941.018 43.9206 941.454 44.5195C941.89 45.1185 942.137 45.8021 942.196 46.5703L942.206 46.707H939.794L939.774 46.5898C939.716 46.2122 939.563 45.8835 939.315 45.6035C939.074 45.3171 938.752 45.0957 938.348 44.9395C937.945 44.7767 937.476 44.6953 936.942 44.6953C936.415 44.6953 935.949 44.7767 935.546 44.9395C935.149 45.0957 934.836 45.3171 934.608 45.6035C934.38 45.89 934.266 46.2318 934.266 46.6289V46.6387C934.266 47.1335 934.458 47.5404 934.843 47.8594C935.233 48.1784 935.865 48.429 936.737 48.6113L938.251 48.9336C939.24 49.1419 940.044 49.4186 940.663 49.7637C941.281 50.1087 941.737 50.5384 942.03 51.0527C942.323 51.5671 942.47 52.1823 942.47 52.8984V52.9082C942.47 53.8132 942.245 54.5977 941.796 55.2617C941.353 55.9193 940.718 56.4271 939.891 56.7852C939.071 57.1432 938.095 57.3223 936.962 57.3223ZM944.687 57V42.9082H953.808V45.0273H947.206V48.8359H953.446V50.8477H947.206V54.8809H953.808V57H944.687ZM956.318 57V42.9082H958.837V54.8809H965.283V57H956.318ZM967.383 57V42.9082H976.367V45.0273H969.902V49.1973H975.811V51.248H969.902V57H967.383ZM978.37 52.4004V50.2129H984.834V52.4004H978.37ZM987.52 57V42.9082H990.04V48.7676H996.895V42.9082H999.405V57H996.895V50.8867H990.04V57H987.52ZM1008.36 57.3223C1006.99 57.3223 1005.8 57.0228 1004.81 56.4238C1003.81 55.8249 1003.04 54.9753 1002.5 53.875C1001.96 52.7682 1001.69 51.4629 1001.69 49.959V49.9395C1001.69 48.429 1001.96 47.1237 1002.5 46.0234C1003.05 44.9232 1003.82 44.0768 1004.82 43.4844C1005.82 42.8854 1007 42.5859 1008.36 42.5859C1009.73 42.5859 1010.91 42.8854 1011.91 43.4844C1012.91 44.0768 1013.68 44.9232 1014.22 46.0234C1014.76 47.1237 1015.03 48.429 1015.03 49.9395V49.959C1015.03 51.4629 1014.76 52.7682 1014.22 53.875C1013.68 54.9753 1012.91 55.8249 1011.92 56.4238C1010.92 57.0228 1009.73 57.3223 1008.36 57.3223ZM1008.36 55.1445C1009.2 55.1445 1009.93 54.9329 1010.54 54.5098C1011.16 54.0801 1011.63 53.4779 1011.96 52.7031C1012.3 51.9219 1012.46 51.0072 1012.46 49.959V49.9395C1012.46 48.8848 1012.3 47.9701 1011.96 47.1953C1011.63 46.4206 1011.16 45.8216 1010.54 45.3984C1009.93 44.9753 1009.2 44.7637 1008.36 44.7637C1007.53 44.7637 1006.8 44.9753 1006.18 45.3984C1005.57 45.8216 1005.1 46.4206 1004.76 47.1953C1004.42 47.9635 1004.25 48.8783 1004.25 49.9395V49.959C1004.25 51.0072 1004.42 51.9219 1004.75 52.7031C1005.09 53.4779 1005.56 54.0801 1006.17 54.5098C1006.79 54.9329 1007.51 55.1445 1008.36 55.1445ZM1022.21 57.3223C1021.12 57.3223 1020.17 57.1562 1019.37 56.8242C1018.57 56.4922 1017.93 56.0234 1017.46 55.418C1017 54.8125 1016.74 54.0996 1016.68 53.2793L1016.67 53.1426H1019.11L1019.12 53.25C1019.17 53.6471 1019.33 53.9922 1019.6 54.2852C1019.88 54.5781 1020.25 54.806 1020.7 54.9688C1021.17 55.1315 1021.69 55.2129 1022.29 55.2129C1022.87 55.2129 1023.37 55.1283 1023.8 54.959C1024.24 54.7832 1024.58 54.5423 1024.82 54.2363C1025.06 53.9238 1025.19 53.569 1025.19 53.1719V53.1621C1025.19 52.6478 1024.99 52.2311 1024.59 51.9121C1024.2 51.5931 1023.55 51.3359 1022.64 51.1406L1021.12 50.8281C1019.69 50.5286 1018.64 50.0436 1017.98 49.373C1017.32 48.7025 1016.98 47.8431 1016.98 46.7949V46.7852C1016.99 45.9453 1017.22 45.2129 1017.66 44.5879C1018.11 43.9564 1018.72 43.4648 1019.5 43.1133C1020.29 42.7617 1021.19 42.5859 1022.21 42.5859C1023.24 42.5859 1024.14 42.7585 1024.9 43.1035C1025.67 43.4486 1026.26 43.9206 1026.7 44.5195C1027.14 45.1185 1027.38 45.8021 1027.44 46.5703L1027.45 46.707H1025.04L1025.02 46.5898C1024.96 46.2122 1024.81 45.8835 1024.56 45.6035C1024.32 45.3171 1024 45.0957 1023.6 44.9395C1023.19 44.7767 1022.72 44.6953 1022.19 44.6953C1021.66 44.6953 1021.2 44.7767 1020.79 44.9395C1020.4 45.0957 1020.08 45.3171 1019.86 45.6035C1019.63 45.89 1019.51 46.2318 1019.51 46.6289V46.6387C1019.51 47.1335 1019.71 47.5404 1020.09 47.8594C1020.48 48.1784 1021.11 48.429 1021.98 48.6113L1023.5 48.9336C1024.49 49.1419 1025.29 49.4186 1025.91 49.7637C1026.53 50.1087 1026.98 50.5384 1027.28 51.0527C1027.57 51.5671 1027.72 52.1823 1027.72 52.8984V52.9082C1027.72 53.8132 1027.49 54.5977 1027.04 55.2617C1026.6 55.9193 1025.97 56.4271 1025.14 56.7852C1024.32 57.1432 1023.34 57.3223 1022.21 57.3223ZM1033.33 57V45.0273H1029.02V42.9082H1040.16V45.0273H1035.84V57H1033.33ZM1042.19 57V42.9082H1051.31V45.0273H1044.71V48.8359H1050.95V50.8477H1044.71V54.8809H1051.31V57H1042.19ZM1053.82 57V42.9082H1059.07C1060.47 42.9082 1061.67 43.1816 1062.66 43.7285C1063.65 44.2754 1064.4 45.0697 1064.92 46.1113C1065.45 47.153 1065.72 48.4128 1065.72 49.8906V49.9102C1065.72 51.4076 1065.45 52.6868 1064.92 53.748C1064.4 54.8027 1063.65 55.61 1062.66 56.1699C1061.68 56.7233 1060.48 57 1059.07 57H1053.82ZM1056.34 54.8809H1058.75C1059.69 54.8809 1060.48 54.6888 1061.14 54.3047C1061.79 53.9206 1062.29 53.3607 1062.63 52.625C1062.97 51.8893 1063.15 50.9941 1063.15 49.9395V49.9199C1063.15 48.8848 1062.97 48.0026 1062.63 47.2734C1062.28 46.5443 1061.78 45.9876 1061.13 45.6035C1060.47 45.2194 1059.68 45.0273 1058.75 45.0273H1056.34V54.8809ZM1072.61 57V42.9082H1077.86C1079.26 42.9082 1080.46 43.1816 1081.45 43.7285C1082.44 44.2754 1083.19 45.0697 1083.71 46.1113C1084.24 47.153 1084.51 48.4128 1084.51 49.8906V49.9102C1084.51 51.4076 1084.24 52.6868 1083.71 53.748C1083.19 54.8027 1082.44 55.61 1081.45 56.1699C1080.47 56.7233 1079.27 57 1077.86 57H1072.61ZM1075.13 54.8809H1077.54C1078.48 54.8809 1079.27 54.6888 1079.93 54.3047C1080.58 53.9206 1081.08 53.3607 1081.42 52.625C1081.76 51.8893 1081.94 50.9941 1081.94 49.9395V49.9199C1081.94 48.8848 1081.76 48.0026 1081.42 47.2734C1081.07 46.5443 1080.57 45.9876 1079.92 45.6035C1079.26 45.2194 1078.47 45.0273 1077.54 45.0273H1075.13V54.8809ZM1086.78 57V42.9082H1095.9V45.0273H1089.3V48.8359H1095.54V50.8477H1089.3V54.8809H1095.9V57H1086.78ZM1099.67 52.3418V50.3105H1103.37C1104.28 50.3105 1104.98 50.0794 1105.48 49.6172C1105.98 49.1484 1106.23 48.4909 1106.23 47.6445V47.625C1106.23 46.7721 1105.98 46.1146 1105.48 45.6523C1104.98 45.1901 1104.28 44.959 1103.37 44.959H1099.67V42.9082H1103.99C1104.95 42.9082 1105.78 43.1035 1106.5 43.4941C1107.21 43.8848 1107.77 44.4349 1108.18 45.1445C1108.58 45.8477 1108.78 46.6712 1108.78 47.6152V47.6348C1108.78 48.5723 1108.58 49.3958 1108.18 50.1055C1107.77 50.8086 1107.21 51.3587 1106.5 51.7559C1105.78 52.1465 1104.95 52.3418 1103.99 52.3418H1099.67ZM1098.41 57V42.9082H1100.93V57H1098.41ZM1110.94 57V42.9082H1113.46V54.8809H1119.91V57H1110.94ZM1127.62 57.3223C1126.25 57.3223 1125.06 57.0228 1124.07 56.4238C1123.07 55.8249 1122.3 54.9753 1121.76 53.875C1121.22 52.7682 1120.95 51.4629 1120.95 49.959V49.9395C1120.95 48.429 1121.22 47.1237 1121.76 46.0234C1122.31 44.9232 1123.08 44.0768 1124.08 43.4844C1125.08 42.8854 1126.26 42.5859 1127.62 42.5859C1128.99 42.5859 1130.17 42.8854 1131.17 43.4844C1132.17 44.0768 1132.94 44.9232 1133.48 46.0234C1134.02 47.1237 1134.29 48.429 1134.29 49.9395V49.959C1134.29 51.4629 1134.02 52.7682 1133.48 53.875C1132.94 54.9753 1132.17 55.8249 1131.18 56.4238C1130.18 57.0228 1129 57.3223 1127.62 57.3223ZM1127.62 55.1445C1128.46 55.1445 1129.19 54.9329 1129.8 54.5098C1130.42 54.0801 1130.89 53.4779 1131.23 52.7031C1131.56 51.9219 1131.72 51.0072 1131.72 49.959V49.9395C1131.72 48.8848 1131.56 47.9701 1131.23 47.1953C1130.89 46.4206 1130.42 45.8216 1129.8 45.3984C1129.19 44.9753 1128.46 44.7637 1127.62 44.7637C1126.79 44.7637 1126.06 44.9753 1125.44 45.3984C1124.83 45.8216 1124.36 46.4206 1124.02 47.1953C1123.68 47.9635 1123.51 48.8783 1123.51 49.9395V49.959C1123.51 51.0072 1123.68 51.9219 1124.01 52.7031C1124.35 53.4779 1124.82 54.0801 1125.43 54.5098C1126.05 54.9329 1126.78 55.1445 1127.62 55.1445ZM1139.69 57V51.4434L1134.75 42.9082H1137.51L1140.88 48.9727H1141.02L1144.39 42.9082H1147.14L1142.2 51.4434V57H1139.69ZM1148.96 57V42.9082H1151.85L1156.11 53.7383H1156.26L1160.5 42.9082H1163.39V57H1161.13V46.9805H1159.92L1162.44 43.2988L1157.04 57H1155.32L1149.93 43.2988L1152.45 46.9805H1151.23V57H1148.96ZM1166.26 57V42.9082H1175.38V45.0273H1168.78V48.8359H1175.02V50.8477H1168.78V54.8809H1175.38V57H1166.26ZM1177.89 57V42.9082H1180.09L1187.81 53.7969L1185.92 52.6543H1187.14V42.9082H1189.58V57H1187.39L1179.66 46.0918L1181.55 47.2344H1180.33V57H1177.89ZM1195.92 57V45.0273H1191.61V42.9082H1202.75V45.0273H1198.43V57H1195.92Z" fill="white"/>
<path d="M929.968 379V364.908H935.221C936.621 364.908 937.816 365.182 938.805 365.729C939.795 366.275 940.55 367.07 941.071 368.111C941.598 369.153 941.862 370.413 941.862 371.891V371.91C941.862 373.408 941.598 374.687 941.071 375.748C940.55 376.803 939.795 377.61 938.805 378.17C937.822 378.723 936.628 379 935.221 379H929.968ZM932.487 376.881H934.899C935.837 376.881 936.631 376.689 937.282 376.305C937.94 375.921 938.438 375.361 938.776 374.625C939.121 373.889 939.294 372.994 939.294 371.939V371.92C939.294 370.885 939.121 370.003 938.776 369.273C938.431 368.544 937.93 367.988 937.272 367.604C936.615 367.219 935.824 367.027 934.899 367.027H932.487V376.881ZM950.241 379.322C948.868 379.322 947.683 379.023 946.687 378.424C945.691 377.825 944.922 376.975 944.382 375.875C943.842 374.768 943.571 373.463 943.571 371.959V371.939C943.571 370.429 943.842 369.124 944.382 368.023C944.929 366.923 945.7 366.077 946.696 365.484C947.699 364.885 948.881 364.586 950.241 364.586C951.609 364.586 952.79 364.885 953.786 365.484C954.789 366.077 955.56 366.923 956.101 368.023C956.641 369.124 956.911 370.429 956.911 371.939V371.959C956.911 373.463 956.641 374.768 956.101 375.875C955.56 376.975 954.792 377.825 953.796 378.424C952.8 379.023 951.615 379.322 950.241 379.322ZM950.241 377.145C951.081 377.145 951.807 376.933 952.419 376.51C953.038 376.08 953.513 375.478 953.845 374.703C954.177 373.922 954.343 373.007 954.343 371.959V371.939C954.343 370.885 954.177 369.97 953.845 369.195C953.513 368.421 953.038 367.822 952.419 367.398C951.807 366.975 951.081 366.764 950.241 366.764C949.408 366.764 948.682 366.975 948.064 367.398C947.452 367.822 946.976 368.421 946.638 369.195C946.299 369.964 946.13 370.878 946.13 371.939V371.959C946.13 373.007 946.296 373.922 946.628 374.703C946.967 375.478 947.442 376.08 948.054 376.51C948.666 376.933 949.395 377.145 950.241 377.145ZM958.396 379V377.32L965.828 367.174V367.027H958.601V364.908H968.923V366.578L961.521 376.734V376.881H969.109V379H958.396ZM971.58 379V364.908H980.701V367.027H974.1V370.836H980.34V372.848H974.1V376.881H980.701V379H971.58ZM983.211 379V364.908H988.885C989.894 364.908 990.76 365.087 991.483 365.445C992.205 365.803 992.759 366.308 993.143 366.959C993.534 367.61 993.729 368.388 993.729 369.293V369.312C993.729 370.243 993.495 371.07 993.026 371.793C992.557 372.509 991.906 373.017 991.073 373.316L994.149 379H991.278L988.514 373.697C988.495 373.697 988.472 373.697 988.446 373.697C988.426 373.697 988.403 373.697 988.377 373.697H985.731V379H983.211ZM985.731 371.754H988.631C989.426 371.754 990.044 371.546 990.487 371.129C990.929 370.706 991.151 370.117 991.151 369.361V369.342C991.151 368.6 990.92 368.014 990.457 367.584C990.002 367.154 989.373 366.939 988.573 366.939H985.731V371.754ZM1006.71 379.322C1005.37 379.322 1004.22 379.026 1003.24 378.434C1002.27 377.835 1001.52 376.985 1001 375.885C1000.47 374.785 1000.2 373.476 1000.2 371.959V371.949C1000.2 370.426 1000.47 369.117 1001 368.023C1001.52 366.923 1002.27 366.077 1003.24 365.484C1004.21 364.885 1005.36 364.586 1006.7 364.586C1007.77 364.586 1008.74 364.794 1009.6 365.211C1010.46 365.628 1011.16 366.207 1011.7 366.949C1012.24 367.685 1012.56 368.531 1012.67 369.488V369.576H1010.2L1010.18 369.498C1010.07 368.945 1009.85 368.463 1009.52 368.053C1009.2 367.643 1008.79 367.327 1008.31 367.105C1007.83 366.878 1007.3 366.764 1006.7 366.764C1005.9 366.764 1005.2 366.975 1004.61 367.398C1004.02 367.815 1003.57 368.411 1003.25 369.186C1002.93 369.96 1002.77 370.878 1002.77 371.939V371.959C1002.77 373.02 1002.93 373.941 1003.25 374.723C1003.57 375.497 1004.02 376.096 1004.61 376.52C1005.2 376.936 1005.9 377.145 1006.71 377.145C1007.31 377.145 1007.84 377.04 1008.32 376.832C1008.8 376.624 1009.2 376.327 1009.52 375.943C1009.85 375.553 1010.07 375.094 1010.19 374.566L1010.21 374.498H1012.68L1012.67 374.586C1012.55 375.53 1012.22 376.357 1011.69 377.066C1011.15 377.776 1010.46 378.329 1009.61 378.727C1008.76 379.124 1007.79 379.322 1006.71 379.322ZM1014.88 379V364.908H1017.4V376.881H1023.85V379H1014.88ZM1031.56 379.322C1030.19 379.322 1029 379.023 1028.01 378.424C1027.01 377.825 1026.24 376.975 1025.7 375.875C1025.16 374.768 1024.89 373.463 1024.89 371.959V371.939C1024.89 370.429 1025.16 369.124 1025.7 368.023C1026.25 366.923 1027.02 366.077 1028.02 365.484C1029.02 364.885 1030.2 364.586 1031.56 364.586C1032.93 364.586 1034.11 364.885 1035.11 365.484C1036.11 366.077 1036.88 366.923 1037.42 368.023C1037.96 369.124 1038.23 370.429 1038.23 371.939V371.959C1038.23 373.463 1037.96 374.768 1037.42 375.875C1036.88 376.975 1036.11 377.825 1035.12 378.424C1034.12 379.023 1032.94 379.322 1031.56 379.322ZM1031.56 377.145C1032.4 377.145 1033.13 376.933 1033.74 376.51C1034.36 376.08 1034.83 375.478 1035.17 374.703C1035.5 373.922 1035.66 373.007 1035.66 371.959V371.939C1035.66 370.885 1035.5 369.97 1035.17 369.195C1034.83 368.421 1034.36 367.822 1033.74 367.398C1033.13 366.975 1032.4 366.764 1031.56 366.764C1030.73 366.764 1030 366.975 1029.38 367.398C1028.77 367.822 1028.3 368.421 1027.96 369.195C1027.62 369.964 1027.45 370.878 1027.45 371.939V371.959C1027.45 373.007 1027.62 373.922 1027.95 374.703C1028.29 375.478 1028.76 376.08 1029.38 376.51C1029.99 376.933 1030.72 377.145 1031.56 377.145ZM1046.3 379.322C1045.11 379.322 1044.08 379.107 1043.21 378.678C1042.35 378.242 1041.68 377.633 1041.2 376.852C1040.73 376.07 1040.5 375.159 1040.5 374.117V364.908H1043.01V373.912C1043.01 374.557 1043.14 375.123 1043.4 375.611C1043.66 376.093 1044.03 376.471 1044.52 376.744C1045.01 377.011 1045.6 377.145 1046.3 377.145C1047 377.145 1047.59 377.011 1048.08 376.744C1048.56 376.471 1048.94 376.093 1049.19 375.611C1049.44 375.123 1049.57 374.557 1049.57 373.912V364.908H1052.08V374.117C1052.08 375.152 1051.85 376.061 1051.38 376.842C1050.91 377.623 1050.24 378.232 1049.38 378.668C1048.52 379.104 1047.49 379.322 1046.3 379.322ZM1054.91 379V364.908H1060.17C1061.57 364.908 1062.76 365.182 1063.75 365.729C1064.74 366.275 1065.5 367.07 1066.02 368.111C1066.54 369.153 1066.81 370.413 1066.81 371.891V371.91C1066.81 373.408 1066.54 374.687 1066.02 375.748C1065.5 376.803 1064.74 377.61 1063.75 378.17C1062.77 378.723 1061.57 379 1060.17 379H1054.91ZM1057.43 376.881H1059.84C1060.78 376.881 1061.58 376.689 1062.23 376.305C1062.88 375.921 1063.38 375.361 1063.72 374.625C1064.07 373.889 1064.24 372.994 1064.24 371.939V371.92C1064.24 370.885 1064.07 370.003 1063.72 369.273C1063.38 368.544 1062.88 367.988 1062.22 367.604C1061.56 367.219 1060.77 367.027 1059.84 367.027H1057.43V376.881ZM1073.7 379V364.908H1078.96C1080.36 364.908 1081.55 365.182 1082.54 365.729C1083.53 366.275 1084.29 367.07 1084.81 368.111C1085.33 369.153 1085.6 370.413 1085.6 371.891V371.91C1085.6 373.408 1085.33 374.687 1084.81 375.748C1084.29 376.803 1083.53 377.61 1082.54 378.17C1081.56 378.723 1080.36 379 1078.96 379H1073.7ZM1076.22 376.881H1078.63C1079.57 376.881 1080.37 376.689 1081.02 376.305C1081.67 375.921 1082.17 375.361 1082.51 374.625C1082.86 373.889 1083.03 372.994 1083.03 371.939V371.92C1083.03 370.885 1082.86 370.003 1082.51 369.273C1082.17 368.544 1081.66 367.988 1081.01 367.604C1080.35 367.219 1079.56 367.027 1078.63 367.027H1076.22V376.881ZM1087.87 379V364.908H1096.99V367.027H1090.39V370.836H1096.63V372.848H1090.39V376.881H1096.99V379H1087.87ZM1100.76 374.342V372.311H1104.47C1105.37 372.311 1106.07 372.079 1106.57 371.617C1107.08 371.148 1107.33 370.491 1107.33 369.645V369.625C1107.33 368.772 1107.08 368.115 1106.57 367.652C1106.07 367.19 1105.37 366.959 1104.47 366.959H1100.76V364.908H1105.08C1106.04 364.908 1106.87 365.104 1107.59 365.494C1108.31 365.885 1108.87 366.435 1109.27 367.145C1109.67 367.848 1109.88 368.671 1109.88 369.615V369.635C1109.88 370.572 1109.67 371.396 1109.27 372.105C1108.87 372.809 1108.31 373.359 1107.59 373.756C1106.87 374.146 1106.04 374.342 1105.08 374.342H1100.76ZM1099.5 379V364.908H1102.02V379H1099.5ZM1112.03 379V364.908H1114.55V376.881H1121V379H1112.03ZM1128.71 379.322C1127.34 379.322 1126.16 379.023 1125.16 378.424C1124.16 377.825 1123.4 376.975 1122.85 375.875C1122.31 374.768 1122.04 373.463 1122.04 371.959V371.939C1122.04 370.429 1122.31 369.124 1122.85 368.023C1123.4 366.923 1124.17 366.077 1125.17 365.484C1126.17 364.885 1127.35 364.586 1128.71 364.586C1130.08 364.586 1131.26 364.885 1132.26 365.484C1133.26 366.077 1134.03 366.923 1134.57 368.023C1135.11 369.124 1135.38 370.429 1135.38 371.939V371.959C1135.38 373.463 1135.11 374.768 1134.57 375.875C1134.03 376.975 1133.26 377.825 1132.27 378.424C1131.27 379.023 1130.09 379.322 1128.71 379.322ZM1128.71 377.145C1129.55 377.145 1130.28 376.933 1130.89 376.51C1131.51 376.08 1131.99 375.478 1132.32 374.703C1132.65 373.922 1132.82 373.007 1132.82 371.959V371.939C1132.82 370.885 1132.65 369.97 1132.32 369.195C1131.99 368.421 1131.51 367.822 1130.89 367.398C1130.28 366.975 1129.55 366.764 1128.71 366.764C1127.88 366.764 1127.15 366.975 1126.54 367.398C1125.92 367.822 1125.45 368.421 1125.11 369.195C1124.77 369.964 1124.6 370.878 1124.6 371.939V371.959C1124.6 373.007 1124.77 373.922 1125.1 374.703C1125.44 375.478 1125.91 376.08 1126.53 376.51C1127.14 376.933 1127.87 377.145 1128.71 377.145ZM1140.78 379V373.443L1135.84 364.908H1138.6L1141.98 370.973H1142.11L1145.48 364.908H1148.24L1143.29 373.443V379H1140.78ZM1150.05 379V364.908H1152.94L1157.2 375.738H1157.35L1161.6 364.908H1164.49V379H1162.22V368.98H1161.01L1163.53 365.299L1158.13 379H1156.41L1151.02 365.299L1153.54 368.98H1152.32V379H1150.05ZM1167.35 379V364.908H1176.47V367.027H1169.87V370.836H1176.11V372.848H1169.87V376.881H1176.47V379H1167.35ZM1178.98 379V364.908H1181.19L1188.9 375.797L1187.02 374.654H1188.23V364.908H1190.67V379H1188.48L1180.75 368.092L1182.64 369.234H1181.42V379H1178.98ZM1197.02 379V367.027H1192.7V364.908H1203.84V367.027H1199.53V379H1197.02Z" fill="white"/>
</svg>
