<svg width="1558" height="420" viewBox="0 0 1558 420" fill="none" xmlns="http://www.w3.org/2000/svg">
<rect width="1558" height="420" rx="20" fill="#1F2224"/>
<rect x="113.5" y="181.5" width="133" height="55" rx="14.5" fill="#262A30"/>
<path d="M140.063 213.592H139.967C139.722 214.093 139.397 214.488 138.991 214.776C138.586 215.053 138.079 215.192 137.471 215.192C136.501 215.192 135.727 214.829 135.151 214.104C134.575 213.379 134.287 212.301 134.287 210.872C134.287 209.443 134.575 208.365 135.151 207.64C135.727 206.915 136.501 206.552 137.471 206.552C138.079 206.552 138.586 206.696 138.991 206.984C139.397 207.261 139.722 207.651 139.967 208.152H140.063V203.16H141.807V215H140.063V213.592ZM138.191 213.768C138.447 213.768 138.687 213.736 138.911 213.672C139.135 213.608 139.333 213.512 139.503 213.384C139.674 213.256 139.807 213.101 139.903 212.92C140.01 212.728 140.063 212.504 140.063 212.248V209.496C140.063 209.24 140.01 209.021 139.903 208.84C139.807 208.648 139.674 208.488 139.503 208.36C139.333 208.232 139.135 208.136 138.911 208.072C138.687 208.008 138.447 207.976 138.191 207.976C137.53 207.976 137.018 208.179 136.655 208.584C136.303 208.989 136.127 209.528 136.127 210.2V211.544C136.127 212.216 136.303 212.755 136.655 213.16C137.018 213.565 137.53 213.768 138.191 213.768ZM147.545 215.192C146.937 215.192 146.388 215.091 145.897 214.888C145.417 214.685 145.006 214.397 144.665 214.024C144.334 213.651 144.078 213.197 143.897 212.664C143.716 212.131 143.625 211.533 143.625 210.872C143.625 210.211 143.716 209.613 143.897 209.08C144.078 208.547 144.334 208.093 144.665 207.72C145.006 207.347 145.417 207.059 145.897 206.856C146.388 206.653 146.937 206.552 147.545 206.552C148.153 206.552 148.697 206.653 149.177 206.856C149.668 207.059 150.078 207.347 150.409 207.72C150.75 208.093 151.012 208.547 151.193 209.08C151.374 209.613 151.465 210.211 151.465 210.872C151.465 211.533 151.374 212.131 151.193 212.664C151.012 213.197 150.75 213.651 150.409 214.024C150.078 214.397 149.668 214.685 149.177 214.888C148.697 215.091 148.153 215.192 147.545 215.192ZM147.545 213.816C148.185 213.816 148.692 213.624 149.065 213.24C149.449 212.845 149.641 212.264 149.641 211.496V210.248C149.641 209.48 149.449 208.904 149.065 208.52C148.692 208.125 148.185 207.928 147.545 207.928C146.905 207.928 146.393 208.125 146.009 208.52C145.636 208.904 145.449 209.48 145.449 210.248V211.496C145.449 212.264 145.636 212.845 146.009 213.24C146.393 213.624 146.905 213.816 147.545 213.816ZM153.251 215V213.464L158.275 208.152H153.427V206.744H160.227V208.28L155.203 213.592H160.387V215H153.251ZM166.268 215.192C165.639 215.192 165.074 215.091 164.572 214.888C164.071 214.685 163.65 214.397 163.308 214.024C162.967 213.651 162.706 213.203 162.524 212.68C162.343 212.147 162.252 211.549 162.252 210.888C162.252 210.227 162.343 209.629 162.524 209.096C162.716 208.563 162.978 208.109 163.308 207.736C163.65 207.352 164.06 207.059 164.54 206.856C165.02 206.653 165.554 206.552 166.14 206.552C166.716 206.552 167.239 206.653 167.708 206.856C168.178 207.048 168.578 207.325 168.908 207.688C169.239 208.051 169.49 208.483 169.66 208.984C169.842 209.485 169.932 210.04 169.932 210.648V211.304H164.012V211.576C164.012 212.227 164.215 212.76 164.62 213.176C165.026 213.581 165.586 213.784 166.3 213.784C166.834 213.784 167.287 213.672 167.661 213.448C168.044 213.213 168.354 212.904 168.589 212.52L169.677 213.48C169.399 213.96 168.973 214.365 168.397 214.696C167.831 215.027 167.122 215.192 166.268 215.192ZM166.14 207.88C165.831 207.88 165.543 207.933 165.276 208.04C165.02 208.147 164.796 208.301 164.604 208.504C164.423 208.696 164.279 208.925 164.172 209.192C164.066 209.459 164.012 209.752 164.012 210.072V210.184H168.156V210.024C168.156 209.373 167.97 208.856 167.596 208.472C167.234 208.077 166.748 207.88 166.14 207.88ZM171.782 213.592H173.974V208.152H171.782V206.744H175.718V208.936H175.814C175.889 208.648 175.996 208.371 176.134 208.104C176.273 207.837 176.449 207.608 176.662 207.416C176.876 207.213 177.137 207.053 177.446 206.936C177.756 206.808 178.118 206.744 178.534 206.744H179.526V208.408H177.894C177.254 208.408 176.732 208.6 176.326 208.984C175.921 209.357 175.718 209.864 175.718 210.504V213.592H178.71V215H171.782V213.592ZM194.426 205.24C193.978 205.24 193.663 205.149 193.482 204.968C193.311 204.787 193.226 204.563 193.226 204.296V203.96C193.226 203.693 193.311 203.469 193.482 203.288C193.663 203.107 193.972 203.016 194.41 203.016C194.858 203.016 195.167 203.107 195.338 203.288C195.519 203.469 195.61 203.693 195.61 203.96V204.296C195.61 204.563 195.519 204.787 195.338 204.968C195.167 205.149 194.863 205.24 194.426 205.24ZM190.73 213.592H193.546V208.152H190.73V206.744H195.29V213.592H197.93V215H190.73V213.592ZM199.731 215V206.744H201.475V208.152H201.555C201.641 207.939 201.747 207.736 201.875 207.544C202.014 207.341 202.179 207.171 202.371 207.032C202.563 206.883 202.787 206.765 203.043 206.68C203.299 206.595 203.598 206.552 203.939 206.552C204.771 206.552 205.443 206.824 205.955 207.368C206.467 207.912 206.723 208.685 206.723 209.688V215H204.979V209.944C204.979 208.632 204.409 207.976 203.267 207.976C203.043 207.976 202.825 208.008 202.611 208.072C202.398 208.125 202.206 208.211 202.035 208.328C201.865 208.445 201.726 208.595 201.619 208.776C201.523 208.957 201.475 209.165 201.475 209.4V215H199.731ZM212.973 205.24C212.525 205.24 212.211 205.149 212.029 204.968C211.859 204.787 211.773 204.563 211.773 204.296V203.96C211.773 203.693 211.859 203.469 212.029 203.288C212.211 203.107 212.52 203.016 212.957 203.016C213.405 203.016 213.715 203.107 213.885 203.288C214.067 203.469 214.157 203.693 214.157 203.96V204.296C214.157 204.563 214.067 204.787 213.885 204.968C213.715 205.149 213.411 205.24 212.973 205.24ZM209.277 213.592H212.093V208.152H209.277V206.744H213.837V213.592H216.477V215H209.277V213.592ZM222.231 215C221.506 215 220.972 214.808 220.631 214.424C220.29 214.029 220.119 213.523 220.119 212.904V208.152H217.575V206.744H219.383C219.692 206.744 219.911 206.685 220.039 206.568C220.167 206.44 220.231 206.216 220.231 205.896V203.832H221.863V206.744H225.383V208.152H221.863V213.592H225.383V215H222.231Z" fill="white"/>
<rect x="113.5" y="181.5" width="133" height="55" rx="14.5" stroke="#333840"/>
<rect x="332.5" y="181.5" width="133" height="55" rx="14.5" fill="#262A30"/>
<path d="M359.063 213.592H358.967C358.722 214.093 358.397 214.488 357.991 214.776C357.586 215.053 357.079 215.192 356.471 215.192C355.501 215.192 354.727 214.829 354.151 214.104C353.575 213.379 353.287 212.301 353.287 210.872C353.287 209.443 353.575 208.365 354.151 207.64C354.727 206.915 355.501 206.552 356.471 206.552C357.079 206.552 357.586 206.696 357.991 206.984C358.397 207.261 358.722 207.651 358.967 208.152H359.063V203.16H360.807V215H359.063V213.592ZM357.191 213.768C357.447 213.768 357.687 213.736 357.911 213.672C358.135 213.608 358.333 213.512 358.503 213.384C358.674 213.256 358.807 213.101 358.903 212.92C359.01 212.728 359.063 212.504 359.063 212.248V209.496C359.063 209.24 359.01 209.021 358.903 208.84C358.807 208.648 358.674 208.488 358.503 208.36C358.333 208.232 358.135 208.136 357.911 208.072C357.687 208.008 357.447 207.976 357.191 207.976C356.53 207.976 356.018 208.179 355.655 208.584C355.303 208.989 355.127 209.528 355.127 210.2V211.544C355.127 212.216 355.303 212.755 355.655 213.16C356.018 213.565 356.53 213.768 357.191 213.768ZM366.545 215.192C365.937 215.192 365.388 215.091 364.897 214.888C364.417 214.685 364.006 214.397 363.665 214.024C363.334 213.651 363.078 213.197 362.897 212.664C362.716 212.131 362.625 211.533 362.625 210.872C362.625 210.211 362.716 209.613 362.897 209.08C363.078 208.547 363.334 208.093 363.665 207.72C364.006 207.347 364.417 207.059 364.897 206.856C365.388 206.653 365.937 206.552 366.545 206.552C367.153 206.552 367.697 206.653 368.177 206.856C368.668 207.059 369.078 207.347 369.409 207.72C369.75 208.093 370.012 208.547 370.193 209.08C370.374 209.613 370.465 210.211 370.465 210.872C370.465 211.533 370.374 212.131 370.193 212.664C370.012 213.197 369.75 213.651 369.409 214.024C369.078 214.397 368.668 214.685 368.177 214.888C367.697 215.091 367.153 215.192 366.545 215.192ZM366.545 213.816C367.185 213.816 367.692 213.624 368.065 213.24C368.449 212.845 368.641 212.264 368.641 211.496V210.248C368.641 209.48 368.449 208.904 368.065 208.52C367.692 208.125 367.185 207.928 366.545 207.928C365.905 207.928 365.393 208.125 365.009 208.52C364.636 208.904 364.449 209.48 364.449 210.248V211.496C364.449 212.264 364.636 212.845 365.009 213.24C365.393 213.624 365.905 213.816 366.545 213.816ZM372.251 215V213.464L377.275 208.152H372.427V206.744H379.227V208.28L374.203 213.592H379.387V215H372.251ZM385.268 215.192C384.639 215.192 384.074 215.091 383.572 214.888C383.071 214.685 382.65 214.397 382.308 214.024C381.967 213.651 381.706 213.203 381.524 212.68C381.343 212.147 381.252 211.549 381.252 210.888C381.252 210.227 381.343 209.629 381.524 209.096C381.716 208.563 381.978 208.109 382.308 207.736C382.65 207.352 383.06 207.059 383.54 206.856C384.02 206.653 384.554 206.552 385.14 206.552C385.716 206.552 386.239 206.653 386.708 206.856C387.178 207.048 387.578 207.325 387.908 207.688C388.239 208.051 388.49 208.483 388.66 208.984C388.842 209.485 388.932 210.04 388.932 210.648V211.304H383.012V211.576C383.012 212.227 383.215 212.76 383.62 213.176C384.026 213.581 384.586 213.784 385.3 213.784C385.834 213.784 386.287 213.672 386.661 213.448C387.044 213.213 387.354 212.904 387.589 212.52L388.677 213.48C388.399 213.96 387.973 214.365 387.397 214.696C386.831 215.027 386.122 215.192 385.268 215.192ZM385.14 207.88C384.831 207.88 384.543 207.933 384.276 208.04C384.02 208.147 383.796 208.301 383.604 208.504C383.423 208.696 383.279 208.925 383.172 209.192C383.066 209.459 383.012 209.752 383.012 210.072V210.184H387.156V210.024C387.156 209.373 386.97 208.856 386.596 208.472C386.234 208.077 385.748 207.88 385.14 207.88ZM390.782 213.592H392.974V208.152H390.782V206.744H394.718V208.936H394.814C394.889 208.648 394.996 208.371 395.134 208.104C395.273 207.837 395.449 207.608 395.662 207.416C395.876 207.213 396.137 207.053 396.446 206.936C396.756 206.808 397.118 206.744 397.534 206.744H398.526V208.408H396.894C396.254 208.408 395.732 208.6 395.326 208.984C394.921 209.357 394.718 209.864 394.718 210.504V213.592H397.71V215H390.782V213.592ZM409.314 213.592H412.05V204.568H409.314V203.16H413.794V213.592H416.53V215H409.314V213.592ZM422.699 205.24C422.251 205.24 421.937 205.149 421.755 204.968C421.585 204.787 421.499 204.563 421.499 204.296V203.96C421.499 203.693 421.585 203.469 421.755 203.288C421.937 203.107 422.246 203.016 422.683 203.016C423.131 203.016 423.441 203.107 423.611 203.288C423.793 203.469 423.883 203.693 423.883 203.96V204.296C423.883 204.563 423.793 204.787 423.611 204.968C423.441 205.149 423.137 205.24 422.699 205.24ZM419.003 213.592H421.819V208.152H419.003V206.744H423.563V213.592H426.203V215H419.003V213.592ZM430.389 215L427.429 206.744H429.237L430.373 210.232L431.445 213.544H431.541L432.613 210.232L433.749 206.744H435.493L432.533 215H430.389ZM440.911 215.192C440.282 215.192 439.716 215.091 439.215 214.888C438.714 214.685 438.292 214.397 437.951 214.024C437.61 213.651 437.348 213.203 437.167 212.68C436.986 212.147 436.895 211.549 436.895 210.888C436.895 210.227 436.986 209.629 437.167 209.096C437.359 208.563 437.62 208.109 437.951 207.736C438.292 207.352 438.703 207.059 439.183 206.856C439.663 206.653 440.196 206.552 440.783 206.552C441.359 206.552 441.882 206.653 442.351 206.856C442.82 207.048 443.22 207.325 443.551 207.688C443.882 208.051 444.132 208.483 444.303 208.984C444.484 209.485 444.575 210.04 444.575 210.648V211.304H438.655V211.576C438.655 212.227 438.858 212.76 439.263 213.176C439.668 213.581 440.228 213.784 440.943 213.784C441.476 213.784 441.93 213.672 442.303 213.448C442.687 213.213 442.996 212.904 443.231 212.52L444.319 213.48C444.042 213.96 443.615 214.365 443.039 214.696C442.474 215.027 441.764 215.192 440.911 215.192ZM440.783 207.88C440.474 207.88 440.186 207.933 439.919 208.04C439.663 208.147 439.439 208.301 439.247 208.504C439.066 208.696 438.922 208.925 438.815 209.192C438.708 209.459 438.655 209.752 438.655 210.072V210.184H442.799V210.024C442.799 209.373 442.612 208.856 442.239 208.472C441.876 208.077 441.391 207.88 440.783 207.88Z" fill="white"/>
<rect x="332.5" y="181.5" width="133" height="55" rx="14.5" stroke="#333840"/>
<rect x="550.5" y="181.5" width="123" height="55" rx="14.5" fill="#262A30"/>
<path d="M576.7 213.592H576.604C576.359 214.093 576.033 214.488 575.628 214.776C575.223 215.053 574.716 215.192 574.108 215.192C573.137 215.192 572.364 214.829 571.788 214.104C571.212 213.379 570.924 212.301 570.924 210.872C570.924 209.443 571.212 208.365 571.788 207.64C572.364 206.915 573.137 206.552 574.108 206.552C574.716 206.552 575.223 206.696 575.628 206.984C576.033 207.261 576.359 207.651 576.604 208.152H576.7V203.16H578.444V215H576.7V213.592ZM574.828 213.768C575.084 213.768 575.324 213.736 575.548 213.672C575.772 213.608 575.969 213.512 576.14 213.384C576.311 213.256 576.444 213.101 576.54 212.92C576.647 212.728 576.7 212.504 576.7 212.248V209.496C576.7 209.24 576.647 209.021 576.54 208.84C576.444 208.648 576.311 208.488 576.14 208.36C575.969 208.232 575.772 208.136 575.548 208.072C575.324 208.008 575.084 207.976 574.828 207.976C574.167 207.976 573.655 208.179 573.292 208.584C572.94 208.989 572.764 209.528 572.764 210.2V211.544C572.764 212.216 572.94 212.755 573.292 213.16C573.655 213.565 574.167 213.768 574.828 213.768ZM584.182 215.192C583.574 215.192 583.025 215.091 582.534 214.888C582.054 214.685 581.643 214.397 581.302 214.024C580.971 213.651 580.715 213.197 580.534 212.664C580.353 212.131 580.262 211.533 580.262 210.872C580.262 210.211 580.353 209.613 580.534 209.08C580.715 208.547 580.971 208.093 581.302 207.72C581.643 207.347 582.054 207.059 582.534 206.856C583.025 206.653 583.574 206.552 584.182 206.552C584.79 206.552 585.334 206.653 585.814 206.856C586.305 207.059 586.715 207.347 587.046 207.72C587.387 208.093 587.649 208.547 587.83 209.08C588.011 209.613 588.102 210.211 588.102 210.872C588.102 211.533 588.011 212.131 587.83 212.664C587.649 213.197 587.387 213.651 587.046 214.024C586.715 214.397 586.305 214.685 585.814 214.888C585.334 215.091 584.79 215.192 584.182 215.192ZM584.182 213.816C584.822 213.816 585.329 213.624 585.702 213.24C586.086 212.845 586.278 212.264 586.278 211.496V210.248C586.278 209.48 586.086 208.904 585.702 208.52C585.329 208.125 584.822 207.928 584.182 207.928C583.542 207.928 583.03 208.125 582.646 208.52C582.273 208.904 582.086 209.48 582.086 210.248V211.496C582.086 212.264 582.273 212.845 582.646 213.24C583.03 213.624 583.542 213.816 584.182 213.816ZM589.888 215V213.464L594.912 208.152H590.064V206.744H596.864V208.28L591.84 213.592H597.024V215H589.888ZM602.905 215.192C602.276 215.192 601.711 215.091 601.209 214.888C600.708 214.685 600.287 214.397 599.945 214.024C599.604 213.651 599.343 213.203 599.161 212.68C598.98 212.147 598.889 211.549 598.889 210.888C598.889 210.227 598.98 209.629 599.161 209.096C599.353 208.563 599.615 208.109 599.945 207.736C600.287 207.352 600.697 207.059 601.177 206.856C601.657 206.653 602.191 206.552 602.777 206.552C603.353 206.552 603.876 206.653 604.345 206.856C604.815 207.048 605.215 207.325 605.545 207.688C605.876 208.051 606.127 208.483 606.297 208.984C606.479 209.485 606.569 210.04 606.569 210.648V211.304H600.649V211.576C600.649 212.227 600.852 212.76 601.257 213.176C601.663 213.581 602.223 213.784 602.937 213.784C603.471 213.784 603.924 213.672 604.297 213.448C604.681 213.213 604.991 212.904 605.225 212.52L606.313 213.48C606.036 213.96 605.609 214.365 605.033 214.696C604.468 215.027 603.759 215.192 602.905 215.192ZM602.777 207.88C602.468 207.88 602.18 207.933 601.913 208.04C601.657 208.147 601.433 208.301 601.241 208.504C601.06 208.696 600.916 208.925 600.809 209.192C600.703 209.459 600.649 209.752 600.649 210.072V210.184H604.793V210.024C604.793 209.373 604.607 208.856 604.233 208.472C603.871 208.077 603.385 207.88 602.777 207.88ZM608.419 213.592H610.611V208.152H608.419V206.744H612.355V208.936H612.451C612.526 208.648 612.632 208.371 612.771 208.104C612.91 207.837 613.086 207.608 613.299 207.416C613.512 207.213 613.774 207.053 614.083 206.936C614.392 206.808 614.755 206.744 615.171 206.744H616.163V208.408H614.531C613.891 208.408 613.368 208.6 612.963 208.984C612.558 209.357 612.355 209.864 612.355 210.504V213.592H615.347V215H608.419V213.592ZM626.967 213.592H629.159V208.152H626.967V206.744H630.903V208.936H630.999C631.073 208.648 631.18 208.371 631.319 208.104C631.457 207.837 631.633 207.608 631.847 207.416C632.06 207.213 632.321 207.053 632.631 206.936C632.94 206.808 633.303 206.744 633.719 206.744H634.711V208.408H633.079C632.439 208.408 631.916 208.6 631.511 208.984C631.105 209.357 630.903 209.864 630.903 210.504V213.592H633.895V215H626.967V213.592ZM641.536 213.592H641.456C641.371 213.805 641.259 214.013 641.12 214.216C640.992 214.408 640.832 214.579 640.64 214.728C640.448 214.867 640.224 214.979 639.968 215.064C639.712 215.149 639.414 215.192 639.072 215.192C638.24 215.192 637.568 214.92 637.056 214.376C636.544 213.832 636.288 213.059 636.288 212.056V206.744H638.032V211.8C638.032 213.112 638.603 213.768 639.744 213.768C639.968 213.768 640.187 213.741 640.4 213.688C640.614 213.624 640.806 213.533 640.976 213.416C641.147 213.299 641.28 213.155 641.376 212.984C641.483 212.803 641.536 212.589 641.536 212.344V206.744H643.28V215H641.536V213.592ZM645.642 215V206.744H647.386V208.152H647.466C647.551 207.939 647.658 207.736 647.786 207.544C647.925 207.341 648.09 207.171 648.282 207.032C648.474 206.883 648.698 206.765 648.954 206.68C649.21 206.595 649.509 206.552 649.85 206.552C650.682 206.552 651.354 206.824 651.866 207.368C652.378 207.912 652.634 208.685 652.634 209.688V215H650.89V209.944C650.89 208.632 650.319 207.976 649.178 207.976C648.954 207.976 648.735 208.008 648.522 208.072C648.309 208.125 648.117 208.211 647.946 208.328C647.775 208.445 647.637 208.595 647.53 208.776C647.434 208.957 647.386 209.165 647.386 209.4V215H645.642Z" fill="white"/>
<rect x="550.5" y="181.5" width="123" height="55" rx="14.5" stroke="#333840"/>
<rect x="797.5" y="259.5" width="207" height="55" rx="14.5" fill="#262A30"/>
<path d="M823.968 291.592H823.872C823.627 292.093 823.302 292.488 822.896 292.776C822.491 293.053 821.984 293.192 821.376 293.192C820.406 293.192 819.632 292.829 819.056 292.104C818.48 291.379 818.192 290.301 818.192 288.872C818.192 287.443 818.48 286.365 819.056 285.64C819.632 284.915 820.406 284.552 821.376 284.552C821.984 284.552 822.491 284.696 822.896 284.984C823.302 285.261 823.627 285.651 823.872 286.152H823.968V281.16H825.712V293H823.968V291.592ZM822.096 291.768C822.352 291.768 822.592 291.736 822.816 291.672C823.04 291.608 823.238 291.512 823.408 291.384C823.579 291.256 823.712 291.101 823.808 290.92C823.915 290.728 823.968 290.504 823.968 290.248V287.496C823.968 287.24 823.915 287.021 823.808 286.84C823.712 286.648 823.579 286.488 823.408 286.36C823.238 286.232 823.04 286.136 822.816 286.072C822.592 286.008 822.352 285.976 822.096 285.976C821.435 285.976 820.923 286.179 820.56 286.584C820.208 286.989 820.032 287.528 820.032 288.2V289.544C820.032 290.216 820.208 290.755 820.56 291.16C820.923 291.565 821.435 291.768 822.096 291.768ZM831.45 293.192C830.842 293.192 830.293 293.091 829.802 292.888C829.322 292.685 828.911 292.397 828.57 292.024C828.239 291.651 827.983 291.197 827.802 290.664C827.621 290.131 827.53 289.533 827.53 288.872C827.53 288.211 827.621 287.613 827.802 287.08C827.983 286.547 828.239 286.093 828.57 285.72C828.911 285.347 829.322 285.059 829.802 284.856C830.293 284.653 830.842 284.552 831.45 284.552C832.058 284.552 832.602 284.653 833.082 284.856C833.573 285.059 833.983 285.347 834.314 285.72C834.655 286.093 834.917 286.547 835.098 287.08C835.279 287.613 835.37 288.211 835.37 288.872C835.37 289.533 835.279 290.131 835.098 290.664C834.917 291.197 834.655 291.651 834.314 292.024C833.983 292.397 833.573 292.685 833.082 292.888C832.602 293.091 832.058 293.192 831.45 293.192ZM831.45 291.816C832.09 291.816 832.597 291.624 832.97 291.24C833.354 290.845 833.546 290.264 833.546 289.496V288.248C833.546 287.48 833.354 286.904 832.97 286.52C832.597 286.125 832.09 285.928 831.45 285.928C830.81 285.928 830.298 286.125 829.914 286.52C829.541 286.904 829.354 287.48 829.354 288.248V289.496C829.354 290.264 829.541 290.845 829.914 291.24C830.298 291.624 830.81 291.816 831.45 291.816ZM837.156 293V291.464L842.18 286.152H837.332V284.744H844.132V286.28L839.108 291.592H844.292V293H837.156ZM850.174 293.192C849.544 293.192 848.979 293.091 848.478 292.888C847.976 292.685 847.555 292.397 847.214 292.024C846.872 291.651 846.611 291.203 846.43 290.68C846.248 290.147 846.158 289.549 846.158 288.888C846.158 288.227 846.248 287.629 846.43 287.096C846.622 286.563 846.883 286.109 847.214 285.736C847.555 285.352 847.966 285.059 848.446 284.856C848.926 284.653 849.459 284.552 850.046 284.552C850.622 284.552 851.144 284.653 851.614 284.856C852.083 285.048 852.483 285.325 852.814 285.688C853.144 286.051 853.395 286.483 853.566 286.984C853.747 287.485 853.838 288.04 853.838 288.648V289.304H847.918V289.576C847.918 290.227 848.12 290.76 848.526 291.176C848.931 291.581 849.491 291.784 850.206 291.784C850.739 291.784 851.192 291.672 851.566 291.448C851.95 291.213 852.259 290.904 852.494 290.52L853.582 291.48C853.304 291.96 852.878 292.365 852.302 292.696C851.736 293.027 851.027 293.192 850.174 293.192ZM850.046 285.88C849.736 285.88 849.448 285.933 849.182 286.04C848.926 286.147 848.702 286.301 848.51 286.504C848.328 286.696 848.184 286.925 848.078 287.192C847.971 287.459 847.918 287.752 847.918 288.072V288.184H852.062V288.024C852.062 287.373 851.875 286.856 851.502 286.472C851.139 286.077 850.654 285.88 850.046 285.88ZM855.687 291.592H857.879V286.152H855.687V284.744H859.623V286.936H859.719C859.794 286.648 859.901 286.371 860.039 286.104C860.178 285.837 860.354 285.608 860.567 285.416C860.781 285.213 861.042 285.053 861.351 284.936C861.661 284.808 862.023 284.744 862.439 284.744H863.431V286.408H861.799C861.159 286.408 860.637 286.6 860.231 286.984C859.826 287.357 859.623 287.864 859.623 288.504V291.592H862.615V293H855.687V291.592ZM878.123 293.192C877.504 293.192 876.949 293.091 876.459 292.888C875.979 292.685 875.568 292.397 875.227 292.024C874.896 291.651 874.64 291.197 874.459 290.664C874.288 290.131 874.203 289.533 874.203 288.872C874.203 288.211 874.288 287.613 874.459 287.08C874.64 286.547 874.896 286.093 875.227 285.72C875.568 285.347 875.979 285.059 876.459 284.856C876.949 284.653 877.499 284.552 878.107 284.552C878.96 284.552 879.643 284.733 880.155 285.096C880.677 285.459 881.067 285.928 881.323 286.504L879.963 287.24C879.813 286.856 879.584 286.552 879.275 286.328C878.976 286.104 878.587 285.992 878.107 285.992C877.445 285.992 876.933 286.195 876.571 286.6C876.208 286.995 876.027 287.523 876.027 288.184V289.56C876.027 290.211 876.208 290.739 876.571 291.144C876.933 291.549 877.456 291.752 878.139 291.752C878.651 291.752 879.067 291.635 879.387 291.4C879.717 291.165 879.979 290.845 880.171 290.44L881.451 291.224C881.184 291.8 880.779 292.275 880.235 292.648C879.691 293.011 878.987 293.192 878.123 293.192ZM883.493 291.592H886.229V282.568H883.493V281.16H887.973V291.592H890.709V293H883.493V291.592ZM896.366 293.192C895.758 293.192 895.209 293.091 894.718 292.888C894.238 292.685 893.828 292.397 893.486 292.024C893.156 291.651 892.9 291.197 892.718 290.664C892.537 290.131 892.446 289.533 892.446 288.872C892.446 288.211 892.537 287.613 892.718 287.08C892.9 286.547 893.156 286.093 893.486 285.72C893.828 285.347 894.238 285.059 894.718 284.856C895.209 284.653 895.758 284.552 896.366 284.552C896.974 284.552 897.518 284.653 897.998 284.856C898.489 285.059 898.9 285.347 899.23 285.72C899.572 286.093 899.833 286.547 900.014 287.08C900.196 287.613 900.286 288.211 900.286 288.872C900.286 289.533 900.196 290.131 900.014 290.664C899.833 291.197 899.572 291.651 899.23 292.024C898.9 292.397 898.489 292.685 897.998 292.888C897.518 293.091 896.974 293.192 896.366 293.192ZM896.366 291.816C897.006 291.816 897.513 291.624 897.886 291.24C898.27 290.845 898.462 290.264 898.462 289.496V288.248C898.462 287.48 898.27 286.904 897.886 286.52C897.513 286.125 897.006 285.928 896.366 285.928C895.726 285.928 895.214 286.125 894.83 286.52C894.457 286.904 894.27 287.48 894.27 288.248V289.496C894.27 290.264 894.457 290.845 894.83 291.24C895.214 291.624 895.726 291.816 896.366 291.816ZM907.352 291.592H907.272C907.187 291.805 907.075 292.013 906.936 292.216C906.808 292.408 906.648 292.579 906.456 292.728C906.264 292.867 906.04 292.979 905.784 293.064C905.528 293.149 905.229 293.192 904.888 293.192C904.056 293.192 903.384 292.92 902.872 292.376C902.36 291.832 902.104 291.059 902.104 290.056V284.744H903.848V289.8C903.848 291.112 904.419 291.768 905.56 291.768C905.784 291.768 906.003 291.741 906.216 291.688C906.429 291.624 906.621 291.533 906.792 291.416C906.963 291.299 907.096 291.155 907.192 290.984C907.299 290.803 907.352 290.589 907.352 290.344V284.744H909.096V293H907.352V291.592ZM916.706 291.592H916.61C916.364 292.093 916.039 292.488 915.634 292.776C915.228 293.053 914.722 293.192 914.114 293.192C913.143 293.192 912.37 292.829 911.794 292.104C911.218 291.379 910.93 290.301 910.93 288.872C910.93 287.443 911.218 286.365 911.794 285.64C912.37 284.915 913.143 284.552 914.114 284.552C914.722 284.552 915.228 284.696 915.634 284.984C916.039 285.261 916.364 285.651 916.61 286.152H916.706V281.16H918.45V293H916.706V291.592ZM914.834 291.768C915.09 291.768 915.33 291.736 915.554 291.672C915.778 291.608 915.975 291.512 916.146 291.384C916.316 291.256 916.45 291.101 916.546 290.92C916.652 290.728 916.706 290.504 916.706 290.248V287.496C916.706 287.24 916.652 287.021 916.546 286.84C916.45 286.648 916.316 286.488 916.146 286.36C915.975 286.232 915.778 286.136 915.554 286.072C915.33 286.008 915.09 285.976 914.834 285.976C914.172 285.976 913.66 286.179 913.298 286.584C912.946 286.989 912.77 287.528 912.77 288.2V289.544C912.77 290.216 912.946 290.755 913.298 291.16C913.66 291.565 914.172 291.768 914.834 291.768ZM935.253 291.592H935.157C934.912 292.093 934.587 292.488 934.181 292.776C933.776 293.053 933.269 293.192 932.661 293.192C931.691 293.192 930.917 292.829 930.341 292.104C929.765 291.379 929.477 290.301 929.477 288.872C929.477 287.443 929.765 286.365 930.341 285.64C930.917 284.915 931.691 284.552 932.661 284.552C933.269 284.552 933.776 284.696 934.181 284.984C934.587 285.261 934.912 285.651 935.157 286.152H935.253V281.16H936.997V293H935.253V291.592ZM933.381 291.768C933.637 291.768 933.877 291.736 934.101 291.672C934.325 291.608 934.523 291.512 934.693 291.384C934.864 291.256 934.997 291.101 935.093 290.92C935.2 290.728 935.253 290.504 935.253 290.248V287.496C935.253 287.24 935.2 287.021 935.093 286.84C934.997 286.648 934.864 286.488 934.693 286.36C934.523 286.232 934.325 286.136 934.101 286.072C933.877 286.008 933.637 285.976 933.381 285.976C932.72 285.976 932.208 286.179 931.845 286.584C931.493 286.989 931.317 287.528 931.317 288.2V289.544C931.317 290.216 931.493 290.755 931.845 291.16C932.208 291.565 932.72 291.768 933.381 291.768ZM942.911 293.192C942.282 293.192 941.716 293.091 941.215 292.888C940.714 292.685 940.292 292.397 939.951 292.024C939.61 291.651 939.348 291.203 939.167 290.68C938.986 290.147 938.895 289.549 938.895 288.888C938.895 288.227 938.986 287.629 939.167 287.096C939.359 286.563 939.62 286.109 939.951 285.736C940.292 285.352 940.703 285.059 941.183 284.856C941.663 284.653 942.196 284.552 942.783 284.552C943.359 284.552 943.882 284.653 944.351 284.856C944.82 285.048 945.22 285.325 945.551 285.688C945.882 286.051 946.132 286.483 946.303 286.984C946.484 287.485 946.575 288.04 946.575 288.648V289.304H940.655V289.576C940.655 290.227 940.858 290.76 941.263 291.176C941.668 291.581 942.228 291.784 942.943 291.784C943.476 291.784 943.93 291.672 944.303 291.448C944.687 291.213 944.996 290.904 945.231 290.52L946.319 291.48C946.042 291.96 945.615 292.365 945.039 292.696C944.474 293.027 943.764 293.192 942.911 293.192ZM942.783 285.88C942.474 285.88 942.186 285.933 941.919 286.04C941.663 286.147 941.439 286.301 941.247 286.504C941.066 286.696 940.922 286.925 940.815 287.192C940.708 287.459 940.655 287.752 940.655 288.072V288.184H944.799V288.024C944.799 287.373 944.612 286.856 944.239 286.472C943.876 286.077 943.391 285.88 942.783 285.88ZM948.473 284.744H950.217V286.152H950.313C950.558 285.651 950.883 285.261 951.289 284.984C951.694 284.696 952.201 284.552 952.809 284.552C953.779 284.552 954.553 284.915 955.129 285.64C955.705 286.365 955.993 287.443 955.993 288.872C955.993 290.301 955.705 291.379 955.129 292.104C954.553 292.829 953.779 293.192 952.809 293.192C952.201 293.192 951.694 293.053 951.289 292.776C950.883 292.488 950.558 292.093 950.313 291.592H950.217V296.2H948.473V284.744ZM952.089 291.768C952.75 291.768 953.257 291.565 953.609 291.16C953.971 290.755 954.153 290.216 954.153 289.544V288.2C954.153 287.528 953.971 286.989 953.609 286.584C953.257 286.179 952.75 285.976 952.089 285.976C951.833 285.976 951.593 286.008 951.369 286.072C951.145 286.136 950.947 286.232 950.777 286.36C950.606 286.488 950.467 286.648 950.361 286.84C950.265 287.021 950.217 287.24 950.217 287.496V290.248C950.217 290.504 950.265 290.728 950.361 290.92C950.467 291.101 950.606 291.256 950.777 291.384C950.947 291.512 951.145 291.608 951.369 291.672C951.593 291.736 951.833 291.768 952.089 291.768ZM957.682 291.592H960.418V282.568H957.682V281.16H962.162V291.592H964.898V293H957.682V291.592ZM970.556 293.192C969.948 293.192 969.399 293.091 968.908 292.888C968.428 292.685 968.018 292.397 967.676 292.024C967.346 291.651 967.09 291.197 966.908 290.664C966.727 290.131 966.636 289.533 966.636 288.872C966.636 288.211 966.727 287.613 966.908 287.08C967.09 286.547 967.346 286.093 967.676 285.72C968.018 285.347 968.428 285.059 968.908 284.856C969.399 284.653 969.948 284.552 970.556 284.552C971.164 284.552 971.708 284.653 972.188 284.856C972.679 285.059 973.09 285.347 973.42 285.72C973.762 286.093 974.023 286.547 974.204 287.08C974.386 287.613 974.476 288.211 974.476 288.872C974.476 289.533 974.386 290.131 974.204 290.664C974.023 291.197 973.762 291.651 973.42 292.024C973.09 292.397 972.679 292.685 972.188 292.888C971.708 293.091 971.164 293.192 970.556 293.192ZM970.556 291.816C971.196 291.816 971.703 291.624 972.076 291.24C972.46 290.845 972.652 290.264 972.652 289.496V288.248C972.652 287.48 972.46 286.904 972.076 286.52C971.703 286.125 971.196 285.928 970.556 285.928C969.916 285.928 969.404 286.125 969.02 286.52C968.647 286.904 968.46 287.48 968.46 288.248V289.496C968.46 290.264 968.647 290.845 969.02 291.24C969.404 291.624 969.916 291.816 970.556 291.816ZM982.246 284.744H984.006L980.006 294.6C979.793 295.133 979.51 295.533 979.158 295.8C978.817 296.067 978.321 296.2 977.67 296.2H976.278V294.792H978.23L978.982 292.888L975.654 284.744H977.478L978.79 288.2L979.814 291.032H979.91L980.934 288.2L982.246 284.744Z" fill="white"/>
<rect x="797.5" y="259.5" width="207" height="55" rx="14.5" stroke="#333840"/>
<rect x="796.5" y="105.5" width="142" height="55" rx="14.5" fill="#262A30"/>
<path d="M822.926 137.592H822.83C822.585 138.093 822.26 138.488 821.854 138.776C821.449 139.053 820.942 139.192 820.334 139.192C819.364 139.192 818.59 138.829 818.014 138.104C817.438 137.379 817.15 136.301 817.15 134.872C817.15 133.443 817.438 132.365 818.014 131.64C818.59 130.915 819.364 130.552 820.334 130.552C820.942 130.552 821.449 130.696 821.854 130.984C822.26 131.261 822.585 131.651 822.83 132.152H822.926V127.16H824.67V139H822.926V137.592ZM821.054 137.768C821.31 137.768 821.55 137.736 821.774 137.672C821.998 137.608 822.196 137.512 822.366 137.384C822.537 137.256 822.67 137.101 822.766 136.92C822.873 136.728 822.926 136.504 822.926 136.248V133.496C822.926 133.24 822.873 133.021 822.766 132.84C822.67 132.648 822.537 132.488 822.366 132.36C822.196 132.232 821.998 132.136 821.774 132.072C821.55 132.008 821.31 131.976 821.054 131.976C820.393 131.976 819.881 132.179 819.518 132.584C819.166 132.989 818.99 133.528 818.99 134.2V135.544C818.99 136.216 819.166 136.755 819.518 137.16C819.881 137.565 820.393 137.768 821.054 137.768ZM830.408 139.192C829.8 139.192 829.251 139.091 828.76 138.888C828.28 138.685 827.869 138.397 827.528 138.024C827.197 137.651 826.941 137.197 826.76 136.664C826.579 136.131 826.488 135.533 826.488 134.872C826.488 134.211 826.579 133.613 826.76 133.08C826.941 132.547 827.197 132.093 827.528 131.72C827.869 131.347 828.28 131.059 828.76 130.856C829.251 130.653 829.8 130.552 830.408 130.552C831.016 130.552 831.56 130.653 832.04 130.856C832.531 131.059 832.941 131.347 833.272 131.72C833.613 132.093 833.875 132.547 834.056 133.08C834.237 133.613 834.328 134.211 834.328 134.872C834.328 135.533 834.237 136.131 834.056 136.664C833.875 137.197 833.613 137.651 833.272 138.024C832.941 138.397 832.531 138.685 832.04 138.888C831.56 139.091 831.016 139.192 830.408 139.192ZM830.408 137.816C831.048 137.816 831.555 137.624 831.928 137.24C832.312 136.845 832.504 136.264 832.504 135.496V134.248C832.504 133.48 832.312 132.904 831.928 132.52C831.555 132.125 831.048 131.928 830.408 131.928C829.768 131.928 829.256 132.125 828.872 132.52C828.499 132.904 828.312 133.48 828.312 134.248V135.496C828.312 136.264 828.499 136.845 828.872 137.24C829.256 137.624 829.768 137.816 830.408 137.816ZM836.114 139V137.464L841.138 132.152H836.29V130.744H843.09V132.28L838.066 137.592H843.25V139H836.114ZM849.132 139.192C848.502 139.192 847.937 139.091 847.436 138.888C846.934 138.685 846.513 138.397 846.172 138.024C845.83 137.651 845.569 137.203 845.388 136.68C845.206 136.147 845.116 135.549 845.116 134.888C845.116 134.227 845.206 133.629 845.388 133.096C845.58 132.563 845.841 132.109 846.172 131.736C846.513 131.352 846.924 131.059 847.404 130.856C847.884 130.653 848.417 130.552 849.004 130.552C849.58 130.552 850.102 130.653 850.572 130.856C851.041 131.048 851.441 131.325 851.772 131.688C852.102 132.051 852.353 132.483 852.524 132.984C852.705 133.485 852.796 134.04 852.796 134.648V135.304H846.876V135.576C846.876 136.227 847.078 136.76 847.484 137.176C847.889 137.581 848.449 137.784 849.164 137.784C849.697 137.784 850.15 137.672 850.524 137.448C850.908 137.213 851.217 136.904 851.452 136.52L852.54 137.48C852.262 137.96 851.836 138.365 851.26 138.696C850.694 139.027 849.985 139.192 849.132 139.192ZM849.004 131.88C848.694 131.88 848.406 131.933 848.14 132.04C847.884 132.147 847.66 132.301 847.468 132.504C847.286 132.696 847.142 132.925 847.036 133.192C846.929 133.459 846.876 133.752 846.876 134.072V134.184H851.02V134.024C851.02 133.373 850.833 132.856 850.46 132.472C850.097 132.077 849.612 131.88 849.004 131.88ZM854.645 137.592H856.837V132.152H854.645V130.744H858.581V132.936H858.677C858.752 132.648 858.859 132.371 858.997 132.104C859.136 131.837 859.312 131.608 859.525 131.416C859.739 131.213 860 131.053 860.309 130.936C860.619 130.808 860.981 130.744 861.397 130.744H862.389V132.408H860.757C860.117 132.408 859.595 132.6 859.189 132.984C858.784 133.357 858.581 133.864 858.581 134.504V137.592H861.573V139H854.645V137.592ZM873.241 127.16H874.985V132.152H875.081C875.326 131.651 875.652 131.261 876.057 130.984C876.462 130.696 876.969 130.552 877.577 130.552C878.548 130.552 879.321 130.915 879.897 131.64C880.473 132.365 880.761 133.443 880.761 134.872C880.761 136.301 880.473 137.379 879.897 138.104C879.321 138.829 878.548 139.192 877.577 139.192C876.969 139.192 876.462 139.053 876.057 138.776C875.652 138.488 875.326 138.093 875.081 137.592H874.985V139H873.241V127.16ZM876.857 137.768C877.518 137.768 878.025 137.565 878.377 137.16C878.74 136.755 878.921 136.216 878.921 135.544V134.2C878.921 133.528 878.74 132.989 878.377 132.584C878.025 132.179 877.518 131.976 876.857 131.976C876.601 131.976 876.361 132.008 876.137 132.072C875.913 132.136 875.716 132.232 875.545 132.36C875.374 132.488 875.236 132.648 875.129 132.84C875.033 133.021 874.985 133.24 874.985 133.496V136.248C874.985 136.504 875.033 136.728 875.129 136.92C875.236 137.101 875.374 137.256 875.545 137.384C875.716 137.512 875.913 137.608 876.137 137.672C876.361 137.736 876.601 137.768 876.857 137.768ZM887.763 137.592H887.683C887.597 137.805 887.485 138.013 887.347 138.216C887.219 138.408 887.059 138.579 886.867 138.728C886.675 138.867 886.451 138.979 886.195 139.064C885.939 139.149 885.64 139.192 885.299 139.192C884.467 139.192 883.795 138.92 883.283 138.376C882.771 137.832 882.515 137.059 882.515 136.056V130.744H884.259V135.8C884.259 137.112 884.829 137.768 885.971 137.768C886.195 137.768 886.413 137.741 886.627 137.688C886.84 137.624 887.032 137.533 887.203 137.416C887.373 137.299 887.507 137.155 887.603 136.984C887.709 136.803 887.763 136.589 887.763 136.344V130.744H889.507V139H887.763V137.592ZM895.836 129.24C895.388 129.24 895.074 129.149 894.892 128.968C894.722 128.787 894.636 128.563 894.636 128.296V127.96C894.636 127.693 894.722 127.469 894.892 127.288C895.074 127.107 895.383 127.016 895.82 127.016C896.268 127.016 896.578 127.107 896.748 127.288C896.93 127.469 897.02 127.693 897.02 127.96V128.296C897.02 128.563 896.93 128.787 896.748 128.968C896.578 129.149 896.274 129.24 895.836 129.24ZM892.14 137.592H894.956V132.152H892.14V130.744H896.7V137.592H899.34V139H892.14V137.592ZM900.998 137.592H903.734V128.568H900.998V127.16H905.478V137.592H908.214V139H900.998V137.592ZM915.664 137.592H915.568C915.323 138.093 914.997 138.488 914.592 138.776C914.187 139.053 913.68 139.192 913.072 139.192C912.101 139.192 911.328 138.829 910.752 138.104C910.176 137.379 909.888 136.301 909.888 134.872C909.888 133.443 910.176 132.365 910.752 131.64C911.328 130.915 912.101 130.552 913.072 130.552C913.68 130.552 914.187 130.696 914.592 130.984C914.997 131.261 915.323 131.651 915.568 132.152H915.664V127.16H917.408V139H915.664V137.592ZM913.792 137.768C914.048 137.768 914.288 137.736 914.512 137.672C914.736 137.608 914.933 137.512 915.104 137.384C915.275 137.256 915.408 137.101 915.504 136.92C915.611 136.728 915.664 136.504 915.664 136.248V133.496C915.664 133.24 915.611 133.021 915.504 132.84C915.408 132.648 915.275 132.488 915.104 132.36C914.933 132.232 914.736 132.136 914.512 132.072C914.288 132.008 914.048 131.976 913.792 131.976C913.131 131.976 912.619 132.179 912.256 132.584C911.904 132.989 911.728 133.528 911.728 134.2V135.544C911.728 136.216 911.904 136.755 912.256 137.16C912.619 137.565 913.131 137.768 913.792 137.768Z" fill="white"/>
<rect x="796.5" y="105.5" width="142" height="55" rx="14.5" stroke="#333840"/>
<rect x="1284.5" y="105.5" width="160" height="55" rx="14.5" fill="#262A30"/>
<path d="M1310.65 137.592H1310.56C1310.31 138.093 1309.99 138.488 1309.58 138.776C1309.18 139.053 1308.67 139.192 1308.06 139.192C1307.09 139.192 1306.32 138.829 1305.74 138.104C1305.16 137.379 1304.88 136.301 1304.88 134.872C1304.88 133.443 1305.16 132.365 1305.74 131.64C1306.32 130.915 1307.09 130.552 1308.06 130.552C1308.67 130.552 1309.18 130.696 1309.58 130.984C1309.99 131.261 1310.31 131.651 1310.56 132.152H1310.65V127.16H1312.4V139H1310.65V137.592ZM1308.78 137.768C1309.04 137.768 1309.28 137.736 1309.5 137.672C1309.72 137.608 1309.92 137.512 1310.09 137.384C1310.26 137.256 1310.4 137.101 1310.49 136.92C1310.6 136.728 1310.65 136.504 1310.65 136.248V133.496C1310.65 133.24 1310.6 133.021 1310.49 132.84C1310.4 132.648 1310.26 132.488 1310.09 132.36C1309.92 132.232 1309.72 132.136 1309.5 132.072C1309.28 132.008 1309.04 131.976 1308.78 131.976C1308.12 131.976 1307.61 132.179 1307.24 132.584C1306.89 132.989 1306.72 133.528 1306.72 134.2V135.544C1306.72 136.216 1306.89 136.755 1307.24 137.16C1307.61 137.565 1308.12 137.768 1308.78 137.768ZM1318.13 139.192C1317.53 139.192 1316.98 139.091 1316.49 138.888C1316.01 138.685 1315.6 138.397 1315.25 138.024C1314.92 137.651 1314.67 137.197 1314.49 136.664C1314.31 136.131 1314.21 135.533 1314.21 134.872C1314.21 134.211 1314.31 133.613 1314.49 133.08C1314.67 132.547 1314.92 132.093 1315.25 131.72C1315.6 131.347 1316.01 131.059 1316.49 130.856C1316.98 130.653 1317.53 130.552 1318.13 130.552C1318.74 130.552 1319.29 130.653 1319.77 130.856C1320.26 131.059 1320.67 131.347 1321 131.72C1321.34 132.093 1321.6 132.547 1321.78 133.08C1321.96 133.613 1322.05 134.211 1322.05 134.872C1322.05 135.533 1321.96 136.131 1321.78 136.664C1321.6 137.197 1321.34 137.651 1321 138.024C1320.67 138.397 1320.26 138.685 1319.77 138.888C1319.29 139.091 1318.74 139.192 1318.13 139.192ZM1318.13 137.816C1318.77 137.816 1319.28 137.624 1319.65 137.24C1320.04 136.845 1320.23 136.264 1320.23 135.496V134.248C1320.23 133.48 1320.04 132.904 1319.65 132.52C1319.28 132.125 1318.77 131.928 1318.13 131.928C1317.49 131.928 1316.98 132.125 1316.6 132.52C1316.23 132.904 1316.04 133.48 1316.04 134.248V135.496C1316.04 136.264 1316.23 136.845 1316.6 137.24C1316.98 137.624 1317.49 137.816 1318.13 137.816ZM1323.84 139V137.464L1328.86 132.152H1324.02V130.744H1330.82V132.28L1325.79 137.592H1330.98V139H1323.84ZM1336.86 139.192C1336.23 139.192 1335.66 139.091 1335.16 138.888C1334.66 138.685 1334.24 138.397 1333.9 138.024C1333.56 137.651 1333.3 137.203 1333.11 136.68C1332.93 136.147 1332.84 135.549 1332.84 134.888C1332.84 134.227 1332.93 133.629 1333.11 133.096C1333.31 132.563 1333.57 132.109 1333.9 131.736C1334.24 131.352 1334.65 131.059 1335.13 130.856C1335.61 130.653 1336.14 130.552 1336.73 130.552C1337.31 130.552 1337.83 130.653 1338.3 130.856C1338.77 131.048 1339.17 131.325 1339.5 131.688C1339.83 132.051 1340.08 132.483 1340.25 132.984C1340.43 133.485 1340.52 134.04 1340.52 134.648V135.304H1334.6V135.576C1334.6 136.227 1334.8 136.76 1335.21 137.176C1335.62 137.581 1336.18 137.784 1336.89 137.784C1337.42 137.784 1337.88 137.672 1338.25 137.448C1338.63 137.213 1338.94 136.904 1339.18 136.52L1340.27 137.48C1339.99 137.96 1339.56 138.365 1338.99 138.696C1338.42 139.027 1337.71 139.192 1336.86 139.192ZM1336.73 131.88C1336.42 131.88 1336.13 131.933 1335.87 132.04C1335.61 132.147 1335.39 132.301 1335.19 132.504C1335.01 132.696 1334.87 132.925 1334.76 133.192C1334.66 133.459 1334.6 133.752 1334.6 134.072V134.184H1338.75V134.024C1338.75 133.373 1338.56 132.856 1338.19 132.472C1337.82 132.077 1337.34 131.88 1336.73 131.88ZM1342.37 137.592H1344.56V132.152H1342.37V130.744H1346.31V132.936H1346.4C1346.48 132.648 1346.58 132.371 1346.72 132.104C1346.86 131.837 1347.04 131.608 1347.25 131.416C1347.46 131.213 1347.73 131.053 1348.04 130.936C1348.34 130.808 1348.71 130.744 1349.12 130.744H1350.12V132.408H1348.48C1347.84 132.408 1347.32 132.6 1346.92 132.984C1346.51 133.357 1346.31 133.864 1346.31 134.504V137.592H1349.3V139H1342.37V137.592ZM1367.58 139C1367.07 139 1366.7 138.872 1366.44 138.616C1366.19 138.36 1366.04 138.024 1365.99 137.608H1365.91C1365.75 138.109 1365.46 138.499 1365.03 138.776C1364.62 139.053 1364.08 139.192 1363.43 139.192C1362.59 139.192 1361.92 138.973 1361.42 138.536C1360.91 138.088 1360.66 137.475 1360.66 136.696C1360.66 135.896 1360.96 135.288 1361.54 134.872C1362.14 134.445 1363.05 134.232 1364.28 134.232H1365.86V133.592C1365.86 132.472 1365.27 131.912 1364.09 131.912C1363.55 131.912 1363.12 132.019 1362.79 132.232C1362.46 132.435 1362.18 132.707 1361.96 133.048L1360.92 132.2C1361.15 131.752 1361.55 131.368 1362.1 131.048C1362.66 130.717 1363.37 130.552 1364.25 130.552C1365.29 130.552 1366.11 130.803 1366.71 131.304C1367.31 131.805 1367.61 132.531 1367.61 133.48V137.624H1368.65V139H1367.58ZM1363.93 137.912C1364.49 137.912 1364.96 137.784 1365.32 137.528C1365.68 137.272 1365.86 136.941 1365.86 136.536V135.336H1364.31C1363.05 135.336 1362.42 135.715 1362.42 136.472V136.792C1362.42 137.165 1362.56 137.448 1362.82 137.64C1363.09 137.821 1363.46 137.912 1363.93 137.912ZM1370.24 130.744H1371.98V132.152H1372.08C1372.33 131.651 1372.65 131.261 1373.06 130.984C1373.46 130.696 1373.97 130.552 1374.58 130.552C1375.55 130.552 1376.32 130.915 1376.9 131.64C1377.47 132.365 1377.76 133.443 1377.76 134.872C1377.76 136.301 1377.47 137.379 1376.9 138.104C1376.32 138.829 1375.55 139.192 1374.58 139.192C1373.97 139.192 1373.46 139.053 1373.06 138.776C1372.65 138.488 1372.33 138.093 1372.08 137.592H1371.98V142.2H1370.24V130.744ZM1373.86 137.768C1374.52 137.768 1375.02 137.565 1375.38 137.16C1375.74 136.755 1375.92 136.216 1375.92 135.544V134.2C1375.92 133.528 1375.74 132.989 1375.38 132.584C1375.02 132.179 1374.52 131.976 1373.86 131.976C1373.6 131.976 1373.36 132.008 1373.14 132.072C1372.91 132.136 1372.72 132.232 1372.54 132.36C1372.37 132.488 1372.24 132.648 1372.13 132.84C1372.03 133.021 1371.98 133.24 1371.98 133.496V136.248C1371.98 136.504 1372.03 136.728 1372.13 136.92C1372.24 137.101 1372.37 137.256 1372.54 137.384C1372.72 137.512 1372.91 137.608 1373.14 137.672C1373.36 137.736 1373.6 137.768 1373.86 137.768ZM1383.56 129.24C1383.11 129.24 1382.8 129.149 1382.62 128.968C1382.45 128.787 1382.36 128.563 1382.36 128.296V127.96C1382.36 127.693 1382.45 127.469 1382.62 127.288C1382.8 127.107 1383.11 127.016 1383.55 127.016C1383.99 127.016 1384.3 127.107 1384.47 127.288C1384.66 127.469 1384.75 127.693 1384.75 127.96V128.296C1384.75 128.563 1384.66 128.787 1384.47 128.968C1384.3 129.149 1384 129.24 1383.56 129.24ZM1379.87 137.592H1382.68V132.152H1379.87V130.744H1384.43V137.592H1387.07V139H1379.87V137.592ZM1398.01 137.592H1400.21V132.152H1398.01V130.744H1401.95V132.936H1402.05C1402.12 132.648 1402.23 132.371 1402.37 132.104C1402.5 131.837 1402.68 131.608 1402.89 131.416C1403.11 131.213 1403.37 131.053 1403.68 130.936C1403.99 130.808 1404.35 130.744 1404.77 130.744H1405.76V132.408H1404.13C1403.49 132.408 1402.96 132.6 1402.56 132.984C1402.15 133.357 1401.95 133.864 1401.95 134.504V137.592H1404.94V139H1398.01V137.592ZM1412.58 137.592H1412.5C1412.42 137.805 1412.31 138.013 1412.17 138.216C1412.04 138.408 1411.88 138.579 1411.69 138.728C1411.5 138.867 1411.27 138.979 1411.02 139.064C1410.76 139.149 1410.46 139.192 1410.12 139.192C1409.29 139.192 1408.62 138.92 1408.1 138.376C1407.59 137.832 1407.34 137.059 1407.34 136.056V130.744H1409.08V135.8C1409.08 137.112 1409.65 137.768 1410.79 137.768C1411.02 137.768 1411.23 137.741 1411.45 137.688C1411.66 137.624 1411.85 137.533 1412.02 137.416C1412.19 137.299 1412.33 137.155 1412.42 136.984C1412.53 136.803 1412.58 136.589 1412.58 136.344V130.744H1414.33V139H1412.58V137.592ZM1416.69 139V130.744H1418.43V132.152H1418.51C1418.6 131.939 1418.71 131.736 1418.83 131.544C1418.97 131.341 1419.14 131.171 1419.33 131.032C1419.52 130.883 1419.75 130.765 1420 130.68C1420.26 130.595 1420.56 130.552 1420.9 130.552C1421.73 130.552 1422.4 130.824 1422.91 131.368C1423.43 131.912 1423.68 132.685 1423.68 133.688V139H1421.94V133.944C1421.94 132.632 1421.37 131.976 1420.23 131.976C1420 131.976 1419.78 132.008 1419.57 132.072C1419.36 132.125 1419.16 132.211 1418.99 132.328C1418.82 132.445 1418.68 132.595 1418.58 132.776C1418.48 132.957 1418.43 133.165 1418.43 133.4V139H1416.69Z" fill="white"/>
<rect x="1284.5" y="105.5" width="160" height="55" rx="14.5" stroke="#333840"/>
<rect x="1030.5" y="105.5" width="160" height="55" rx="14.5" fill="#262A30"/>
<path d="M1056.65 137.592H1056.56C1056.31 138.093 1055.99 138.488 1055.58 138.776C1055.18 139.053 1054.67 139.192 1054.06 139.192C1053.09 139.192 1052.32 138.829 1051.74 138.104C1051.16 137.379 1050.88 136.301 1050.88 134.872C1050.88 133.443 1051.16 132.365 1051.74 131.64C1052.32 130.915 1053.09 130.552 1054.06 130.552C1054.67 130.552 1055.18 130.696 1055.58 130.984C1055.99 131.261 1056.31 131.651 1056.56 132.152H1056.65V127.16H1058.4V139H1056.65V137.592ZM1054.78 137.768C1055.04 137.768 1055.28 137.736 1055.5 137.672C1055.72 137.608 1055.92 137.512 1056.09 137.384C1056.26 137.256 1056.4 137.101 1056.49 136.92C1056.6 136.728 1056.65 136.504 1056.65 136.248V133.496C1056.65 133.24 1056.6 133.021 1056.49 132.84C1056.4 132.648 1056.26 132.488 1056.09 132.36C1055.92 132.232 1055.72 132.136 1055.5 132.072C1055.28 132.008 1055.04 131.976 1054.78 131.976C1054.12 131.976 1053.61 132.179 1053.24 132.584C1052.89 132.989 1052.72 133.528 1052.72 134.2V135.544C1052.72 136.216 1052.89 136.755 1053.24 137.16C1053.61 137.565 1054.12 137.768 1054.78 137.768ZM1064.13 139.192C1063.53 139.192 1062.98 139.091 1062.49 138.888C1062.01 138.685 1061.6 138.397 1061.25 138.024C1060.92 137.651 1060.67 137.197 1060.49 136.664C1060.31 136.131 1060.21 135.533 1060.21 134.872C1060.21 134.211 1060.31 133.613 1060.49 133.08C1060.67 132.547 1060.92 132.093 1061.25 131.72C1061.6 131.347 1062.01 131.059 1062.49 130.856C1062.98 130.653 1063.53 130.552 1064.13 130.552C1064.74 130.552 1065.29 130.653 1065.77 130.856C1066.26 131.059 1066.67 131.347 1067 131.72C1067.34 132.093 1067.6 132.547 1067.78 133.08C1067.96 133.613 1068.05 134.211 1068.05 134.872C1068.05 135.533 1067.96 136.131 1067.78 136.664C1067.6 137.197 1067.34 137.651 1067 138.024C1066.67 138.397 1066.26 138.685 1065.77 138.888C1065.29 139.091 1064.74 139.192 1064.13 139.192ZM1064.13 137.816C1064.77 137.816 1065.28 137.624 1065.65 137.24C1066.04 136.845 1066.23 136.264 1066.23 135.496V134.248C1066.23 133.48 1066.04 132.904 1065.65 132.52C1065.28 132.125 1064.77 131.928 1064.13 131.928C1063.49 131.928 1062.98 132.125 1062.6 132.52C1062.23 132.904 1062.04 133.48 1062.04 134.248V135.496C1062.04 136.264 1062.23 136.845 1062.6 137.24C1062.98 137.624 1063.49 137.816 1064.13 137.816ZM1069.84 139V137.464L1074.86 132.152H1070.02V130.744H1076.82V132.28L1071.79 137.592H1076.98V139H1069.84ZM1082.86 139.192C1082.23 139.192 1081.66 139.091 1081.16 138.888C1080.66 138.685 1080.24 138.397 1079.9 138.024C1079.56 137.651 1079.3 137.203 1079.11 136.68C1078.93 136.147 1078.84 135.549 1078.84 134.888C1078.84 134.227 1078.93 133.629 1079.11 133.096C1079.31 132.563 1079.57 132.109 1079.9 131.736C1080.24 131.352 1080.65 131.059 1081.13 130.856C1081.61 130.653 1082.14 130.552 1082.73 130.552C1083.31 130.552 1083.83 130.653 1084.3 130.856C1084.77 131.048 1085.17 131.325 1085.5 131.688C1085.83 132.051 1086.08 132.483 1086.25 132.984C1086.43 133.485 1086.52 134.04 1086.52 134.648V135.304H1080.6V135.576C1080.6 136.227 1080.8 136.76 1081.21 137.176C1081.62 137.581 1082.18 137.784 1082.89 137.784C1083.42 137.784 1083.88 137.672 1084.25 137.448C1084.63 137.213 1084.94 136.904 1085.18 136.52L1086.27 137.48C1085.99 137.96 1085.56 138.365 1084.99 138.696C1084.42 139.027 1083.71 139.192 1082.86 139.192ZM1082.73 131.88C1082.42 131.88 1082.13 131.933 1081.87 132.04C1081.61 132.147 1081.39 132.301 1081.19 132.504C1081.01 132.696 1080.87 132.925 1080.76 133.192C1080.66 133.459 1080.6 133.752 1080.6 134.072V134.184H1084.75V134.024C1084.75 133.373 1084.56 132.856 1084.19 132.472C1083.82 132.077 1083.34 131.88 1082.73 131.88ZM1088.37 137.592H1090.56V132.152H1088.37V130.744H1092.31V132.936H1092.4C1092.48 132.648 1092.58 132.371 1092.72 132.104C1092.86 131.837 1093.04 131.608 1093.25 131.416C1093.46 131.213 1093.73 131.053 1094.04 130.936C1094.34 130.808 1094.71 130.744 1095.12 130.744H1096.12V132.408H1094.48C1093.84 132.408 1093.32 132.6 1092.92 132.984C1092.51 133.357 1092.31 133.864 1092.31 134.504V137.592H1095.3V139H1088.37V137.592ZM1113.58 139C1113.07 139 1112.7 138.872 1112.44 138.616C1112.19 138.36 1112.04 138.024 1111.99 137.608H1111.91C1111.75 138.109 1111.46 138.499 1111.03 138.776C1110.62 139.053 1110.08 139.192 1109.43 139.192C1108.59 139.192 1107.92 138.973 1107.42 138.536C1106.91 138.088 1106.66 137.475 1106.66 136.696C1106.66 135.896 1106.96 135.288 1107.54 134.872C1108.14 134.445 1109.05 134.232 1110.28 134.232H1111.86V133.592C1111.86 132.472 1111.27 131.912 1110.09 131.912C1109.55 131.912 1109.12 132.019 1108.79 132.232C1108.46 132.435 1108.18 132.707 1107.96 133.048L1106.92 132.2C1107.15 131.752 1107.55 131.368 1108.1 131.048C1108.66 130.717 1109.37 130.552 1110.25 130.552C1111.29 130.552 1112.11 130.803 1112.71 131.304C1113.31 131.805 1113.61 132.531 1113.61 133.48V137.624H1114.65V139H1113.58ZM1109.93 137.912C1110.49 137.912 1110.96 137.784 1111.32 137.528C1111.68 137.272 1111.86 136.941 1111.86 136.536V135.336H1110.31C1109.05 135.336 1108.42 135.715 1108.42 136.472V136.792C1108.42 137.165 1108.56 137.448 1108.82 137.64C1109.09 137.821 1109.46 137.912 1109.93 137.912ZM1116.24 130.744H1117.98V132.152H1118.08C1118.33 131.651 1118.65 131.261 1119.06 130.984C1119.46 130.696 1119.97 130.552 1120.58 130.552C1121.55 130.552 1122.32 130.915 1122.9 131.64C1123.47 132.365 1123.76 133.443 1123.76 134.872C1123.76 136.301 1123.47 137.379 1122.9 138.104C1122.32 138.829 1121.55 139.192 1120.58 139.192C1119.97 139.192 1119.46 139.053 1119.06 138.776C1118.65 138.488 1118.33 138.093 1118.08 137.592H1117.98V142.2H1116.24V130.744ZM1119.86 137.768C1120.52 137.768 1121.02 137.565 1121.38 137.16C1121.74 136.755 1121.92 136.216 1121.92 135.544V134.2C1121.92 133.528 1121.74 132.989 1121.38 132.584C1121.02 132.179 1120.52 131.976 1119.86 131.976C1119.6 131.976 1119.36 132.008 1119.14 132.072C1118.91 132.136 1118.72 132.232 1118.54 132.36C1118.37 132.488 1118.24 132.648 1118.13 132.84C1118.03 133.021 1117.98 133.24 1117.98 133.496V136.248C1117.98 136.504 1118.03 136.728 1118.13 136.92C1118.24 137.101 1118.37 137.256 1118.54 137.384C1118.72 137.512 1118.91 137.608 1119.14 137.672C1119.36 137.736 1119.6 137.768 1119.86 137.768ZM1125.51 130.744H1127.26V132.152H1127.35C1127.6 131.651 1127.93 131.261 1128.33 130.984C1128.74 130.696 1129.24 130.552 1129.85 130.552C1130.82 130.552 1131.59 130.915 1132.17 131.64C1132.75 132.365 1133.03 133.443 1133.03 134.872C1133.03 136.301 1132.75 137.379 1132.17 138.104C1131.59 138.829 1130.82 139.192 1129.85 139.192C1129.24 139.192 1128.74 139.053 1128.33 138.776C1127.93 138.488 1127.6 138.093 1127.35 137.592H1127.26V142.2H1125.51V130.744ZM1129.13 137.768C1129.79 137.768 1130.3 137.565 1130.65 137.16C1131.01 136.755 1131.19 136.216 1131.19 135.544V134.2C1131.19 133.528 1131.01 132.989 1130.65 132.584C1130.3 132.179 1129.79 131.976 1129.13 131.976C1128.87 131.976 1128.63 132.008 1128.41 132.072C1128.19 132.136 1127.99 132.232 1127.82 132.36C1127.65 132.488 1127.51 132.648 1127.4 132.84C1127.31 133.021 1127.26 133.24 1127.26 133.496V136.248C1127.26 136.504 1127.31 136.728 1127.4 136.92C1127.51 137.101 1127.65 137.256 1127.82 137.384C1127.99 137.512 1128.19 137.608 1128.41 137.672C1128.63 137.736 1128.87 137.768 1129.13 137.768ZM1144.01 137.592H1146.21V132.152H1144.01V130.744H1147.95V132.936H1148.05C1148.12 132.648 1148.23 132.371 1148.37 132.104C1148.5 131.837 1148.68 131.608 1148.89 131.416C1149.11 131.213 1149.37 131.053 1149.68 130.936C1149.99 130.808 1150.35 130.744 1150.77 130.744H1151.76V132.408H1150.13C1149.49 132.408 1148.96 132.6 1148.56 132.984C1148.15 133.357 1147.95 133.864 1147.95 134.504V137.592H1150.94V139H1144.01V137.592ZM1158.58 137.592H1158.5C1158.42 137.805 1158.31 138.013 1158.17 138.216C1158.04 138.408 1157.88 138.579 1157.69 138.728C1157.5 138.867 1157.27 138.979 1157.02 139.064C1156.76 139.149 1156.46 139.192 1156.12 139.192C1155.29 139.192 1154.62 138.92 1154.1 138.376C1153.59 137.832 1153.34 137.059 1153.34 136.056V130.744H1155.08V135.8C1155.08 137.112 1155.65 137.768 1156.79 137.768C1157.02 137.768 1157.23 137.741 1157.45 137.688C1157.66 137.624 1157.85 137.533 1158.02 137.416C1158.19 137.299 1158.33 137.155 1158.42 136.984C1158.53 136.803 1158.58 136.589 1158.58 136.344V130.744H1160.33V139H1158.58V137.592ZM1162.69 139V130.744H1164.43V132.152H1164.51C1164.6 131.939 1164.71 131.736 1164.83 131.544C1164.97 131.341 1165.14 131.171 1165.33 131.032C1165.52 130.883 1165.75 130.765 1166 130.68C1166.26 130.595 1166.56 130.552 1166.9 130.552C1167.73 130.552 1168.4 130.824 1168.91 131.368C1169.43 131.912 1169.68 132.685 1169.68 133.688V139H1167.94V133.944C1167.94 132.632 1167.37 131.976 1166.23 131.976C1166 131.976 1165.78 132.008 1165.57 132.072C1165.36 132.125 1165.16 132.211 1164.99 132.328C1164.82 132.445 1164.68 132.595 1164.58 132.776C1164.48 132.957 1164.43 133.165 1164.43 133.4V139H1162.69Z" fill="white"/>
<rect x="1030.5" y="105.5" width="160" height="55" rx="14.5" stroke="#333840"/>
<path d="M257.667 209C257.667 211.946 260.054 214.333 263 214.333C265.946 214.333 268.333 211.946 268.333 209C268.333 206.054 265.946 203.667 263 203.667C260.054 203.667 257.667 206.054 257.667 209ZM322 209L312 203.226V214.774L322 209ZM263 210H313V208H263V210Z" fill="#F142B5"/>
<path d="M472.667 209C472.667 211.946 475.054 214.333 478 214.333C480.946 214.333 483.333 211.946 483.333 209C483.333 206.054 480.946 203.667 478 203.667C475.054 203.667 472.667 206.054 472.667 209ZM537 209L527 203.226V214.774L537 209ZM478 210H528V208H478V210Z" fill="#F142B5"/>
<path d="M1203.67 133C1203.67 135.946 1206.05 138.333 1209 138.333C1211.95 138.333 1214.33 135.946 1214.33 133C1214.33 130.054 1211.95 127.667 1209 127.667C1206.05 127.667 1203.67 130.054 1203.67 133ZM1268 133L1258 127.226V138.774L1268 133ZM1209 134H1259V132H1209V134Z" fill="#F142B5"/>
<path d="M680.511 203.119C682.205 205.529 685.531 206.109 687.941 204.415C690.351 202.721 690.931 199.395 689.237 196.985C687.543 194.575 684.216 193.995 681.807 195.689C679.397 197.383 678.817 200.71 680.511 203.119ZM787.874 136.051L777.874 130.278L777.874 141.825L787.874 136.051ZM721.874 200.052L721.874 201.052L722.874 201.052L722.874 200.052L721.874 200.052ZM721.874 136.051L721.874 135.051L720.874 135.051L720.874 136.051L721.874 136.051ZM684.874 201.052L721.874 201.052L721.874 199.052L684.874 199.052L684.874 201.052ZM722.874 200.052L722.874 136.051L720.874 136.051L720.874 200.052L722.874 200.052ZM721.874 137.051L778.874 137.051L778.874 135.051L721.874 135.051L721.874 137.051Z" fill="#F142B5"/>
<path d="M680.511 217.341C682.205 214.931 685.531 214.351 687.941 216.045C690.351 217.739 690.931 221.065 689.237 223.475C687.543 225.885 684.216 226.465 681.807 224.771C679.397 223.077 678.817 219.75 680.511 217.341ZM787.874 284.409L777.874 290.182L777.874 278.635L787.874 284.409ZM721.874 220.408L721.874 219.408L722.874 219.408L722.874 220.408L721.874 220.408ZM721.874 284.409L721.874 285.409L720.874 285.409L720.874 284.409L721.874 284.409ZM684.874 219.408L721.874 219.408L721.874 221.408L684.874 221.408L684.874 219.408ZM722.874 220.408L722.874 284.409L720.874 284.409L720.874 220.408L722.874 220.408ZM721.874 283.409L778.874 283.409L778.874 285.409L721.874 285.409L721.874 283.409Z" fill="#F142B5"/>
<path d="M949.667 133C949.667 135.946 952.054 138.333 955 138.333C957.946 138.333 960.333 135.946 960.333 133C960.333 130.054 957.946 127.667 955 127.667C952.054 127.667 949.667 130.054 949.667 133ZM1014 133L1004 127.226V138.774L1014 133ZM955 134H1005V132H955V134Z" fill="#F142B5"/>
<path d="M753 59L753 359" stroke="white" stroke-opacity="0.56" stroke-width="2" stroke-dasharray="4 4"/>
<path d="M1512 210L753 210" stroke="white" stroke-opacity="0.56" stroke-width="2" stroke-dasharray="4 4"/>
<path d="M293.818 73V61.7266H295.833V71.3047H300.997V73H293.818ZM307.342 73.2812C306.237 73.2812 305.287 73.0417 304.49 72.5625C303.698 72.0781 303.086 71.3932 302.654 70.5078C302.222 69.6224 302.006 68.5755 302.006 67.3672V67.3516C302.006 66.138 302.222 65.0911 302.654 64.2109C303.092 63.3255 303.709 62.6432 304.506 62.1641C305.308 61.6849 306.253 61.4453 307.342 61.4453C308.435 61.4453 309.381 61.6849 310.177 62.1641C310.974 62.6432 311.589 63.3255 312.021 64.2109C312.454 65.0964 312.67 66.1432 312.67 67.3516V67.3672C312.67 68.5755 312.454 69.6224 312.021 70.5078C311.594 71.3932 310.982 72.0781 310.185 72.5625C309.388 73.0417 308.441 73.2812 307.342 73.2812ZM307.342 71.5391C308.013 71.5391 308.594 71.3672 309.084 71.0234C309.573 70.6797 309.951 70.1953 310.217 69.5703C310.487 68.9453 310.623 68.2109 310.623 67.3672V67.3516C310.623 66.5026 310.487 65.7682 310.217 65.1484C309.951 64.5234 309.573 64.0417 309.084 63.7031C308.594 63.3594 308.013 63.1875 307.342 63.1875C306.675 63.1875 306.094 63.3594 305.599 63.7031C305.11 64.0417 304.73 64.5234 304.459 65.1484C304.193 65.7682 304.06 66.5026 304.06 67.3516V67.3672C304.06 68.2109 304.191 68.9453 304.451 69.5703C304.717 70.1953 305.094 70.6797 305.584 71.0234C306.079 71.3672 306.664 71.5391 307.342 71.5391ZM319.365 73.2812C318.298 73.2812 317.376 73.0417 316.6 72.5625C315.829 72.0833 315.232 71.4036 314.811 70.5234C314.394 69.638 314.186 68.5885 314.186 67.375V67.3594C314.186 66.1406 314.394 65.0911 314.811 64.2109C315.232 63.3255 315.829 62.6432 316.6 62.1641C317.371 61.6849 318.29 61.4453 319.357 61.4453C320.212 61.4453 320.982 61.6146 321.67 61.9531C322.357 62.2865 322.917 62.75 323.35 63.3438C323.782 63.9323 324.042 64.6094 324.131 65.375L324.123 65.4375H322.154L322.147 65.3984C322.053 64.9557 321.876 64.5703 321.615 64.2422C321.355 63.9089 321.032 63.651 320.647 63.4688C320.261 63.2812 319.831 63.1875 319.357 63.1875C318.722 63.1875 318.17 63.3568 317.701 63.6953C317.232 64.0339 316.871 64.5156 316.615 65.1406C316.365 65.7604 316.24 66.4974 316.24 67.3516V67.3672C316.24 68.2214 316.365 68.9609 316.615 69.5859C316.871 70.2109 317.232 70.6927 317.701 71.0312C318.17 71.3698 318.725 71.5391 319.365 71.5391C319.844 71.5391 320.274 71.4557 320.654 71.2891C321.04 71.1224 321.36 70.888 321.615 70.5859C321.876 70.2786 322.053 69.9193 322.147 69.5078L322.162 69.4609H324.131V69.5234C324.032 70.2734 323.769 70.9297 323.342 71.4922C322.915 72.0547 322.363 72.4948 321.686 72.8125C321.009 73.125 320.235 73.2812 319.365 73.2812ZM324.881 73L328.881 61.7266H330.553V63.8203H329.952L326.991 73H324.881ZM326.897 70.0859L327.42 68.5312H332.592L333.116 70.0859H326.897ZM333.045 73L330.084 63.8203V61.7266H331.147L335.155 73H333.045ZM336.772 73V61.7266H338.788V71.3047H343.952V73H336.772ZM349.757 73V61.7266H353.984C355.104 61.7266 356.057 61.9453 356.843 62.3828C357.635 62.8203 358.239 63.4557 358.656 64.2891C359.077 65.1224 359.288 66.1276 359.288 67.3047V67.3203C359.288 68.5234 359.08 69.5495 358.663 70.3984C358.247 71.2422 357.643 71.888 356.851 72.3359C356.064 72.7786 355.109 73 353.984 73H349.757ZM351.773 71.3047H353.718C354.463 71.3047 355.098 71.151 355.624 70.8438C356.15 70.5365 356.549 70.0885 356.82 69.5C357.096 68.9115 357.234 68.1953 357.234 67.3516V67.3359C357.234 66.513 357.093 65.8099 356.812 65.2266C356.536 64.638 356.135 64.1901 355.609 63.8828C355.083 63.5755 354.452 63.4219 353.718 63.4219H351.773V71.3047ZM361.281 73V61.7266H368.578V63.4219H363.297V66.4766H368.289V68.0781H363.297V71.3047H368.578V73H361.281ZM373.82 73L369.922 61.7266H372.141L374.93 70.6719H375.062L377.859 61.7266H380.078L376.172 73H373.82ZM381.703 73V61.7266H389V63.4219H383.719V66.4766H388.711V68.0781H383.719V71.3047H389V73H381.703ZM391.18 73V61.7266H393.196V71.3047H398.36V73H391.18ZM404.704 73.2812C403.6 73.2812 402.649 73.0417 401.853 72.5625C401.061 72.0781 400.449 71.3932 400.017 70.5078C399.584 69.6224 399.368 68.5755 399.368 67.3672V67.3516C399.368 66.138 399.584 65.0911 400.017 64.2109C400.454 63.3255 401.071 62.6432 401.868 62.1641C402.67 61.6849 403.616 61.4453 404.704 61.4453C405.798 61.4453 406.743 61.6849 407.54 62.1641C408.337 62.6432 408.951 63.3255 409.384 64.2109C409.816 65.0964 410.032 66.1432 410.032 67.3516V67.3672C410.032 68.5755 409.816 69.6224 409.384 70.5078C408.957 71.3932 408.345 72.0781 407.548 72.5625C406.751 73.0417 405.803 73.2812 404.704 73.2812ZM404.704 71.5391C405.376 71.5391 405.957 71.3672 406.446 71.0234C406.936 70.6797 407.313 70.1953 407.579 69.5703C407.85 68.9453 407.985 68.2109 407.985 67.3672V67.3516C407.985 66.5026 407.85 65.7682 407.579 65.1484C407.313 64.5234 406.936 64.0417 406.446 63.7031C405.957 63.3594 405.376 63.1875 404.704 63.1875C404.037 63.1875 403.457 63.3594 402.962 63.7031C402.472 64.0417 402.092 64.5234 401.821 65.1484C401.556 65.7682 401.423 66.5026 401.423 67.3516V67.3672C401.423 68.2109 401.553 68.9453 401.813 69.5703C402.079 70.1953 402.457 70.6797 402.946 71.0234C403.441 71.3672 404.027 71.5391 404.704 71.5391ZM413.033 69.2734V67.6484H416.033C416.756 67.6484 417.319 67.4635 417.72 67.0938C418.121 66.7188 418.322 66.1927 418.322 65.5156V65.5C418.322 64.8177 418.121 64.2917 417.72 63.9219C417.319 63.5521 416.756 63.3672 416.033 63.3672H413.033V61.7266H416.525C417.29 61.7266 417.96 61.8828 418.533 62.1953C419.105 62.5078 419.553 62.9479 419.876 63.5156C420.199 64.0781 420.361 64.737 420.361 65.4922V65.5078C420.361 66.2578 420.199 66.9167 419.876 67.4844C419.553 68.0469 419.105 68.487 418.533 68.8047C417.96 69.1172 417.29 69.2734 416.525 69.2734H413.033ZM412.025 73V61.7266H414.04V73H412.025ZM422.267 73V61.7266H424.58L427.97 70.4062H428.103L431.486 61.7266H433.798V73H431.986V64.9844H431.002L433.002 62.0391L428.72 73H427.345L423.072 62.0391L425.072 64.9844H424.08V73H422.267ZM436.26 73V61.7266H443.557V63.4219H438.275V66.4766H443.268V68.0781H438.275V71.3047H443.557V73H436.26ZM445.737 73V61.7266H447.487L453.533 70.2031L452.143 69.4922H453.151V61.7266H455.088V73H453.346L447.299 64.5156L448.69 65.2266H447.682V73H445.737ZM460.362 73V63.4219H456.893V61.7266H465.846V63.4219H462.378V73H460.362Z" fill="white"/>
<path d="M1026.54 67.2812C1025.66 67.2812 1024.9 67.1458 1024.26 66.875C1023.62 66.6042 1023.11 66.2266 1022.74 65.7422C1022.37 65.2578 1022.16 64.6927 1022.12 64.0469L1022.11 63.9375H1024.06L1024.07 64.0156C1024.1 64.3333 1024.23 64.6094 1024.45 64.8438C1024.67 65.0781 1024.97 65.263 1025.34 65.3984C1025.71 65.5286 1026.13 65.5938 1026.6 65.5938C1027.06 65.5938 1027.46 65.5234 1027.81 65.3828C1028.15 65.2422 1028.43 65.0495 1028.63 64.8047C1028.82 64.5547 1028.92 64.2682 1028.92 63.9453V63.9375C1028.92 63.5312 1028.76 63.2005 1028.45 62.9453C1028.13 62.6849 1027.6 62.4766 1026.88 62.3203L1025.66 62.0703C1024.51 61.8255 1023.67 61.4349 1023.14 60.8984C1022.62 60.3568 1022.36 59.6667 1022.36 58.8281V58.8203C1022.36 58.1484 1022.54 57.5599 1022.89 57.0547C1023.25 56.5495 1023.74 56.1562 1024.37 55.875C1025 55.5885 1025.72 55.4453 1026.53 55.4453C1027.37 55.4453 1028.09 55.5859 1028.7 55.8672C1029.31 56.1432 1029.78 56.5208 1030.13 57C1030.48 57.4792 1030.68 58.0208 1030.72 58.625L1030.73 58.7266H1028.81L1028.79 58.6328C1028.74 58.3359 1028.62 58.0781 1028.42 57.8594C1028.23 57.6354 1027.97 57.4583 1027.65 57.3281C1027.33 57.1979 1026.95 57.1328 1026.52 57.1328C1026.1 57.1328 1025.74 57.1979 1025.41 57.3281C1025.09 57.4531 1024.84 57.6302 1024.65 57.8594C1024.47 58.0885 1024.38 58.3646 1024.38 58.6875V58.6953C1024.38 59.0911 1024.53 59.4193 1024.84 59.6797C1025.15 59.9401 1025.66 60.1432 1026.36 60.2891L1027.57 60.5469C1028.36 60.7135 1029.01 60.9349 1029.5 61.2109C1030 61.487 1030.36 61.8307 1030.59 62.2422C1030.82 62.6484 1030.94 63.138 1030.94 63.7109V63.7188C1030.94 64.4479 1030.76 65.0781 1030.4 65.6094C1030.04 66.1406 1029.54 66.5521 1028.88 66.8438C1028.22 67.1354 1027.44 67.2812 1026.54 67.2812ZM1032.88 67V55.7266H1040.18V57.4219H1034.9V60.4766H1039.89V62.0781H1034.9V65.3047H1040.18V67H1032.88ZM1042.36 67V55.7266H1044.38V65.3047H1049.54V67H1042.36ZM1051.4 67V55.7266H1058.59V57.4219H1053.42V60.7578H1058.14V62.3984H1053.42V67H1051.4ZM1060.34 63.3359V61.5703H1065.56V63.3359H1060.34ZM1067.85 67V55.7266H1069.87V60.4141H1075.35V55.7266H1077.36V67H1075.35V62.1094H1069.87V67H1067.85ZM1084.69 67.2812C1083.59 67.2812 1082.64 67.0417 1081.84 66.5625C1081.05 66.0781 1080.43 65.3932 1080 64.5078C1079.57 63.6224 1079.35 62.5755 1079.35 61.3672V61.3516C1079.35 60.138 1079.57 59.0911 1080 58.2109C1080.44 57.3255 1081.06 56.6432 1081.85 56.1641C1082.66 55.6849 1083.6 55.4453 1084.69 55.4453C1085.78 55.4453 1086.73 55.6849 1087.53 56.1641C1088.32 56.6432 1088.94 57.3255 1089.37 58.2109C1089.8 59.0964 1090.02 60.1432 1090.02 61.3516V61.3672C1090.02 62.5755 1089.8 63.6224 1089.37 64.5078C1088.94 65.3932 1088.33 66.0781 1087.53 66.5625C1086.74 67.0417 1085.79 67.2812 1084.69 67.2812ZM1084.69 65.5391C1085.36 65.5391 1085.94 65.3672 1086.43 65.0234C1086.92 64.6797 1087.3 64.1953 1087.57 63.5703C1087.84 62.9453 1087.97 62.2109 1087.97 61.3672V61.3516C1087.97 60.5026 1087.84 59.7682 1087.57 59.1484C1087.3 58.5234 1086.92 58.0417 1086.43 57.7031C1085.94 57.3594 1085.36 57.1875 1084.69 57.1875C1084.02 57.1875 1083.44 57.3594 1082.95 57.7031C1082.46 58.0417 1082.08 58.5234 1081.81 59.1484C1081.54 59.7682 1081.41 60.5026 1081.41 61.3516V61.3672C1081.41 62.2109 1081.54 62.9453 1081.8 63.5703C1082.07 64.1953 1082.44 64.6797 1082.93 65.0234C1083.43 65.3672 1084.01 65.5391 1084.69 65.5391ZM1095.92 67.2812C1095.05 67.2812 1094.29 67.1458 1093.64 66.875C1093 66.6042 1092.5 66.2266 1092.13 65.7422C1091.76 65.2578 1091.55 64.6927 1091.5 64.0469L1091.5 63.9375H1093.45L1093.46 64.0156C1093.49 64.3333 1093.61 64.6094 1093.83 64.8438C1094.05 65.0781 1094.35 65.263 1094.72 65.3984C1095.09 65.5286 1095.51 65.5938 1095.99 65.5938C1096.44 65.5938 1096.84 65.5234 1097.19 65.3828C1097.54 65.2422 1097.81 65.0495 1098.01 64.8047C1098.21 64.5547 1098.31 64.2682 1098.31 63.9453V63.9375C1098.31 63.5312 1098.15 63.2005 1097.83 62.9453C1097.51 62.6849 1096.99 62.4766 1096.26 62.3203L1095.05 62.0703C1093.89 61.8255 1093.05 61.4349 1092.53 60.8984C1092.01 60.3568 1091.75 59.6667 1091.75 58.8281V58.8203C1091.75 58.1484 1091.92 57.5599 1092.28 57.0547C1092.64 56.5495 1093.13 56.1562 1093.75 55.875C1094.38 55.5885 1095.1 55.4453 1095.92 55.4453C1096.75 55.4453 1097.47 55.5859 1098.08 55.8672C1098.69 56.1432 1099.17 56.5208 1099.52 57C1099.87 57.4792 1100.06 58.0208 1100.1 58.625L1100.11 58.7266H1098.19L1098.17 58.6328C1098.13 58.3359 1098.01 58.0781 1097.81 57.8594C1097.61 57.6354 1097.36 57.4583 1097.03 57.3281C1096.71 57.1979 1096.33 57.1328 1095.9 57.1328C1095.49 57.1328 1095.12 57.1979 1094.8 57.3281C1094.48 57.4531 1094.22 57.6302 1094.03 57.8594C1093.85 58.0885 1093.76 58.3646 1093.76 58.6875V58.6953C1093.76 59.0911 1093.91 59.4193 1094.22 59.6797C1094.53 59.9401 1095.04 60.1432 1095.75 60.2891L1096.96 60.5469C1097.75 60.7135 1098.39 60.9349 1098.89 61.2109C1099.38 61.487 1099.74 61.8307 1099.97 62.2422C1100.21 62.6484 1100.32 63.138 1100.32 63.7109V63.7188C1100.32 64.4479 1100.14 65.0781 1099.78 65.6094C1099.43 66.1406 1098.92 66.5521 1098.26 66.8438C1097.6 67.1354 1096.83 67.2812 1095.92 67.2812ZM1105.07 67V57.4219H1101.6V55.7266H1110.56V57.4219H1107.09V67H1105.07ZM1112.36 67V55.7266H1119.65V57.4219H1114.37V60.4766H1119.36V62.0781H1114.37V65.3047H1119.65V67H1112.36ZM1121.83 67V55.7266H1126.06C1127.18 55.7266 1128.13 55.9453 1128.92 56.3828C1129.71 56.8203 1130.31 57.4557 1130.73 58.2891C1131.15 59.1224 1131.36 60.1276 1131.36 61.3047V61.3203C1131.36 62.5234 1131.15 63.5495 1130.74 64.3984C1130.32 65.2422 1129.72 65.888 1128.93 66.3359C1128.14 66.7786 1127.18 67 1126.06 67H1121.83ZM1123.85 65.3047H1125.79C1126.54 65.3047 1127.17 65.151 1127.7 64.8438C1128.23 64.5365 1128.62 64.0885 1128.89 63.5C1129.17 62.9115 1129.31 62.1953 1129.31 61.3516V61.3359C1129.31 60.513 1129.17 59.8099 1128.89 59.2266C1128.61 58.638 1128.21 58.1901 1127.68 57.8828C1127.16 57.5755 1126.53 57.4219 1125.79 57.4219H1123.85V65.3047ZM1137.3 67V55.7266H1141.53C1142.65 55.7266 1143.6 55.9453 1144.39 56.3828C1145.18 56.8203 1145.78 57.4557 1146.2 58.2891C1146.62 59.1224 1146.83 60.1276 1146.83 61.3047V61.3203C1146.83 62.5234 1146.62 63.5495 1146.21 64.3984C1145.79 65.2422 1145.19 65.888 1144.4 66.3359C1143.61 66.7786 1142.65 67 1141.53 67H1137.3ZM1139.32 65.3047H1141.26C1142.01 65.3047 1142.64 65.151 1143.17 64.8438C1143.69 64.5365 1144.09 64.0885 1144.36 63.5C1144.64 62.9115 1144.78 62.1953 1144.78 61.3516V61.3359C1144.78 60.513 1144.64 59.8099 1144.36 59.2266C1144.08 58.638 1143.68 58.1901 1143.15 57.8828C1142.63 57.5755 1142 57.4219 1141.26 57.4219H1139.32V65.3047ZM1148.82 67V55.7266H1156.12V57.4219H1150.84V60.4766H1155.83V62.0781H1150.84V65.3047H1156.12V67H1148.82ZM1159.31 63.2734V61.6484H1162.31C1163.03 61.6484 1163.6 61.4635 1164 61.0938C1164.4 60.7188 1164.6 60.1927 1164.6 59.5156V59.5C1164.6 58.8177 1164.4 58.2917 1164 57.9219C1163.6 57.5521 1163.03 57.3672 1162.31 57.3672H1159.31V55.7266H1162.8C1163.57 55.7266 1164.24 55.8828 1164.81 56.1953C1165.38 56.5078 1165.83 56.9479 1166.15 57.5156C1166.48 58.0781 1166.64 58.737 1166.64 59.4922V59.5078C1166.64 60.2578 1166.48 60.9167 1166.15 61.4844C1165.83 62.0469 1165.38 62.487 1164.81 62.8047C1164.24 63.1172 1163.57 63.2734 1162.8 63.2734H1159.31ZM1158.3 67V55.7266H1160.32V67H1158.3ZM1168.54 67V55.7266H1170.56V65.3047H1175.72V67H1168.54ZM1182.07 67.2812C1180.96 67.2812 1180.01 67.0417 1179.22 66.5625C1178.42 66.0781 1177.81 65.3932 1177.38 64.5078C1176.95 63.6224 1176.73 62.5755 1176.73 61.3672V61.3516C1176.73 60.138 1176.95 59.0911 1177.38 58.2109C1177.82 57.3255 1178.44 56.6432 1179.23 56.1641C1180.03 55.6849 1180.98 55.4453 1182.07 55.4453C1183.16 55.4453 1184.11 55.6849 1184.9 56.1641C1185.7 56.6432 1186.32 57.3255 1186.75 58.2109C1187.18 59.0964 1187.4 60.1432 1187.4 61.3516V61.3672C1187.4 62.5755 1187.18 63.6224 1186.75 64.5078C1186.32 65.3932 1185.71 66.0781 1184.91 66.5625C1184.12 67.0417 1183.17 67.2812 1182.07 67.2812ZM1182.07 65.5391C1182.74 65.5391 1183.32 65.3672 1183.81 65.0234C1184.3 64.6797 1184.68 64.1953 1184.94 63.5703C1185.21 62.9453 1185.35 62.2109 1185.35 61.3672V61.3516C1185.35 60.5026 1185.21 59.7682 1184.94 59.1484C1184.68 58.5234 1184.3 58.0417 1183.81 57.7031C1183.32 57.3594 1182.74 57.1875 1182.07 57.1875C1181.4 57.1875 1180.82 57.3594 1180.33 57.7031C1179.84 58.0417 1179.46 58.5234 1179.19 59.1484C1178.92 59.7682 1178.79 60.5026 1178.79 61.3516V61.3672C1178.79 62.2109 1178.92 62.9453 1179.18 63.5703C1179.44 64.1953 1179.82 64.6797 1180.31 65.0234C1180.81 65.3672 1181.39 65.5391 1182.07 65.5391ZM1191.88 67V62.5547L1187.93 55.7266H1190.13L1192.82 60.5625H1192.95L1195.64 55.7266H1197.84L1193.89 62.5547V67H1191.88ZM1199.46 67V55.7266H1201.77L1205.16 64.4062H1205.3L1208.68 55.7266H1210.99V67H1209.18V58.9844H1208.19L1210.19 56.0391L1205.91 67H1204.54L1200.26 56.0391L1202.26 58.9844H1201.27V67H1199.46ZM1213.45 67V55.7266H1220.75V57.4219H1215.47V60.4766H1220.46V62.0781H1215.47V65.3047H1220.75V67H1213.45ZM1222.93 67V55.7266H1224.68L1230.73 64.2031L1229.34 63.4922H1230.34V55.7266H1232.28V67H1230.54L1224.49 58.5156L1225.88 59.2266H1224.87V67H1222.93ZM1237.55 67V57.4219H1234.09V55.7266H1243.04V57.4219H1239.57V67H1237.55Z" fill="white"/>
<path d="M1031.41 357V345.727H1035.64C1036.76 345.727 1037.71 345.945 1038.5 346.383C1039.29 346.82 1039.9 347.456 1040.31 348.289C1040.74 349.122 1040.95 350.128 1040.95 351.305V351.32C1040.95 352.523 1040.74 353.549 1040.32 354.398C1039.9 355.242 1039.3 355.888 1038.51 356.336C1037.72 356.779 1036.77 357 1035.64 357H1031.41ZM1033.43 355.305H1035.38C1036.12 355.305 1036.76 355.151 1037.28 354.844C1037.81 354.536 1038.21 354.089 1038.48 353.5C1038.75 352.911 1038.89 352.195 1038.89 351.352V351.336C1038.89 350.513 1038.75 349.81 1038.47 349.227C1038.19 348.638 1037.79 348.19 1037.27 347.883C1036.74 347.576 1036.11 347.422 1035.38 347.422H1033.43V355.305ZM1047.8 357.281C1046.69 357.281 1045.74 357.042 1044.95 356.562C1044.15 356.078 1043.54 355.393 1043.11 354.508C1042.68 353.622 1042.46 352.576 1042.46 351.367V351.352C1042.46 350.138 1042.68 349.091 1043.11 348.211C1043.55 347.326 1044.17 346.643 1044.96 346.164C1045.76 345.685 1046.71 345.445 1047.8 345.445C1048.89 345.445 1049.84 345.685 1050.63 346.164C1051.43 346.643 1052.05 347.326 1052.48 348.211C1052.91 349.096 1053.13 350.143 1053.13 351.352V351.367C1053.13 352.576 1052.91 353.622 1052.48 354.508C1052.05 355.393 1051.44 356.078 1050.64 356.562C1049.84 357.042 1048.9 357.281 1047.8 357.281ZM1047.8 355.539C1048.47 355.539 1049.05 355.367 1049.54 355.023C1050.03 354.68 1050.41 354.195 1050.67 353.57C1050.94 352.945 1051.08 352.211 1051.08 351.367V351.352C1051.08 350.503 1050.94 349.768 1050.67 349.148C1050.41 348.523 1050.03 348.042 1049.54 347.703C1049.05 347.359 1048.47 347.188 1047.8 347.188C1047.13 347.188 1046.55 347.359 1046.06 347.703C1045.57 348.042 1045.19 348.523 1044.92 349.148C1044.65 349.768 1044.52 350.503 1044.52 351.352V351.367C1044.52 352.211 1044.65 352.945 1044.91 353.57C1045.17 354.195 1045.55 354.68 1046.04 355.023C1046.53 355.367 1047.12 355.539 1047.8 355.539ZM1054.38 357V355.656L1060.31 347.555V347.422H1054.55V345.727H1062.81V347.062L1056.9 355.172V355.305H1062.95V357H1054.38ZM1065.11 357V345.727H1072.41V347.422H1067.13V350.477H1072.12V352.078H1067.13V355.305H1072.41V357H1065.11ZM1074.59 357V345.727H1079.14C1079.95 345.727 1080.64 345.87 1081.22 346.156C1081.8 346.443 1082.24 346.846 1082.55 347.367C1082.86 347.888 1083.01 348.508 1083.01 349.227V349.242C1083.01 349.987 1082.82 350.648 1082.45 351.227C1082.08 351.799 1081.56 352.206 1080.89 352.445L1083.35 357H1081.06L1078.84 352.758C1078.83 352.758 1078.81 352.758 1078.79 352.758C1078.77 352.758 1078.75 352.758 1078.74 352.758H1076.6V357H1074.59ZM1076.6 351.211H1078.93C1079.57 351.211 1080.07 351.042 1080.42 350.703C1080.78 350.365 1080.96 349.893 1080.96 349.289V349.273C1080.96 348.685 1080.77 348.219 1080.4 347.875C1080.04 347.526 1079.53 347.352 1078.89 347.352H1076.6V351.211ZM1093.79 357.281C1092.72 357.281 1091.8 357.042 1091.03 356.562C1090.26 356.083 1089.66 355.404 1089.24 354.523C1088.82 353.638 1088.61 352.589 1088.61 351.375V351.359C1088.61 350.141 1088.82 349.091 1089.24 348.211C1089.66 347.326 1090.26 346.643 1091.03 346.164C1091.8 345.685 1092.72 345.445 1093.78 345.445C1094.64 345.445 1095.41 345.615 1096.1 345.953C1096.78 346.286 1097.34 346.75 1097.78 347.344C1098.21 347.932 1098.47 348.609 1098.56 349.375L1098.55 349.438H1096.58L1096.57 349.398C1096.48 348.956 1096.3 348.57 1096.04 348.242C1095.78 347.909 1095.46 347.651 1095.07 347.469C1094.69 347.281 1094.26 347.188 1093.78 347.188C1093.15 347.188 1092.6 347.357 1092.13 347.695C1091.66 348.034 1091.3 348.516 1091.04 349.141C1090.79 349.76 1090.67 350.497 1090.67 351.352V351.367C1090.67 352.221 1090.79 352.961 1091.04 353.586C1091.3 354.211 1091.66 354.693 1092.13 355.031C1092.6 355.37 1093.15 355.539 1093.79 355.539C1094.27 355.539 1094.7 355.456 1095.08 355.289C1095.47 355.122 1095.79 354.888 1096.04 354.586C1096.3 354.279 1096.48 353.919 1096.57 353.508L1096.59 353.461H1098.56V353.523C1098.46 354.273 1098.2 354.93 1097.77 355.492C1097.34 356.055 1096.79 356.495 1096.11 356.812C1095.43 357.125 1094.66 357.281 1093.79 357.281ZM1100.49 357V345.727H1102.5V355.305H1107.67V357H1100.49ZM1114.01 357.281C1112.91 357.281 1111.96 357.042 1111.16 356.562C1110.37 356.078 1109.76 355.393 1109.32 354.508C1108.89 353.622 1108.68 352.576 1108.68 351.367V351.352C1108.68 350.138 1108.89 349.091 1109.32 348.211C1109.76 347.326 1110.38 346.643 1111.18 346.164C1111.98 345.685 1112.92 345.445 1114.01 345.445C1115.1 345.445 1116.05 345.685 1116.85 346.164C1117.64 346.643 1118.26 347.326 1118.69 348.211C1119.12 349.096 1119.34 350.143 1119.34 351.352V351.367C1119.34 352.576 1119.12 353.622 1118.69 354.508C1118.26 355.393 1117.65 356.078 1116.85 356.562C1116.06 357.042 1115.11 357.281 1114.01 357.281ZM1114.01 355.539C1114.68 355.539 1115.26 355.367 1115.75 355.023C1116.24 354.68 1116.62 354.195 1116.89 353.57C1117.16 352.945 1117.29 352.211 1117.29 351.367V351.352C1117.29 350.503 1117.16 349.768 1116.89 349.148C1116.62 348.523 1116.24 348.042 1115.75 347.703C1115.26 347.359 1114.68 347.188 1114.01 347.188C1113.34 347.188 1112.76 347.359 1112.27 347.703C1111.78 348.042 1111.4 348.523 1111.13 349.148C1110.86 349.768 1110.73 350.503 1110.73 351.352V351.367C1110.73 352.211 1110.86 352.945 1111.12 353.57C1111.39 354.195 1111.76 354.68 1112.25 355.023C1112.75 355.367 1113.33 355.539 1114.01 355.539ZM1125.96 357.281C1125.01 357.281 1124.19 357.107 1123.5 356.758C1122.8 356.409 1122.27 355.922 1121.89 355.297C1121.51 354.672 1121.32 353.945 1121.32 353.117V345.727H1123.33V352.953C1123.33 353.469 1123.43 353.922 1123.64 354.312C1123.84 354.698 1124.14 355 1124.53 355.219C1124.93 355.432 1125.4 355.539 1125.96 355.539C1126.52 355.539 1127 355.432 1127.39 355.219C1127.78 355 1128.07 354.698 1128.28 354.312C1128.48 353.922 1128.58 353.469 1128.58 352.953V345.727H1130.59V353.117C1130.59 353.945 1130.4 354.672 1130.03 355.297C1129.65 355.922 1129.12 356.409 1128.43 356.758C1127.74 357.107 1126.91 357.281 1125.96 357.281ZM1133.04 357V345.727H1137.27C1138.39 345.727 1139.34 345.945 1140.13 346.383C1140.92 346.82 1141.52 347.456 1141.94 348.289C1142.36 349.122 1142.57 350.128 1142.57 351.305V351.32C1142.57 352.523 1142.37 353.549 1141.95 354.398C1141.53 355.242 1140.93 355.888 1140.14 356.336C1139.35 356.779 1138.39 357 1137.27 357H1133.04ZM1135.06 355.305H1137C1137.75 355.305 1138.38 355.151 1138.91 354.844C1139.44 354.536 1139.83 354.089 1140.11 353.5C1140.38 352.911 1140.52 352.195 1140.52 351.352V351.336C1140.52 350.513 1140.38 349.81 1140.1 349.227C1139.82 348.638 1139.42 348.19 1138.89 347.883C1138.37 347.576 1137.74 347.422 1137 347.422H1135.06V355.305ZM1148.51 357V345.727H1152.74C1153.86 345.727 1154.81 345.945 1155.6 346.383C1156.39 346.82 1156.99 347.456 1157.41 348.289C1157.83 349.122 1158.04 350.128 1158.04 351.305V351.32C1158.04 352.523 1157.84 353.549 1157.42 354.398C1157 355.242 1156.4 355.888 1155.61 356.336C1154.82 356.779 1153.86 357 1152.74 357H1148.51ZM1150.53 355.305H1152.47C1153.22 355.305 1153.85 355.151 1154.38 354.844C1154.91 354.536 1155.3 354.089 1155.57 353.5C1155.85 352.911 1155.99 352.195 1155.99 351.352V351.336C1155.99 350.513 1155.85 349.81 1155.57 349.227C1155.29 348.638 1154.89 348.19 1154.36 347.883C1153.84 347.576 1153.21 347.422 1152.47 347.422H1150.53V355.305ZM1160.04 357V345.727H1167.33V347.422H1162.05V350.477H1167.04V352.078H1162.05V355.305H1167.33V357H1160.04ZM1170.52 353.273V351.648H1173.52C1174.24 351.648 1174.81 351.464 1175.21 351.094C1175.61 350.719 1175.81 350.193 1175.81 349.516V349.5C1175.81 348.818 1175.61 348.292 1175.21 347.922C1174.81 347.552 1174.24 347.367 1173.52 347.367H1170.52V345.727H1174.01C1174.78 345.727 1175.45 345.883 1176.02 346.195C1176.59 346.508 1177.04 346.948 1177.36 347.516C1177.69 348.078 1177.85 348.737 1177.85 349.492V349.508C1177.85 350.258 1177.69 350.917 1177.36 351.484C1177.04 352.047 1176.59 352.487 1176.02 352.805C1175.45 353.117 1174.78 353.273 1174.01 353.273H1170.52ZM1169.51 357V345.727H1171.53V357H1169.51ZM1179.76 357V345.727H1181.77V355.305H1186.93V357H1179.76ZM1193.28 357.281C1192.17 357.281 1191.22 357.042 1190.43 356.562C1189.64 356.078 1189.02 355.393 1188.59 354.508C1188.16 353.622 1187.94 352.576 1187.94 351.367V351.352C1187.94 350.138 1188.16 349.091 1188.59 348.211C1189.03 347.326 1189.65 346.643 1190.44 346.164C1191.25 345.685 1192.19 345.445 1193.28 345.445C1194.37 345.445 1195.32 345.685 1196.12 346.164C1196.91 346.643 1197.53 347.326 1197.96 348.211C1198.39 349.096 1198.61 350.143 1198.61 351.352V351.367C1198.61 352.576 1198.39 353.622 1197.96 354.508C1197.53 355.393 1196.92 356.078 1196.12 356.562C1195.33 357.042 1194.38 357.281 1193.28 357.281ZM1193.28 355.539C1193.95 355.539 1194.53 355.367 1195.02 355.023C1195.51 354.68 1195.89 354.195 1196.15 353.57C1196.42 352.945 1196.56 352.211 1196.56 351.367V351.352C1196.56 350.503 1196.42 349.768 1196.15 349.148C1195.89 348.523 1195.51 348.042 1195.02 347.703C1194.53 347.359 1193.95 347.188 1193.28 347.188C1192.61 347.188 1192.03 347.359 1191.54 347.703C1191.05 348.042 1190.67 348.523 1190.4 349.148C1190.13 349.768 1190 350.503 1190 351.352V351.367C1190 352.211 1190.13 352.945 1190.39 353.57C1190.65 354.195 1191.03 354.68 1191.52 355.023C1192.02 355.367 1192.6 355.539 1193.28 355.539ZM1203.09 357V352.555L1199.14 345.727H1201.34L1204.03 350.562H1204.16L1206.85 345.727H1209.05L1205.1 352.555V357H1203.09ZM1210.67 357V345.727H1212.98L1216.37 354.406H1216.51L1219.89 345.727H1222.2V357H1220.39V348.984H1219.4L1221.4 346.039L1217.12 357H1215.75L1211.48 346.039L1213.48 348.984H1212.48V357H1210.67ZM1224.66 357V345.727H1231.96V347.422H1226.68V350.477H1231.67V352.078H1226.68V355.305H1231.96V357H1224.66ZM1234.14 357V345.727H1235.89L1241.94 354.203L1240.55 353.492H1241.55V345.727H1243.49V357H1241.75L1235.7 348.516L1237.09 349.227H1236.09V357H1234.14ZM1248.76 357V347.422H1245.3V345.727H1254.25V347.422H1250.78V357H1248.76Z" fill="white"/>
</svg>
